<?xml version="1.0" encoding="utf-8"?>
<!-- Generator: Adobe Illustrator 19.0.0, SVG Export Plug-In . SVG Version: 6.00 Build 0)  -->
<svg version="1.1" id="edfeb08d-cf64-4dc3-bad9-eda805eddb33"
	 xmlns="http://www.w3.org/2000/svg" xmlns:xlink="http://www.w3.org/1999/xlink" x="0px" y="0px" viewBox="46 53 1200 734"
	 style="enable-background:new 46 53 1200 734;" xml:space="preserve">
<style type="text/css">
	.st0{fill:#3F3D56;}
	.st1{fill:#FCC911;}
	.st2{opacity:0.3;fill:#FCC911;enable-background:new    ;}
	.st3{opacity:0.1;enable-background:new    ;}
</style>
<title>personal text</title>
<polygon class="st0" points="472,483.4 61.9,483.4 61.9,618 77.4,618 77.4,653.2 112.6,618 472,618 "/>
<polygon class="st0" points="326.1,633.4 646,633.4 646,738.4 633.9,738.4 633.9,765.9 606.4,738.4 326.1,738.4 "/>
<rect x="355.1" y="649.2" class="st1" width="245.6" height="9.7"/>
<rect x="355.1" y="667.7" class="st1" width="122.8" height="9.7"/>
<circle class="st1" cx="368.9" cy="705.7" r="13.7"/>
<rect x="109.5" y="505.6" class="st2" width="314.8" height="12.4"/>
<rect x="109.5" y="529.4" class="st2" width="157.4" height="12.4"/>
<circle class="st2" cx="110.3" cy="597.5" r="13.1"/>
<circle class="st0" cx="1084.6" cy="252.1" r="60.6"/>
<path class="st1" d="M1110.9,267.4c-2.1-2.1-7.3-5.2-9.8-6.3c-2.9-1.3-4-1.3-6,0.2c-1.7,1.2-2.8,2.4-4.7,2c-2-0.4-5.9-3.3-9.7-7
	c-3.8-3.7-6.8-7.5-7.2-9.5c-0.4-2,0.7-3.1,1.9-4.8c1.4-2.1,1.5-3.1,0-6c-1.3-2.5-4.5-7.5-6.6-9.6c-2.2-2.1-2.6-1.6-3.8-1.2
	c-1.2,0.5-2.3,1.1-3.4,1.9c-2.1,1.4-3.2,2.6-4.1,4.4c-0.8,1.8-1.7,5.1,3.3,13.6c3.7,6.5,8.3,12.5,13.7,17.6l0,0l0,0
	c5.4,5.2,11.5,9.7,18.1,13.1c8.7,4.7,11.9,3.7,13.7,2.8c1.8-0.9,2.9-2,4.3-4.2c0.7-1.1,1.3-2.3,1.8-3.5
	C1112.6,269.9,1113,269.4,1110.9,267.4z"/>
<path class="st3" d="M1083.7,191.6c-33.5,0.5-60.2,28-59.7,61.5c0.5,33.5,28,60.2,61.5,59.7c33.5-0.5,60.2-28,59.7-61.5
	c0,0,0,0,0-0.1C1144.6,217.8,1117.1,191.1,1083.7,191.6z M1085.4,304.6c-29,0.4-52.9-22.7-53.3-51.7s22.7-52.9,51.7-53.3
	c29-0.4,52.9,22.7,53.3,51.7v0C1137.6,280.3,1114.4,304.2,1085.4,304.6L1085.4,304.6L1085.4,304.6z"/>
<circle class="st0" cx="1085.4" cy="494.3" r="60.6"/>
<path class="st1" d="M1119.8,476l-18.1,18.4c-0.1,0.1-0.1,0.3,0,0.5c0,0,0,0,0,0l12.7,13.5c0.9,0.9,0.8,2.2,0,3.1
	c-0.4,0.4-1,0.6-1.5,0.6c-0.6,0-1.1-0.2-1.6-0.6l-12.7-13.5c-0.1-0.1-0.4-0.1-0.5,0l-3.1,3.1c-2.6,2.6-6,4.1-9.7,4.1
	c-3.7,0-7.3-1.5-9.9-4.2l-3-3c-0.1-0.1-0.4-0.1-0.5,0l-12.6,13.4c-0.9,0.9-2.2,0.9-3.1,0c0,0,0,0,0,0c-0.9-0.8-0.9-2.2,0-3.1
	c0,0,0,0,0,0l12.7-13.5c0.1-0.1,0.1-0.3,0-0.5l-18.1-18.4c-0.1-0.1-0.3-0.1-0.5,0c-0.1,0.1-0.1,0.1-0.1,0.2v36.9
	c0,3,2.4,5.4,5.4,5.4h59.3c3,0,5.4-2.4,5.4-5.4v-36.9c0-0.2-0.1-0.3-0.3-0.3C1120,475.9,1119.9,475.9,1119.8,476z"/>
<path class="st1" d="M1085.4,500.9c2.5,0,4.9-1,6.6-2.7l26.4-26.9c-0.9-0.8-2.1-1.2-3.3-1.2h-59.3c-1.2,0-2.4,0.4-3.3,1.2l26.4,26.9
	C1080.6,499.9,1082.9,500.9,1085.4,500.9z"/>
<path class="st3" d="M1084.6,433.7c-33.5,0-60.6,27.1-60.6,60.6s27.1,60.6,60.6,60.6c33.5,0,60.6-27.1,60.6-60.6c0,0,0,0,0-0.1
	C1145.2,460.8,1118.1,433.7,1084.6,433.7z M1084.6,546.8c-29,0-52.5-23.5-52.5-52.5c0-29,23.5-52.5,52.5-52.5s52.5,23.5,52.5,52.5
	l0,0C1137.1,523.3,1113.6,546.8,1084.6,546.8z"/>
<circle class="st0" cx="211.8" cy="246.2" r="60.6"/>
<path class="st1" d="M220.5,218.6l-39.8,45.8l1.5,2.8l23.8-2.6l18,15.8l2.8-1.5L220.5,218.6z"/>
<path class="st3" d="M230,188.5c-31.9-10.1-65.9,7.6-76,39.5s7.6,65.9,39.5,76s65.9-7.6,76-39.5c0,0,0,0,0,0
	C279.6,232.6,261.9,198.6,230,188.5z M196,296.3c-27.7-8.7-43-38.2-34.2-65.9c8.7-27.7,38.2-43,65.9-34.2
	c27.7,8.7,43,38.2,34.2,65.9c0,0,0,0,0,0C253.1,289.7,223.6,305,196,296.3L196,296.3z"/>
</svg>
