<?xml version="1.0" encoding="utf-8"?>
<!-- Generator: Adobe Illustrator 21.0.2, SVG Export Plug-In . SVG Version: 6.00 Build 0)  -->
<svg version="1.1" xmlns="http://www.w3.org/2000/svg" xmlns:xlink="http://www.w3.org/1999/xlink" x="0px" y="0px"
	 viewBox="0 0 1920 1080" style="enable-background:new 0 0 1920 1080;" xml:space="preserve">
<style type="text/css">
	.st0{fill:#57B894;}
	.st1{fill:none;stroke:#3F3D56;stroke-width:5;stroke-miterlimit:10;}
	.st2{fill:none;stroke:#6D6D77;stroke-width:5;stroke-miterlimit:10;}
	.st3{fill:none;stroke:#6D6D77;stroke-miterlimit:10;}
</style>
<g id="Layer_1">
	<path class="st0" d="M23.1,354.3c209.3,42,271.4,101.7,286.5,151.3c4.5,15,9.1,43.1,32.5,58.2c37.6,24.2,80.2-13.3,135.2-17
		c98.8-6.6,123.8,103.3,229.6,137.7c137.8,44.8,202.4-107.1,345-77.6c144.4,29.9,136.6,197.5,317.3,248.7
		c91.8,26,217,17.5,242.1-39.4c6-13.6,10.7-40-16.1-86.2"/>
	<g>
		<g>
			<path class="st0" d="M958.7-6.2c-10.3-25.6-18.5-46.1-39.5-65.5c-8.2-7.6-17.9-14.2-26.8-20.9c-1.1-0.8-2.2-1.6-3.3-2.4
				c-2.9-1.9-6-3.6-9.2-5c-14.7-6.7-29.8-13.5-45.4-18.2c-7.9-2.4-15.9-4.8-23.8-7.1c-34.3-10.2-68.5-20.4-102.8-30.7
				c-18.9-5.6-38.4-10.3-56.9-17.1c9.6,4,19.1,8.1,28.7,12.1c-1.7-0.7-3.2-1.5-4.6-2.6c8.1,6.3,16.2,12.5,24.3,18.8
				c-0.3-0.3-0.6-0.6-0.9-0.9c6.3,8.1,12.5,16.2,18.8,24.3c-0.6-0.6-1-1.3-1.3-2c4,9.6,8.1,19.1,12.1,28.7c-0.1-0.4-0.2-0.7-0.3-1.1
				c1.4,10.6,2.9,21.3,4.3,31.9c-0.2-0.7-0.2-1.5-0.1-2.2c-1.4,10.6-2.9,21.3-4.3,31.9c0.1-0.7,0.2-1.4,0.5-2.1
				c-4,9.6-8.1,19.1-12.1,28.7c0.2-0.3,0.3-0.6,0.5-0.9c-6.3,8.1-12.5,16.2-18.8,24.3c0.4-0.6,0.8-1.1,1.4-1.4
				c-8.1,6.3-16.2,12.5-24.3,18.8c0.3-0.1,0.6-0.3,0.9-0.4c-9.6,4-19.1,8.1-28.7,12.1c0.3-0.1,0.7-0.1,1-0.2
				c15.6-3.7,29.2-10.9,40.8-21.5c13.1-8.5,23.4-19.7,30.9-33.7c8.8-13.8,13.5-28.6,14.2-44.6c3.6-16,2.9-31.9-2.1-47.9
				c-4-9.6-8.1-19.1-12.1-28.7c-10.7-18-25-32.4-43.1-43.1c-9.6-4-19.1-8.1-28.7-12.1c-21.3-5.7-42.5-5.7-63.8,0
				c-5.8,1-5.6,2.1-15.4,6.2c2.2-0.9-10.8,4.1-15.2,6.5c-19.3,10.3-23.7,17.6-35.1,32.3c-8.4,10.8-6.9,7.9-9.9,13.1
				c-1.6,2.9-11.3,26.2-12.3,29.2c-3.6,11.2-5.2,23.4-4.6,35.2c0.1,2.9,3.6,29.5,4.4,32.5c1.4,5.2,5.6,13.5,6.4,15.4
				c7.3,17.4,10.1,25.6,26.1,40.6c4.3,4,5.1,4.2,13.1,10.3c-5.3-4.1,9.2,7.8,13.2,10.2c5.4,3.3,12.7,5.7,17.9,7.9
				c12.4,5.2,24.3,9.2,37.1,13c8.5,2.5,17,5.1,25.6,7.6c33.4,10,66.9,19.9,100.3,29.9c16.5,4.9,33.7,9,49.6,15.7
				c-9.6-4-19.1-8.1-28.7-12.1c5.1,2.3,10,4.9,14.5,8.3c-8.1-6.3-16.2-12.5-24.3-18.8c2.4,2,4.6,4.1,6.6,6.6
				c-6.3-8.1-12.5-16.2-18.8-24.3c1.6,2.2,3,4.4,4.1,6.9c-4-9.6-8.1-19.1-12.1-28.7c0.2,0.4,0.3,0.9,0.5,1.3
				c3.7,15.6,10.9,29.2,21.5,40.8c8.5,13.1,19.7,23.4,33.7,30.9c13.8,8.8,28.6,13.5,44.6,14.2c16,3.6,31.9,2.9,47.9-2.1
				c9.6-4,19.1-8.1,28.7-12.1c18-10.7,32.4-25,43.1-43.1c4-9.6,8.1-19.1,12.1-28.7C964.4,36.3,964.4,15,958.7-6.2L958.7-6.2z"/>
		</g>
	</g>
	<g>
		<g>
			<path class="st0" d="M804.8,121.3c15.7,10.3,32,19.5,49,27.4c25.2,11.8,51.1,22.9,77.7,31.3c17.3,5.5,35,9.8,52.9,12.8
				c14.6,2.5,29.5,4.5,44.1,6.2c13.5,1.6,30.1-1.2,41.8-4.1c22.4-5.5,43.8-18.1,60-34.4c8.1-8.2,15.4-17.7,21.1-27.8
				c0.9-1.7,1.7-3.3,2.9-4.8c-6.3,8.1-12.5,16.2-18.8,24.3c0.3-0.3,0.7-0.7,1-1c-8.1,6.3-16.2,12.5-24.3,18.8
				c0.7-0.6,1.6-1.1,2.5-1.4c-9.6,4-19.1,8.1-28.7,12.1c0.9-0.3,1.8-0.5,2.8-0.6c-10.6,1.4-21.3,2.9-31.9,4.3c2-0.1,3.9,0,5.9,0.2
				c-10.6-1.4-21.3-2.9-31.9-4.3c40.4,6.2,80.2,17.9,117.8,33.8c-9.6-4-19.1-8.1-28.7-12.1c14.5,6.1,28.6,12.9,42.5,20.3
				c0-69.1,0-138.2,0-207.2c-3.4,2.2-7,4.1-10.7,5.7c9.6-4,19.1-8.1,28.7-12.1c-6.1,2.5-12.4,4.3-19,5.2c10.6-1.4,21.3-2.9,31.9-4.3
				c-7.1,0.9-14.1,1-21.2,0.1c10.6,1.4,21.3,2.9,31.9,4.3c-6.6-0.9-12.9-2.6-19-5.1c9.6,4,19.1,8.1,28.7,12.1
				c-4.7-2-9.1-4.4-13.3-7.2c0,69.1,0,138.2,0,207.2c4.8-3.3,9.8-6,15.1-8.2c-9.6,4-19.1,8.1-28.7,12.1c13.3-5.4,27.3-7.9,41.5-9.8
				c-10.6,1.4-21.3,2.9-31.9,4.3c18.9-2.5,37.9-4.8,56.8-7.5c9-1.3,18-3,26.8-5.6c28-8.4,53.4-23.2,80.1-34.8
				c-9.6,4-19.1,8.1-28.7,12.1c10.5-4.4,21.2-7.5,32.5-9.1c-10.6,1.4-21.3,2.9-31.9,4.3c23.1-2.8,46.4-0.1,69.5,1.7
				c24.5,2,49,4,73.4,6.2c48.2,4.3,96.5,9,144.6,14.2c27.5,2.9,54.9,6.1,82.3,9.7c-10.6-1.4-21.3-2.9-31.9-4.3
				c21,2.8,42,5.9,62.8,9.7c18.6,3.4,37.1,7.7,54.6,15c-9.6-4-19.1-8.1-28.7-12.1c9.3,4,18.3,8.7,26.3,14.7
				c-8.1-6.3-16.2-12.5-24.3-18.8c2.9,2.3,5.5,4.8,7.8,7.7c-6.3-8.1-12.5-16.2-18.8-24.3c1.3,1.8,2.3,3.6,3.2,5.6
				c-4-9.6-8.1-19.1-12.1-28.7c1.1,2.8,1.8,5.5,2.3,8.4c-1.4-10.6-2.9-21.3-4.3-31.9c1.9,14.9,1,30.4,1.2,45.4
				c0.2,15.7,0.4,31.3,0.6,47c0.2,15.3,0.4,30.7,0.6,46c0.2,15,1.7,30.6,0.2,45.5c1.4-10.6,2.9-21.3,4.3-31.9c-0.3,2.1-0.8,4-1.4,6
				c4-9.6,8.1-19.1,12.1-28.7c-0.7,1.8-1.6,3.3-2.7,4.8c6.3-8.1,12.5-16.2,18.8-24.3c-0.8,0.9-1.6,1.7-2.5,2.6
				c8.1-6.3,16.2-12.5,24.3-18.8c-1.6,1.2-3.3,2.2-5.2,3c9.6-4,19.1-8.1,28.7-12.1c-2,0.7-3.9,1.2-6,1.5c10.6-1.4,21.3-2.9,31.9-4.3
				c-2.6,0.3-5.1,0.2-7.7-0.1c10.6,1.4,21.3,2.9,31.9,4.3c-3-0.5-5.9-1.2-8.7-2.4c9.6,4,19.1,8.1,28.7,12.1
				c-3.3-1.5-6.2-3.4-9.1-5.5c8.1,6.3,16.2,12.5,24.3,18.8c-7.6-5.9-13.8-13.2-21.1-19.6c-9.1-8-19.1-15.2-28.8-22.5
				c-2-1.5-4-3-6.1-4.4c-4.2-2.8-8.5-5.3-12.9-7.7c-17.9-9.8-35.9-18.2-52.1-30.8c8.1,6.3,16.2,12.5,24.3,18.8
				c-19.3-15-37.8-31.3-58.4-44.3c-12.2-7.7-25.2-13.9-38.3-19.7c-36.8-16.3-74-31.9-111.5-46.7c-28.2-11.1-56.7-21.4-85.9-29.8
				c-39.2-11.3-78.9-17.8-119.4-22.3c-44.2-4.9-87.5-0.9-131.3,6.6c-15.6,3.7-29.2,10.9-40.8,21.5c-13.1,8.5-23.4,19.7-30.9,33.7
				c-8.8,13.8-13.5,28.6-14.2,44.6c-3.6,16-2.9,31.9,2.1,47.9c4,9.6,8.1,19.1,12.1,28.7c10.7,18,25,32.4,43.1,43.1
				c9.6,4,19.1,8.1,28.7,12.1c21.3,5.7,42.5,5.7,63.8,0c4.3-0.7,8.6-1.4,12.9-2c-10.6,1.4-21.3,2.9-31.9,4.3
				c31.8-4.1,63.9-3.4,95.7,0.8c-10.6-1.4-21.3-2.9-31.9-4.3c73.6,10,143.4,37.4,211.5,66.1c-9.6-4-19.1-8.1-28.7-12.1
				c31.7,13.4,63.8,26.1,91.2,47.3c-8.1-6.3-16.2-12.5-24.3-18.8c21.8,17,42.7,35.9,67,49.2c15.2,8.3,31.2,15.1,45.1,25.6
				c-8.1-6.3-16.2-12.5-24.3-18.8c5.2,4.1,9.9,8.8,14.6,13.4c11.9,11.7,25.2,22.6,39.2,31.4c12.8,8,27.5,14.6,42.5,17.2
				c26.9,4.7,50.7,7.4,77.4-1.4c6.6-2.2,24.4-8.4,33.8-15.1c21.1-14.9,32.7-24.1,46.3-46.6c14-23.2,19.4-48.4,20.1-75.2
				c0.5-16.2-0.4-32.5-0.6-48.7c-0.4-32.7-0.9-65.3-1.3-98c-0.1-7.8-0.1-15.7-0.3-23.5c-0.8-28.8-6.1-54.1-20-79.4
				c-13.8-25-31-38.3-53.3-54.7c-5.4-3.9-11.1-7.4-17-10.4c-21.3-10.8-44-20.1-67.3-26c-14.3-3.6-28.8-6.1-43.3-8.4
				c-41.7-6.8-83.7-12.2-125.7-17c-64.5-7.4-129.1-13.6-193.8-19.2c-18.5-1.6-37-3.2-55.6-4.7c-17-1.4-34.1-3.1-51.2-3.1
				c-18.7,0.1-37.4,3.1-55.8,6c-8.3,1.3-16.3,3.5-24.1,6.6c-16.7,6.5-33.1,13.5-49.2,21.4c-7.3,3.6-14.6,7.2-22,10.4
				c9.6-4,19.1-8.1,28.7-12.1c-14.3,5.9-29.1,9-44.4,11.1c10.6-1.4,21.3-2.9,31.9-4.3c-24.2,3.2-48.7,5.2-72.6,10.2
				c-6.6,1.4-13.2,3.2-19.6,5.6c-14.9,5.8-32.2,11.8-46,21.2c-18,10.7-32.4,25-43.1,43.1c-10.9,18.7-16.3,38.9-16.4,60.6
				c0.1,21.7,5.5,41.8,16.4,60.6c10.7,18,25,32.4,43.1,43.1c3.4,2.3,6.8,4.3,10.5,6c12.5,5.8,25.3,11.9,38.6,15.8
				c3.4,1,6.9,1.7,10.4,2.3c13.6,2.2,28.3,5,42.5,5.2c4.1,0.1,8.1-0.3,12.1-0.8c11.4-1.4,28-2.7,40.8-6.1
				c17.2-4.6,34.4-11.7,49.4-21.3c18-10.7,32.4-25,43.1-43.1c10.9-18.7,16.3-38.9,16.4-60.6c0-41-22.6-83.9-59.4-103.6
				c-24.1-12.9-49.2-23.4-74.5-33.8c-15.9-6.6-32.1-12.4-48.6-17.3c-16.5-4.9-33.2-9.1-50.1-12.3c-17.5-3.4-35.8-8-53.6-7.3
				c-23,0.9-43.3,5.3-63.3,17c-0.9,0.3-1.7,0.8-2.5,1.4c-8.1,6.3-16.2,12.5-24.3,18.8c-11,10.1-16.7,21-24.1,32.5
				c6.3-8.1,12.5-16.2,18.8-24.3c-0.5,0.8-1.1,1.4-1.9,2c8.1-6.3,16.2-12.5,24.3-18.8c-0.7,0.6-1.4,1-2.2,1.4
				c9.6-4,19.1-8.1,28.7-12.1c-1.3,0.5-2.5,0.9-3.9,1.2c10.6-1.4,21.3-2.9,31.9-4.3c-3.3,0.4-6.6,0.2-9.9-0.2
				c10.6,1.4,21.3,2.9,31.9,4.3c-34.3-4.8-67.7-14-99.6-27.4c9.6,4,19.1,8.1,28.7,12.1c-22.1-9.4-43.3-20.7-63.4-33.9
				c-13.8-8.8-28.6-13.5-44.6-14.2c-16-3.6-31.9-2.9-47.9,2.1c-15.6,3.7-29.2,10.9-40.8,21.5c-13.1,8.5-23.4,19.7-30.9,33.7
				c-4,9.6-8.1,19.1-12.1,28.7c-5.7,21.3-5.7,42.5,0,63.8c4,9.6,8.1,19.1,12.1,28.7C772.4,96.3,786.8,110.7,804.8,121.3L804.8,121.3
				z"/>
		</g>
	</g>
	<g>
		<g>
			<path class="st0" d="M1671.1,406.6c16.5,0.6,31.9-2.8,46.2-10.3c14.9-4.8,27.8-13.1,38.6-24.8c11.7-10.9,20-23.7,24.8-38.6
				c7.5-14.3,11-29.7,10.3-46.2c-1.4-10.6-2.9-21.3-4.3-31.9c-5.7-20.3-16-38-30.9-53c-8.1-6.3-16.2-12.5-24.3-18.8
				c-18.7-10.9-38.9-16.3-60.6-16.4c-16.5-0.6-31.9,2.8-46.2,10.3c-14.9,4.8-27.8,13.1-38.6,24.8c-11.7,10.9-20,23.7-24.8,38.6
				c-7.5,14.3-11,29.7-10.3,46.2c1.4,10.6,2.9,21.3,4.3,31.9c5.7,20.3,16,38,30.9,53c8.1,6.3,16.2,12.5,24.3,18.8
				C1629.2,401.1,1649.4,406.5,1671.1,406.6L1671.1,406.6z"/>
		</g>
	</g>
	<g>
		<g>
			<path class="st0" d="M1290.6,274.5c33.1,6,66.2,12,99.2,18c32.1,5.8,64.6,10.5,96.1,19.1c17.4,4.7,34.3,10.9,50.9,17.9
				c-4.8-2-9.6-4-14.3-6c24.1,10.2,47.4,22,70.6,33.8c14.4,7.3,30.3,10.4,46.2,6c13.9-3.8,29-14.6,35.9-27.6
				c7.4-13.9,11-30.8,6-46.2c-4.7-14.4-13.7-28.8-27.6-35.9c-41.3-21-83.2-42.2-127.8-55.4c-20.3-6.1-41.2-9.9-62-13.7
				c-22.2-4-44.5-8.1-66.7-12.1c-24.9-4.5-49.8-9-74.7-13.5c-8-2.5-16-2.9-23.9-1.1c-8,0.4-15.4,2.7-22.3,7.1
				c-12.4,7.3-24.3,21.6-27.6,35.9c-3.5,15.4-2.7,32.6,6,46.2C1262.8,259.4,1275.4,271.8,1290.6,274.5L1290.6,274.5z"/>
		</g>
	</g>
	<g>
		<g>
			<path class="st0" d="M1603.6,228.1c-10.4,0-20.9,0-31.3,0c-10.3,0-20.8,0.7-31-0.2c5.3,0.7,10.6,1.4,16,2.1
				c-1.2-0.1-2.4-0.4-3.6-0.8c4.8,2,9.6,4,14.3,6c-1.4-0.6-2.6-1.3-3.9-2.2c4,3.1,8.1,6.3,12.1,9.4c-3.4-2.7-6.1-6-8.8-9.3
				c3.1,4,6.3,8.1,9.4,12.1c-3.2-4.2-6.1-8.5-8.7-13c-7.2,27.4-14.3,54.7-21.5,82.1c0.7-0.6,1.4-1.1,2.3-1.3c-4.8,2-9.6,4-14.3,6
				c0.4-0.1,0.9-0.2,1.3-0.3c-5.3,0.7-10.6,1.4-16,2.1c0.4,0,0.9,0,1.3,0c-5.3-0.7-10.6-1.4-16-2.1c0.4,0.1,0.9,0.2,1.3,0.3
				c15.7,3.5,32.1,2.2,46.2-6c12.4-7.3,24.3-21.6,27.6-35.9c3.5-15.4,2.7-32.6-6-46.2c-8.2-12.8-20.6-24.2-35.9-27.6
				c-17-3.8-37.7-3.6-52.5,7.4c-7,3.8-12.6,8.9-16.8,15.5c-5.3,5.8-8.9,12.6-10.7,20.4c-3.6,15.8-2.3,32,6,46.2
				c6.5,11.2,14.5,22.3,23.5,31.5c15.9,16.3,36.4,23.6,58.9,23.8c18.9,0.2,37.8-0.1,56.7-0.1c15.4,0,31.5-6.7,42.4-17.6
				c10.4-10.4,18.2-27.5,17.6-42.4c-0.7-15.5-5.8-31.6-17.6-42.4C1634.3,234.9,1619.8,228,1603.6,228.1L1603.6,228.1z"/>
		</g>
	</g>
	<g>
		<g>
			<path class="st0" d="M587.3-79.3c-81.8-25.6-167.2-40.2-252.7-44.7c-14.9-0.8-32.1,7.2-42.4,17.6C281.8-96,273.9-79,274.6-64
				c0.7,15.5,5.8,31.6,17.6,42.4C304.3-10.5,318.1-4.9,334.6-4c26.1,1.4,52.2,3.8,78.1,7.3c-5.3-0.7-10.6-1.4-16-2.1
				c53.8,7.3,106.8,19.1,158.6,35.3c14.6,4.6,33.2,1.6,46.2-6c12.4-7.3,24.3-21.6,27.6-35.9c3.5-15.4,2.7-32.6-6-46.2
				C614.5-65.2,602.7-74.5,587.3-79.3L587.3-79.3z"/>
		</g>
	</g>
	<g>
		<g>
			<path class="st0" d="M513.1,115.1c55.5,6.9,116.8-7.6,168.2,20.5c6.8,3.7,12.8-6.7,6.1-10.4c-53.7-29.3-116.2-14.9-174.2-22.1
				C505.5,102.2,505.5,114.2,513.1,115.1L513.1,115.1z"/>
		</g>
	</g>
	<g>
		<g>
			<path class="st0" d="M763.7,367.3c2.4,1.4,4.9,2.8,7.5,4c1,0.5,2,0.9,3.1,1.3c19.4,8.5,39.9,17.5,59.7,25.1
				c4.7,1.8,9.5,3.2,14.3,4.3c2.7,0.6,5.5,1.1,8.2,1.5c23,3.6,46.5,6.7,69.6,9.4c5.4,0.6,10.8,1,16.2,1.2c21.7,0.9,43.5-0.4,65,2.5
				c-21.3-2.9-42.5-5.7-63.8-8.6c7.9,1.1,15.7,2.8,23.2,5.4c27.2,9.5,56,15.4,85.3,13.5c56-3.6,77.3-9.3,127.4-34.9
				c20.6-10.5,37.8-27.3,55.4-42.2c5.6-4.8,10.3-10.4,16.1-14.9c-16.2,12.5-32.4,25-48.6,37.5c4.2-3.1,8.6-5.6,13.3-7.6
				c-19.1,8.1-38.2,16.1-57.3,24.2c6.2-2.5,12.6-4.1,19.3-5.1c-21.3,2.9-42.5,5.7-63.8,8.6c11.8-1.5,23.6-0.9,35.4,0.7
				c-21.3-2.9-42.5-5.7-63.8-8.6c15.8,2.2,31.2,6.2,46.5,10.2c17.7,4.5,35.4,9.3,53,14.4c35.5,10.1,70.8,21.3,105.7,33.3
				c70.7,24.4,139.9,52.7,209.2,80.6c38.7,15.5,77.6,30.6,116.1,46.7c-19.1-8.1-38.2-16.1-57.3-24.2c15,6.4,29.8,13.4,42.9,23.4
				c-16.2-12.5-32.4-25-48.6-37.5c6.1,4.8,11.7,10.2,16.6,16.3c-12.5-16.2-25-32.4-37.5-48.6c6.6,8.6,11.7,18.1,17.1,27.4
				c2.7,4.7,5.5,9.5,8.6,14c12.5,18.3,27,35.7,40.8,53c1.7,2.1,3.4,4.2,5.3,6.1c32,32.9,84.1,65.8,129.7,74.7
				c11.3,1.6,22.5,3.1,33.8,4.5c11.2,1.9,22.5,3.4,33.8,4.5c1.9,0.1,3.8,0.2,5.7,0.2c3.2,0,6.4-0.3,9.6-0.6c7.7-0.7,15.3-1.5,23-0.7
				c-21.3-2.9-42.5-5.7-63.8-8.6c4.5,0.6,8.7,1.7,12.9,3.4c-19.1-8.1-38.2-16.1-57.3-24.2c4.5,2,8.7,4.4,12.7,7.4
				c-16.2-12.5-32.4-25-48.6-37.5c6.1,4.7,11.3,10.2,16.1,16.2c-12.5-16.2-25-32.4-37.5-48.6c13,16.9,21,36.6,32.1,54.7
				c2.7,4.4,5.6,8.7,8.8,12.8c13.5,17.8,26.7,36.4,41.4,53.3c1.6,1.9,3.4,3.7,5.2,5.5c17.9,17.3,38.1,32.4,59,45.9
				c2.1,1.3,4.2,2.6,6.5,3.6c18.3,8.7,40.5,17.7,59.4,25.1c1.4,0.6,2.8,1.1,4.3,1.6c31.9,10,63.8,11.4,95.7,4.3
				c31.9-1.4,61.7-10.9,89.2-28.5c28-15.1,50.4-35.7,67.3-61.8c21.2-23.2,35.5-50.4,43-81.6c2.9-21.3,5.7-42.5,8.6-63.8
				c-0.1-43.3-11.1-83.7-32.8-121.1c-12.5-16.2-25-32.4-37.5-48.6c-29.9-29.7-65.2-50.3-105.9-61.7c-1.4-0.5-2.8-1-4.3-1.6
				c19.1,8.1,38.2,16.1,57.3,24.2c-4.6-2-8.8-4.5-12.8-7.5c16.2,12.5,32.4,25,48.6,37.5c-5.6-4.4-10.4-9.4-14.7-14.9
				c12.5,16.2,25,32.4,37.5,48.6c-8.9-11.6-15.7-24.5-22.4-37.4c-3.1-6-6.3-12-9.9-17.7c-2-3.1-4-6.2-6.2-9.2
				c-6.9-9.5-14.6-19-21.6-28.1c-6.8-8.8-14.1-19-21.7-27.9c-16.5-19.4-45.9-38.8-62.3-50.6c-2.6-1.9-5.3-3.6-8.1-5.1
				c-21-10.8-42.9-20.4-65.5-27.6c-20.7-6.6-74.4-10.6-72.6-10.5c-4.5-0.4-8.9-0.4-13.4-0.1c-9,0.6-17.8,2-26.8,1.1
				c21.3,2.9,42.5,5.7,63.8,8.6c-3.7-0.5-7.2-1.4-10.8-2.8c19.1,8.1,38.2,16.1,57.3,24.2c-3.2-1.4-6.2-3.2-9.1-5.2
				c16.2,12.5,32.4,25,48.6,37.5c-4.2-3.3-7.8-7.1-11.1-11.4c12.5,16.2,25,32.4,37.5,48.6c-6-8-10.8-16.7-15.8-25.4
				c-14.8-25.9-34-49.9-53.3-72.3c-3.6-4.2-7.6-8-12-11.5c-19.4-15.8-39.7-33.2-61.5-46.6c-10.1-6.2-20.9-11.2-31.9-15.8
				c-70.8-30.1-142.3-58.4-213.7-87.1c-54-21.7-108.1-43.2-163.1-62.3c-53.5-18.7-107.7-35.1-162.6-49.2c-13.4-3.4-26.8-7-40.4-9.4
				c-27.1-4.8-54.4-8.7-81.8-10.9c-5.9-0.5-11.8-0.6-17.7-0.3c-27.1,1.5-54.5,4.4-80.8,11c-25.2,6.3-49.4,17.9-72.3,29.8
				c-22.9,11.9-42.9,29.5-61.8,46.9c-4.6,4.3-8.7,9-13.7,12.8c16.2-12.5,32.4-25,48.6-37.5c-2,1.5-4.1,2.7-6.4,3.7
				c19.1-8.1,38.2-16.1,57.3-24.2c-1.4,0.5-2.8,0.9-4.3,1.2c21.3-2.9,42.5-5.7,63.8-8.6c-1.8,0.2-3.5,0.2-5.3,0.1
				c21.3,2.9,42.5,5.7,63.8,8.6c-10.6-1.6-20.4-7-31-9.1c-30.7-6.2-62.3-10.6-93.7-11.7c-21-0.8-42.1,0.4-63-2.3
				c21.3,2.9,42.5,5.7,63.8,8.6c-9.4-1.3-18.6-3.5-27.4-7.1c19.1,8.1,38.2,16.1,57.3,24.2c-3.6-1.6-7.1-3.3-10.5-5.3
				c-27.5-17.5-57.3-27-89.2-28.5c-31.9-7.1-63.8-5.7-95.7,4.3c-31.2,7.4-58.4,21.7-81.6,43c-26.1,16.9-46.7,39.4-61.8,67.3
				c-8.1,19.1-16.1,38.2-24.2,57.3c-11.4,42.5-11.4,85.1,0,127.6c8.1,19.1,16.1,38.2,24.2,57.3C698.9,317.3,727.6,346,763.7,367.3
				L763.7,367.3z"/>
		</g>
	</g>
	<g>
		<g>
			<path class="st0" d="M1906.2,317.4c-4.3-1.6-8.5-3.3-12.7-5c19.1,8.1,38.2,16.1,57.3,24.2c-22-9.4-42.8-21.6-61.8-36.1
				c16.2,12.5,32.4,25,48.6,37.5c-22.3-17.3-41-38-59.3-59.4c-18.9-22-38.6-43-60.5-62.1c-36.7-32.1-76.1-61.6-114.8-91
				c-38.9-29.5-86.1-45.4-132.6-58.9c-32.2-9.3-63.7-20.6-94.6-33.6c19.1,8.1,38.2,16.1,57.3,24.2c-12.8-5.4-25.5-11.1-38-17.2
				c-19.1-8.1-38.2-16.1-57.3-24.2c-31.9-10-63.8-11.4-95.7-4.3c-21.7,0.1-41.8,5.5-60.6,16.4c-29.8,9.7-55.5,26.2-77.2,49.6
				c-34.8,44.7-48.3,54.9-64.5,110.7c-6.6,22.8-10.4,47.1-9.4,70.7c1.2,11.1,2.7,22.3,4.4,33.3c1.1,11.2,2.6,22.3,4.5,33.3
				c0.3,1.5,0.8,2.8,1.3,4.2c-0.5-1.5,15.7,46.6,27.8,63.7c12.5,16.2,25,32.4,37.5,48.6c0.7,0.8,1.4,1.6,2.1,2.4
				c1.1,1.2,2.3,2.2,3.5,3.3c17.6,14.9,35.9,29.3,55,42.3c5.2,3.5,10.4,6.7,15.4,10.5c-16.2-12.5-32.4-25-48.6-37.5
				c16.7,13.1,30,29.6,44.1,45.3c6.8,7.6,13.8,15.1,21.5,21.8c19,16.6,39.2,32,59.9,46.4c4.4,3,8.9,5.7,13.7,8.1
				c80.8-138.2,161.5-276.3,242.3-414.5c-30.2-14.8-58.9-32.5-85.5-53.1c16.2,12.5,32.4,25,48.6,37.5c-5.3-4.2-10.4-8.5-14.7-13.8
				c12.5,16.2,25,32.4,37.5,48.6c-17.1-22.2-31.4-47.1-51.5-66.7c-16.8-16.4-36.5-29.9-55.6-43.3c-2.5-1.8-5.2-3.3-7.9-4.8
				c-29.9-16-62.4-26.1-93.6-39.2c19.1,8.1,38.2,16.1,57.3,24.2c-6.9-3-13.5-6.4-19.5-10.9c16.2,12.5,32.4,25,48.6,37.5
				c-3.1-2.5-5.9-5.1-8.4-8.2c-16.2-12.5-32.4-25-48.6-37.5c-27.5-17.5-57.3-27-89.2-28.5c-21.3-5.7-42.5-5.7-63.8,0
				c-31.9,1.4-61.7,10.9-89.2,28.5c-3.2,1.7-6.5,3.4-9.7,5.1c-28,15.1-50.4,35.7-67.3,61.8c-21.2,23.2-35.5,50.4-43,81.6
				c-2.9,21.3-5.7,42.5-8.6,63.8c-1.2,33,5.6,63.9,20.7,92.5c5.7,20.3,16,38,30.9,53c16.9,26.1,39.4,46.7,67.3,61.8
				c19.1,8.1,38.2,16.1,57.3,24.2c42.5,11.4,85.1,11.4,127.6,0c0.9-0.2,1.7-0.4,2.6-0.5c-21.3,2.9-42.5,5.7-63.8,8.6
				c2.2-0.2,4.4-0.2,6.6,0.1c-21.3-2.9-42.5-5.7-63.8-8.6c2.2,0.4,4.3,1,6.4,1.8c-19.1-8.1-38.2-16.1-57.3-24.2
				c2.5,1.1,4.7,2.4,6.8,4c-16.2-12.5-32.4-25-48.6-37.5c1.7,1.4,3.2,3,4.6,4.7c-12.5-16.2-25-32.4-37.5-48.6c1,1.5,1.9,2.9,2.7,4.5
				c-8.1-19.1-16.1-38.2-24.2-57.3c0.4,0.8,0.7,1.6,1,2.5c7.4,31.2,21.7,58.4,43,81.6c16.9,26.1,39.4,46.7,67.3,61.8
				c27.5,17.5,57.3,27,89.2,28.5c31.9,7.1,63.8,5.7,95.7-4.3c19.1-8.1,38.2-16.1,57.3-24.2c36.1-21.3,64.8-50,86.1-86.1
				c8.1-19.1,16.1-38.2,24.2-57.3c11.4-42.5,11.4-85.1,0-127.6c-7.4-21-14.6-42.5-26.1-61.6c-0.5-0.8-0.9-1.5-1.4-2.2
				c-4.5-6.9-32.9-43.4-38.3-49.6c-1.3-1.5-2.7-2.9-4.2-4.2c-16.2-12.5-32.4-25-48.6-37.5c-0.4-0.3-0.7-0.5-1.1-0.8
				c-0.9-0.6-1.8-1.2-2.8-1.8c-0.8-0.4-1.6-0.8-2.4-1.2c-7.6-3.7-50.5-22.1-58.6-24.7c-1.9-0.6-3.8-1.1-5.7-1.5
				c-21.3-2.9-42.5-5.7-63.8-8.6c-0.4-0.1-0.9-0.1-1.3-0.2c-0.9-0.1-1.8-0.1-2.6-0.1c-10.8,0.1-34.8,4.5-34.5,4.5
				c-8,1.1-23.4,2.4-34.5,4.8c61.6,146.2,123.3,292.4,184.9,438.7c3.2-1.7,6.5-3.4,9.7-5.1c-96.9-12.5-193.9-25-290.8-37.5
				c1.7,2,3.5,3.9,5.4,5.7c16.9,15.1,35.2,28.5,53.7,41.6c4.5,3.2,9.4,5.7,14.4,8c28.7,13,58,23.8,87,36
				c-19.1-8.1-38.2-16.1-57.3-24.2c6.9,3,13.6,6.4,19.6,10.9c-16.2-12.5-32.4-25-48.6-37.5c3.7,2.9,6.9,6.1,9.9,9.8
				c-12.5-16.2-25-32.4-37.5-48.6c18.6,24.6,33.9,52.7,58,72.3c19.7,16.1,40.1,31.6,60.5,46.7c4.9,3.6,9.9,7.2,15,10.6
				c19.7,13.5,40.4,25.4,61.9,35.9c27.5,17.5,57.3,27,89.2,28.5c31.9,7.1,63.8,5.7,95.7-4.3c31.2-7.4,58.4-21.7,81.6-43
				c26.1-16.9,46.7-39.4,61.8-67.3c8.1-19.1,16.1-38.2,24.2-57.3c11.4-42.5,11.4-85.1,0-127.6c-8.1-19.1-16.1-38.2-24.2-57.3
				c-21.3-36.1-50-64.8-86.1-86.1c-6.5-3.2-12.6-7.1-18.3-11.5c16.2,12.5,32.4,25,48.6,37.5c-16.6-13-29.9-29.4-43.8-45.1
				c-6.9-7.7-13.9-15.2-21.7-22c-19-16.7-39.3-32-60-46.6c-4.8-3.4-9.9-6.4-14.6-9.9c16.2,12.5,32.4,25,48.6,37.5
				c-3-2.3-5.7-4.8-8.1-7.7c12.5,16.2,25,32.4,37.5,48.6c-1.5-2-2.7-4-3.7-6.3c8.1,19.1,16.1,38.2,24.2,57.3
				c-0.7-1.9-1.2-3.7-1.5-5.6c2.9,21.3,5.7,42.5,8.6,63.8c-0.2-1.9-0.2-3.7,0-5.7c-2.9,21.3-5.7,42.5-8.6,63.8
				c0.3-1.4,0.6-2.6,1.1-4c-8.1,19.1-16.1,38.2-24.2,57.3c0.4-0.9,0.8-1.7,1.4-2.4c-12.5,16.2-25,32.4-37.5,48.6
				c0.3-0.4,0.6-0.7,0.9-1.1c-96.9,12.5-193.9,25-290.8,37.5c32.4,15.5,65.7,29,98.8,42.8c14.3,6,28.7,11.5,43.3,16.7
				c14.6,5.2,29.3,10,44.1,14.4c14.6,4.3,29.4,7.9,43.4,13.8c-19.1-8.1-38.2-16.1-57.3-24.2c13.4,5.9,25.4,14.2,37,23.1
				c-16.2-12.5-32.4-25-48.6-37.5c36.3,28,72.9,56.5,104,90.3c15.6,16.9,29.9,35,45.7,51.7c7.3,7.8,14.9,15.2,23,22.1
				c23.3,20,47.6,38.9,73,56.3c9.9,6.8,20.2,12.9,30.8,18.4c28.6,14.7,58.6,26.8,88.6,37.9c31.9,10,63.8,11.4,95.7,4.3
				c31.9-1.4,61.7-10.9,89.2-28.5c28-15.1,50.4-35.7,67.3-61.8c21.2-23.2,35.5-50.4,43-81.6c2.9-21.3,5.7-42.5,8.6-63.8
				c-0.1-43.3-11.1-83.7-32.8-121.1c-12.5-16.2-25-32.4-37.5-48.6C1982.2,349.4,1946.9,328.8,1906.2,317.4L1906.2,317.4z"/>
		</g>
	</g>
	<g>
		<g>
			<path class="st0" d="M1446.2,73.4c-6.7-4.5-13.6-8.6-20.8-12.2c-25.5-12.7-51.9-23.8-78.8-33.2c-7.6-2.7-15.4-4.8-23.3-6.5
				c-28.6-5.9-57.8-9.5-86.8-11.9c0,160,0,320,0,480c2.4-0.3,4.7-0.3,7.2,0c-21.3-2.9-42.5-5.7-63.8-8.6c1.9,0.4,3.7,0.9,5.5,1.6
				c-19.1-8.1-38.2-16.1-57.3-24.2c1.8,0.8,3.4,1.7,5,2.8c-16.2-12.5-32.4-25-48.6-37.5c1.9,1.5,3.6,3.1,5.1,5.1
				c-12.5-16.2-25-32.4-37.5-48.6c6.6,9.4,14,18.4,21,27.4c24.7,32,12.8,20,44.8,44.7c32.2,24.8,16.4,15.5,54,31.4
				c9.6,4,19.1,8.1,28.7,12.1c0.3,0.1,0.7,0.1,1,0.2c2.5,0.7,62,8.4,64.3,8.5c21.7,0.9,44.5-2.2,65.3-9.1
				c2.5-0.8,55.7-23.3,57.7-24.5c1.5-0.9,47.5-36.5,49-37.8c12.5-16.2,25-32.4,37.5-48.6c0.2-0.3,0.4-0.5,0.6-0.8
				c0.9-1.7,23.8-56.1,24.3-57.8c0.3-1,8.7-63,8.7-64.2c0-4-7.9-61.3-8.8-64.7c-4-9.6-8.1-19.1-12.1-28.7c-5.7-20.3-16-38-30.9-53
				c-10.7-18-25-32.4-43.1-43.1c-15-14.9-32.6-25.2-53-30.9c-14.3-6-26.4-11.4-40.5-15.9c-4.2-1.3-8.5-2.7-12.7-4
				c-8.5-2.6-17.1-5.1-25.6-7.5c-33.7-9.4-67.8-17.2-102.2-23.5c-40.2-7.3-80.8-12.2-121.3-17.5c-33-1.2-63.9,5.6-92.5,20.7
				c-29.8,9.7-55.5,26.2-77.2,49.6c-23.4,21.7-39.9,47.5-49.6,77.2c-15,28.6-21.9,59.4-20.7,92.5c2.9,21.3,5.7,42.5,8.6,63.8
				c11.4,40.7,32,76,61.7,105.9c16.2,12.5,32.4,25,48.6,37.5c37.4,21.7,77.8,32.6,121.1,32.8c1.9,0.2,3.8,0.5,5.7,0.7
				c-21.3-2.9-42.5-5.7-63.8-8.6c69.3,9.3,137.7,25.1,204.1,46.9c-55.9-55.9-111.8-111.8-167.6-167.6c0.1,0.3,0.2,0.6,0.2,0.9
				c0-42.5,0-85.1,0-127.6c-0.1,0.3-0.1,0.6-0.2,0.9c8.1-19.1,16.1-38.2,24.2-57.3c-0.2,0.3-0.4,0.5-0.6,0.8
				c28.7-28.7,57.4-57.4,86.1-86.1c-0.3,0.2-0.6,0.4-0.8,0.6c19.1-8.1,38.2-16.1,57.3-24.2c-0.3,0.1-0.7,0.3-1,0.4
				c21.3-2.9,42.5-5.7,63.8-8.6c-0.4,0-0.7,0.1-1.1,0.1c21.3,2.9,42.5,5.7,63.8,8.6c-0.3-0.1-0.7-0.1-1-0.2
				c19.1,8.1,38.2,16.1,57.3,24.2c-0.4-0.2-0.7-0.4-1.1-0.6c16.2,12.5,32.4,25,48.6,37.5c-0.7-0.5-1.3-1-1.8-1.7
				c12.5,16.2,25,32.4,37.5,48.6C1437,100,1420,70,1372.2,45c-20.3-10.6-41.6-21.5-64.1-26.6c-21.8-5-44.3-7.4-66.7-8.9
				c-1.7-0.1-3.3,0-5,0.2c-33-1.2-63.9,5.6-92.5,20.7c-29.8,9.7-55.5,26.2-77.2,49.6c-23.4,21.7-39.9,47.5-49.6,77.2
				c-15,28.6-21.9,59.4-20.7,92.5c2.9,21.3,5.7,42.5,8.6,63.8c11.4,40.7,32,76,61.7,105.9c16.2,12.5,32.4,25,48.6,37.5
				c37.4,21.7,77.8,32.6,121.1,32.8c3.4,0.3,6.9,0.6,10.3,1.1c-21.3-2.9-42.5-5.7-63.8-8.6c16,2.2,31.5,6.5,46.5,12.6
				c-19.1-8.1-38.2-16.1-57.3-24.2c11.1,4.7,21.8,10.4,31.8,17.2c27.5,17.5,57.3,27,89.2,28.5c31.9,7.1,63.8,5.7,95.7-4.3
				c31.2-7.4,58.4-21.7,81.6-43c26.1-16.9,46.7-39.4,61.8-67.3c8.1-19.1,16.1-38.2,24.2-57.3c11.4-42.5,11.4-85.1,0-127.6
				c-8.1-19.1-16.1-38.2-24.2-57.3C1510.9,123.4,1482.2,94.7,1446.2,73.4L1446.2,73.4z"/>
		</g>
	</g>
	<g>
		<g>
			<path class="st0" d="M463.4,325.5c28.8,8.1,57.6,16.3,86.4,24.4c31.9,10,63.8,11.4,95.7,4.3c31.9-1.4,61.7-10.9,89.2-28.5
				c16.2-12.5,32.4-25,48.6-37.5c23.4-21.7,39.9-47.5,49.6-77.2c10.9-18.7,16.3-38.9,16.4-60.6c7.1-31.9,5.7-63.8-4.3-95.7
				c-8.1-19.1-16.1-38.2-24.2-57.3c-21.3-36.1-50-64.8-86.1-86.1c-42.3-30.2-89.2-48.6-137.2-68.4C632.9-23.5,668.2,110.2,703.5,244
				c0.5-0.7,1.1-1.3,1.8-1.9c-16.2,12.5-32.4,25-48.6,37.5c1-0.8,2-1.4,3.2-1.9c-19.1,8.1-38.2,16.1-57.3,24.2
				c1.2-0.4,2.4-0.7,3.6-1c-21.3,2.9-42.5,5.7-63.8,8.6c2.3-0.3,4.4-0.2,6.7,0c-21.3-2.9-42.5-5.7-63.8-8.6
				c9.1,1.3,17.7,5.2,26.3,8.3c10,3.6,19.9,7.3,29.8,11.1c19.8,7.6,39.5,15.5,59,23.8c-19.1-8.1-38.2-16.1-57.3-24.2
				c19.5,8.3,38.9,16.8,58.2,25.7c27.5,17.5,57.3,27,89.2,28.5c31.9,7.1,63.8,5.7,95.7-4.3c31.2-7.4,58.4-21.7,81.6-43
				c26.1-16.9,46.7-39.4,61.8-67.3c8.1-19.1,16.1-38.2,24.2-57.3c11.4-42.5,11.4-85.1,0-127.6c-8.1-19.1-16.1-38.2-24.2-57.3
				c-21.3-36.1-50-64.8-86.1-86.1c-38.3-25.3-78.8-47.3-121-65.6c-60.9-26.4-121.2-51.5-185.7-67.3c-26.7-6.5-53.4-12.5-78.9-23.1
				c19.1,8.1,38.2,16.1,57.3,24.2c-21.4-9.1-41.8-20.5-63.2-29.7c-40.5-17.5-78.6-34.5-121.2-44.5c-22.8-5.3-45.8-9.4-68.7-14.2
				c-23.2-4.8-46.2-10.3-69-16.6c-26-7.2-51.6-15.3-77-24.3c-31.9-10-63.8-11.4-95.7-4.3c-31.9,1.4-61.7,10.9-89.2,28.5
				c-28,15.1-50.4,35.7-67.3,61.8c-21.2,23.2-35.5,50.4-43,81.6c-2.9,21.3-5.7,42.5-8.6,63.8c0.1,43.3,11.1,83.7,32.8,121.1
				c12.5,16.2,25,32.4,37.5,48.6C-87.3,101-52,121.6-11.3,133c35.6,12.7,71.9,23.6,108.6,32.6c35.8,8.7,72.1,14.5,107.9,23
				c20.3,4.8,40.2,10.7,59.5,18.8c-19.1-8.1-38.2-16.1-57.3-24.2c17.2,7.3,33.6,16,50.5,23.9c3.9,1.8,7.9,3.7,11.9,5.4
				c23,10,46,20.2,69.4,29.1c8.8,3.4,17.9,6.2,27,8.8c35.5,10,71.4,17.3,106.4,29c19.2,6.4,38.2,13.6,56.9,21.4
				c-19.1-8.1-38.2-16.1-57.3-24.2c45.1,19,88.4,42.2,129.2,69.1C682.1,207.5,762.8,69.4,843.6-68.8C791.2-93,738-115.5,684.3-136.6
				c-17.4-6.8-34.8-13.4-52.4-19.7c-27.4-9.8-53.1-12.8-84.2-14.4c-1.8-0.1-3.5,0-5.3,0.1c-21.3,2.9-42.5,5.7-63.8,8.6
				c-0.8,0.1-1.7,0.3-2.5,0.6c-36.2,9.1-87.4,37.2-112,65.9c-29.7,29.9-50.3,65.2-61.7,105.9c-11.4,42.5-11.4,85.1,0,127.6
				c11.4,40.7,32,76,61.7,105.9c29.9,29.7,65.2,50.3,105.9,61.7c1.1,0.5,2.3,0.9,3.4,1.4c-19.1-8.1-38.2-16.1-57.3-24.2
				c27,11.5,52.6,25.8,76.5,42.8c61.6-146.2,123.3-292.4,184.9-438.7c-28.8-8.1-57.6-16.3-86.4-24.4c-31.9-10-63.8-11.4-95.7-4.3
				c-31.9,1.4-61.7,10.9-89.2,28.5c-28,15.1-50.4,35.7-67.3,61.8c-21.2,23.2-35.5,50.4-43,81.6c-2.9,21.3-5.7,42.5-8.6,63.8
				c0.1,43.3,11.1,83.7,32.8,121.1c12.5,16.2,25,32.4,37.5,48.6C387.5,293.5,422.8,314.1,463.4,325.5L463.4,325.5z"/>
		</g>
	</g>
	<g>
		<g>
			<path class="st0" d="M561.7,415.3c30.7,11.7,62.9,19,95.6,21.7c15.5,1.3,30.9,1,46.4,0.9c14.3-0.1,28.9,0.8,40.9,9.4
				c6.3,4.5,12.3-5.9,6.1-10.4c-11.8-8.5-26.3-10.7-40.4-11c-15.8-0.4-31.5,0.5-47.3-0.5c-33.5-2.2-66.6-9.7-98-21.7
				C557.7,401,554.5,412.6,561.7,415.3L561.7,415.3z"/>
		</g>
	</g>
	<g>
		<g>
			<path class="st0" d="M1509.2,866.4c24.4,2.5,55.9-8,76.5-20.5c14.3-8.7,26.6-20.4,39.8-30.6c-8.1,6.3-16.2,12.5-24.3,18.8
				c5-3.8,10.4-6.7,16.2-9.1c-9.6,4-19.1,8.1-28.7,12.1c40.3-16.4,82.9-31.3,126.2-37.1c-10.6,1.4-21.3,2.9-31.9,4.3
				c19.1-2.4,38.2-2.8,57.3-0.3c-10.6-1.4-21.3-2.9-31.9-4.3c17.3,2.5,33.8,7.6,50.2,13.5c15.8,5.8,31.7,11.7,47.2,18.2
				c-9.6-4-19.1-8.1-28.7-12.1c22.5,9.5,43.5,21,63,36c-8.1-6.3-16.2-12.5-24.3-18.8c30.7,23.9,59.4,50.8,88.7,76.4
				c10.9,11.7,23.7,20,38.6,24.8c14.3,7.5,29.7,11,46.2,10.3c16.5,0.6,31.9-2.8,46.2-10.3c14.9-4.8,27.8-13.1,38.6-24.8
				c6.3-8.1,12.5-16.2,18.8-24.3c10.9-18.7,16.3-38.9,16.4-60.6c-1.4-10.6-2.9-21.3-4.3-31.9c-5.7-20.3-16-38-30.9-53
				c-26.6-23.2-52.8-47.1-80.1-69.5c-20.2-16.6-41-33.5-63.9-46.3c-23-12.8-47.9-22.5-72.3-32.2c-15.9-6.3-31.8-12.4-48-17.8
				c-8.1-2.7-16.3-5.1-24.7-6.9c-4.3-0.9-8.6-1.6-12.9-2.3c-14.2-2.1-28.6-4.4-43-5.5c-27.2-2.1-54,2.4-80.9,6.2
				c-17.1,2.4-33.9,6.4-50.5,11.3c-18.5,5.4-36.8,11.9-54.9,18.6c-17.9,6.6-36.1,13.2-53.1,21.9c-16.1,8.2-29.3,21.4-43.5,32.5
				c8.1-6.3,16.2-12.5,24.3-18.8c-3.5,2.7-7,5.1-11.1,6.9c9.6-4,19.1-8.1,28.7-12.1c-1.7,0.7-3.4,1.2-5.3,1.5
				c10.6-1.4,21.3-2.9,31.9-4.3c-1.9,0.2-3.7,0.2-5.6,0c-16.5-0.6-31.9,2.8-46.2,10.3c-14.9,4.8-27.8,13.1-38.6,24.8
				c-11.7,10.9-20,23.7-24.8,38.6c-7.5,14.3-11,29.7-10.3,46.2c1.4,10.6,2.9,21.3,4.3,31.9c5.7,20.3,16,38,30.9,53
				c8.1,6.3,16.2,12.5,24.3,18.8C1467.3,860.8,1487.5,866.3,1509.2,866.4L1509.2,866.4z"/>
		</g>
	</g>
	<g>
		<g>
			<path class="st0" d="M1047,542.2c2.6,0.1,5.2,0.3,7.8,0.7c-10.6-1.4-21.3-2.9-31.9-4.3c7.2,1.1,14,3.3,20.6,6.1
				c-9.6-4-19.1-8.1-28.7-12.1c19,8.3,35.6,21.1,54.4,30c20,9.4,40.1,17.8,61.4,23.2c11.5,2.9,23.2,5.5,34.7,8.6
				c47.9,12.6,94.7,29.4,140.9,47.2c25.6,9.9,51.2,19.7,76.4,30.3c-9.6-4-19.1-8.1-28.7-12.1c19,8,37.6,17.1,54.1,29.7
				c-8.1-6.3-16.2-12.5-24.3-18.8c0.5,0.4,0.9,0.7,1.4,1.1c-10.3-38.9-20.6-77.8-30.9-116.8c-0.1,0.9-0.4,1.8-0.7,2.7
				c4-9.6,8.1-19.1,12.1-28.7c-0.6,1.3-1.2,2.4-2,3.6c6.3-8.1,12.5-16.2,18.8-24.3c-1.2,1.5-2.5,2.7-4,3.9
				c8.1-6.3,16.2-12.5,24.3-18.8c-1.6,1.1-3.2,2-5,2.8c9.6-4,19.1-8.1,28.7-12.1c-1.8,0.7-3.6,1.1-5.5,1.5
				c10.6-1.4,21.3-2.9,31.9-4.3c-3.1,0.3-6.1,0.2-9.2-0.1c10.6,1.4,21.3,2.9,31.9,4.3c-14.5-2.2-28.7-7.9-42.7-12.2
				c-14.8-4.5-29.5-9-44.3-13.5c-28.3-8.6-57.1-16.3-84.4-27.8c9.6,4,19.1,8.1,28.7,12.1c-17.4-7.5-33.2-17.6-49.8-26.5
				c-16.3-8.8-33.6-16.1-50.9-22.3c-4.3-1.5-8.7-2.8-13.1-3.8c-7.1-1.5-14.5-2.2-21.5-3.1c-7.4-1-14.9-2.3-22.4-2.7
				c-10.6,1.4-21.3,2.9-31.9,4.3c-15.6,3.7-29.2,10.9-40.8,21.5c-9,5.3-16.2,12.5-21.5,21.5c-10.6,11.6-17.8,25.2-21.5,40.8
				c-1.4,10.6-2.9,21.3-4.3,31.9c1.4,10.6,2.9,21.3,4.3,31.9c3.7,15.6,10.9,29.2,21.5,40.8c8.5,13.1,19.7,23.4,33.7,30.9
				c7.5,5.7,15.1,11.5,22.6,17.2c30.8-73.1,61.6-146.2,92.5-219.3c-44.5-18.3-90-34.1-136.2-47.3c0,77.1,0,154.3,0,231.4
				c1.5-0.3,3.1-0.6,4.6-0.8c-10.6,1.4-21.3,2.9-31.9,4.3c5.7-0.7,11.4-0.6,17.1,0.1c-10.6-1.4-21.3-2.9-31.9-4.3
				c5.7,0.9,11.1,2.4,16.5,4.5c-9.6-4-19.1-8.1-28.7-12.1c5.3,2.3,10.2,5.1,14.7,8.6c-8.1-6.3-16.2-12.5-24.3-18.8
				c1.6,1.3,3.2,2.7,4.7,4.1c0-56.6,0-113.1,0-169.7c-0.8,0.7-1.6,1.3-2.5,2c8.1-6.3,16.2-12.5,24.3-18.8c-3.9,3-8,5.6-12.6,7.5
				c9.6-4,19.1-8.1,28.7-12.1c-1.9,0.7-3.9,1.3-5.9,1.6c10.6-1.4,21.3-2.9,31.9-4.3c-1.5,0.2-2.8,0.2-4.3,0.1
				c10.6,1.4,21.3,2.9,31.9,4.3c-1.5-0.2-2.7-0.6-4.2-1.1c9.6,4,19.1,8.1,28.7,12.1c-0.9-0.4-1.8-0.9-2.6-1.5
				c8.1,6.3,16.2,12.5,24.3,18.8c-3.3-2.6-5.5-6.1-8.6-8.8c-10-9.2-20.9-18.7-33.3-24.6c-16.7-8-33.9-14.4-51.3-20.6
				c-18.8-6.7-37.6-13.3-56.7-19c-18.7-5.6-37.6-10.3-56.8-13.6c-29.2-4.9-59.2-9.3-88.9-8.6c-16.5-0.6-31.9,2.8-46.2,10.3
				c-14.9,4.8-27.8,13.1-38.6,24.8c-11.7,10.9-20,23.7-24.8,38.6c-7.5,14.3-11,29.7-10.3,46.2c1.4,10.6,2.9,21.3,4.3,31.9
				c5.7,20.3,16,38,30.9,53c8.1,6.3,16.2,12.5,24.3,18.8c18.7,10.9,38.9,16.3,60.6,16.4c15.7-0.4,31.3,0.6,46.8,2.7
				c-10.6-1.4-21.3-2.9-31.9-4.3c24.9,3.5,49.4,9.6,73.4,17.1c23.5,7.3,47.3,15,70.1,24.3c-9.6-4-19.1-8.1-28.7-12.1
				c3.4,1.5,6.5,3.1,9.5,5.2c-8.1-6.3-16.2-12.5-24.3-18.8c4.1,3.2,7,7.5,11,10.8c8.1,6.3,16.2,12.5,24.3,18.8
				c0.4,0.3,0.9,0.5,1.3,0.8c5.1,2.5,10.3,4.8,15.7,6.7c4.9,2.3,9.9,4.4,15,6.3c1.2,0.4,2.3,0.6,3.5,0.8c10.6,1.4,21.3,2.9,31.9,4.3
				c0.7,0.1,1.4,0.1,2.2,0.1c12.4-0.3,25-1.8,37-5.1c5.7-1.6,13.2-5.3,17.3-7c5.4-2.3,11.7-4.6,17.3-7.4c13.4-6.6,25.3-17.9,36.5-27
				c11.7-10.9,20-23.7,24.8-38.6c7.5-14.3,11-29.7,10.3-46.2c-1.4-10.6-2.9-21.3-4.3-31.9c-5.7-20.3-16-38-30.9-53
				c-11.2-10.5-23.4-20.5-36.7-28c-6.7-3.8-14.3-6.5-21.3-9.5c-7-3-14.2-6.5-21.7-8.6c-2.5-0.7-5-1.3-7.6-1.7
				c-11.3-2-23.6-3.6-35-4.7c-1.5-0.2-3.1-0.3-4.7-0.4c-15.8-0.7-32,2.5-47.4,5.5c-9.6,4-19.1,8.1-28.7,12.1
				c-14,7.5-25.2,17.8-33.7,30.9c-7.4,7.5-12.6,16.3-15.4,26.5c-7.5,14.3-11,29.7-10.3,46.2c1.4,10.6,2.9,21.3,4.3,31.9
				c4,9.6,8.1,19.1,12.1,28.7c7.5,14,17.8,25.2,30.9,33.7c11.6,10.6,25.2,17.8,40.8,21.5c46.3,13.2,91.7,29,136.2,47.3
				c16,5,31.9,5.7,47.9,2.1c16-0.7,30.8-5.5,44.6-14.2c8.1-6.3,16.2-12.5,24.3-18.8c11.7-10.9,20-23.7,24.8-38.6
				c5.4-9.4,8.2-19.5,8.2-30.3c3.6-16,2.9-31.9-2.1-47.9c-4-9.6-8.1-19.1-12.1-28.7c-10.7-18-25-32.4-43.1-43.1
				c-7.5-5.7-15.1-11.5-22.6-17.2c-20.2,74.5-40.4,149.1-60.6,223.6c2.2,0.1,4.3,0.3,6.5,0.6c-10.6-1.4-21.3-2.9-31.9-4.3
				c8.6,1.2,16.7,3.8,24.7,7.1c-9.6-4-19.1-8.1-28.7-12.1c16.5,7.1,31.6,17,47.4,25.4c26.1,14,54.3,24.8,82.6,33.8
				c40.1,12.7,80.5,24.7,120.7,36.9c10.5,3.2,20.2,4.5,31.4,6c21.7,2.9,37.7,4,60.5-2.8c5.5-1.6,12.2-5,16.4-6.7
				c3.6-1.5,11.9-4.5,16.9-7.3c0.8-0.5,1.6-1,2.4-1.5c8.1-6.3,16.2-12.5,24.3-18.8c0.6-0.4,1.1-0.9,1.6-1.4c8.6-8,16.5-17.8,21.9-28
				c0.4-0.8,0.8-1.6,1.2-2.5c4-9.6,8.1-19.1,12.1-28.7c0.3-0.9,0.6-1.8,0.7-2.7c5.7-21.3,5.7-42.5,0-63.8c-5.7-20.3-16-38-30.9-53
				c-16.6-12.9-32.4-26-50.9-36c-18.5-9.9-38.2-17.6-57.5-25.7c-21.8-9.1-43.8-17.6-65.7-26.2c-45-17.5-90.4-34.2-136.9-47.3
				c-25.7-7.2-52.8-11.3-77.5-21.6c9.6,4,19.1,8.1,28.7,12.1c-15.6-6.7-29.5-16.4-44.2-24.6c-15.6-8.7-32.4-15.7-49.2-21.8
				c-17.3-6.2-36.4-8.1-54.5-8.7c-16.5-0.6-31.9,2.8-46.2,10.3c-14.9,4.8-27.8,13.1-38.6,24.8c-11.7,10.9-20,23.7-24.8,38.6
				c-7.5,14.3-11,29.7-10.3,46.2c1.4,10.6,2.9,21.3,4.3,31.9c5.7,20.3,16,38,30.9,53c8.1,6.3,16.2,12.5,24.3,18.8
				C1005.2,536.7,1025.4,542.1,1047,542.2L1047,542.2z"/>
		</g>
	</g>
	<g>
		<g>
			<path class="st0" d="M821.9,528.8c5.4,11.8,14.4,22.2,23.8,31c18,16.7,35.6,27.3,59.3,34.4c12.9,3.8,26.8,6.1,40.3,5.3
				c27.5-1.6,43.1-5.6,67.4-18.6c36.9-19.7,59.4-62.6,59.4-103.6c-0.1-21.7-5.5-41.8-16.4-60.6c-10.7-18-25-32.4-43.1-43.1
				c-15.3-6.9-31.6-15-48.5-18.3c-17.4-3.3-35.1-5.5-52.8-6.8c-16.4-1.3-32.8-2.5-49.2-4.7c10.6,1.4,21.3,2.9,31.9,4.3
				c-33.4-4.6-66.3-11.4-99.3-18.1c-32.5-6.6-65.1-13.4-97.2-21.9c-32.2-8.6-63.7-19.5-95.7-28.5c-31.1-8.8-62.8-15.1-94.4-21.8
				c-35.4-7.5-70.7-15.6-104.6-28.2c-16-5-31.9-5.7-47.9-2.1c-16,0.7-30.8,5.5-44.6,14.2c-14,7.5-25.2,17.8-33.7,30.9
				c-10.6,11.6-17.8,25.2-21.5,40.8c-1.4,10.6-2.9,21.3-4.3,31.9c0.1,21.7,5.5,41.8,16.4,60.6c6.3,8.1,12.5,16.2,18.8,24.3
				c15,14.9,32.6,25.2,53,30.9c68.5,25.5,142.1,33.1,212,53.9c36.3,10.8,72.1,22.5,109,31.3c36.5,8.7,73.4,16,110.2,23.2
				c31.2,6.1,62.4,10.6,93.9,14.8c20.3,2.7,40.9,3.2,61.2,5.9c-10.6-1.4-21.3-2.9-31.9-4.3c8.7,1.2,17.1,3.2,25.2,6.6
				c-9.6-4-19.1-8.1-28.7-12.1c0.5,0.2,1.1,0.5,1.6,0.7c0-69.1,0-138.2,0-207.2c-0.7,0.4-1.4,0.8-2.2,1.1c9.6-4,19.1-8.1,28.7-12.1
				c-1.2,0.4-2.3,0.7-3.5,1c10.6-1.4,21.3-2.9,31.9-4.3c-2.1,0.3-4,0.3-6,0c10.6,1.4,21.3,2.9,31.9,4.3c-1.6-0.3-3.2-0.7-4.7-1.3
				c9.6,4,19.1,8.1,28.7,12.1c-1.9-0.8-3.6-1.8-5.2-3.1c8.1,6.3,16.2,12.5,24.3,18.8c-0.9-0.8-1.8-1.6-2.6-2.6
				c6.3,8.1,12.5,16.2,18.8,24.3c-1-1.3-1.8-2.6-2.5-4.1c-7.5-14-17.8-25.2-30.9-33.7c-11.6-10.6-25.2-17.8-40.8-21.5
				c-16-5-31.9-5.7-47.9-2.1c-16,0.7-30.8,5.5-44.6,14.2c-8.1,6.3-16.2,12.5-24.3,18.8c-14.9,15-25.2,32.6-30.9,53
				c-1.4,10.6-2.9,21.3-4.3,31.9C805.6,489.9,811,510.1,821.9,528.8L821.9,528.8z"/>
		</g>
	</g>
	<g>
		<g>
			<path class="st0" d="M384.6,228.8c-17.2-2.9-34.4-6-50.6-12.5c9.6,4,19.1,8.1,28.7,12.1c-10.7-4.5-20.1-10.7-29.3-17.8
				c8.1,6.3,16.2,12.5,24.3,18.8c-13.5-10.5-26.8-21.2-40.5-31.4c-6.3-4.7-12.8-8.9-19.8-12.3c-23.4-11.2-46.2-20-71.5-24.7
				c-43.3-8-87.4-13.5-131.4-16.3c-18.2-1.1-36.8-0.3-54.9-2.6c10.6,1.4,21.3,2.9,31.9,4.3c-4.2-0.6-8.3-1.6-12.3-3.1
				c9.6,4,19.1,8.1,28.7,12.1c-2.9-1.3-5.6-2.8-8.1-4.7c8.1,6.3,16.2,12.5,24.3,18.8c-5.9-4.9-10.2-11.3-15.9-16.4
				c-12.2-10.8-25.4-21.2-39.6-29.5c-11.9-7-24.7-12.7-35.7-21.1c8.1,6.3,16.2,12.5,24.3,18.8c-3.1-2.5-6.1-5.1-8.8-8
				c-10.9-11.7-23.7-20-38.6-24.8c-14.3-7.5-29.7-11-46.2-10.3c-16.5-0.6-31.9,2.8-46.2,10.3c-14.9,4.8-27.8,13.1-38.6,24.8
				c-6.3,8.1-12.5,16.2-18.8,24.3c-10.9,18.7-16.3,38.9-16.4,60.6c1.4,10.6,2.9,21.3,4.3,31.9c5.7,20.3,16,38,30.9,53
				c14.3,15.3,32.5,27.9,50.9,38c10.2,5.6,20.6,10.7,29.8,17.8c-8.1-6.3-16.2-12.5-24.3-18.8c5,4,9.1,8.6,13.4,13.4
				c10.6,11.9,23.8,22.8,38.4,29.4c8.9,4,24.1,11.7,36.2,14.4c13.1,2.8,26.5,4.2,39.8,5.5c6.8,0.7,13.6,0.6,20.4,0.8
				c31.3,0.8,62.6,3.4,93.6,7.5c-10.6-1.4-21.3-2.9-31.9-4.3c25.4,3.5,52.1,6.6,75.9,16.6c-9.6-4-19.1-8.1-28.7-12.1
				c10.2,4.4,19.2,10.5,28,17.2c-8.1-6.3-16.2-12.5-24.3-18.8c14.4,11.2,28.5,22.8,43.3,33.4c11.5,8.2,23.7,13.2,36.8,18.7
				c12.7,5.4,24.9,10.4,38.3,13.5c8.8,2,17.7,3.6,26.6,5.1c16,5,31.9,5.7,47.9,2.1c16-0.7,30.8-5.5,44.6-14.2
				c14-7.5,25.2-17.8,33.7-30.9c10.6-11.6,17.8-25.2,21.5-40.8c1.4-10.6,2.9-21.3,4.3-31.9c-0.1-21.7-5.5-41.8-16.4-60.6
				c-6.3-8.1-12.5-16.2-18.8-24.3C422.5,244.8,404.9,234.5,384.6,228.8L384.6,228.8z"/>
		</g>
	</g>
</g>
<g id="Layer_2">
	<path class="st1" d="M730.2,685.2c-1.4-0.6-2.8-1.3-4.1-2.2L730.2,685.2z"/>
	<line class="st1" x1="774" y1="709" x2="730.2" y2="685.2"/>
	<line class="st1" x1="652.7" y1="644.6" x2="652.5" y2="644.5"/>
	<line class="st1" x1="983.5" y1="643.5" x2="858.5" y2="710.5"/>
	<line class="st1" x1="650.5" y1="816.5" x2="774.5" y2="708.5"/>
	<line class="st1" x1="985.5" y1="818.5" x2="858.5" y2="710.5"/>
	<path class="st1" d="M960.3,634.5h-38.8v-57c0-16-13-29-29-29h-151c-16,0-29,13-29,29v57h-33.8c-10,0-19,4-25.6,10.6
		c-6.6,6.6-10.7,15.6-10.7,25.7v122.5c0,9,3.3,17.2,8.7,23.6c6.6,7.8,16.5,12.7,27.5,12.7h281.5c10,0,19-4.1,25.6-10.6
		c6.6-6.6,10.6-15.6,10.6-25.6V670.7C996.5,650.7,980.3,634.5,960.3,634.5z M726.1,683l4.1,2.2C728.7,684.6,727.4,683.9,726.1,683z"
		/>
	<path class="st1" d="M730.2,685.2c-1.4-0.6-2.8-1.3-4.1-2.2L730.2,685.2z"/>
	<line class="st1" x1="726.5" y1="683.5" x2="652.5" y2="644.5"/>
	<line class="st1" x1="712.5" y1="635" x2="712.5" y2="657"/>
	<line class="st1" x1="921.5" y1="635" x2="921.5" y2="665"/>
	<line class="st1" x1="773.5" y1="709.5" x2="815.5" y2="677.5"/>
	<line class="st1" x1="858.5" y1="710.5" x2="815.5" y2="677.5"/>
	<path class="st2" d="M803.5,602.5h-61c-6.6,0-12-5.4-12-12v-10c0-6.6,5.4-12,12-12h61c6.6,0,12,5.4,12,12v10
		C815.5,597.1,810.1,602.5,803.5,602.5z"/>
	<path class="st3" d="M905,568.5h-60c-4.7,0-8.5,3.8-8.5,8.5l0,0c0,4.7,3.8,8.5,8.5,8.5h60c4.7,0,8.5-3.8,8.5-8.5l0,0
		C913.5,572.3,909.7,568.5,905,568.5z"/>
	<path class="st3" d="M905,634.5H744c-4.7,0-8.5-3.8-8.5-8.5l0,0c0-4.7,3.8-8.5,8.5-8.5h161c4.7,0,8.5,3.8,8.5,8.5l0,0
		C913.5,630.7,909.7,634.5,905,634.5z"/>
	<path class="st3" d="M908.5,607.5h-67c-2.8,0-5-2.3-5-5l0,0c0-2.8,2.3-5,5-5h67c2.8,0,5,2.3,5,5l0,0
		C913.5,605.3,911.3,607.5,908.5,607.5z"/>
	<path class="st3" d="M908.5,654.5h-169c-2.8,0-5-2.3-5-5l0,0c0-2.8,2.3-5,5-5h169c2.8,0,5,2.3,5,5l0,0
		C913.5,652.3,911.3,654.5,908.5,654.5z"/>
	<path class="st3" d="M908.5,674.5h-169c-2.8,0-5-2.3-5-5l0,0c0-2.8,2.3-5,5-5h169c2.8,0,5,2.3,5,5l0,0
		C913.5,672.3,911.3,674.5,908.5,674.5z"/>
</g>
</svg>
