<?xml version="1.0" encoding="utf-8"?>
<!-- Generator: Adobe Illustrator 19.0.0, SVG Export Plug-In . SVG Version: 6.00 Build 0)  -->
<svg version="1.1" xmlns="http://www.w3.org/2000/svg" xmlns:xlink="http://www.w3.org/1999/xlink" x="0px" y="0px"
	 viewBox="-392 -709.8 1134.4 709.8" style="enable-background:new -392 -709.8 1134.4 709.8;" xml:space="preserve">
<style type="text/css">
	.st0{fill:#F2F2F2;}
	.st1{fill:#3F3D56;}
	.st2{fill:#FCC911;}
	.st3{fill:#FFFFFF;}
	.st4{opacity:3.000000e-002;enable-background:new    ;}
	.st5{fill:url(#SVGID_1_);}
	.st6{fill:url(#SVGID_2_);}
	.st7{fill:url(#SVGID_3_);}
	.st8{fill:#F5F5F5;}
	.st9{opacity:0.3;fill:#FCC911;enable-background:new    ;}
	.st10{fill:url(#SVGID_4_);}
	.st11{fill:url(#SVGID_5_);}
	.st12{fill:url(#SVGID_6_);}
	.st13{fill:url(#SVGID_7_);}
	.st14{fill:#D0CDE1;}
	.st15{fill:#E6E6E6;}
	.st16{fill:#FF6584;}
	.st17{opacity:0.2;enable-background:new    ;}
	.st18{fill:#CCCCCC;}
</style>
<g id="Layer_2">
	<rect x="-392" y="-709.8" class="st0" width="1134.4" height="709.8"/>
</g>
<g id="fd01fc53-8d1b-486a-a481-e11f41af06c1">
	<title>destinations</title>
	<path class="st1" d="M-54.7-315c-0.4-2.4-0.7-4.9-0.8-7.4l1.2-0.1c0.2,2.4,0.4,4.9,0.8,7.3L-54.7-315z M-55.8-329.8
		c0-2.5,0.2-5,0.4-7.4l1.2,0.1c-0.2,2.4-0.4,4.9-0.4,7.3L-55.8-329.8z M-54.4-344.6c0.4-2.4,1-4.9,1.6-7.3l1.2,0.3
		c-0.6,2.4-1.2,4.8-1.6,7.2L-54.4-344.6z M-49.4-358.5l-1.1-0.4c0.8-2.3,1.8-4.6,2.8-6.9l1.1,0.5C-47.7-363.1-48.6-360.8-49.4-358.5
		z M-43.4-371.9l-1.1-0.6c1.2-2.2,2.5-4.3,3.9-6.3l1,0.7C-40.9-376.1-42.2-374-43.4-371.9L-43.4-371.9z M-35.2-384.1l-0.9-0.8
		c1.5-1.9,3.2-3.8,4.9-5.6l0.9,0.8C-32.1-387.9-33.7-386-35.2-384.1L-35.2-384.1z M123.2-335.8c-0.2-2.4-0.5-4.9-0.9-7.3l1.2-0.2
		c0.4,2.4,0.7,4.9,0.9,7.4L123.2-335.8z M-25.2-394.8l-0.8-0.9c1.8-1.7,3.8-3.2,5.7-4.7l0.7,1C-21.5-398-23.4-396.4-25.2-394.8z
		 M120.8-350.3c-0.6-2.4-1.3-4.7-2.1-7l1.1-0.4c0.8,2.3,1.5,4.7,2.1,7.1L120.8-350.3z M-13.5-403.6l-0.7-1c2.1-1.3,4.2-2.6,6.4-3.7
		l0.6,1.1C-9.4-406.2-11.5-405-13.5-403.6z M116.1-364.2c-1-2.2-2-4.5-3.2-6.6l1.1-0.6c1.2,2.2,2.3,4.4,3.2,6.7L116.1-364.2z
		 M-0.6-410.5l-0.5-1.1c2.3-1,4.6-1.9,6.9-2.6l0.4,1.1C4-412.3,1.7-411.5-0.6-410.5z M109.2-377.1c-1.3-2-2.7-4.1-4.2-6l1-0.7
		c1.5,2,3,4,4.3,6.1L109.2-377.1z M13.3-415.2l-0.3-1.2c2.4-0.6,4.8-1.1,7.3-1.5l0.2,1.2C18.1-416.2,15.7-415.7,13.3-415.2z
		 M100.2-388.7c-1.6-1.8-3.4-3.6-5.2-5.2l0.8-0.9c1.8,1.7,3.6,3.5,5.2,5.3L100.2-388.7z M27.8-417.5l-0.1-1.2c2.5-0.2,5-0.3,7.4-0.3
		l0,1.2C32.7-417.7,30.2-417.7,27.8-417.5z M89.5-398.7c-1.9-1.5-3.9-2.9-6-4.3l0.7-1c2.1,1.4,4.1,2.8,6,4.3L89.5-398.7z
		 M42.4-417.4l0.1-1.2c2.5,0.2,4.9,0.6,7.4,1l-0.2,1.2C47.3-416.8,44.8-417.1,42.4-417.4L42.4-417.4z M77.3-406.8
		c-2.1-1.2-4.3-2.3-6.6-3.2l0.5-1.1c2.3,1,4.5,2.1,6.7,3.3L77.3-406.8z M56.9-414.8l0.3-1.2c2.4,0.6,4.8,1.4,7.1,2.2l-0.4,1.1
		C61.6-413.5,59.2-414.2,56.9-414.8z"/>
	<path class="st1" d="M123.4-324.8c0.1-1.2,0.1-2.4,0.1-3.6l1.2,0c0,1.2,0,2.4-0.1,3.7L123.4-324.8z"/>
	<path class="st1" d="M137.6-391.5l-1.1-0.4c0.4-1.1,0.8-2.3,1.2-3.4l1.1,0.4C138.4-393.7,138-392.6,137.6-391.5z"/>
	<path class="st1" d="M141.6-401.6l-1.1-0.5c1-2.2,2.1-4.5,3.3-6.6l1.1,0.6C143.6-406,142.6-403.8,141.6-401.6z M148.5-414.4l-1-0.7
		c1.3-2.1,2.7-4.1,4.2-6.1l1,0.7C151.2-418.5,149.8-416.5,148.5-414.4z M335.7-366.2c-0.2-2.4-0.4-4.9-0.7-7.2l1.2-0.2
		c0.3,2.4,0.6,4.9,0.7,7.3L335.7-366.2z M157.2-426.1l-0.9-0.8c1.6-1.9,3.3-3.7,5-5.4l0.9,0.9C160.4-429.7,158.8-427.9,157.2-426.1z
		 M333.7-380.6c-0.5-2.4-1.1-4.7-1.8-7.1l1.2-0.3c0.7,2.4,1.3,4.8,1.8,7.2L333.7-380.6z M167.5-436.4l-0.8-0.9
		c1.8-1.6,3.8-3.2,5.7-4.6l0.7,1C171.2-439.5,169.3-438,167.5-436.4L167.5-436.4z M329.6-394.6c-0.8-2.3-1.8-4.5-2.8-6.7l1.1-0.5
		c1,2.2,1.9,4.5,2.8,6.8L329.6-394.6z M179.1-445.1l-0.7-1c2.1-1.3,4.2-2.6,6.3-3.8l0.6,1.1C183.3-447.7,181.2-446.5,179.1-445.1z
		 M323.7-407.9c-1.1-2.1-2.4-4.2-3.7-6.3l1-0.6c1.3,2.1,2.6,4.2,3.7,6.4L323.7-407.9z M191.9-452.1l-0.5-1.1c2.2-1,4.5-2,6.8-2.8
		l0.4,1.1C196.4-454.1,194.1-453.1,191.9-452.1L191.9-452.1z M315.9-420.2c-1.4-1.9-3-3.9-4.5-5.7l0.9-0.8c1.6,1.9,3.1,3.8,4.6,5.8
		L315.9-420.2z M205.6-457.2l-0.3-1.2c2.3-0.7,4.7-1.3,7.1-1.8l0.3,1.2C210.3-458.5,207.9-457.9,205.6-457.2L205.6-457.2z
		 M306.4-431.3c-1.7-1.7-3.5-3.4-5.3-5l0.8-0.9c1.8,1.6,3.7,3.3,5.4,5L306.4-431.3z M219.8-460.3l-0.2-1.2c2.4-0.3,4.9-0.6,7.3-0.8
		l0.1,1.2C224.6-460.9,222.2-460.7,219.8-460.3L219.8-460.3z M295.4-440.9c-1.9-1.5-3.9-2.9-6-4.2l0.7-1c2.1,1.3,4.1,2.8,6,4.2
		L295.4-440.9z M234.3-461.4l0-1.2c2.4,0,4.9,0.1,7.4,0.3l-0.1,1.2C239.2-461.3,236.7-461.4,234.3-461.4L234.3-461.4z M283.2-448.8
		c-2.1-1.2-4.3-2.3-6.5-3.3l0.5-1.1c2.2,1,4.4,2.1,6.6,3.3L283.2-448.8z M248.8-460.3l0.2-1.2c2.4,0.4,4.9,0.8,7.3,1.3L256-459
		C253.6-459.5,251.2-459.9,248.8-460.3L248.8-460.3z M269.9-454.8c-2.3-0.9-4.6-1.6-6.9-2.3l0.3-1.2c2.3,0.7,4.7,1.5,7,2.3
		L269.9-454.8z"/>
	<path class="st1" d="M335.8-355.3c0.1-1.2,0.1-2.4,0.1-3.6l1.2,0c0,1.2,0,2.4-0.1,3.6L335.8-355.3z"/>
	
		<ellipse transform="matrix(3.806731e-002 -0.9993 0.9993 3.806731e-002 241.3996 -332.05)" class="st2" cx="-51.8" cy="-291.4" rx="1.5" ry="20.1"/>
	
		<ellipse transform="matrix(0.1703 -0.9854 0.9854 0.1703 406.299 -137.716)" class="st2" cx="121.4" cy="-310.1" rx="1.5" ry="20.1"/>
	
		<ellipse transform="matrix(0.1338 -0.991 0.991 0.1338 604.1279 49.4774)" class="st2" cx="330.4" cy="-320.9" rx="1.5" ry="20.1"/>
	
		<rect x="243.5" y="-308.8" transform="matrix(-0.8928 0.4505 -0.4505 -0.8928 403.1693 -712.4267)" class="st1" width="85.7" height="1.2"/>
	
		<rect x="129.4" y="-303.5" transform="matrix(-0.9499 -0.3127 0.3127 -0.9499 446.2362 -534.3221)" class="st1" width="101.7" height="1.2"/>
	
		<rect x="36.1" y="-299.3" transform="matrix(-0.8928 0.4505 -0.4505 -0.8928 9.8315 -599.7977)" class="st1" width="80.5" height="1.2"/>
	
		<rect x="-45.1" y="-289.7" transform="matrix(-0.9499 -0.3127 0.3127 -0.9499 68.6434 -567.1728)" class="st1" width="68" height="1.2"/>
	
		<rect x="-153.3" y="-277.3" transform="matrix(-0.8928 0.4505 -0.4505 -0.8928 -324.4987 -476.2374)" class="st1" width="95.5" height="1.2"/>
	<path class="st1" d="M-57-292.4c-5.9-1.9-9.1-8.2-7.1-14.1c1.9-5.9,8.2-9.1,14.1-7.1s9.1,8.2,7.1,14.1c0,0,0,0,0,0
		C-44.8-293.7-51.1-290.5-57-292.4z M-50.4-312.5c-5.2-1.7-10.9,1.1-12.6,6.4c-1.7,5.2,1.1,10.9,6.4,12.6c5.2,1.7,10.9-1.1,12.6-6.4
		c0,0,0,0,0,0C-42.3-305.1-45.1-310.8-50.4-312.5z"/>
	<path class="st1" d="M27.7-264.5c-5.9-1.9-9.1-8.2-7.1-14.1c1.9-5.9,8.2-9.1,14.1-7.1s9.1,8.2,7.1,14.1l0,0
		C39.9-265.8,33.5-262.6,27.7-264.5z M34.3-284.6c-5.2-1.7-10.9,1.1-12.6,6.4s1.1,10.9,6.4,12.6c5.2,1.7,10.9-1.1,12.6-6.4l0,0
		C42.4-277.3,39.5-282.9,34.3-284.6z"/>
	<path class="st1" d="M118.4-311.5c-5.9-1.9-9.1-8.2-7.1-14.1c1.9-5.9,8.2-9.1,14.1-7.1c5.9,1.9,9.1,8.2,7.1,14.1
		C130.6-312.8,124.3-309.6,118.4-311.5z M125-331.6c-5.2-1.7-10.9,1.1-12.6,6.4s1.1,10.9,6.4,12.6c5.2,1.7,10.9-1.1,12.6-6.4
		C133.1-324.3,130.3-329.9,125-331.6L125-331.6z"/>
	<path class="st1" d="M235.1-273.1c-5.9-1.9-9.1-8.2-7.1-14.1c1.9-5.9,8.2-9.1,14.1-7.1c5.9,1.9,9.1,8.2,7.1,14.1
		C247.3-274.4,241-271.2,235.1-273.1z M241.7-293.2c-5.2-1.7-10.9,1.1-12.6,6.4c-1.7,5.2,1.1,10.9,6.4,12.6
		c5.2,1.7,10.9-1.1,12.6-6.4C249.8-285.8,247-291.5,241.7-293.2L241.7-293.2z"/>
	<path class="st1" d="M330.7-321.7c-5.9-1.9-9.1-8.2-7.1-14.1c1.9-5.9,8.2-9.1,14.1-7.1c5.9,1.9,9.1,8.2,7.1,14.1
		C342.8-323,336.5-319.8,330.7-321.7z M337.3-341.8c-5.2-1.7-10.9,1.1-12.6,6.4c-1.7,5.2,1.1,10.9,6.4,12.6
		c5.2,1.7,10.9-1.1,12.6-6.4C345.3-334.4,342.5-340.1,337.3-341.8L337.3-341.8z"/>
	<path class="st1" d="M-161.2-239.8c-5.9-1.9-9.1-8.2-7.1-14.1c1.9-5.9,8.2-9.1,14.1-7.1c5.9,1.9,9.1,8.2,7.1,14.1c0,0,0,0,0,0
		C-149.1-241.1-155.4-237.9-161.2-239.8z M-154.6-259.9c-5.2-1.7-10.9,1.1-12.6,6.4c-1.7,5.2,1.1,10.9,6.4,12.6
		c5.2,1.7,10.9-1.1,12.6-6.4c0,0,0,0,0,0C-146.6-252.5-149.4-258.1-154.6-259.9z"/>
	<path class="st2" d="M-77.4-365.9c-10.3,4.3-15.1,16.1-10.8,26.3c0,0,0,0,0,0c4.3,10.3,37,36.4,37,36.4s4.4-41.6,0.2-51.9
		C-55.3-365.4-67.1-370.2-77.4-365.9C-77.4-365.9-77.4-365.9-77.4-365.9z M-65.5-337.6c-5.4,2.3-11.6-0.3-13.8-5.7
		c-2.3-5.4,0.3-11.6,5.7-13.8c5.4-2.3,11.6,0.3,13.8,5.7C-57.6-346-60.2-339.8-65.5-337.6C-65.5-337.6-65.5-337.6-65.5-337.6z"/>
	<path class="st2" d="M133.4-390.9c-11-1.6-21.2,6.1-22.8,17.1c-1.6,11,13.1,50.2,13.1,50.2s25.1-33.5,26.7-44.5
		C152.1-379.1,144.4-389.3,133.4-390.9C133.4-390.9,133.4-390.9,133.4-390.9z M129.1-360.5c-5.8-0.8-9.8-6.2-9-12
		c0.8-5.8,6.2-9.8,12-9c5.8,0.8,9.8,6.2,9,12C140.2-363.7,134.8-359.7,129.1-360.5L129.1-360.5z"/>
	<path class="st2" d="M378.8-382.9c-8.5-7.1-21.2-6-28.4,2.5l0,0c-7.1,8.5-15.3,49.6-15.3,49.6s39-15.2,46.2-23.7
		C388.4-363.1,387.3-375.8,378.8-382.9C378.8-382.9,378.8-382.9,378.8-382.9z M359.1-359.4c-4.5-3.8-5.1-10.4-1.3-14.9
		c3.8-4.5,10.4-5.1,14.9-1.3c4.5,3.8,5.1,10.4,1.3,14.9C370.2-356.2,363.5-355.6,359.1-359.4L359.1-359.4L359.1-359.4z"/>
	<path class="st3" d="M91.6-86.5L76-76.6l9.4-17.1c-2.7-2.1-6-3.3-9.4-3.3h-0.3c-1.1,0-2.2-0.1-3.2-0.2L67.3-94l2.3-4.1
		c-3.7-1.3-6.9-3.8-9.2-7l-9.4,6l5.9-10.8c-5.5-6.6-12.9-10.7-21.1-10.7c-9.8,0-18.5,5.8-24.1,14.9c-3.4,5.5-9.5,8.8-16,8.6h-0.5
		c-10.8,0-19.6,12.3-19.6,27.4s8.8,27.4,19.6,27.4c2.4,0,4.7-0.6,6.8-1.7c7.4-3.6,16.1-3.8,23.7-0.5c6.4,2.9,13.7,2.9,20.1,0
		c7.5-3.3,16.1-3.1,23.5,0.5c2.1,1.1,4.4,1.7,6.8,1.7c10.8,0,19.6-12.3,19.6-27.4C95.7-75.6,94.3-81.3,91.6-86.5z"/>
	<path class="st4" d="M62.3-46.4c-5.6-1.1-11.5-0.4-16.8,1.8c-6.4,2.9-13.7,2.9-20.1,0c-7.6-3.3-16.2-3.2-23.7,0.5
		c-2.1,1.1-4.4,1.7-6.8,1.7c-9.6,0-17.6-9.7-19.3-22.4c1.9-1.4,3.6-3.2,4.8-5.2c5.6-9.1,14.4-14.9,24.1-14.9s18.4,5.7,24,14.7
		c3.4,5.5,9.5,8.8,16,8.8h0.3C52.5-61.5,59.1-55.4,62.3-46.4z"/>
	<path class="st3" d="M401.6-645.1l-13,3.4l10.1-9.6c-1.5-2-3.6-3.5-6-4.2l-0.2-0.1c-0.8-0.2-1.5-0.5-2.3-0.8l-4.4,1.2l2.4-2.3
		c-2.4-1.7-4.2-4-5.2-6.6L375-662l6.4-6.1c-2.6-5.6-7.1-9.9-13-11.6c-7-2-14.4,0.1-20.1,5.1c-3.5,3-8.5,4-13.1,2.5l-0.4-0.1
		c-7.7-2.2-16.4,4.2-19.3,14.5c-2.9,10.2,0.9,20.3,8.6,22.5c1.7,0.5,3.5,0.6,5.2,0.2c6-0.9,12.2,0.8,17,4.6c4,3.3,9.2,4.8,14.4,4.2
		c6-0.7,12.1,1.2,16.7,5.1c1.3,1.2,2.8,2,4.5,2.5c7.7,2.2,16.4-4.2,19.3-14.5C402.4-636.8,402.5-641,401.6-645.1z"/>
	<path class="st4" d="M372.9-624c-3.8-1.9-8.1-2.7-12.3-2.2c-5.1,0.6-10.4-0.9-14.4-4.2c-4.8-3.8-11-5.5-17-4.6
		c-1.7,0.3-3.5,0.2-5.2-0.3c-6.9-2-10.7-10.2-9.4-19.1c1.6-0.5,3.2-1.4,4.4-2.5c5.8-5,13.2-7.1,20.1-5.1s12,7.6,14.3,14.9
		c1.4,4.4,5.1,7.9,9.7,9.2l0.2,0.1C368.8-636.2,372.3-630.7,372.9-624z"/>
	<path class="st3" d="M-199.7-571.2l-7.8,4.9l4.7-8.5c-1.3-1.1-3-1.7-4.7-1.7h-0.1c-0.5,0-1.1,0-1.6-0.1l-2.6,1.7l1.1-2
		c-1.9-0.7-3.5-1.9-4.6-3.5l-4.7,3l3-5.4c-2.5-3.3-6.4-5.2-10.5-5.3c-4.9,0-9.2,2.9-12,7.4c-1.7,2.8-4.8,4.4-8,4.3h-0.3
		c-5.4,0-9.8,6.1-9.8,13.7c0,7.5,4.4,13.7,9.8,13.7c1.2,0,2.4-0.3,3.4-0.9c3.7-1.8,8-1.9,11.8-0.2c3.2,1.4,6.8,1.4,10,0
		c3.8-1.6,8-1.5,11.7,0.2c1,0.5,2.2,0.8,3.4,0.8c5.4,0,9.8-6.1,9.8-13.7C-197.7-565.8-198.4-568.6-199.7-571.2z"/>
	<path class="st4" d="M-214.3-551.2c-2.8-0.5-5.7-0.2-8.4,0.9c-1.6,0.7-3.3,1.1-5,1.1c-1.7,0-3.5-0.4-5.1-1.1
		c-3.8-1.7-8.1-1.6-11.8,0.2c-1,0.6-2.2,0.8-3.4,0.9c-4.8,0-8.8-4.8-9.6-11.2c1-0.7,1.8-1.6,2.4-2.6c2.8-4.5,7.1-7.4,12-7.4
		s9.2,2.9,12,7.3c1.7,2.8,4.7,4.4,8,4.4h0.1C-219.3-558.8-215.9-555.7-214.3-551.2z"/>
	<path class="st3" d="M233.1-660.1l-7.8,4.9l4.7-8.5c-1.3-1.1-3-1.7-4.7-1.7h-0.1c-0.5,0-1.1,0-1.6-0.1l-2.6,1.7l1.1-2
		c-1.9-0.7-3.5-1.9-4.6-3.5l-4.7,3l3-5.4c-2.5-3.3-6.4-5.2-10.5-5.3c-4.9,0-9.2,2.9-12,7.4c-1.7,2.8-4.8,4.4-8,4.3h-0.3
		c-5.4,0-9.8,6.1-9.8,13.7s4.4,13.7,9.8,13.7c1.2,0,2.4-0.3,3.4-0.8c3.7-1.8,8-1.9,11.8-0.2c3.2,1.4,6.8,1.4,10,0
		c3.8-1.6,8-1.5,11.7,0.2c1,0.5,2.2,0.8,3.4,0.8c5.4,0,9.8-6.1,9.8-13.7C235.2-654.6,234.5-657.5,233.1-660.1z"/>
	<path class="st4" d="M218.5-640.1c-2.8-0.5-5.7-0.2-8.4,0.9c-1.6,0.7-3.3,1.1-5,1.1c-1.7,0-3.5-0.4-5-1.1
		c-3.8-1.7-8.1-1.6-11.8,0.2c-1,0.6-2.2,0.8-3.4,0.8c-4.8,0-8.8-4.8-9.6-11.2c1-0.7,1.8-1.6,2.4-2.6c2.8-4.5,7.2-7.4,12-7.4
		s9.2,2.9,12,7.3c1.7,2.8,4.7,4.4,8,4.4h0.1C213.6-647.6,216.9-644.6,218.5-640.1z"/>
	<path class="st3" d="M-229.7-56.2l-7.8,4.9l4.7-8.5c-1.3-1.1-3-1.7-4.7-1.7h-0.1c-0.5,0-1.1,0-1.6-0.1l-2.6,1.7l1.1-2
		c-1.9-0.7-3.5-1.9-4.6-3.5l-4.7,3l3-5.4c-2.5-3.3-6.4-5.2-10.5-5.3c-4.9,0-9.2,2.9-12,7.4c-1.7,2.8-4.8,4.4-8,4.3h-0.3
		c-5.4,0-9.8,6.1-9.8,13.7s4.4,13.7,9.8,13.7c1.2,0,2.4-0.3,3.4-0.8c3.7-1.8,8-1.9,11.8-0.2c3.2,1.4,6.8,1.4,10,0
		c3.8-1.6,8-1.5,11.7,0.2c1,0.5,2.2,0.8,3.4,0.8c5.4,0,9.8-6.1,9.8-13.7C-227.7-50.8-228.4-53.6-229.7-56.2z"/>
	<path class="st4" d="M-244.3-36.2c-2.8-0.5-5.7-0.2-8.4,0.9c-1.6,0.7-3.3,1.1-5,1.1c-1.7,0-3.5-0.4-5.1-1.1
		c-3.8-1.7-8.1-1.6-11.8,0.2c-1,0.6-2.2,0.8-3.4,0.8c-4.8,0-8.8-4.8-9.6-11.2c1-0.7,1.8-1.6,2.4-2.6c2.8-4.5,7.1-7.4,12-7.4
		s9.2,2.9,12,7.3c1.7,2.8,4.7,4.4,8,4.4h0.1C-249.3-43.8-245.9-40.7-244.3-36.2z"/>
	<path class="st3" d="M97.8-661.2L86.3-654l6.9-12.6c-2-1.6-4.4-2.4-6.9-2.5h-0.2c-0.8,0-1.6,0-2.4-0.2l-3.9,2.5l1.7-3
		c-2.7-1-5.1-2.8-6.8-5.2l-6.9,4.4l4.4-8c-4.1-4.9-9.5-7.9-15.5-7.9c-7.2,0-13.6,4.3-17.8,11c-2.5,4.1-7,6.5-11.8,6.3h-0.4
		c-8,0-14.4,9-14.4,20.2c0,11.1,6.5,20.2,14.4,20.2c1.8,0,3.5-0.4,5-1.3c5.5-2.7,11.9-2.8,17.5-0.3c4.7,2.1,10.1,2.1,14.8,0
		c5.5-2.4,11.8-2.3,17.3,0.3c1.5,0.8,3.2,1.2,5,1.2c8,0,14.4-9,14.4-20.2C100.8-653.2,99.8-657.4,97.8-661.2z"/>
	<path class="st4" d="M76.2-631.7c-4.2-0.8-8.5-0.3-12.4,1.3c-4.7,2.1-10.1,2.1-14.8,0c-5.6-2.5-12-2.3-17.5,0.3
		c-1.5,0.8-3.3,1.3-5,1.3c-7.1,0-13-7.1-14.2-16.5c1.4-1,2.6-2.3,3.5-3.8c4.1-6.7,10.6-11,17.8-11c7.2,0,13.6,4.2,17.7,10.8
		c2.5,4.1,7,6.5,11.8,6.5h0.2C69-642.8,73.8-638.3,76.2-631.7z"/>
	<path class="st3" d="M713.5-394.9l-7.8,4.9l4.7-8.5c-1.3-1.1-3-1.7-4.7-1.7h-0.1c-0.5,0-1.1,0-1.6-0.1l-2.6,1.7l1.1-2
		c-1.9-0.7-3.5-1.9-4.6-3.5l-4.7,3l3-5.4c-2.5-3.3-6.4-5.2-10.5-5.3c-4.9,0-9.2,2.9-12,7.4c-1.7,2.8-4.8,4.4-8,4.3h-0.3
		c-5.4,0-9.8,6.1-9.8,13.7s4.4,13.6,9.8,13.6c1.2,0,2.4-0.3,3.4-0.9c3.7-1.8,8-1.9,11.8-0.2c3.2,1.4,6.8,1.4,10,0
		c3.8-1.6,8-1.5,11.7,0.2c1,0.5,2.2,0.8,3.4,0.8c5.4,0,9.8-6.1,9.8-13.6C715.6-389.4,714.9-392.3,713.5-394.9z"/>
	<path class="st4" d="M698.9-374.9c-2.8-0.5-5.7-0.2-8.4,0.9c-1.6,0.7-3.3,1.1-5,1.1c-1.7,0-3.4-0.4-5-1.1
		c-3.8-1.7-8.1-1.6-11.8,0.2c-1,0.6-2.2,0.8-3.4,0.9c-4.8,0-8.8-4.8-9.6-11.2c1-0.7,1.8-1.6,2.4-2.6c2.8-4.5,7.2-7.4,12-7.4
		s9.2,2.9,12,7.3c1.7,2.7,4.7,4.4,7.9,4.4h0.1C694-382.4,697.3-379.4,698.9-374.9z"/>
	<path class="st1" d="M-111.9-648.8c-9.2,3.5-13.8,13.7-10.3,22.9c3.5,9.2,13.7,13.8,22.9,10.3c9.2-3.5,13.8-13.7,10.3-22.9
		C-92.5-647.6-102.7-652.2-111.9-648.8z M-97.3-633.5c-0.2,0.1-0.7,0.3-0.9,0.3l-3.3,1.2c0,0-0.1,0-0.1,0.1l-2.1,9.2
		c-0.1,0.3-0.3,0.5-0.5,0.6l-1.2,0.5c-0.3,0.1-0.5-0.1-0.5-0.4l-0.2-8.2c0-0.1,0-0.1-0.1-0.1c0,0,0,0,0,0l-6.2,2.2
		c-0.1,0-0.2,0.2-0.3,0.3l-1,3c-0.1,0.3-0.3,0.5-0.5,0.5l-0.8,0.3c-0.1,0-0.2,0-0.3-0.1c0,0,0,0,0-0.1l-0.3-3.8
		c0-0.2-0.1-0.4-0.2-0.6l-2.3-3.1c-0.1-0.1-0.1-0.2,0-0.3c0,0,0,0,0.1,0l0.8-0.3c0.2-0.1,0.5-0.1,0.8,0.1l2.7,1.6
		c0.1,0.1,0.3,0.1,0.4,0l6.1-2.4c0.1,0,0.1-0.1,0.1-0.1c0,0,0,0,0,0l-5.3-6.2c-0.2-0.2-0.2-0.5,0.1-0.6l1.2-0.5
		c0.3-0.1,0.6-0.1,0.8,0.1l7.7,5.5c0,0,0.1,0,0.1,0l3.2-1.3c0.2-0.1,0.7-0.3,0.9-0.4c2.2-0.9,3.9-0.7,4.3,0.2
		C-93.9-635.6-95.1-634.3-97.3-633.5z"/>
	
		<linearGradient id="SVGID_1_" gradientUnits="userSpaceOnUse" x1="-209.5142" y1="-375.3085" x2="-209.5142" y2="-284.2" gradientTransform="matrix(0.8116 -0.5842 -0.5842 -0.8116 -221.4257 -807.6826)">
		<stop  offset="0" style="stop-color:#808080;stop-opacity:0.25"/>
		<stop  offset="0.5351" style="stop-color:#808080;stop-opacity:0.12"/>
		<stop  offset="1" style="stop-color:#808080;stop-opacity:0.1"/>
	</linearGradient>
	<polygon class="st5" points="-159.2,-394.4 -187.3,-369.8 -238.5,-440.9 -210.3,-465.5 	"/>
	
		<linearGradient id="SVGID_2_" gradientUnits="userSpaceOnUse" x1="-172.2979" y1="-375.3085" x2="-172.2979" y2="-284.2" gradientTransform="matrix(0.8116 -0.5842 -0.5842 -0.8116 -221.4257 -807.6826)">
		<stop  offset="0" style="stop-color:#808080;stop-opacity:0.25"/>
		<stop  offset="0.5351" style="stop-color:#808080;stop-opacity:0.12"/>
		<stop  offset="1" style="stop-color:#808080;stop-opacity:0.1"/>
	</linearGradient>
	<polygon class="st6" points="-159.2,-394.4 -126.9,-413.3 -178.1,-484.4 -210.3,-465.5 	"/>
	
		<linearGradient id="SVGID_3_" gradientUnits="userSpaceOnUse" x1="-135.4465" y1="-375.3085" x2="-135.4465" y2="-284.2" gradientTransform="matrix(0.8116 -0.5842 -0.5842 -0.8116 -221.4257 -807.6826)">
		<stop  offset="0" style="stop-color:#808080;stop-opacity:0.25"/>
		<stop  offset="0.5351" style="stop-color:#808080;stop-opacity:0.12"/>
		<stop  offset="1" style="stop-color:#808080;stop-opacity:0.1"/>
	</linearGradient>
	<polygon class="st7" points="-99.3,-437.4 -126.9,-413.3 -178.1,-484.4 -150.5,-508.6 	"/>
	<polygon class="st8" points="-160.5,-396.4 -187.9,-372.6 -237,-440.9 -209.7,-464.8 	"/>
	<polygon class="st3" points="-160.5,-396.4 -129.2,-414.8 -178.3,-483.2 -209.7,-464.8 	"/>
	<polygon class="st8" points="-101.8,-438.7 -129.2,-414.8 -178.3,-483.2 -151,-507 	"/>
	<polygon class="st9" points="-205.1,-458.5 -226.9,-441.7 -224.7,-438.6 -221.7,-434.4 -219.5,-431.4 -200.6,-445 -203.2,-448.7 
		-199.9,-451.3 -193.7,-453.4 -198.9,-460.6 	"/>
	<polygon class="st9" points="-163.8,-401.1 -187.1,-380.7 -193.7,-389.8 -170.4,-410.2 	"/>
	<polygon class="st9" points="-186.9,-427.4 -210.2,-407 -216.8,-416.1 -193.5,-436.6 	"/>
	
		<rect x="-152.4" y="-423.7" transform="matrix(-0.8116 0.5842 -0.5842 -0.8116 -508.4405 -673.0913)" class="st9" width="13.4" height="10.3"/>
	
		<rect x="-170.1" y="-440.7" transform="matrix(-0.8116 0.5842 -0.5842 -0.8116 -550.3391 -693.6212)" class="st9" width="13.4" height="10.3"/>
	
		<rect x="-184.4" y="-470" transform="matrix(-0.8116 0.5842 -0.5842 -0.8116 -593.3469 -738.3102)" class="st9" width="13.4" height="10.3"/>
	<polygon class="st9" points="-111.1,-442.9 -127.1,-429.2 -135.1,-440.3 -119.1,-454 	"/>
	<polygon class="st9" points="-141.2,-480.4 -157.2,-466.7 -165.1,-477.8 -149.2,-491.5 	"/>
	
		<linearGradient id="SVGID_4_" gradientUnits="userSpaceOnUse" x1="19.7696" y1="-358.551" x2="19.7696" y2="-330.9671" gradientTransform="matrix(0.8116 -0.5842 -0.5842 -0.8116 -378.9628 -759.1645)">
		<stop  offset="0" style="stop-color:#B3B3B3;stop-opacity:0.25"/>
		<stop  offset="0.5351" style="stop-color:#B3B3B3;stop-opacity:0.1"/>
		<stop  offset="1" style="stop-color:#B3B3B3;stop-opacity:5.000000e-002"/>
	</linearGradient>
	<path class="st10" d="M-157.5-499.9c2.9,4,4,20.2,4,20.2s-15-6.2-17.9-10.2s-2.1-9.4,1.8-12.2
		C-165.7-504.8-160.3-503.9-157.5-499.9z"/>
	
		<linearGradient id="SVGID_5_" gradientUnits="userSpaceOnUse" x1="-136.4351" y1="-289.2269" x2="-136.4351" y2="-283.8748" gradientTransform="matrix(0.8116 -0.5842 -0.5842 -0.8116 -221.4257 -807.6826)">
		<stop  offset="0" style="stop-color:#000000;stop-opacity:0.12"/>
		<stop  offset="0.5513" style="stop-color:#000000;stop-opacity:9.000000e-002"/>
		<stop  offset="1" style="stop-color:#000000;stop-opacity:2.000000e-002"/>
	</linearGradient>
	<path class="st11" d="M-166.3-497.6c1.2-0.8,2.8-0.5,3.7,0.7c0.9,1.2,0.6,2.8-0.5,3.7c-1.2,0.8-2.8,0.5-3.7-0.7
		S-167.5-496.7-166.3-497.6z"/>
	<path class="st2" d="M-158-499.5c2.6,3.5,3.4,18.2,3.4,18.2s-13.6-5.4-16.2-9c-2.6-3.5-1.8-8.5,1.8-11S-160.5-503.1-158-499.5
		C-158-499.5-158-499.5-158-499.5z"/>
	<circle class="st3" cx="-164.7" cy="-495.3" r="2.4"/>
	
		<linearGradient id="SVGID_6_" gradientUnits="userSpaceOnUse" x1="-52.5551" y1="-414.0789" x2="-52.5551" y2="-386.3" gradientTransform="matrix(0.8116 -0.5842 -0.5842 -0.8116 -378.9628 -759.1645)">
		<stop  offset="0" style="stop-color:#B3B3B3;stop-opacity:0.25"/>
		<stop  offset="0.5351" style="stop-color:#B3B3B3;stop-opacity:0.1"/>
		<stop  offset="1" style="stop-color:#B3B3B3;stop-opacity:5.000000e-002"/>
	</linearGradient>
	<path class="st12" d="M-183.6-412.8c2.9,4,3.9,20.5,3.9,20.5s-15.3-6.2-18.2-10.2s-2-9.5,1.9-12.4S-186.5-416.8-183.6-412.8z"/>
	
		<linearGradient id="SVGID_7_" gradientUnits="userSpaceOnUse" x1="-208.7598" y1="-344.637" x2="-208.7598" y2="-339.247" gradientTransform="matrix(0.8116 -0.5842 -0.5842 -0.8116 -221.4257 -807.6826)">
		<stop  offset="5.410000e-003" style="stop-color:#000000;stop-opacity:0.12"/>
		<stop  offset="0.5513" style="stop-color:#000000;stop-opacity:9.000000e-002"/>
		<stop  offset="1" style="stop-color:#000000;stop-opacity:5.000000e-002"/>
	</linearGradient>
	<path class="st13" d="M-192.7-410.4c1.2-0.9,2.9-0.6,3.7,0.6c0.9,1.2,0.6,2.9-0.6,3.7s-2.9,0.6-3.7-0.6
		C-194.1-407.9-193.9-409.5-192.7-410.4z"/>
	<path class="st2" d="M-184.4-412.4c2.6,3.5,3.4,18.2,3.4,18.2s-13.6-5.4-16.2-9c-2.6-3.5-1.7-8.5,1.8-11
		C-191.8-416.7-186.9-415.9-184.4-412.4L-184.4-412.4z"/>
	<circle class="st3" cx="-191.1" cy="-408.2" r="2.4"/>
	<path class="st2" d="M-149.2-436.9c2.6,3.5,3.4,18.2,3.4,18.2s-13.6-5.4-16.2-9c-2.6-3.5-1.8-8.5,1.8-11S-151.8-440.4-149.2-436.9
		C-149.2-436.9-149.2-436.9-149.2-436.9z"/>
	<circle class="st3" cx="-155.9" cy="-432.7" r="2.4"/>
	<path class="st2" d="M-127-459c2.6,3.5,3.4,18.2,3.4,18.2s-13.6-5.4-16.2-9c-2.6-3.5-1.7-8.5,1.8-11
		C-134.5-463.4-129.5-462.6-127-459z"/>
	<circle class="st3" cx="-133.7" cy="-454.9" r="2.4"/>
	<path class="st2" d="M-215.3-462.3c2.6,3.5,3.4,18.2,3.4,18.2s-13.6-5.4-16.2-9c-2.6-3.5-1.8-8.5,1.8-11S-217.9-465.8-215.3-462.3
		C-215.4-462.3-215.3-462.3-215.3-462.3L-215.3-462.3z"/>
	<circle class="st3" cx="-222.1" cy="-458.1" r="2.4"/>
	<path class="st1" d="M627.3-306.2l-2.1-19.4l-6.8,0.7l2.1,19.4l-100.7,10.9l-2.1-19.4l-6.8,0.7l2.1,19.4l-41.8,4.5l11.4,105.6
		l198-21.3l-11.4-105.6L627.3-306.2z M519-269.6c-5.9,0.6-11.2-3.6-11.8-9.5c-0.5-4.6,2-8.9,6.1-10.9l1.7,15.4l6.8-0.7l-1.7-15.4
		c5.8,1.3,9.4,7,8.1,12.8C527.3-273.4,523.5-270.1,519-269.6L519-269.6z M626.5-281.2c-5.9,0.6-11.2-3.6-11.8-9.5
		c-0.5-4.6,2-8.9,6.1-10.9l1.7,15.4l6.8-0.7l-1.7-15.4c5.8,1.3,9.4,7,8.1,12.8C634.8-285,631.1-281.6,626.5-281.2L626.5-281.2z"/>
	
		<rect x="485.7" y="-256.8" transform="matrix(-0.9942 0.1071 -0.1071 -0.9942 976.7933 -540.0953)" class="st14" width="34.4" height="26"/>
	
		<rect x="534" y="-262" transform="matrix(-0.9942 0.1071 -0.1071 -0.9942 1072.4863 -555.6371)" class="st14" width="34.4" height="26"/>
	
		<rect x="582.2" y="-267.2" transform="matrix(-0.9942 0.1071 -0.1071 -0.9942 1168.1792 -571.179)" class="st14" width="34.4" height="26"/>
	
		<rect x="630.5" y="-272.4" transform="matrix(-0.9942 0.1071 -0.1071 -0.9942 1263.8722 -586.7208)" class="st14" width="34.4" height="26"/>
	
		<rect x="489.3" y="-223.4" transform="matrix(-0.9942 0.1071 -0.1071 -0.9942 987.5624 -473.7883)" class="st14" width="34.4" height="26"/>
	
		<rect x="537.6" y="-228.6" transform="matrix(-0.9942 0.1071 -0.1071 -0.9942 1083.2555 -489.3302)" class="st14" width="34.4" height="26"/>
	
		<rect x="585.8" y="-233.8" transform="matrix(-0.9942 0.1071 -0.1071 -0.9942 1178.9484 -504.872)" class="st14" width="34.4" height="26"/>
	
		<rect x="634.1" y="-239" transform="matrix(-0.9942 0.1071 -0.1071 -0.9942 1274.6414 -520.4139)" class="st14" width="34.4" height="26"/>
	<polygon class="st2" points="599.9,-248.4 587.6,-262 590.3,-264.4 599.7,-254 627.6,-289.5 630.4,-287.3 	"/>
	<polygon class="st2" points="554.7,-207.4 542.4,-221 545.1,-223.4 554.5,-213 582.4,-248.5 585.2,-246.3 	"/>
	<path class="st15" d="M537.2-502.6c-0.3,0-0.6,0.3-0.6,0.6l0.1,42.7c0,0.3,0.3,0.6,0.6,0.6l59.5-0.1c0.3,0,0.6-0.3,0.6-0.6
		l-0.1-42.7c0-0.3-0.3-0.6-0.6-0.6L537.2-502.6z"/>
	<path class="st3" d="M593.4-498.9l0.1,30.3c0,0.4-0.3,0.8-0.8,0.8l-51.5,0.1c0,0-0.1,0-0.1,0c-0.4-0.1-0.7-0.4-0.7-0.8l-0.1-30.3
		c0-0.4,0.3-0.8,0.8-0.8l51.5-0.1C593.1-499.7,593.4-499.3,593.4-498.9z"/>
	<circle class="st16" cx="582.8" cy="-488.5" r="2.8"/>
	<circle class="st1" cx="538.4" cy="-501.1" r="0.9"/>
	<circle class="st1" cx="595.4" cy="-501.2" r="0.9"/>
	<circle class="st1" cx="538.4" cy="-460.2" r="0.9"/>
	<circle class="st1" cx="595.5" cy="-460.3" r="0.9"/>
	<circle class="st2" cx="557.4" cy="-480.9" r="3.3"/>
	<polygon class="st1" points="557.7,-470.9 557,-470.9 557.3,-481.4 	"/>
	<polygon class="st1" points="557.4,-479.5 558.1,-480.5 557.4,-479.2 557.3,-479.3 	"/>
	<polygon class="st1" points="557.3,-478.4 556.6,-479.4 557.3,-478.2 557.4,-478.3 	"/>
	<circle class="st2" cx="587.8" cy="-481" r="3.3"/>
	<polygon class="st1" points="588.2,-471 587.5,-471 587.8,-481.5 	"/>
	<polygon class="st1" points="587.9,-479.5 588.6,-480.5 587.8,-479.3 587.8,-479.4 	"/>
	<polygon class="st1" points="587.8,-478.5 587,-479.5 587.8,-478.2 587.9,-478.4 	"/>
	<circle class="st2" cx="567" cy="-483.9" r="4.9"/>
	<polygon class="st1" points="567.5,-469.1 566.5,-469.1 566.9,-484.6 	"/>
	<polygon class="st1" points="567,-481.7 568.1,-483.1 567,-481.3 566.9,-481.5 	"/>
	<polygon class="st1" points="566.9,-480.1 565.8,-481.6 566.9,-479.8 567,-480 	"/>
	<circle class="st2" cx="578.9" cy="-485.7" r="4.9"/>
	<polygon class="st1" points="579.4,-471 578.4,-471 578.9,-486.5 	"/>
	<polygon class="st1" points="579,-483.5 580,-485 579,-483.2 578.8,-483.4 	"/>
	<polygon class="st1" points="578.9,-482 577.8,-483.5 578.9,-481.7 579,-481.9 	"/>
	<circle class="st2" cx="547.9" cy="-485.7" r="4.9"/>
	<polygon class="st1" points="548.4,-470.9 547.4,-470.9 547.9,-486.4 	"/>
	<polygon class="st1" points="547.9,-483.5 549,-485 547.9,-483.1 547.8,-483.3 	"/>
	<polygon class="st1" points="547.8,-482 546.8,-483.5 547.8,-481.6 548,-481.8 	"/>
	<path class="st1" d="M567.3-467.7l-26.1,0c0,0-0.1,0-0.1,0c-0.4-0.1-0.7-0.4-0.7-0.8l0-6.5c2.5-0.4,4.9-0.6,7.4-0.6
		c9.3,0,17,2.6,19,6.2C567.1-468.9,567.3-468.3,567.3-467.7z"/>
	<path class="st1" d="M593.5-470l0,1.5c0,0.4-0.3,0.8-0.8,0.8l-28.9,0c0.9-0.7,1.9-1.2,3-1.7c3.5-1.5,8.5-2.5,14.1-2.5
		C585.7-471.9,590.1-471.2,593.5-470z"/>
	<path class="st15" d="M570.2-575.5c-0.1,0-0.2,0-0.3,0.1l-52.5,28c-0.3,0.2-0.4,0.5-0.3,0.8l20.1,37.7c0.2,0.3,0.5,0.4,0.8,0.3
		l52.5-28c0.3-0.2,0.4-0.5,0.3-0.8l-20.1-37.7c-0.1-0.1-0.2-0.3-0.4-0.3C570.3-575.5,570.2-575.5,570.2-575.5z"/>
	<path class="st3" d="M568.8-570.5l14.3,26.8c0.2,0.4,0.1,0.8-0.3,1c0,0,0,0,0,0l-45.4,24.3c0,0-0.1,0-0.1,0c-0.4,0.1-0.8,0-0.9-0.4
		L522-545.5c-0.2-0.4-0.1-0.8,0.3-1c0,0,0,0,0,0l45.4-24.3C568.1-571,568.6-570.9,568.8-570.5C568.8-570.5,568.8-570.5,568.8-570.5z
		"/>
	<circle class="st16" cx="538.4" cy="-542.3" r="6.7"/>
	<path class="st1" d="M566.7-534l-29,15.5c0,0-0.1,0-0.1,0l1-31.1c0-0.6,0.5-1.1,1.1-1.1c0.2,0,0.4,0.1,0.6,0.2l17.7,11l0.8,0.5
		L566.7-534z"/>
	<polygon class="st17" points="566.7,-534 556.8,-528.7 557.9,-538.4 558,-539.1 558,-539.4 558.9,-538.9 	"/>
	<path class="st1" d="M582.9-542.6l-25.1,13.4l1.1-9.7l0.1-0.7l1.4-12.6c0.1-0.8,1.1-1.4,1.8-1.1c0.1,0,0.1,0,0.2,0.1L582.9-542.6z"
		/>
	<circle class="st1" cx="519.2" cy="-546.6" r="0.9"/>
	<circle class="st1" cx="569.5" cy="-573.5" r="0.9"/>
	<circle class="st1" cx="538.4" cy="-510.5" r="0.9"/>
	<circle class="st1" cx="588.7" cy="-537.4" r="0.9"/>
	<path class="st15" d="M583.2-394.9c0.3,0.1,0.7-0.1,0.8-0.4l10.9-41.3c0.1-0.3-0.1-0.7-0.4-0.8l-57.5-15.2
		c-0.3-0.1-0.7,0.1-0.8,0.4l-10.9,41.3c-0.1,0.3,0.1,0.7,0.4,0.8c0,0,0,0,0,0L583.2-394.9z"/>
	<path class="st3" d="M590.3-434.6l-7.8,29.3c-0.1,0.4-0.5,0.7-0.9,0.5l-49.8-13.2c0,0-0.1,0-0.1,0c-0.3-0.1-0.5-0.5-0.4-0.9
		l7.8-29.3c0.1-0.4,0.5-0.7,0.9-0.5l49.8,13.2C590.1-435.4,590.4-435,590.3-434.6z"/>
	<path class="st1" d="M583.6-409.4l-1.1,4.2c-0.1,0.4-0.5,0.7-0.9,0.5l-49.8-13.2c0,0-0.1,0-0.1,0c-0.3-0.1-0.5-0.5-0.4-0.9l1.1-4.2
		L583.6-409.4z"/>
	
		<rect x="553.4" y="-413.6" transform="matrix(-0.9668 -0.2554 0.2554 -0.9668 1202.1268 -670.1871)" class="st18" width="8.2" height="0.9"/>
	
		<rect x="535.2" y="-418.4" transform="matrix(-0.9668 -0.2554 0.2554 -0.9668 1167.5107 -684.3127)" class="st18" width="8.2" height="0.9"/>
	
		<rect x="571.7" y="-408.8" transform="matrix(-0.9668 -0.2554 0.2554 -0.9668 1236.7429 -656.0617)" class="st18" width="8.2" height="0.9"/>
	<circle class="st1" cx="537.6" cy="-450.9" r="0.9"/>
	<circle class="st1" cx="592.8" cy="-436.3" r="0.9"/>
	<circle class="st1" cx="527.2" cy="-411.3" r="0.9"/>
	<circle class="st1" cx="582.4" cy="-396.8" r="0.9"/>
	
		<rect x="571.4" y="-411.4" transform="matrix(0.9667 0.2559 -0.2559 0.9667 -86.0992 -160.5215)" class="st1" width="4.6" height="0.7"/>
	<path class="st2" d="M539.7-420.2l0.9,0.5l34.5,9.1l0.5-0.6c0.9-1.1,1.4-2.4,1.6-3.8c0.1-1,0-2.1-0.7-2.8l1.2-10.6l-19.1-5.1l-9,4
		c0,0-3.5-1-6,0.9c-0.9,0.7-1.6,1.7-2,2.7l-0.4,1.2L539.7-420.2z"/>
	<circle class="st1" cx="547.3" cy="-418.4" r="4.4"/>
	<circle class="st18" cx="547.3" cy="-418.4" r="2.3"/>
	<circle class="st1" cx="568.4" cy="-412.8" r="4.4"/>
	<circle class="st18" cx="568.4" cy="-412.8" r="2.3"/>
	<polygon class="st3" points="552.6,-429.5 563,-426.8 564.2,-426.4 566.3,-425.9 566.4,-426 566.9,-427.9 567.4,-430 566,-430.4 
		564.8,-430.7 562.5,-431.3 561.3,-431.6 558.7,-432.3 	"/>
	<polygon class="st3" points="568,-425.4 573.5,-424 573.8,-425 574.2,-426.9 574.6,-428.1 573.8,-428.3 572.5,-428.6 569.1,-429.5 
			"/>
	
		<rect x="564.6" y="-422.9" transform="matrix(0.9667 0.2559 -0.2559 0.9667 -89.2447 -158.6727)" class="st1" width="0.7" height="1.4"/>
	
		<rect x="554" y="-428.1" transform="matrix(0.2559 -0.9667 0.9667 0.2559 825.6326 217.8999)" class="st1" width="0.7" height="1.4"/>
	<path class="st1" d="M554.6-427.4L554.6-427.4c-0.9-0.2-1.4-1.1-1.2-1.9l0,0c0.2-0.8,1-1.3,1.8-1.1l0.1,0l0,0L554.6-427.4
		L554.6-427.4z"/>
	<path class="st1" d="M541.2-424.7c1.2,0.5,2.6-0.1,3-1.3c0.4-0.9,0.1-2-0.7-2.6c-0.9,0.7-1.6,1.7-2,2.7L541.2-424.7z"/>
	<polygon class="st0" points="564.8,-430.7 566.4,-426 566.9,-427.9 566,-430.4 	"/>
	<polygon class="st0" points="572.5,-428.6 573.8,-425 574.2,-426.9 573.8,-428.3 	"/>
	<polygon class="st0" points="561.3,-431.6 563,-426.8 564.2,-426.4 562.5,-431.3 	"/>
	<circle class="st2" cx="429.5" cy="-505.4" r="2.8"/>
	<path class="st17" d="M430.7-508c1.2,1,1.2,2.8,0.2,4c-0.8,0.9-2.2,1.2-3.3,0.7c1.1,1,2.9,1,4-0.2c1-1.1,1-2.9-0.2-4
		C431.2-507.7,431-507.8,430.7-508z"/>
	<ellipse class="st1" cx="501.8" cy="-502.5" rx="6.9" ry="2.8"/>
	<path class="st17" d="M501.8-505.3c-0.2,0-0.5,0-0.7,0c3.5,0.1,6.2,1.3,6.2,2.8c0,1.5-2.7,2.7-6.2,2.8c0.2,0,0.5,0,0.7,0
		c3.8,0,6.9-1.3,6.9-2.8C508.7-504.1,505.6-505.3,501.8-505.3z"/>
	<path class="st1" d="M510.8-502.5l-34.7,0.1l0-3.7c0-0.4-0.3-0.7-0.7-0.7l-19.2,0c-0.4,0-0.7,0.3-0.7,0.7l0,3.7l-20.1,0l0-2.3
		c0-0.4-0.3-0.7-0.7-0.7l-10.3,0c-0.4,0-0.7,0.3-0.7,0.7l0,2.3l-2.8,0c-0.4,0-0.7,0.3-0.7,0.7c0,0,0,0,0,0l0.1,46.1
		c0,0.4,0.3,0.7,0.7,0.7c0,0,0,0,0,0l89.9-0.2c0.4,0,0.7-0.3,0.7-0.7c0,0,0,0,0,0l-0.1-46.1C511.5-502.2,511.2-502.5,510.8-502.5
		C510.8-502.5,510.8-502.5,510.8-502.5z"/>
	<path class="st17" d="M510.9-458.4l-89.9,0.2c-0.4,0-0.7-0.3-0.7-0.7c0,0,0,0,0,0l0,3.3c0,0.4,0.3,0.7,0.7,0.7c0,0,0,0,0,0
		l89.9-0.2c0.4,0,0.7-0.3,0.7-0.7c0,0,0,0,0,0l0-3.3C511.6-458.7,511.3-458.4,510.9-458.4C510.9-458.4,510.9-458.4,510.9-458.4z"/>
	
		<rect x="420.2" y="-480.9" transform="matrix(-1 1.703538e-003 -1.703538e-003 -1 930.96 -953.6627)" class="st17" width="91.3" height="8.9"/>
	
		<rect x="420.2" y="-485.3" transform="matrix(-1 1.703538e-003 -1.703538e-003 -1 930.9373 -962.5611)" class="st17" width="91.3" height="8.9"/>
	
		<rect x="420.2" y="-483.2" transform="matrix(-1 1.703538e-003 -1.703538e-003 -1 930.948 -958.3461)" class="st2" width="91.3" height="8.9"/>
	<circle class="st2" cx="465.9" cy="-478.8" r="17.8"/>
	<path class="st17" d="M479.6-490.1c5,8.5,2.2,19.4-6.3,24.4c-7.5,4.4-17.1,2.8-22.7-4c5,8.5,15.9,11.3,24.4,6.3s11.3-15.9,6.3-24.4
		C480.7-488.6,480.2-489.4,479.6-490.1z"/>
	<circle class="st1" cx="465.9" cy="-478.8" r="13.2"/>
	<path class="st3" d="M476.2-478.8c0,1.4-0.3,2.8-0.8,4.1c-0.3,0.7-0.7,1.4-1.1,2c-3.3,4.6-9.8,5.7-14.4,2.4s-5.7-9.8-2.4-14.4
		c0.6-0.9,1.4-1.7,2.3-2.3c0.6-0.4,1.3-0.8,2-1.1c5.2-2.3,11.3,0.2,13.5,5.4C475.9-481.6,476.2-480.2,476.2-478.8L476.2-478.8z"/>
	<path class="st17" d="M476.1-480.3c-0.4-2.6-1.8-5-3.9-6.6c1.8,2.9,2.1,6.5,0.8,9.6c-0.3,0.7-0.7,1.4-1.1,2
		c-3.3,4.6-9.8,5.7-14.4,2.4c-0.1-0.1-0.2-0.2-0.3-0.2c3.1,4.8,9.4,6.2,14.2,3.1c1.1-0.7,2.1-1.6,2.8-2.7c0.4-0.6,0.8-1.3,1.1-2
		C476.1-476.5,476.4-478.4,476.1-480.3L476.1-480.3z"/>
</g>
</svg>
