<?xml version="1.0" encoding="utf-8"?>
<!-- Generator: Adobe Illustrator 19.0.0, SVG Export Plug-In . SVG Version: 6.00 Build 0)  -->
<svg version="1.1" id="Layer_1" xmlns="http://www.w3.org/2000/svg" xmlns:xlink="http://www.w3.org/1999/xlink" x="0px" y="0px"
	 viewBox="180 176 860 150" style="enable-background:new 180 176 860 150;" xml:space="preserve">
<style type="text/css">
	.st0{fill:url(#SVGID_1_);}
	.st1{fill:url(#SVGID_2_);}
	.st2{fill:url(#SVGID_3_);}
	.st3{fill:url(#SVGID_4_);}
	.st4{fill:url(#SVGID_5_);}
	.st5{fill:url(#SVGID_6_);}
	.st6{fill:url(#SVGID_7_);}
	.st7{fill:url(#SVGID_8_);}
	.st8{fill:url(#SVGID_9_);}
	.st9{fill:url(#SVGID_10_);}
	.st10{fill:url(#SVGID_11_);}
	.st11{fill:url(#SVGID_12_);}
	.st12{fill:url(#SVGID_13_);}
	.st13{fill:url(#SVGID_14_);}
	.st14{fill:url(#SVGID_15_);}
	.st15{fill:url(#SVGID_16_);}
	.st16{fill:url(#SVGID_17_);}
</style>
<g id="_x23_000000ff">
	<linearGradient id="SVGID_1_" gradientUnits="userSpaceOnUse" x1="921.8223" y1="193" x2="921.8223" y2="305.0402">
		<stop  offset="0" style="stop-color:#FCC911"/>
		<stop  offset="0.2528" style="stop-color:#FDD02E"/>
		<stop  offset="0.7977" style="stop-color:#FEE177"/>
		<stop  offset="1" style="stop-color:#FFE894"/>
	</linearGradient>
	<path class="st0" d="M999.1,190.3c4.9,0.6,11.7,0.8,13.2,6.6c0,6-3.6,11.3-3.5,17.4c4.5,0.2,10.1-1,13.4,2.9
		c5.2,4.6,1.9,12.7-3,16.1c-3.8,0.2-7.5,0.1-11.2,0.2c9.1,2.9,17.2,8.6,22.7,16.5c1.5,3.3,0.2,7.1-2.3,9.5
		c-3.5,4.3-9.5,4.3-13.9,7.1c-7.8,3.8-15.7,8.7-24.7,8c-11-0.4-22-3.6-33-1.5c-1.9,0.3-3.9,0.4-5.8,0.5c0.4,4.3,0.6,9.3-2.8,12.6
		c-5.5,5.5-14.4,3.3-20.7,0.6c-2.8-0.9-3.7-3.8-4.6-6.2c-5.7-0.9-11.4-0.1-17,1.1c2.1,4.7,2.4,11-2,14.4c-5.6,4.2-12.9,1.4-19.1,0.4
		c-3.1-0.3-4.9-3.3-5.7-5.9c-2.5-1.3-5.3-2.6-8.2-2.2c-12.7,1.9-25.4,4.2-38.1,5.5c-6.9-1.5-15.3,1.3-20.5-4.8
		c0.9-2,1.7-5.3,4.6-4.5c6.4,0.6,12.5-1.5,18.6-2.8c15.9-3.4,31.8-6.6,47.8-9.7c6.1-1.5,12.2-2.9,18.4-3.8l-0.1-1.6
		c-6.3-1.8-12.3-4.6-18.6-6.3c-4.5-0.4-8.8,1.3-13.1,2.1c-7.3,1.9-14.8,2.9-22.2,4.7c-4.9,1.3-9.9,1.4-14.9,1.1
		c-1.6-0.6-3.8-2.1-3.1-4.2c0.3-1.6,1.6-2.9,3.2-3.4c6.2-2.6,12.9-3.9,19.2-6.2c5.3-2,10.9-3,16-5.3c-0.4-2.9,1-5.2,4.1-5.4
		c0-0.3,0.1-1,0.1-1.3c-4.8-6.3-8.3-13.6-12.9-20.1c-3.6-5.2-6.3-10.9-10-16.1c-1.5-1.8-2-5.4,0.8-6.3c3.2-0.9,6.5-1.6,9.9-1.5
		c3.4,0.9,5.9,3.6,8.4,5.9c9.2,9.1,18.8,17.9,28,27c1.8,1.7,3.4,3.8,5.5,5.1c6.3,0.1,12.5-0.4,18.8-1.1c15.8-0.2,31.4-2.6,47.3-2.3
		c2.8,0.4,4.4-2.2,5.8-4.1c2.4-3.6,5-7.2,7.5-10.8c0.1-1.6,0-3.4,1.2-4.8C987.9,205.6,992.7,197.3,999.1,190.3z"/>
	<linearGradient id="SVGID_2_" gradientUnits="userSpaceOnUse" x1="279.6815" y1="193" x2="279.6815" y2="305.0402">
		<stop  offset="0" style="stop-color:#FCC911"/>
		<stop  offset="0.2528" style="stop-color:#FDD02E"/>
		<stop  offset="0.7977" style="stop-color:#FEE177"/>
		<stop  offset="1" style="stop-color:#FFE894"/>
	</linearGradient>
	<path class="st1" d="M269.1,200.3c3.8-0.7,8-0.9,11.6,0.6c3.1,1.3,3.7,5,3.7,7.9c0,18.6,0,37.3,0,55.9c0.1,1.9,0,4,0.8,5.7
		c2.8,1.6,6.8,0,8.9,2.8c2.1,3.7,1.6,8.3,1.2,12.4c-0.2,2.5-1.9,5-4.6,5.1c-5.9,0.7-12,0.2-17.7-1.6c-3.5-1.1-6.3-3.9-7.3-7.5
		c-2.1-6.1-2-12.6-2-19c0.1-18.4-0.1-36.7,0.1-55.1C263.7,204.4,265.4,200.7,269.1,200.3z"/>
	<linearGradient id="SVGID_3_" gradientUnits="userSpaceOnUse" x1="488.014" y1="193" x2="488.014" y2="305.0402">
		<stop  offset="0" style="stop-color:#FCC911"/>
		<stop  offset="0.2528" style="stop-color:#FDD02E"/>
		<stop  offset="0.7977" style="stop-color:#FEE177"/>
		<stop  offset="1" style="stop-color:#FFE894"/>
	</linearGradient>
	<path class="st2" d="M483.1,200.3c4-0.7,8.4-0.9,12.2,0.9c3.5,2.3,3.1,7,3.1,10.7c0,3.2-1.1,7.3-4.7,8c-4.3,0.9-9.2,1.2-13.3-0.9
		c-3.5-3-2.8-8.2-2.6-12.3C477.9,203.6,479.9,200.7,483.1,200.3z"/>
	<linearGradient id="SVGID_4_" gradientUnits="userSpaceOnUse" x1="591.4034" y1="193" x2="591.4034" y2="305.0402">
		<stop  offset="0" style="stop-color:#FCC911"/>
		<stop  offset="0.2528" style="stop-color:#FDD02E"/>
		<stop  offset="0.7977" style="stop-color:#FEE177"/>
		<stop  offset="1" style="stop-color:#FFE894"/>
	</linearGradient>
	<path class="st3" d="M564,201c4-1.7,8.7-1.5,12.9-0.5c3.6,0.9,4.5,5,4.5,8.2c0.1,9.1,0,18.2,0,27.3c3.9-4.2,9.3-7.6,15.2-6.9
		c14.7,0.5,25.6,14.9,25.6,28.9c-6.8,1.3-13.6,2.5-20.3,4.5c-0.4-3.4-0.3-7.5-3-10c-5.1-5.2-15-2.4-17.3,4.4
		c-0.6,3.7-0.2,7.5-0.4,11.2c-1.9,0.5-3.8,1-5.7,1.5c-1,0.4-2,0.7-3.1,1.1c-2.3,0.7-4.6,1.5-6.8,2.3c-1.6,0.5-3.3,1.1-4.9,1.6
		c-0.2-21.6,0-43.2-0.1-64.7C560.7,206.7,560.7,202.6,564,201z"/>
	<linearGradient id="SVGID_5_" gradientUnits="userSpaceOnUse" x1="222.1627" y1="193" x2="222.1627" y2="305.0402">
		<stop  offset="0" style="stop-color:#FCC911"/>
		<stop  offset="0.2528" style="stop-color:#FDD02E"/>
		<stop  offset="0.7977" style="stop-color:#FEE177"/>
		<stop  offset="1" style="stop-color:#FFE894"/>
	</linearGradient>
	<path class="st4" d="M191.1,206.2c2.7-2.1,6.4-1.9,9.6-2.1c15.3,0,30.7,0,46,0c3.2-0.1,7.3,0.9,8.2,4.4c1,3.8,1,8,0.1,11.9
		c-0.9,3.6-5.1,4.5-8.3,4.4c-12.4,0-24.9,0-37.3,0c0,4.1,0,8.2,0,12.3c8.5,0.1,16.9-0.1,25.3,0.1c2.6,0.1,5.8,0.9,6.9,3.6
		c1.4,3.9,1.4,8.3,0.3,12.3c-0.7,2.8-3.4,4.6-6.2,4.6c-8.8,0.4-17.6,0.1-26.4,0.2c0,8,0.1,16,0,24c0,2.9-0.9,6.5-4,7.6
		c-4.2,1.3-8.9,1.4-13-0.3c-3.2-1.4-3.6-5.3-3.6-8.3c-0.1-21.7,0-43.4,0-65.1C188.8,212.5,188.6,208.6,191.1,206.2z"/>
	<linearGradient id="SVGID_6_" gradientUnits="userSpaceOnUse" x1="418.2594" y1="193" x2="418.2594" y2="305.0402">
		<stop  offset="0" style="stop-color:#FCC911"/>
		<stop  offset="0.2528" style="stop-color:#FDD02E"/>
		<stop  offset="0.7977" style="stop-color:#FEE177"/>
		<stop  offset="1" style="stop-color:#FFE894"/>
	</linearGradient>
	<path class="st5" d="M363.6,208.7c3.6-3,8.5-4.6,13.1-4.3c3.3,0.5,4.5,4,5.5,6.7c4.4,13.3,8.7,26.6,13,39.9
		c4.2-12.4,8.2-24.8,12.3-37.3c0.8-2.3,1.8-4.7,3.7-6.4c3.8-3.4,10.2-3.5,14,0c2.5,2,3,5.2,4,8c3.9,11.9,7.8,23.9,11.8,35.8
		c4.2-12.8,8.4-25.6,12.6-38.4c1.1-3.6,2.7-8.3,7.2-8.5c4.5,0,9.2,1.7,12.5,4.9c2.4,2.4,1.3,5.9,0.4,8.6
		c-7.5,21.9-15,43.7-22.5,65.5c-1.5,5.3-7.7,8.7-13,7c-3.2-1-5.9-3.6-6.8-6.9c-4.3-12.9-8.7-25.9-13-38.8
		c-4.5,12.8-8.6,25.7-13.1,38.6c-1.4,4-4.9,7.6-9.4,7.6c-4.7,0.3-9.1-3-10.4-7.4c-7.5-21.6-14.9-43.2-22.4-64.8
		C361.9,215.4,360.6,211.2,363.6,208.7z"/>
	<linearGradient id="SVGID_7_" gradientUnits="userSpaceOnUse" x1="677.8994" y1="193" x2="677.8994" y2="305.0402">
		<stop  offset="0" style="stop-color:#FCC911"/>
		<stop  offset="0.2528" style="stop-color:#FDD02E"/>
		<stop  offset="0.7977" style="stop-color:#FEE177"/>
		<stop  offset="1" style="stop-color:#FFE894"/>
	</linearGradient>
	<path class="st6" d="M636.4,205.5c5.3-1.2,12.5-1.4,15.9,3.7c8.5,11.2,17.1,22.5,25.6,33.7c8.8-11.5,17.4-23.1,26.3-34.6
		c2-3,6-3.5,9.3-3.5c3,0.1,6.4,0.1,8.7,2.2c2.1,2.4,2,5.8,2,8.8c-0.1,10.1,0.1,20.3-0.1,30.4c-6.8-0.1-13.6,1.1-20.4,1.1
		c-0.1-2.1-0.2-4.3-0.2-6.4c-1.6,2.2-3.3,4.3-5,6.4c-5.5,1-11.2,0.6-16.7,1.7c-7.2,0.3-14.4,1.5-21.5,2.5c-2.8-3.4-5.2-7.1-7.9-10.6
		c0,4,0,8-0.3,12c-6.8,0.7-13.6,1.6-20.2,3.3c-0.6-13.8-0.1-27.7-0.3-41.5C631.5,211.2,632.2,206.4,636.4,205.5z"/>
	<linearGradient id="SVGID_8_" gradientUnits="userSpaceOnUse" x1="529.2345" y1="193" x2="529.2345" y2="305.0402">
		<stop  offset="0" style="stop-color:#FCC911"/>
		<stop  offset="0.2528" style="stop-color:#FDD02E"/>
		<stop  offset="0.7977" style="stop-color:#FEE177"/>
		<stop  offset="1" style="stop-color:#FFE894"/>
	</linearGradient>
	<path class="st7" d="M519.5,208.5c3.7-1,7.8-1,11.5,0c2.4,0.6,4.4,2.7,4.5,5.2c0.5,5.2,0.2,10.4,0.3,15.6c4.6-0.2,9.5-1.2,14,0.4
		c3.7,1.3,3.9,5.8,4,9.1c-0.1,3.5-0.1,8.5-4,9.9c-4.5,1.4-9.3,0.6-14,0.8c0.2,6.4-0.4,12.9,0.3,19.3c1.1,4.6,6.9,2.3,10.2,3.6
		c3.1,0.6,3.9,3.9,4.1,6.6c-1.7,0.5-3.4,1-5.1,1.5v0.7c-1,0.3-2,0.6-3,0.9c2.9,0.4,5.6-0.5,8.4-1.2c-0.3,3.7-0.8,8.7-5.3,9.4
		c-7.5,1.1-15.7,0.4-22.3-3.8c-5.4-3.4-7.5-10-7.9-16.1c-0.4-7-0.1-14.1-0.2-21.1c-3.1,0.1-7.4,0.8-9.1-2.6
		c-1.8-4.4-1.4-9.6-0.3-14.1c1.1-4.2,6.1-4,9.5-3.4c0.1-4.8-0.1-9.6,0.1-14.4C515.1,212,516.7,209.1,519.5,208.5z"/>
	<linearGradient id="SVGID_9_" gradientUnits="userSpaceOnUse" x1="327.0968" y1="193" x2="327.0968" y2="305.0402">
		<stop  offset="0" style="stop-color:#FCC911"/>
		<stop  offset="0.2528" style="stop-color:#FDD02E"/>
		<stop  offset="0.7977" style="stop-color:#FEE177"/>
		<stop  offset="1" style="stop-color:#FFE894"/>
	</linearGradient>
	<path class="st8" d="M304,228.2c3-1.2,6.7,0.2,8.2,3c5.8,9.4,11.1,19.1,17.1,28.4c3.6-8.9,7.8-17.6,11.7-26.4
		c1.2-2.7,3.3-5.8,6.6-5.4c4.3,0.4,8.7,2.2,11.6,5.4c2.2,2.3,1.4,5.7,0.1,8.3c-10.7,24-21.4,48-32,72c-1.1,2.7-3.5,5.2-6.7,4.8
		c-3.7-0.5-7.2-2-10.1-4.3c-1.9-1.4-3.1-4-2.2-6.4c2.8-8.3,6.8-16,10.2-24c1-1.3-0.4-2.6-0.9-3.8c-7.4-12.3-14.7-24.6-22-37
		c-1.2-2.2-2.9-5-1.4-7.5C296.5,231.8,300.3,229.7,304,228.2z"/>
	<linearGradient id="SVGID_10_" gradientUnits="userSpaceOnUse" x1="763.5534" y1="193" x2="763.5534" y2="305.0402">
		<stop  offset="0" style="stop-color:#FCC911"/>
		<stop  offset="0.2528" style="stop-color:#FDD02E"/>
		<stop  offset="0.7977" style="stop-color:#FEE177"/>
		<stop  offset="1" style="stop-color:#FFE894"/>
	</linearGradient>
	<path class="st9" d="M757.3,228.6c8.2-1.5,17.2-1.1,24.4,3.4c5,3,8.5,8,10.6,13.4c-13.8-1.2-27.7-0.7-41.5-0.8
		c-5.4-0.1-10.6,1.1-16,0.8C739.2,236.8,747.7,230.4,757.3,228.6z"/>
	<linearGradient id="SVGID_11_" gradientUnits="userSpaceOnUse" x1="487.9495" y1="193" x2="487.9495" y2="305.0402">
		<stop  offset="0" style="stop-color:#FCC911"/>
		<stop  offset="0.2528" style="stop-color:#FDD02E"/>
		<stop  offset="0.7977" style="stop-color:#FEE177"/>
		<stop  offset="1" style="stop-color:#FFE894"/>
	</linearGradient>
	<path class="st10" d="M484,229.1c3.8-0.5,7.9-0.6,11.3,1.2c3,1.6,2.9,5.5,3,8.5c0,14.4,0,28.7,0,43.1c0.1,3.2-0.8,7.4-4.5,8.3
		c-4.2,1-8.9,1.2-12.9-0.5c-3.2-1.6-3.2-5.7-3.3-8.7c0.1-15.1-0.2-30.1,0.2-45.2C477.8,232.1,480.5,229.2,484,229.1z"/>
	<linearGradient id="SVGID_12_" gradientUnits="userSpaceOnUse" x1="762.5766" y1="193" x2="762.5766" y2="305.0402">
		<stop  offset="0" style="stop-color:#FCC911"/>
		<stop  offset="0.2528" style="stop-color:#FDD02E"/>
		<stop  offset="0.7977" style="stop-color:#FEE177"/>
		<stop  offset="1" style="stop-color:#FFE894"/>
	</linearGradient>
	<path class="st11" d="M741.8,284.7c-8.3-7.9-11.7-20.2-9.5-31.4c7.4-0.1,14.8-0.1,22.2-0.3c-0.3,0.9-0.7,2.8-1,3.7
		c5.4-0.1,10.7,0.3,16.1-0.1c2,0,2.6-2.1,3.5-3.5c6.8,0,13.6,0,20.4,0.1c-0.3,2.9-0.4,6-1.9,8.6c-1.9,3.5-5.8,6-9.8,6
		c-9.4,0.2-18.8-0.2-28.2,0.2c2.6,6.2,10.3,7.4,16.2,6.7c4.5,0,8.6-2.4,13-2.7c4.2,0.6,6.4,5.1,7.4,8.9c1,3.6-1.4,7.3-4.7,8.8
		c-6.1,2.9-13.1,3.1-19.7,3.2C757.2,292.9,748.2,290.6,741.8,284.7z"/>
	<linearGradient id="SVGID_13_" gradientUnits="userSpaceOnUse" x1="679.2034" y1="193" x2="679.2034" y2="305.0402">
		<stop  offset="0" style="stop-color:#FCC911"/>
		<stop  offset="0.2528" style="stop-color:#FDD02E"/>
		<stop  offset="0.7977" style="stop-color:#FEE177"/>
		<stop  offset="1" style="stop-color:#FFE894"/>
	</linearGradient>
	<path class="st12" d="M665,257.7c9,0.1,17.9-1.4,26.8-1.7l1.6-1.5c-0.8,2.8-3.4,4.8-4.9,7.3c-2.5,4-6.8,7.6-11.8,6.8
		C670.8,267.8,667.9,262.1,665,257.7z"/>
	<linearGradient id="SVGID_14_" gradientUnits="userSpaceOnUse" x1="714.0497" y1="193" x2="714.0497" y2="305.0402">
		<stop  offset="0" style="stop-color:#FCC911"/>
		<stop  offset="0.2528" style="stop-color:#FDD02E"/>
		<stop  offset="0.7977" style="stop-color:#FEE177"/>
		<stop  offset="1" style="stop-color:#FFE894"/>
	</linearGradient>
	<path class="st13" d="M703.7,255.2c6.8-0.8,13.7-1.1,20.6-1.2c0.2,8.6,0,17.2,0.1,25.8c-0.1,3.3-0.1,7.4-3.1,9.6
		c-3.3,1.8-7.2,1.5-10.7,1.1c-3.1-0.3-6.5-2.2-6.6-5.7C703.4,275,703.9,265.1,703.7,255.2z"/>
	<linearGradient id="SVGID_15_" gradientUnits="userSpaceOnUse" x1="641.9756" y1="193" x2="641.9756" y2="305.0402">
		<stop  offset="0" style="stop-color:#FCC911"/>
		<stop  offset="0.2528" style="stop-color:#FDD02E"/>
		<stop  offset="0.7977" style="stop-color:#FEE177"/>
		<stop  offset="1" style="stop-color:#FFE894"/>
	</linearGradient>
	<path class="st14" d="M632,262.5c6.8-0.2,13.5-2.2,20.3-2.4c0,7.6,0.1,15.2,0,22.8c0,2.9-1.3,6.3-4.4,7.1
		c-3.9,1.1-8.3,1.2-12.3-0.2c-3.2-1.1-4-4.9-4-7.9C631.8,275.4,631.4,268.9,632,262.5z"/>
	<linearGradient id="SVGID_16_" gradientUnits="userSpaceOnUse" x1="612.067" y1="193" x2="612.067" y2="305.0402">
		<stop  offset="0" style="stop-color:#FCC911"/>
		<stop  offset="0.2528" style="stop-color:#FDD02E"/>
		<stop  offset="0.7977" style="stop-color:#FEE177"/>
		<stop  offset="1" style="stop-color:#FFE894"/>
	</linearGradient>
	<path class="st15" d="M602.2,267.7c6.8-0.4,13.5-2,20.1-3.3c0.2,6.2,0.2,12.4,0.1,18.6c0,2.9-1.2,6.4-4.4,7.1
		c-3.9,1-8.3,1.1-12.2-0.2c-2.9-0.9-4-4.2-4-7C601.7,277.8,601.4,272.7,602.2,267.7z"/>
	<linearGradient id="SVGID_17_" gradientUnits="userSpaceOnUse" x1="571.0883" y1="193" x2="571.0883" y2="305.0402">
		<stop  offset="0" style="stop-color:#FCC911"/>
		<stop  offset="0.2528" style="stop-color:#FDD02E"/>
		<stop  offset="0.7977" style="stop-color:#FEE177"/>
		<stop  offset="1" style="stop-color:#FFE894"/>
	</linearGradient>
	<path class="st16" d="M561,277.5c6.9-1.3,13.5-3.7,20.4-4.6c-0.2,4.6,0.6,9.3-0.8,13.8c-1,3.3-4.9,4-7.9,4.1c-3.4,0.1-7.2,0.2-10-2
		C560.1,285.7,560.7,281.3,561,277.5z"/>
</g>
</svg>
