<?xml version="1.0" encoding="UTF-8" ?>
<!DOCTYPE svg PUBLIC "-//W3C//DTD SVG 1.1//EN" "http://www.w3.org/Graphics/SVG/1.1/DTD/svg11.dtd">
<svg width="860pt" height="150pt" viewBox="0 0 860 150" version="1.1" xmlns="http://www.w3.org/2000/svg">
<g id="#000000ff">
<path fill="#000000" opacity="1.00" d=" M 818.42 15.46 C 823.27 16.08 830.09 16.30 831.60 22.10 C 831.57 28.06 827.98 33.43 828.13 39.47 C 832.65 39.68 838.20 38.47 841.55 42.39 C 846.76 46.98 843.43 55.06 838.52 58.45 C 834.77 58.62 831.01 58.56 827.28 58.65 C 836.38 61.51 844.51 67.26 849.95 75.13 C 851.42 78.39 850.15 82.22 847.64 84.59 C 844.13 88.85 838.16 88.91 833.71 91.68 C 825.94 95.43 817.97 100.37 809.00 99.68 C 798.01 99.24 786.99 96.04 776.01 98.20 C 774.08 98.50 772.14 98.63 770.21 98.75 C 770.59 103.07 770.79 108.08 767.37 111.34 C 761.87 116.87 753.00 114.68 746.67 111.89 C 743.91 110.98 742.94 108.13 742.09 105.65 C 736.41 104.70 730.68 105.51 725.12 106.71 C 727.24 111.38 727.56 117.66 723.09 121.09 C 717.45 125.33 710.19 122.48 703.96 121.51 C 700.90 121.21 699.11 118.25 698.25 115.60 C 695.70 114.35 693.00 112.99 690.07 113.38 C 677.36 115.26 664.71 117.58 651.93 118.92 C 645.07 117.39 636.61 120.18 631.41 114.07 C 632.26 112.08 633.09 108.78 635.97 109.59 C 642.33 110.17 648.47 108.12 654.61 106.81 C 670.51 103.43 686.44 100.25 702.40 97.14 C 708.48 95.67 714.58 94.22 720.78 93.38 L 720.67 91.76 C 714.36 89.96 708.37 87.17 702.02 85.48 C 697.56 85.07 693.26 86.76 688.92 87.56 C 681.61 89.46 674.10 90.47 666.76 92.27 C 661.90 93.52 656.83 93.67 651.86 93.40 C 650.21 92.78 648.05 91.26 648.75 89.24 C 649.06 87.59 650.39 86.37 651.95 85.85 C 658.19 83.28 664.85 81.94 671.18 79.63 C 676.44 77.63 682.04 76.66 687.20 74.37 C 686.78 71.50 688.24 69.20 691.26 68.97 C 691.29 68.65 691.36 68.00 691.39 67.68 C 686.55 61.33 683.11 54.06 678.51 47.55 C 674.94 42.33 672.17 36.60 668.47 31.46 C 666.92 29.67 666.51 26.03 669.22 25.12 C 672.42 24.27 675.75 23.54 679.09 23.58 C 682.49 24.45 684.99 27.16 687.51 29.45 C 696.74 38.56 706.29 47.34 715.49 56.49 C 717.29 58.22 718.87 60.27 721.04 61.57 C 727.32 61.63 733.58 61.13 739.82 60.43 C 755.60 60.23 771.26 57.87 787.07 58.17 C 789.84 58.58 791.44 55.99 792.84 54.08 C 795.28 50.44 797.84 46.88 800.34 43.27 C 800.49 41.63 800.39 39.83 801.58 38.52 C 807.15 30.81 811.95 22.47 818.42 15.46 Z" />
<path fill="#000000" opacity="1.00" d=" M 88.37 25.50 C 92.18 24.78 96.33 24.64 99.99 26.10 C 103.05 27.37 103.65 31.06 103.69 34.00 C 103.73 52.64 103.70 71.29 103.70 89.94 C 103.78 91.86 103.69 93.89 104.54 95.67 C 107.30 97.25 111.34 95.65 113.48 98.49 C 115.58 102.21 115.10 106.81 114.64 110.90 C 114.41 113.41 112.77 115.90 110.03 116.02 C 104.14 116.71 98.01 116.23 92.34 114.45 C 88.84 113.35 86.06 110.52 85.03 107.00 C 82.94 100.90 83.00 94.36 82.99 88.00 C 83.06 69.64 82.91 51.27 83.06 32.91 C 82.96 29.59 84.72 25.90 88.37 25.50 Z" />
<path fill="#000000" opacity="1.00" d=" M 302.39 25.49 C 306.40 24.79 310.84 24.55 314.59 26.36 C 318.06 28.63 317.73 33.40 317.70 37.03 C 317.72 40.24 316.63 44.34 312.99 45.06 C 308.66 45.95 303.76 46.25 299.73 44.19 C 296.24 41.22 296.97 35.98 297.12 31.88 C 297.17 28.82 299.22 25.88 302.39 25.49 Z" />
<path fill="#000000" opacity="1.00" d=" M 383.32 26.22 C 387.37 24.56 392.06 24.67 396.24 25.76 C 399.80 26.69 400.71 30.79 400.69 33.98 C 400.75 43.07 400.67 52.16 400.72 61.25 C 404.59 57.01 409.97 53.66 415.95 54.36 C 430.64 54.81 441.59 69.22 441.56 83.26 C 434.76 84.55 427.93 85.78 421.29 87.74 C 420.88 84.29 421.02 80.28 418.29 77.69 C 413.18 72.51 403.26 75.32 400.99 82.05 C 400.42 85.75 400.82 89.53 400.55 93.26 C 398.65 93.75 396.77 94.28 394.87 94.78 C 393.84 95.14 392.82 95.49 391.79 95.84 C 389.50 96.54 387.23 97.31 384.99 98.17 C 383.35 98.68 381.72 99.22 380.09 99.74 C 379.87 78.17 380.07 56.58 379.99 35.01 C 380.04 31.91 380.05 27.77 383.32 26.22 Z" />
<path fill="#000000" opacity="1.00" d=" M 10.42 31.35 C 13.11 29.23 16.78 29.41 20.02 29.30 C 35.36 29.33 50.70 29.28 66.04 29.32 C 69.23 29.23 73.31 30.18 74.26 33.70 C 75.30 37.54 75.27 41.71 74.32 45.57 C 73.44 49.18 69.20 50.03 66.01 49.99 C 53.58 50.03 41.14 49.98 28.71 50.00 C 28.70 54.10 28.70 58.20 28.71 62.30 C 37.16 62.37 45.60 62.21 54.05 62.36 C 56.69 62.41 59.88 63.23 60.92 65.97 C 62.35 69.86 62.33 74.28 61.26 78.26 C 60.57 81.05 57.89 82.88 55.07 82.84 C 46.29 83.22 37.49 82.89 28.71 83.00 C 28.66 91.01 28.78 99.02 28.67 107.02 C 28.64 109.93 27.77 113.54 24.67 114.57 C 20.48 115.86 15.72 115.96 11.63 114.30 C 8.43 112.93 8.05 109.05 8.02 106.02 C 7.96 84.33 8.03 62.64 7.99 40.96 C 8.11 37.69 7.90 33.84 10.42 31.35 Z" />
<path fill="#000000" opacity="1.00" d=" M 182.91 33.93 C 186.51 30.95 191.37 29.32 196.03 29.61 C 199.33 30.07 200.49 33.64 201.49 36.33 C 205.84 49.63 210.21 62.93 214.54 76.24 C 218.73 63.84 222.74 51.39 226.83 38.96 C 227.62 36.64 228.60 34.23 230.51 32.59 C 234.31 29.16 240.71 29.07 244.48 32.61 C 246.94 34.56 247.52 37.81 248.51 40.62 C 252.41 52.56 256.31 64.51 260.30 76.43 C 264.53 63.64 268.68 50.82 272.85 38.02 C 273.92 34.43 275.58 29.76 280.02 29.54 C 284.52 29.58 289.23 31.26 292.48 34.43 C 294.86 36.78 293.78 40.30 292.87 43.06 C 285.40 64.92 277.84 86.74 270.36 108.59 C 268.85 113.93 262.63 117.29 257.34 115.56 C 254.13 114.53 251.45 111.92 250.52 108.65 C 246.19 95.71 241.83 82.78 237.49 69.84 C 232.94 82.63 228.85 95.57 224.41 108.40 C 223.03 112.38 219.47 116.04 215.02 115.98 C 210.34 116.30 205.97 112.99 204.67 108.56 C 197.17 86.95 189.73 65.33 182.25 43.72 C 181.21 40.58 179.94 36.43 182.91 33.93 Z" />
<path fill="#000000" opacity="1.00" d=" M 455.73 30.69 C 461.06 29.50 468.25 29.28 471.66 34.40 C 480.18 45.64 488.74 56.86 497.28 68.09 C 506.05 56.56 514.72 44.94 523.62 33.51 C 525.67 30.48 529.62 30.04 532.97 30.00 C 535.94 30.06 539.35 30.10 541.69 32.21 C 543.82 34.61 543.67 38.04 543.72 41.05 C 543.62 51.18 543.86 61.32 543.58 71.45 C 536.74 71.38 529.98 72.60 523.15 72.53 C 523.06 70.39 522.99 68.26 522.94 66.13 C 521.30 68.29 519.66 70.45 517.95 72.56 C 512.41 73.57 506.72 73.17 501.21 74.29 C 493.98 74.63 486.83 75.84 479.66 76.78 C 476.89 73.35 474.43 69.69 471.73 66.20 C 471.72 70.21 471.77 74.23 471.48 78.23 C 464.69 78.89 457.85 79.79 451.26 81.55 C 450.67 67.72 451.17 53.87 450.98 40.03 C 450.81 36.44 451.51 31.57 455.73 30.69 Z" />
<path fill="#000000" opacity="1.00" d=" M 338.76 33.71 C 342.49 32.75 346.53 32.70 350.26 33.72 C 352.63 34.34 354.62 36.38 354.74 38.90 C 355.27 44.06 354.90 49.27 355.00 54.45 C 359.62 54.27 364.48 53.25 368.96 54.83 C 372.64 56.14 372.90 60.67 373.00 63.97 C 372.94 67.47 372.88 72.43 368.97 73.89 C 364.47 75.31 359.64 74.49 355.00 74.69 C 355.18 81.10 354.59 87.56 355.32 93.94 C 356.42 98.56 362.26 96.27 365.56 97.58 C 368.68 98.21 369.46 101.51 369.71 104.22 C 368.00 104.70 366.30 105.22 364.59 105.69 L 364.56 106.42 C 363.57 106.70 362.58 107.00 361.61 107.31 C 364.47 107.70 367.22 106.79 369.96 106.11 C 369.70 109.76 369.12 114.85 364.64 115.54 C 357.16 116.65 348.90 115.91 342.39 111.77 C 337.01 108.32 334.87 101.74 334.46 95.66 C 334.10 88.64 334.38 81.60 334.30 74.57 C 331.16 74.63 326.85 75.41 325.17 71.93 C 323.34 67.51 323.78 62.36 324.84 57.79 C 325.95 53.62 330.92 53.81 334.30 54.36 C 334.35 49.54 334.15 44.72 334.38 39.91 C 334.42 37.22 335.95 34.32 338.76 33.71 Z" />
<path fill="#000000" opacity="1.00" d=" M 123.32 53.44 C 126.36 52.25 129.98 53.63 131.52 56.48 C 137.27 65.90 142.63 75.57 148.64 84.83 C 152.25 75.90 156.41 67.20 160.36 58.42 C 161.53 55.74 163.61 52.60 166.98 53.02 C 171.27 53.44 175.63 55.23 178.60 58.42 C 180.76 60.73 179.96 64.14 178.75 66.70 C 168.04 90.69 157.40 114.72 146.71 138.72 C 145.62 141.38 143.18 143.90 140.06 143.47 C 136.40 142.93 132.84 141.43 129.91 139.15 C 127.99 137.70 126.76 135.12 127.73 132.77 C 130.51 124.52 134.49 116.74 137.98 108.78 C 138.94 107.45 137.56 106.15 137.05 104.98 C 129.66 92.68 122.37 80.33 115.03 68.00 C 113.84 65.78 112.14 63.04 113.60 60.53 C 115.75 57.03 119.59 54.90 123.32 53.44 Z" />
<path fill="#000000" opacity="1.00" d=" M 576.56 53.79 C 584.73 52.29 593.74 52.74 600.98 57.17 C 605.98 60.21 609.48 65.19 611.54 70.60 C 597.73 69.40 583.87 69.86 570.03 69.80 C 564.67 69.67 559.39 70.88 554.03 70.64 C 558.49 61.98 566.99 55.60 576.56 53.79 Z" />
<path fill="#000000" opacity="1.00" d=" M 303.32 54.29 C 307.08 53.84 311.19 53.67 314.64 55.47 C 317.67 57.09 317.52 60.96 317.69 63.93 C 317.72 78.28 317.72 92.63 317.69 106.98 C 317.77 110.20 316.85 114.40 313.21 115.27 C 309.01 116.30 304.32 116.47 300.27 114.77 C 297.09 113.18 297.04 109.10 296.99 106.03 C 297.11 90.97 296.80 75.90 297.14 60.85 C 297.06 57.33 299.79 54.42 303.32 54.29 Z" />
<path fill="#000000" opacity="1.00" d=" M 561.14 109.92 C 552.80 102.00 549.44 89.72 551.64 78.53 C 559.04 78.41 566.45 78.41 573.85 78.25 C 573.60 79.18 573.11 81.04 572.87 81.97 C 578.23 81.90 583.60 82.25 588.96 81.84 C 590.97 81.86 591.59 79.71 592.42 78.30 C 599.21 78.25 606.00 78.34 612.79 78.38 C 612.46 81.28 612.34 84.35 610.89 86.98 C 608.95 90.49 605.12 93.02 601.05 92.96 C 591.64 93.17 582.23 92.75 572.82 93.17 C 575.38 99.38 583.09 100.53 589.02 99.87 C 593.54 99.89 597.59 97.49 602.03 97.16 C 606.26 97.78 608.42 102.31 609.40 106.02 C 610.40 109.67 607.97 113.31 604.70 114.77 C 598.59 117.69 591.62 117.87 584.98 117.99 C 576.46 118.09 567.53 115.80 561.14 109.92 Z" />
<path fill="#000000" opacity="1.00" d=" M 484.25 82.86 C 493.25 82.99 502.12 81.43 511.09 81.14 L 512.64 79.67 C 511.87 82.51 509.21 84.45 507.77 86.99 C 505.30 91.02 500.94 94.61 495.92 93.77 C 490.09 92.99 487.17 87.27 484.25 82.86 Z" />
<path fill="#000000" opacity="1.00" d=" M 523.01 80.40 C 529.86 79.62 536.73 79.32 543.62 79.23 C 543.80 87.83 543.66 96.43 543.71 105.03 C 543.63 108.36 543.57 112.44 540.62 114.62 C 537.37 116.39 533.44 116.11 529.89 115.76 C 526.79 115.46 523.38 113.52 523.27 110.07 C 522.66 100.20 523.16 90.29 523.01 80.40 Z" />
<path fill="#000000" opacity="1.00" d=" M 451.33 87.71 C 458.17 87.49 464.82 85.55 471.66 85.28 C 471.70 92.88 471.79 100.47 471.65 108.06 C 471.68 111.00 470.34 114.39 467.23 115.20 C 463.28 116.32 458.88 116.38 454.98 115.04 C 451.77 113.90 450.95 110.12 451.01 107.10 C 451.07 100.64 450.72 94.15 451.33 87.71 Z" />
<path fill="#000000" opacity="1.00" d=" M 421.46 92.85 C 428.25 92.43 434.91 90.82 441.58 89.54 C 441.75 95.73 441.79 101.93 441.64 108.12 C 441.61 111.02 440.40 114.50 437.25 115.26 C 433.31 116.29 428.97 116.37 425.08 115.10 C 422.13 114.19 421.07 110.86 421.06 108.08 C 420.97 103.01 420.71 97.89 421.46 92.85 Z" />
<path fill="#000000" opacity="1.00" d=" M 380.26 102.73 C 387.12 101.42 393.74 99.03 400.68 98.11 C 400.52 102.68 401.30 107.42 399.93 111.86 C 398.89 115.16 395.03 115.81 392.04 115.96 C 388.67 116.04 384.83 116.15 382.04 113.94 C 379.36 110.89 379.99 106.46 380.26 102.73 Z" />
</g>
</svg>
