<?xml version="1.0" encoding="utf-8"?>
<!-- Generator: Adobe Illustrator 19.0.0, SVG Export Plug-In . SVG Version: 6.00 Build 0)  -->
<svg version="1.1" id="Layer_1" xmlns="http://www.w3.org/2000/svg" xmlns:xlink="http://www.w3.org/1999/xlink" x="0px" y="0px"
	 viewBox="124 322 860 150" style="enable-background:new 124 322 860 150;" xml:space="preserve">
<style type="text/css">
	.st0{fill:#4C4A5E;}
</style>
<g id="_x23_000000ff">
	<path class="st0" d="M942.4,337.5c4.9,0.6,11.7,0.8,13.2,6.6c0,6-3.6,11.3-3.5,17.4c4.5,0.2,10.1-1,13.4,2.9
		c5.2,4.6,1.9,12.7-3,16.1c-3.8,0.2-7.5,0.1-11.2,0.2c9.1,2.9,17.2,8.6,22.7,16.5c1.5,3.3,0.2,7.1-2.3,9.5
		c-3.5,4.3-9.5,4.3-13.9,7.1c-7.8,3.8-15.7,8.7-24.7,8c-11-0.4-22-3.6-33-1.5c-1.9,0.3-3.9,0.4-5.8,0.5c0.4,4.3,0.6,9.3-2.8,12.6
		c-5.5,5.5-14.4,3.3-20.7,0.6c-2.8-0.9-3.7-3.8-4.6-6.2c-5.7-0.9-11.4-0.1-17,1.1c2.1,4.7,2.4,11-2,14.4c-5.6,4.2-12.9,1.4-19.1,0.4
		c-3.1-0.3-4.9-3.3-5.7-5.9c-2.5-1.3-5.3-2.6-8.2-2.2c-12.7,1.9-25.4,4.2-38.1,5.5c-6.9-1.5-15.3,1.3-20.5-4.8
		c0.9-2,1.7-5.3,4.6-4.5c6.4,0.6,12.5-1.5,18.6-2.8c15.9-3.4,31.8-6.6,47.8-9.7c6.1-1.5,12.2-2.9,18.4-3.8l-0.1-1.6
		c-6.3-1.8-12.3-4.6-18.6-6.3c-4.5-0.4-8.8,1.3-13.1,2.1c-7.3,1.9-14.8,2.9-22.2,4.7c-4.9,1.3-9.9,1.4-14.9,1.1
		c-1.6-0.6-3.8-2.1-3.1-4.2c0.3-1.6,1.6-2.9,3.2-3.4c6.2-2.6,12.9-3.9,19.2-6.2c5.3-2,10.9-3,16-5.3c-0.4-2.9,1-5.2,4.1-5.4
		c0-0.3,0.1-1,0.1-1.3c-4.8-6.3-8.3-13.6-12.9-20.1c-3.6-5.2-6.3-10.9-10-16.1c-1.5-1.8-2-5.4,0.8-6.3c3.2-0.9,6.5-1.6,9.9-1.5
		c3.4,0.9,5.9,3.6,8.4,5.9c9.2,9.1,18.8,17.9,28,27c1.8,1.7,3.4,3.8,5.5,5.1c6.3,0.1,12.5-0.4,18.8-1.1c15.8-0.2,31.4-2.6,47.3-2.3
		c2.8,0.4,4.4-2.2,5.8-4.1c2.4-3.6,5-7.2,7.5-10.8c0.1-1.6,0-3.4,1.2-4.8C931.2,352.8,936,344.5,942.4,337.5z"/>
	<path class="st0" d="M212.4,347.5c3.8-0.7,8-0.9,11.6,0.6c3.1,1.3,3.7,5,3.7,7.9c0,18.6,0,37.3,0,55.9c0.1,1.9,0,4,0.8,5.7
		c2.8,1.6,6.8,0,8.9,2.8c2.1,3.7,1.6,8.3,1.2,12.4c-0.2,2.5-1.9,5-4.6,5.1c-5.9,0.7-12,0.2-17.7-1.6c-3.5-1.1-6.3-3.9-7.3-7.5
		c-2.1-6.1-2-12.6-2-19c0.1-18.4-0.1-36.7,0.1-55.1C207,351.6,208.7,347.9,212.4,347.5z"/>
	<path class="st0" d="M426.4,347.5c4-0.7,8.4-0.9,12.2,0.9c3.5,2.3,3.1,7,3.1,10.7c0,3.2-1.1,7.3-4.7,8c-4.3,0.9-9.2,1.2-13.3-0.9
		c-3.5-3-2.8-8.2-2.6-12.3C421.2,350.8,423.2,347.9,426.4,347.5z"/>
	<path class="st0" d="M507.3,348.2c4-1.7,8.7-1.5,12.9-0.5c3.6,0.9,4.5,5,4.5,8.2c0.1,9.1,0,18.2,0,27.3c3.9-4.2,9.3-7.6,15.2-6.9
		c14.7,0.5,25.6,14.9,25.6,28.9c-6.8,1.3-13.6,2.5-20.3,4.5c-0.4-3.4-0.3-7.5-3-10c-5.1-5.2-15-2.4-17.3,4.4
		c-0.6,3.7-0.2,7.5-0.4,11.2c-1.9,0.5-3.8,1-5.7,1.5c-1,0.4-2,0.7-3.1,1.1c-2.3,0.7-4.6,1.5-6.8,2.3c-1.6,0.5-3.3,1.1-4.9,1.6
		c-0.2-21.6,0-43.2-0.1-64.7C504,353.9,504,349.8,507.3,348.2z"/>
	<path class="st0" d="M134.4,353.4c2.7-2.1,6.4-1.9,9.6-2.1c15.3,0,30.7,0,46,0c3.2-0.1,7.3,0.9,8.2,4.4c1,3.8,1,8,0.1,11.9
		c-0.9,3.6-5.1,4.5-8.3,4.4c-12.4,0-24.9,0-37.3,0c0,4.1,0,8.2,0,12.3c8.5,0.1,16.9-0.1,25.3,0.1c2.6,0.1,5.8,0.9,6.9,3.6
		c1.4,3.9,1.4,8.3,0.3,12.3c-0.7,2.8-3.4,4.6-6.2,4.6c-8.8,0.4-17.6,0.1-26.4,0.2c0,8,0.1,16,0,24c0,2.9-0.9,6.5-4,7.6
		c-4.2,1.3-8.9,1.4-13-0.3c-3.2-1.4-3.6-5.3-3.6-8.3c-0.1-21.7,0-43.4,0-65.1C132.1,359.7,131.9,355.8,134.4,353.4z"/>
	<path class="st0" d="M306.9,355.9c3.6-3,8.5-4.6,13.1-4.3c3.3,0.5,4.5,4,5.5,6.7c4.4,13.3,8.7,26.6,13,39.9
		c4.2-12.4,8.2-24.8,12.3-37.3c0.8-2.3,1.8-4.7,3.7-6.4c3.8-3.4,10.2-3.5,14,0c2.5,2,3,5.2,4,8c3.9,11.9,7.8,23.9,11.8,35.8
		c4.2-12.8,8.4-25.6,12.6-38.4c1.1-3.6,2.7-8.3,7.2-8.5c4.5,0,9.2,1.7,12.5,4.9c2.4,2.4,1.3,5.9,0.4,8.6
		c-7.5,21.9-15,43.7-22.5,65.5c-1.5,5.3-7.7,8.7-13,7c-3.2-1-5.9-3.6-6.8-6.9c-4.3-12.9-8.7-25.9-13-38.8
		c-4.5,12.8-8.6,25.7-13.1,38.6c-1.4,4-4.9,7.6-9.4,7.6c-4.7,0.3-9.1-3-10.4-7.4c-7.5-21.6-14.9-43.2-22.4-64.8
		C305.2,362.6,303.9,358.4,306.9,355.9z"/>
	<path class="st0" d="M579.7,352.7c5.3-1.2,12.5-1.4,15.9,3.7c8.5,11.2,17.1,22.5,25.6,33.7c8.8-11.5,17.4-23.1,26.3-34.6
		c2-3,6-3.5,9.3-3.5c3,0.1,6.4,0.1,8.7,2.2c2.1,2.4,2,5.8,2,8.8c-0.1,10.1,0.1,20.3-0.1,30.4c-6.8-0.1-13.6,1.1-20.4,1.1
		c-0.1-2.1-0.2-4.3-0.2-6.4c-1.6,2.2-3.3,4.3-5,6.4c-5.5,1-11.2,0.6-16.7,1.7c-7.2,0.3-14.4,1.5-21.5,2.5c-2.8-3.4-5.2-7.1-7.9-10.6
		c0,4,0,8-0.3,12c-6.8,0.7-13.6,1.6-20.2,3.3c-0.6-13.8-0.1-27.7-0.3-41.5C574.8,358.4,575.5,353.6,579.7,352.7z"/>
	<path class="st0" d="M462.8,355.7c3.7-1,7.8-1,11.5,0c2.4,0.6,4.4,2.7,4.5,5.2c0.5,5.2,0.2,10.4,0.3,15.6c4.6-0.2,9.5-1.2,14,0.4
		c3.7,1.3,3.9,5.8,4,9.1c-0.1,3.5-0.1,8.5-4,9.9c-4.5,1.4-9.3,0.6-14,0.8c0.2,6.4-0.4,12.9,0.3,19.3c1.1,4.6,6.9,2.3,10.2,3.6
		c3.1,0.6,3.9,3.9,4.1,6.6c-1.7,0.5-3.4,1-5.1,1.5l0,0.7c-1,0.3-2,0.6-3,0.9c2.9,0.4,5.6-0.5,8.4-1.2c-0.3,3.7-0.8,8.7-5.3,9.4
		c-7.5,1.1-15.7,0.4-22.3-3.8c-5.4-3.4-7.5-10-7.9-16.1c-0.4-7-0.1-14.1-0.2-21.1c-3.1,0.1-7.4,0.8-9.1-2.6
		c-1.8-4.4-1.4-9.6-0.3-14.1c1.1-4.2,6.1-4,9.5-3.4c0.1-4.8-0.1-9.6,0.1-14.4C458.4,359.2,460,356.3,462.8,355.7z"/>
	<path class="st0" d="M247.3,375.4c3-1.2,6.7,0.2,8.2,3c5.8,9.4,11.1,19.1,17.1,28.4c3.6-8.9,7.8-17.6,11.7-26.4
		c1.2-2.7,3.3-5.8,6.6-5.4c4.3,0.4,8.7,2.2,11.6,5.4c2.2,2.3,1.4,5.7,0.1,8.3c-10.7,24-21.4,48-32,72c-1.1,2.7-3.5,5.2-6.7,4.8
		c-3.7-0.5-7.2-2-10.1-4.3c-1.9-1.4-3.1-4-2.2-6.4c2.8-8.3,6.8-16,10.2-24c1-1.3-0.4-2.6-0.9-3.8c-7.4-12.3-14.7-24.6-22-37
		c-1.2-2.2-2.9-5-1.4-7.5C239.8,379,243.6,376.9,247.3,375.4z"/>
	<path class="st0" d="M700.6,375.8c8.2-1.5,17.2-1.1,24.4,3.4c5,3,8.5,8,10.6,13.4c-13.8-1.2-27.7-0.7-41.5-0.8
		c-5.4-0.1-10.6,1.1-16,0.8C682.5,384,691,377.6,700.6,375.8z"/>
	<path class="st0" d="M427.3,376.3c3.8-0.5,7.9-0.6,11.3,1.2c3,1.6,2.9,5.5,3,8.5c0,14.4,0,28.7,0,43.1c0.1,3.2-0.8,7.4-4.5,8.3
		c-4.2,1-8.9,1.2-12.9-0.5c-3.2-1.6-3.2-5.7-3.3-8.7c0.1-15.1-0.2-30.1,0.2-45.2C421.1,379.3,423.8,376.4,427.3,376.3z"/>
	<path class="st0" d="M685.1,431.9c-8.3-7.9-11.7-20.2-9.5-31.4c7.4-0.1,14.8-0.1,22.2-0.3c-0.3,0.9-0.7,2.8-1,3.7
		c5.4-0.1,10.7,0.3,16.1-0.1c2,0,2.6-2.1,3.5-3.5c6.8,0,13.6,0,20.4,0.1c-0.3,2.9-0.4,6-1.9,8.6c-1.9,3.5-5.8,6-9.8,6
		c-9.4,0.2-18.8-0.2-28.2,0.2c2.6,6.2,10.3,7.4,16.2,6.7c4.5,0,8.6-2.4,13-2.7c4.2,0.6,6.4,5.1,7.4,8.9c1,3.6-1.4,7.3-4.7,8.8
		c-6.1,2.9-13.1,3.1-19.7,3.2C700.5,440.1,691.5,437.8,685.1,431.9z"/>
	<path class="st0" d="M608.3,404.9c9,0.1,17.9-1.4,26.8-1.7l1.6-1.5c-0.8,2.8-3.4,4.8-4.9,7.3c-2.5,4-6.8,7.6-11.8,6.8
		C614.1,415,611.2,409.3,608.3,404.9z"/>
	<path class="st0" d="M647,402.4c6.8-0.8,13.7-1.1,20.6-1.2c0.2,8.6,0,17.2,0.1,25.8c-0.1,3.3-0.1,7.4-3.1,9.6
		c-3.3,1.8-7.2,1.5-10.7,1.1c-3.1-0.3-6.5-2.2-6.6-5.7C646.7,422.2,647.2,412.3,647,402.4z"/>
	<path class="st0" d="M575.3,409.7c6.8-0.2,13.5-2.2,20.3-2.4c0,7.6,0.1,15.2,0,22.8c0,2.9-1.3,6.3-4.4,7.1
		c-3.9,1.1-8.3,1.2-12.3-0.2c-3.2-1.1-4-4.9-4-7.9C575.1,422.6,574.7,416.1,575.3,409.7z"/>
	<path class="st0" d="M545.5,414.9c6.8-0.4,13.5-2,20.1-3.3c0.2,6.2,0.2,12.4,0.1,18.6c0,2.9-1.2,6.4-4.4,7.1
		c-3.9,1-8.3,1.1-12.2-0.2c-2.9-0.9-4-4.2-4-7C545,425,544.7,419.9,545.5,414.9z"/>
	<path class="st0" d="M504.3,424.7c6.9-1.3,13.5-3.7,20.4-4.6c-0.2,4.6,0.6,9.3-0.8,13.8c-1,3.3-4.9,4-7.9,4.1
		c-3.4,0.1-7.2,0.2-10-2C503.4,432.9,504,428.5,504.3,424.7z"/>
</g>
</svg>
