<?xml version="1.0" encoding="utf-8"?>
<!-- Generator: Adobe Illustrator 19.0.0, SVG Export Plug-In . SVG Version: 6.00 Build 0)  -->
<svg version="1.1" id="b8eef085-bbb0-4c81-9a53-f8aa424b48dc"
	 xmlns="http://www.w3.org/2000/svg" xmlns:xlink="http://www.w3.org/1999/xlink" x="0px" y="0px" viewBox="282 -86.7 1063.1 672.7"
	 style="enable-background:new 282 -86.7 1063.1 672.7;" xml:space="preserve">
<style type="text/css">
	.st0{fill:#3F3D56;}
	.st1{fill:#FCC911;}
</style>
<title>aircraft</title>
<path class="st0" d="M411.6,247.1l758.2-23.3c30.8-1.2,54,13.3,67.4,24.7c4.6,3.8,8.8,8,12.6,12.6l0.4,0.5
	c6.1,4.1,11.9,8.7,17.2,13.8c34.4,34-9.6,50.2-9.6,50.2c-297.9,79.5-671-0.9-671-0.9s-73.1-11.8-125.8-25.2
	c-19.4-4.9-36-10.1-45.2-14.9C381.5,266.5,411.6,247.1,411.6,247.1z"/>
<path class="st0" d="M411.6,247.1l-51.9-125.4l70.1-2.9l141.1,130.5C566.6,268.5,411.6,247.1,411.6,247.1z"/>
<polygon class="st0" points="790.4,245.8 753,191.2 621.4,110.1 672.6,106.2 971,233.3 "/>
<path class="st1" d="M904.9,305.6c296,3.6,362.3-29.7,362.3-29.7l0.2-0.5c34.4,34-9.6,50.2-9.6,50.2c-297.9,79.5-671-0.9-671-0.9
	s-73.1-11.8-125.8-25.2L904.9,305.6z"/>
<path class="st0" d="M422,282.2l-90.9,51.4l34.3,8.4l145.8-38.5C524.9,273.8,422,282.2,422,282.2z"/>
<path class="st1" d="M1206.7,259.6c7.5,1.3,22.2-6.3,30.5-11.1c4.6,3.8,8.8,8,12.6,12.6c-10.4,6.2-27,15.3-33.5,14.4
	C1206.4,273.9,1195.9,257.7,1206.7,259.6z"/>
<path class="st0" d="M763.1,374.5c0,0-0.2-0.6-0.5-1.6c-1.2-4.3-4.2-16.1-3.3-25.7c0.5-5.1,2.2-9.6,5.8-12
	c0,0,178.9-26.8,216.5,14.4l-24.5,12.3l-50.5,25.2L634.8,523.1l-88.3-16.2L763.1,374.5z"/>
</svg>
