<?xml version="1.0" encoding="utf-8"?>
<!-- Generator: Adobe Illustrator 19.0.0, SVG Export Plug-In . SVG Version: 6.00 Build 0)  -->
<svg version="1.1" id="e37c00f5-ff96-45aa-87ea-1a24b78ba7bd"
	 xmlns="http://www.w3.org/2000/svg" xmlns:xlink="http://www.w3.org/1999/xlink" x="0px" y="0px" viewBox="781 -8 2062 517"
	 style="enable-background:new 781 -8 2062 517;" xml:space="preserve">
<style type="text/css">
	.st0{fill:url(#SVGID_1_);}
	.st1{fill:url(#SVGID_2_);}
	.st2{fill:url(#SVGID_3_);}
	.st3{fill:url(#SVGID_4_);}
	.st4{fill:url(#SVGID_5_);}
	.st5{fill:url(#SVGID_6_);}
	.st6{fill:url(#SVGID_7_);}
	.st7{fill:#3F3D56;}
	.st8{fill:#FFFFFF;}
	.st9{fill:url(#SVGID_8_);}
	.st10{fill:url(#SVGID_9_);}
	.st11{fill:#57B894;}
	.st12{fill:none;stroke:#3F3D56;stroke-miterlimit:10;}
	.st13{opacity:0.3;fill:#FCC911;enable-background:new    ;}
</style>
<title>connected world</title>
<linearGradient id="SVGID_1_" gradientUnits="userSpaceOnUse" x1="1303.7679" y1="116.7702" x2="1419.7557" y2="167.6691" gradientTransform="matrix(1 0 0 -1 0 502)">
	<stop  offset="0" style="stop-color:#3F3D56"/>
	<stop  offset="1" style="stop-color:#3F3D56;stop-opacity:0.9"/>
</linearGradient>
<path class="st0" d="M1420.7,338.4c-1.9-2.9-6.2-3.4-8.4-6c-1.9-2.6-1.9-6.1-4.3-8.4c-2-2-5.4-1.9-8-3.2c-4.6-2.2-6.1-8.5-10.9-10.3
	c-2.7-1.1-6.2-0.4-8-2.7c-1.6-1.9-1.1-4.7-0.7-7.1c0.5-7.9-3.7-15.2-11.2-18.6c-2.8-1.3-5.9-1.8-7.9-4c-2-2.1-2.4-5.4-3.7-8
	c-2.1-4.3-6.7-6.7-11-8.9L1329,252c-3.1-1.6-7.2-3.2-9.9-0.7c-0.7,1-1.5,1.9-1.9,3.1c-2.4,3.7-8.7,7.2-13.3,6.3
	c0,0.1-0.1,0.2-0.1,0.3c0.5,1.1,0.7,2.1,0.3,3.2c-1.6,3.5-0.7,8.1-2.2,11.9c-2.8,6.6-13.5,7-16.3,13.6c-0.5,1.5-0.6,3.1-1.5,4.4
	c-1,1.7-2.7,2.8-3.6,4.5c-1.8,3.1-0.2,7.1,1.8,10.2c2,3,4.8,5.9,5.6,9.4c0.6,3.7-1.2,7.6-1.6,11.5c-1.1,8.2,4.6,16.2,10.9,21.8
	c1.9,1.8,4,3.5,4.9,6c1.3,3.1,0.1,6.6-0.1,10c-0.4,8.1,4.6,16.3,2.7,24.2c-1.4,5.8-6,10-9.2,14.7c-6.3,9.3-8.1,20.9-4.9,31.7
	c0.7,2.7,1.9,5.5,2.2,8.1c0.5,5-1.4,10-1,15c0.5,6.7,5.4,13.2,3.1,19.5c1.3,6.2,6.6,10.7,12.4,14l10.2,5.9c1.9,1.2,4,2.1,6.3,2.6
	c2.2,0.2,4.7-1.1,5.2-3.2c-5-2.7-10.2-5.4-13.8-9.7c-3.5-4.4-5-10.9-2.1-15.4c1.4-2,3.7-4.5,2.7-6.9c-0.5-1.3-2.1-2-2.9-3.4
	c-1.2-1.9,0.1-4.6,1.7-6.1c1.6-1.6,3.7-3,4.8-4.9c1.2-2.2,0.5-5.2-1.3-7.1c2.1-0.2,4.4-0.7,6.3-1.9c1.8-1.2,3.1-3.4,2.6-5.6
	c3.2,1.4,7.1,2.6,10,0.6c2.2-1.5,3-4.5,2.9-7.3c-0.1-2.7-0.5-5.4,0.1-8c7.7,2.2,15.3,4.3,23.2,5.2c-0.1-4-1.9-7.6-4.8-10.3
	c3.6,0.3,7.8-2.9,9.7-5.9s2.7-6.5,2.9-10.1c0-1.1,0.2-1.9,0.5-2.7c0.6-1.2,2.1-1.6,3.4-1.8l19.7-5c1.2-0.2,2.2-0.6,3.2-1.3
	c2.2-1.5,2.9-4.8,2.7-7.6c-0.2-2.9-1.1-5.5-0.6-8.4c1.1-8.2,11.3-11.6,16.4-18.4c1.9-2.7,3-5.8,4.2-8.9
	C1421.8,345.2,1422.9,341.2,1420.7,338.4z"/>
<linearGradient id="SVGID_2_" gradientUnits="userSpaceOnUse" x1="1354.2117" y1="166.4643" x2="1226.9911" y2="28.6785">
	<stop  offset="0" style="stop-color:#FCC911"/>
	<stop  offset="1" style="stop-color:#FCC911;stop-opacity:0.7"/>
</linearGradient>
<path class="st1" d="M1428.8,74.7c-0.4-2.7-2.1-5.1-1.6-7.8c0.3-1.7,1.6-3.6,0.3-5.1c-0.4-0.4-1-0.7-1.5-1.1l-33.6-15.6
	c-2-0.7-5.1-1.5-5.9,0.5c-0.4,1.3,0.3,2.6-0.3,3.5c-0.7,1-2.3,0.4-3.7,0.4c-2,0.1-3.5,2-3.8,3.9c-0.1,1.9,0.1,3.9,0.7,6
	c-2.6-1.1-6-2-8.1-3.6c0.3-2.8,0.3-5.4,0-8c0-1.1-0.4-1.9-1.3-2.7c-0.4-0.3-1.2-0.4-1.8-0.4l-9.5-1.1c-0.6-0.2-1.6-0.1-2.2,0.2
	c-1.5,1-0.7,3.2-1.4,4.9c-0.4,1.8-2.7,2.9-4.7,3c-1.9-0.2-3.9-0.6-5.9-1.5l-12.2-5.3c4.2-0.2,8-1.5,11.3-3.7
	c2.2-1.5,3.9-4.8,1.8-6.4c-0.6-0.3-1.4-0.6-2.1-0.6c-5.9-1.5-9.2-7.3-14.1-10.8c-6.5-4.4-14.9-4.2-21.1,0.4l6.7,2
	c0.6,0.1,1.3,0.4,1.7,1c1.2,1.6-1.3,3.4-1.6,5.2c-0.3,2.6,2.9,3.8,5.2,4.8c2.3,1.1,5,3.6,3.3,5.4c-13.5,0.7-23-14.9-36.6-16.9
	c-3.4-0.4-6.9,0-10.2-0.1c-21.2-0.3-38.2-18.7-59.2-21.3c-4.7-0.4-9.5-0.5-14.2-0.1c-3.1,0.2-6.1,0.3-8.6,1.8
	c-2.7,1.5-4.3,4.8-3,7.5c-5.3-1-10.5-2.8-15.1-5.4c2.3,2.2,3.3,5.5,2.6,8.6c-8.4-1-17.2-0.5-25.6,0.7c0.7,2.7,1.9,5.2,3.2,7.6
	l-11.9,3.8c3.3,1.8,3.8,6.9,1.1,9.3c3.9-0.5,7.5-4.2,11.4-3.8c2.8,0.1,5,1.8,7.1,3.3c2.1,1.6,4.6,3.2,7.3,3.2
	c2.8-0.1,5.3-2.7,4.3-5.1c11.5-0.2,22.9,1.1,34.1,3.6c0.7,0.1,1.7,0.4,2.2,1.2c1.3,1.3,0.2,3.3-0.2,5c-0.5,1.7,0.2,4.4,2,3.9
	c-2.1,1.1-1.5,4.4-0.1,6.5s2.9,4.8,1.3,6.7c-0.4,0.5-1.1,1-1.4,1.3c-1.3,1.5-0.4,3.6,0.6,5.2c1.3,1.5,2.9,2.8,3.5,4.6
	c0.6,1.8-0.5,4.3-2.3,4.2l-3.6-8c-2.2,1.4-4.2,3.3-5.3,5.5c4.5,6,3,15.3-3.2,19.4c-3.2,2-7,2.9-10.7,4.3c-3.5,1.4-7.1,3.6-8.1,7.3
	c-1.6,6.3-3.7,11.9-2.9,18.3c1.6,11.8,3.9,23.6,7.1,35.3c0.7,3,2,6.4,5,7.8c-1.5-10.1-2.6-20.5-3.1-30.7c1.9,0.5,4.4,1.3,5.1,3.3
	c0.6,1.6,0,3.3-0.1,5c0,1.6,0.2,3.3,0.6,4.9l10,37c0.7,3,1.9,6.4,4.5,8.2c1.7,1.3,3.8,1.7,5.3,3.1c1.2,1.2,1.7,2.8,2.9,3.8
	c3.3,3.2,9.8,0.5,12.9,3.9c1,1.1,1.3,2.2,2,3.3c2.7,3.7,8.6,3.3,11.9,6.4c2.1,2,2.8,5.1,3.4,8c1.7,7.1,5.5,14.5,12.7,17.2
	c2.1,0.7,4.7,1,6.7,1.9c1,0.4,1.8,1.3,2.3,2.1l0,0l0,0c-0.7-3-1.3-7-3.9-8.7c-1.8-1-3.7-1.6-5.3-2.9c-3.5-2.9-3.8-8.1-1-11.4
	c0.1-0.1,0.1-0.2,0.3-0.4c3.2-3.2,3.7-8.1,1.4-12.1c-2.3-3.5-6.8-5.3-11.1-6.4c-0.4-2.7,2-4.9,4.5-6.1c2.3-1.2,5.3-2.1,6.5-4.7
	c1.8-3.7-2.8-8.2-7-8.1c-4.4,0.2-7.8,3.2-10.5,6.5c-1.6,1.8-3,3.9-4.9,5.2c-2,1.5-4.8,2-6.9,0.7c-3.1-1.6-3.3-5.9-3.2-9.2
	c0.1-4.6,0.3-9.3,1.7-13.5c1.4-4.4,4.2-8.5,8.2-10.7c6.7-3.4,15-0.7,22.3,1.9c-1.3-2.2,0-5.5,2.3-6.7s5.4-1.2,7.8,0.2
	c2.1,1.1,3.7,2.9,4.8,4.9c1.5,3,1.2,6.5,1.9,9.8c0.7,3.3,3.7,6.5,7,5.9c2.9-0.6,4.2-3.9,4.3-6.7c0-2.8-0.5-5.9,0.4-8.5
	c1.8-5.2,8.3-6.8,13.8-7.8c5.5-0.7,11.9-2.2,14.3-7.5c0.2-1.1,0.7-1.9,1.5-2.9c0.7-0.7,1.7-1.2,2.8-1.4
	c16.9-5.4,34.2-11.1,52.2-11.7c1.1-0.1,1.1,0.2,1.8,0.3c1.5-0.4,1.2-2.6,0.1-3.5c-1.1-1.1-2.3-2-2.3-3.5c0.1-1,1-1.9,1.3-2.8
	c1.1-2.3-1.4-5.4-3.9-5.1c-1-2,2.2-3.3,4.6-3.4c6.8,0,13.7,0.6,20.5,2.1c0.7,0,1.5,0.4,2.1,1c1,1.1,0.3,2.8-0.7,3.5
	c-1.1,0.7-2.3,1.2-3.6,1.8c-2.8,1.6-4.4,4.5-4.3,7.5c3,2.7,6.3,5.4,10.2,5.9c3.9,0.3,8.4-2.9,7.6-6.6c-1-3.5-5.8-5.5-5.8-9.3
	c0-4.3,6.7-6.3,6.5-10.5c-0.1-1.8-1.6-3.4-2.7-4.9c-2.3-3.8-2.1-8.9,0.6-12.6c-4.7-0.4-8.9-3-11.3-6.8c-2.1-3.6-3.3-8.6-7.5-9.8
	c-3.8-0.7-8.2,2.7-11.5,0.2c-0.7-0.5-1.6-1.4-2.6-1.3c-0.5,0.1-1.2,0.6-1.4,1.3c-2,3.9-1.7,9.2-5,12.2c-3.5,3.3-9.7,2.1-13.8,5
	c-2.2,1.5-3.5,3.9-5.5,5.5s-5.9,2-7-0.2c2.9-3.3,3-8,0.3-11.6c-1.5-1.5-3.1-3-4.8-4.2c-1.9-1.5-3.7-3.1-5.3-5
	c-0.7-1-1.4-1.8-1.7-2.9c-0.1-1.4,0.3-2.8,1.2-3.6c3.3-4.8,9.3-7.6,15.3-6.7c2.6,0.3,5.3,1.3,7.6-0.1c1.2-0.6,2-2,3.4-2.1
	c0.7,0.1,1.6,0.4,2.2,1l8.3,5.5c1,0.6,2,1.2,3.1,1.4c1.3,0.1,2.2-0.6,2.6-1.8c0.1-1.6-2-2.9-1.5-4.4c0.2-0.4,0.5-0.7,1.2-1.1
	c8.6-5.2,19.2-6.4,29-3.2c0.6,2.1-1.8,3.8-3.7,5c-1.9,1.2-3.9,3.6-2.3,5.3c0.6,0.4,1.5,1.1,2.2,1.3c2.1,1,4.4,2,6.1,3.7
	c2.9,2.1,5.5,4.6,8.2,6.9c0.2-2,0.4-4.2,1.8-6s3.8-2.7,5.5-1.3c1.6,1.3,2,3.7,3.8,4.5C1427.3,80.9,1429.5,77.4,1428.8,74.7z"/>
<linearGradient id="SVGID_3_" gradientUnits="userSpaceOnUse" x1="1517.6938" y1="477.6433" x2="1562.7534" y2="422.8366" gradientTransform="matrix(1 0 0 -1 0 502)">
	<stop  offset="0" style="stop-color:#3F3D56"/>
	<stop  offset="0.2324" style="stop-color:#3F3D56;stop-opacity:0.9768"/>
	<stop  offset="1" style="stop-color:#3F3D56;stop-opacity:0.9"/>
</linearGradient>
<path class="st2" d="M1472.7,22l4.7,1c-3.3-0.2-6.2,2.6-6.3,6.3c0,0.3,0,0.6,0,0.9c4.3,1.6,9.2,0,13.8,0.3c4.6,0.2,10,3.9,9.2,8.7
	c-0.2,1.5-1.1,3.1-0.6,4.5c0.2,1,1.1,1.8,1.6,2.8c1,1.9,0.2,4.4-1.1,6.1c-1.2,1.8-2.9,3.2-4,5.1c-2.7,4.7-1.2,10.8,0.4,15.9
	c0.4,1.9,1.3,3.9,2.5,5.5c2.4,2.8,6.2,2.9,9.6,3.1c2.5,0,5.4-0.2,7-2.2c2-2.8,0.6-7.1,1.9-10.3c1.3-2.9,4.4-4.2,7.2-5.1
	c5.1-1.6,10.5-3.1,15.4-5.5c6.1-3.1,11.9-7.9,18.6-8.2c1.8-0.2,3.9,0.2,5.7-0.5c1.8-0.6,3.5-2.2,3.4-4.4c-0.1-1.8-1.4-3.1-2.6-4.4
	c-1.1-1.3-1.8-3.4-1-4.8l17.7-3.5c-1.3-3.7-2.2-8.6,0.6-11.1c1.1-0.9,2.5-1.3,3.3-2.2c1.5-1.8,0.7-4.8-1.1-6.4
	c-1.7-1.6-4.1-1.9-6.3-2.1c-7.7-0.6-15.5-0.2-23.2,0.2c-15.2,1-30.3,1.8-45.5,2.8c-3.1,0.2-6.5-0.2-9.3,1c-2.4,1-4.1,2.8-6.7,3.4
	C1482.7,19.8,1477.3,19,1472.7,22z"/>
<linearGradient id="SVGID_4_" gradientUnits="userSpaceOnUse" x1="2329.7615" y1="277.2955" x2="2443.1372" y2="426.6807">
	<stop  offset="0" style="stop-color:#FCC911"/>
	<stop  offset="1" style="stop-color:#FCC911;stop-opacity:0.7"/>
</linearGradient>
<path class="st3" d="M2424.8,349.1c0.4-2.1,2.6-4,1.9-6.1c-0.4-1.4-2.1-2.1-3.6-2.2c-1.5,0-3,0.4-4.5,0.4c-1,0-1.9,0-3,0
	c-3,0.4-4.8,3.6-7.7,4.7c-1.7,0.7-3.6,0.5-5.5,1.1c-4.1,1.1-6.6,4.9-9.4,7.9c-4.6,4.9-10.5,8.5-17,10c-2.2,0.5-4.8,0.9-6.6,2.4
	c-2.5,2-3,5.4-3.5,8.5c-1.5,8.6-3.7,16.9-6.7,24.9l9.6,1.2c1.8,0.2,3.7,0.4,5.5-0.1c1.3-0.4,2.5-1.2,3.6-1.9c4.3-2.7,9.1-4.3,14-5
	c2.5-0.3,5.1-0.3,7.5,0.4c2.4,1,4.4,3,4.6,5.7c2-0.7,4.4-0.1,5.9,1.4s2.5,3.5,2.8,5.7c0.3,1.3,0.5,2.9,1.7,3.4c1,0.4,2.1,0,3.2-0.1
	c3.7-0.3,6.7,4,10.4,3.3c3.9-0.9,4.8-6.6,8.6-7.8c2.1-0.7,5.2,0.1,6.2-1.9c1-1.7-1-3.9-0.7-5.9c0.2-2.5,3.2-3.5,5.4-4.6
	c7.7-3.6,11.3-14,7.7-21.6c-2.2-4.6-6.6-8-7.4-13.2c-0.6-3.9,0.9-8.3-1.5-11.3c-1.3-1.5-3.3-2.4-4.1-4.2c-0.4-1.2-0.3-2.5-0.5-3.6
	c-0.3-1.2-1.4-2.5-2.5-2.2c-3.5,1-4.6,11.7-6.4,14.4C2429.8,356.6,2423.9,354,2424.8,349.1z"/>
<linearGradient id="SVGID_5_" gradientUnits="userSpaceOnUse" x1="2294.1204" y1="83.985" x2="2129.4443" y2="177.3032" gradientTransform="matrix(1 0 0 -1 0 502)">
	<stop  offset="0" style="stop-color:#3F3D56"/>
	<stop  offset="1" style="stop-color:#3F3D56;stop-opacity:0.9"/>
</linearGradient>
<path class="st4" d="M2182.2,246.3c0.2,1.5,0.2,3.3-0.4,4.8c-0.7,1.4-2.4,2.5-4,1.8c-1.2-0.7-1.6-1.8-2.5-2.9
	c-4.3-5.6-15.4-3.7-17.8-10.3c-1-2.7,0.1-5.7-0.3-8.5c-0.7-3.4-3.6-5.7-7.1-5.9c-1.5,0.1-3.1,0.3-4.6,0.8c-9.8,2.7-20,4-30.1,4
	c-1.9-0.1-4,0-5.7,0.4c-4.3,1-7.6,4.5-10,8s-4.4,7.5-7.5,10.8c-3.2,3.2-7.5,5.3-11.5,7.6c-1.5,0.7-3,1.8-3.8,3.1
	c-1,1.4-1.1,3.4-1.3,5.1l-1.6,21.7c-0.2,2.9-0.4,5.6,0.7,8.4c1.2,3.2,4.1,5.7,6.2,8.6c1.9,3.1,2.6,6.7,2.2,10.2
	c-0.2,1.4-0.4,3.1,0.4,4.2c0.7,0.5,1.4,0.9,2.3,1l29.8,5.6c5.3,1,11.1,2.3,14.1,6.6c1.4,2.1,2.4,4.7,4.9,5.4c1,0.2,2.1,0,3.2-0.1
	c2.7,0.2,4.8,2.3,6.2,4.6c1.9,3.6,2.4,7.6,1.6,11.7c-0.5,2.5-1.6,4.8-2.1,7.4c-1.8,9.5,5.7,18.6,4.7,28.4c-0.5,5.6-4,10.7-7,15.3
	c3.6,6.8-1,15,0,22.7c0.9,7.1,6.3,13.5,7,20.8c0.3,3.3-0.1,7.4,2.6,9.5c1.2,0.8,2.6,1.1,4,1.3c8.7,1.1,17.5,0,25.6-2.9
	c3.8-1.4,8-3.6,9-7.4c0.8-3-0.4-6.9,1.6-9.5c2.3-3.1,7.4-2.3,10.6-4.4c5.2-3.5,2.4-11.7,4.9-17.2c2.3-5.1,8.5-7.3,12-11.5
	c1.4-1.9,2.4-4,3.2-6.2c1.9-5.4,3.3-10.8,4.3-16.2c0.4-3.4,1.1-6.7,1.9-10.1c5.3-18.8,26.2-29.6,34.4-47.1c0.8-1.5,1.4-4-0.1-5.1
	c-0.9-0.5-1.9-0.8-3-0.5l-14,0.2c-1.8,0-3.5,0.1-5.2-0.8c-1.4-0.9-2.4-3-1.4-4.3c2.9-4-1.4-9.7-3.2-14.1
	c-4.6-12.1-10.1-23.8-16.9-34.7c-0.4-0.7-0.7-1.4-0.8-2.1l4,0.5c-0.8-4.8-2.4-10.1-6.8-12.2c-2.6-1.2-5.4-1.2-8.2-1.3
	C2198.5,250.4,2190.1,248.2,2182.2,246.3z"/>
<linearGradient id="SVGID_6_" gradientUnits="userSpaceOnUse" x1="2061.156" y1="176.8138" x2="2146.8811" y2="64.5221">
	<stop  offset="0" style="stop-color:#FCC911"/>
	<stop  offset="0.5052" style="stop-color:#FCC911;stop-opacity:0.9454"/>
	<stop  offset="1" style="stop-color:#FCC911;stop-opacity:0.7"/>
</linearGradient>
<path class="st5" d="M2160.7,125.8c8.1-29.6,35.4-49.1,39.1-79.1l0,0c-2.1-1.5-3.2-4.1-4.7-6.3s-3.9-4.1-6.5-3.4
	c-1.9,0.7-2.9,2.8-2.3,4.6c-12.4,1.7-24.1,6.5-34.2,13.9c-1.2,0.8-2.3,1.5-3.6,2c-2.4,0.5-5.1-1.3-5.6-3.9
	c-1.9,5.3-5.1,11.8-10.7,11.8c-3.2,0.1-5.8-2.2-8.3-4.2c3.4-0.6,4.7-1.7,8.6-2.1c0.5,0.1,1-0.1,1.5-0.5c0.5-0.7,0.7-1.5,0.5-2.3
	c-0.7-3.8-4.1-6.5-7.5-7.4c-3.5-1-7.2-0.6-10.8-0.1l-12.2,1.3c-6.3,0.3-12.4,2.3-17.6,5.9c-3.5,2-6.9,4.6-10.3,6.6
	c-1.2,6.3-3.7,11.9-7.8,16.6c-1.7,2.1-3.7,3.7-5,6s-1.7,5.2-0.6,7.5c0.2,0.6,0.7,1.2,1.3,1.4c1,0.2,2,0,2.9-0.3
	c2.1-0.7,4.3-1.5,6.7-1.5c2.2,0,4.6,1.5,5.2,3.7c0.2,0.8,0.3,2.1,1.2,2.5c0.6,0.3,1.5,0.5,2.2,0.2l6.5-1.3c0.2-2.2-0.5-4.5-2-5.9
	c1.6-0.2,3.1-1.2,3.9-2.4c1.9-2.8,1.2-6.4-1.4-8.2c-1.5-1-3.9-2-3.8-3.8l9-6.8c1.9-1.5,4.1-3,6.4-2.2c3.4,1,3.6,5.9,2,9
	c-0.6,1.4-1.4,3.1-0.2,4.1c0.5,0.3,0.8,0.5,1.4,0.6l13.9,2.9c-3.2,3.1-7.6,4.3-11.9,3.8l2,7.8c-1.5-1.3-3.6,0-4.7,1.4
	c-1.3,1.4-2,3.4-3.6,4.2c-1.6,0.8-3.6,0.5-5.3,0.6c-4.2,0.5-7.8,4.9-12,4.2c-2.2-0.3-4.1-2.1-6-3.2c-2-1.2-4.7-1.9-6.5-0.2
	c0.7,4.6-1.9,8.9-6.3,10.1c-0.6,0.1-1.3,0.1-1.7,0.5c-1,0.8-1,2.4-1.2,3.7c-0.3,4.2-3.8,7.5-7.5,9.4c-3.7,1.9-7.8,2.8-11.7,4.5
	c-0.7,0.2-1.5,0.7-1.7,1.6c-0.3,1.3,1.2,2.4,2.2,3.2c2.8,2.1,4.2,5.7,3.7,9.1c-0.6,3.5-3.4,6.4-6.7,6.9c-2.2,0.3-4.9-0.1-6.4,1.5
	c-1.2,1.3-1.3,3-1.2,4.6l-0.1,8.1c0,1.9,0.1,4.2,1.9,5.1c0.8,0.3,1.7,0.3,2.8,0.2c9.4-0.8,19-6,22.7-15.2c0.6-1.6,1.2-3.4,2-5.1
	c3.5-6.8,12.7-8.8,19.6-5.9c6.9,2.9,11.8,9.3,15.4,16.2c0.2,0.6,0.6,1,1.3,1.3c0.5,0.1,1.2-0.1,1.5-0.5c3.4-2.5,4.1-7.6,1.7-11.1
	c-1.7-2.3-4.9-3.7-7.3-5.4s-4.7-4.9-3.6-7.8l16.3,6.8c1.6,0.7,3.4,1.5,4.1,3.1c1,1.9,0.1,4.3,0.1,6.5c0,3.1,1.7,5.9,4.5,7.4
	c2.8,1.4,5.9,1.2,8.6-0.6c0.5-5-5.4-10.1-2.9-14.2c2.2-3.7,9-2.3,10.5-6.5c1.2-3.1-2.1-6.6-1-9.6c1-2.8,4.6-3.2,7.4-2.5
	c2.9,0.3,5.9,1.4,8.3-0.2c1.4-1,2.1-2.4,3.2-3.7c1.2-1.2,3.2-1.9,4.3-0.5c1.6,1.6-0.6,4.6,0.2,6.8c1,2.4,4.9,2,7.2,3.5
	c1.5,0.8,2.1,2.5,2.1,4.5C2163.6,134.5,2159.5,129.5,2160.7,125.8z"/>
<linearGradient id="SVGID_7_" gradientUnits="userSpaceOnUse" x1="2542.7825" y1="393.0811" x2="2233.2302" y2="336.2448" gradientTransform="matrix(1 0 0 -1 0 502)">
	<stop  offset="0" style="stop-color:#3F3D56"/>
	<stop  offset="1" style="stop-color:#3F3D56;stop-opacity:0.9"/>
</linearGradient>
<path class="st6" d="M2530.8,17.9c-1.7-1.1-3.5-1.8-5.4-2c-14.8-2.7-29.9-2.8-44.6,0.2c-5.8,1.2-11.5,2.8-17.4,2.2
	c-3.1-0.2-6.1-0.9-9.3-0.9c-4.9,0.1-9.6,2.6-14.5,3.2c-6.8,0.8-13.7-1.7-20.4-2.7c-6.8-1-15.2-0.6-19,5.4c1.8,1.5,1.7,4.2,0.1,6
	c-1.6,1.6-3.9,2-6,2c-5.2,0-10.5-2.6-15.8-2.3c-3.1,0.2-6.1,1.6-9.3,2.7c-8.3,3.1-17,4.8-25.6,6.5c-1.2,0.2-2.5,0.6-3.2-0.3
	c-2.7-2.5,4.4-6.8,2.2-9.9c-13.7-4.2-28.6,0-42.3,4.1c3.5,3.3,8.5,4.2,12.7,2.2c0.7,1.5-0.1,3.6-1.6,4.7c-1.5,1-3.1,1.6-4.9,2
	c-9.9,2.6-19.4,6.9-28.9,11.3c-0.9,2.1,1.7,4.1,3.8,5.2c2.2,1,5,2.5,4.7,4.9c-0.1,2.6-3.7,3.3-5.8,2.1c-1.2,29.1-26,49.8-31.4,79
	c-0.9,3.7,3.6,8.1,2.1,12.1c0,1.9-0.7,4-2.1,5.4c-2.7,2.5-6.6,3-10,3.5l-15.3,1.8c-1.8,0.2-3.6,0.4-4.7,1.9c-1.5,1.9-0.2,5,1.5,6.8
	c4.6,5.2,12.9,2.9,19.5,1.1c2.9-0.7,5.8,1.7,7,4.5s1.3,5.9,1.8,8.9c1.5,9,6.2,16.7,13.4,21.9c2.9,2.1,6.3,3.8,8,6.9
	c1.2,2.1,1.5,4.7,2.5,7.1c3,7,12.5,10.7,12.6,18.3c6.5,1.5,12.8-3,16.9-8.5c4-5.4,6.8-11.7,11.8-16.2c1.6-1.5,3.2-2.6,4.5-4.4
	c1-1.8,1.5-4.2,0.1-5.8c-1.8-2.2-5.7-1.6-7-4c-1-1.6-0.2-3.9-1.2-5.2c-1.2-1.6-3.6-1.3-5.1-0.4c-1.6,1-2.8,2.5-4.4,3.5
	c-3.2,1.9-7.4,0.9-9.8-2c-2.5-3-3-7-1.6-10.5c4.5,1.8,9,3.1,13.8,3.8c8.4,1.2,17.1,0.8,25.6,1.8s17.2,3.7,23,10.4
	c0.4,0.6,0.9,1,1.6,1.3c2.6,1.1,4.2-3,4.4-5.9c5,11.8,10.9,23.2,17.2,34.2c1.2,2.3,2.8,4.7,5,6c4.2,2.6,10,0,12.7-4.4
	c2.6-4.2,2.6-9.9,1.7-14.8c-0.9-4.7-2.5-9.4-1.2-14c0.8-3,2.8-5.7,4.7-8.3c2.3-3.1,5.1-6.4,8.9-6.9c3.6-0.7,7,1.6,9.7,4.1
	c2.7,2.8,4.5,6,7.1,8.6c2.8,2.8,8.1,4.2,9.7,0.7c4.6,6.9,6.5,15.3,9.9,22.9c3.3,7.6,8.8,15.1,16.7,17.1c0-6.7-7.4-10.4-11-15.8
	c-2.5-3.8-3.3-8.4-3.9-12.9c-0.1-1.1-0.3-2,0.4-2.7c0.3-0.2,0.8-0.4,1.5-0.4c5.4-0.2,9.3,7.1,14.5,6.5c3.3-0.4,5.7-4.1,5.5-7.6
	c-0.1-3.5-2.1-6.7-4.4-9.3c-3.1-3.5-7.3-6.5-8.7-11c-1.5-4.6,1.9-10.8,6.4-9.6c0.7,4.4,1.6,8.6,2.9,12.8c1.1-0.2,2.8-1.2,3.8-1.3
	c-1.8-1-2.2-3.5-1.7-5.4c0.6-2,1.9-3.3,3.1-5c4.5-5.5,7.9-11.8,11.4-18c2-3.7,3.9-7.4,4.6-11.3c0.8-3.9-0.1-8.5-3-11.4
	c-1.3-1.2-2.9-2.1-3.6-3.8c-0.3-1-0.7-2.1-0.8-3.1c-0.8-2.8-3.3-4.4-5.2-6.6c-1.5-1.6-2.5-3.3-4-4.7c-1.7-1.3-4.1-1.8-5.7-0.3
	c-1.5-2.8-1.3-5.9,0-8.5c4.7,4.7,13.4,0.4,18.6,4.7c1.7,1.3,2.7,3.3,3.9,5.2c1.3,1.8,3.2,3.5,5.4,3.1c2.7-0.4,4.2-4,3.3-6.9
	c-0.8-2.8-3.1-4.8-5.5-6.6c-2.3-1.6-4.7-3.5-6.1-5.9c-0.1-0.2-0.2-0.4-0.3-0.6c-1-2.3,0-5.2,2.5-6.4c2.2-1,4.6-2.3,5.1-4.7
	c0.1-1.1,0.1-2.1-0.2-3.3c-1.2-5.7-2.7-11.3-4.4-16.7l16.3,10.5c0.2-7.5-4.9-14.2-11.2-17.6c-6.3-3.3-13.7-4-21-3.9
	c-1.6,0-3.2-0.1-4.7-0.7c-1.3-0.8-2.6-2.3-2.1-3.9c0.4-1,0.9-1.8,1.9-2.3c2.1-2.1,4.5-3.8,7-5.1c5.5-2.5,12.4-2.3,16-7.1
	c0.3-1.1,0.3-2.6,0-3.6c1.2-1.5,3.2,1.5,5.1,1c1.1-0.2,1.5-1.3,2.1-2.2c1.5-1.8,4.2-1.9,6.1-0.8c1.9,1.2,2.9,3.5,3.6,5.7
	c0.7,2.7,0.8,5.7,0.3,8.6c-0.3,1.7-0.8,3.3-0.4,5c0.7,2.6,3.7,3.8,6.4,4.2c2.7,0.4,5.5,0.6,7.7,2c1.8,1.3,3.7,3.7,5.5,2.7
	c0.7-0.3,1.1-1,1.5-1.7c1.8-4.1-0.4-8.8-3.1-12.3c-2.6-3.3-5.5-6.6-8.7-9.4c1.5-2.6,5.5-0.8,8.1-1.7c3.1-0.9,4.2-4.7,5.2-7.8
	c0.9-3.1,3-6.8,6.2-6.5c1.1-3-2.3-5.6-5.4-5.8c-3-0.2-6.6,0.1-8.5-2.5l14.5-0.9C2533.5,21.1,2532.4,19,2530.8,17.9z"/>
<path class="st7" d="M843.1,398c-20.5,3.4-34.3,22.8-30.9,43.3c3.4,20.5,22.8,34.3,43.3,30.9s34.3-22.8,30.9-43.3
	S863.7,394.5,843.1,398z M867.1,435.9c-0.4,0.1-1.6,0.3-2,0.3l-7.3,1c-0.1,0-0.1,0.1-0.2,0.2l-8.3,18.2c-0.2,0.6-0.8,1-1.4,1.1
	l-2.7,0.4c-0.7,0.1-1-0.5-0.9-1.1l3-17c0-0.1,0-0.3-0.2-0.2H847l-13.8,2c-0.3,0-0.6,0.2-0.7,0.4l-3.4,5.9c-0.2,0.5-0.7,0.9-1.3,1
	l-1.9,0.3c-0.3,0-0.5-0.1-0.5-0.4c0-0.1,0-0.1,0-0.1l0.9-8.1c0.1-0.5,0-0.9-0.2-1.4l-3.5-7.4c-0.1-0.2,0-0.5,0.2-0.6
	c0.1,0,0.1,0,0.1,0l1.9-0.3c0.6-0.1,1.2,0.1,1.6,0.5l5,4.4c0.2,0.2,0.5,0.3,0.8,0.2l13.8-2.5c0.1,0,0.2-0.2,0.2-0.2v-0.1l-8.4-15.1
	c-0.3-0.6-0.2-1.2,0.4-1.3l2.7-0.4c0.6-0.1,1.2,0.1,1.6,0.6l13.7,14.6c0.1,0.1,0.2,0.1,0.2,0.1l7.3-1.4c0.4-0.1,1.6-0.3,2-0.4
	c5-0.8,8.4,0.3,8.7,2.3C874.8,433,872,435,867.1,435.9z"/>
<path class="st8" d="M1970.5,249.4v1c0,2.4-0.1,4.8-0.2,7.1c-4.5,87.8-79.3,155.3-167.1,150.9c-80.8-4.1-145.6-68.1-150.8-148.8
	c-0.2-3.4-0.3-6.8-0.3-10.2c-0.1-33,10.2-65.1,29.3-92c1.5-2.2,3.1-4.3,4.8-6.4c1.1-1.5,2.3-2.9,3.5-4.3
	c55.9-66.2,154.5-75.6,221.8-21.1c1.9,1.5,3.8,3.2,5.6,4.8c1.5,1.3,2.9,2.6,4.3,4c28,26.8,45.2,62.9,48.5,101.5
	C1970.3,240.5,1970.5,244.9,1970.5,249.4z"/>
<linearGradient id="SVGID_8_" gradientUnits="userSpaceOnUse" x1="1634.7455" y1="305.9113" x2="2031.7455" y2="90.9113">
	<stop  offset="0" style="stop-color:#FCC911"/>
	<stop  offset="1" style="stop-color:#FCC911;stop-opacity:0.6"/>
</linearGradient>
<path class="st9" d="M1686.2,151.1c0.1,0,0.2,0.1,0.2,0.1c0.9,0.7-0.2,2.1-0.1,3.2c0.2,1.4,2.1,1.7,3.5,1.9s3.3,1.3,2.6,2.6
	c-3.6,1.2-7.3,0-11-1.4c-19.1,26.9-29.3,59-29.3,92c0,3.4,0.1,6.8,0.3,10.2c0.3,0.2,0.6,0.4,1,0.5c1.1,0.4,2.3,0.3,3.3,0.9
	c0.8,0.5,1.3,1.3,2.1,1.7c2.3,1.2,5.4-1.1,7.5,0.3c0.5,0.5,1.1,1,1.5,1.6c1.9,1.7,5.2,0.6,7.4,1.8c1.5,0.8,2.2,2.4,3,3.9
	c1.9,3.7,5.1,7.3,9.2,7.6c1.3-0.1,2.6,0,3.9,0.1c1.3,0.3,2.5,1.4,2.3,2.7c-0.4,2.2,0.7,4.6,0.4,6.9c-0.5,4.1-6.3,5.8-6.8,9.9
	c0,0.9-0.1,1.8-0.2,2.7c-0.3,1.1-1.1,1.9-1.3,3c-0.5,2,0.9,4,2.5,5.3c1.6,1.4,3.5,2.5,4.3,4.4c0.9,2,0.5,4.3,0.8,6.5
	c0.6,4.8,4.8,8.3,9,10.5c1.4,0.6,2.6,1.4,3.5,2.6c1.1,1.6,1,3.6,1.3,5.5c0.9,4.6,4.7,8.4,4.9,13c0.1,3.3-1.8,6.3-2.9,9.5
	c-1.1,3.3-1.5,6.8-1,10.2c6.2,5.2,12.7,10,19.6,14.2c0.4-0.6,0.6-1.2,0.8-1.8c0.3-1.5-0.4-3-1.7-3.7c1.2-0.4,2.2-1.1,3.1-2
	s1.1-2.3,0.6-3.4c1.9,0.2,4.2,0.4,5.4-1.1c1-1.2,0.9-2.9,0.5-4.4c-0.5-1.4-0.9-2.9-1.1-4.5c4.4,0.2,8.8,0.1,13.2-0.4
	c-0.6-2.1-2.1-4-4-5c2-0.3,3.8-2.7,4.4-4.6c0.5-2,0.6-4,0.1-6c-0.2-0.5-0.2-1-0.1-1.6c0.3-0.7,0.9-1.2,1.6-1.5
	c3.3-1.9,6.6-3.8,9.9-5.7c0.6-0.3,1.1-0.7,1.6-1.2c1-1.2,0.9-3.1,0.3-4.6s-1.4-2.9-1.6-4.5c-0.6-4.7,4.5-8.1,6.2-12.6
	c0.6-1.8,0.9-3.6,0.9-5.5c0.1-2,0.2-4.3-1.4-5.6c-1.5-1.2-3.8-1-5.3-2.1c-1.4-1.1-1.9-3.1-3.5-4c-1.4-0.8-3.2-0.3-4.7-0.6
	c-2.8-0.6-4.5-3.8-7.3-4.1c-1.6-0.2-3.4,0.6-4.7-0.3c-1.1-0.8-1.2-2.5-1.4-3.8c-0.8-4.4-4.2-7.9-8.7-8.7c-1.6-0.3-3.4-0.2-4.8-1.1
	s-2-2.6-3.2-3.9c-1.8-2-4.6-2.8-7.2-3.4c-3.6-0.8-7.1-1.7-10.7-2.5c-1.9-0.5-4.3-0.7-5.4,1c-0.3,0.6-0.5,1.3-0.6,2
	c-0.8,2.6-3.1,4.3-5.8,4.4c-0.9-1.5-2.3-2.7-4-3.1c-1.1-0.2-2.2-0.4-3.3-0.8c-2.3-1.1-3.2-3.9-2.1-6.2c0-0.1,0.1-0.2,0.1-0.2
	c1.3-2.3,0.9-5.1-1-6.9c-1.8-1.6-4.5-2-6.9-1.9c-0.6-1.4,0.4-3,1.6-4c1.2-1,2.6-2,2.8-3.5c0.4-2.4-2.6-4.2-4.9-3.5s-3.8,3-4.8,5.2
	c-0.5,1.3-1.1,2.5-1.9,3.7c-0.8,1.1-2.2,1.7-3.6,1.5c-1.9-0.5-2.6-2.8-3.1-4.7c-0.7-2.5-1-5.2-1-7.8c0-2.7,1.1-5.2,2.9-7.1
	c3.2-2.9,8-2.6,12.3-2.2c-0.9-1.3-0.8-3,0.3-4.1c1.2-1,2.7-1.4,4.2-1c1.3,0.3,2.4,1,3.3,2c1.2,1.5,1.6,3.5,2.5,5.1
	c0.9,1.7,3,3.1,4.7,2.2c1.5-0.8,1.7-2.8,1.3-4.4c-0.4-1.6-1.1-3.2-1-4.8c0.2-3.1,3.5-5,6.4-6.3s6.2-3,6.6-6.2c0-0.6,0.1-1.2,0.3-1.8
	c0.3-0.5,0.8-0.9,1.3-1.2c8.4-5.5,16.9-11.1,26.5-14.2c0.5-0.2,0.6,0,1.1-0.1c0.7-0.4,0.2-1.5-0.4-2c-0.7-0.5-1.6-0.8-1.8-1.6
	c-0.1-0.6,0.2-1.2,0.3-1.8c0.1-1.2-0.8-2.3-2.1-2.3c-0.3,0-0.6,0-0.8,0.1c-0.8-1,0.7-2.2,2-2.5c3.7-1,7.5-1.6,11.3-1.8
	c0.4-0.1,0.9,0,1.3,0.2c0.6,0.6,0.6,1.5,0.1,2.1s-1.1,1.1-1.7,1.6c-1.3,1.2-1.7,3.1-1.2,4.8c2,1,4.2,2.1,6.4,1.7
	c2.2-0.4,4.2-2.8,3.1-4.8c-1-1.9-3.9-2.3-4.4-4.3c-0.6-2.4,2.8-4.5,2-6.8c-0.3-1-1.3-1.6-2.1-2.3c-1.9-1.8-2.4-4.7-1.4-7.1
	c-2.6,0.4-5.2-0.4-7.1-2.2c-1.7-1.7-3-4.4-5.4-4.3c-2.2,0.1-4.1,2.6-6.2,1.9c-0.5-0.2-1-0.6-1.5-0.4c-0.3,0.2-0.5,0.6-0.6,0.9
	c-0.5,2.5,0.4,5.3-1,7.5c-1.5,2.3-4.9,2.7-6.7,4.8c-1,1.1-1.4,2.7-2.3,3.9s-2.8,2-3.9,0.9c1.1-2.2,0.5-4.9-1.5-6.5
	c-1-0.7-2.1-1.2-3.2-1.6c-1.3-0.5-2.5-1.2-3.6-2c-0.6-0.3-1-0.8-1.3-1.4c-0.2-0.7-0.2-1.5,0.1-2.2c1.1-3.2,3.9-5.5,7.2-6
	c1.4-0.2,3.1-0.1,4-1.2c0.5-0.6,0.8-1.5,1.5-1.7c0.5-0.1,0.9,0,1.4,0.2c1.8,0.6,3.6,1.3,5.3,1.9c0.6,0.3,1.3,0.4,1.9,0.3
	c0.7-0.1,1.2-0.7,1.1-1.4c-0.2-0.9-1.5-1.3-1.4-2.2c0.1-0.3,0.2-0.6,0.4-0.8c3.9-4.2,9.5-6.4,15.2-6c0.7,1.1-0.4,2.4-1.3,3.4
	s-1.6,2.6-0.5,3.4c0.4,0.2,0.9,0.3,1.4,0.3c1.3,0.2,2.6,0.6,3.8,1.1c1.9,0.8,3.7,1.7,5.4,2.6c-0.3-1.2-0.2-2.4,0.1-3.5
	c0.4-1.2,1.6-1.8,2.8-1.5c1.1,0.4,1.6,1.8,2.7,1.9c1.5,0.2,2.1-2.1,1.5-3.4c-0.6-1.4-1.9-2.5-2-4.1c-0.1-1,0.3-2.3-0.5-2.9
	c-0.3-0.2-0.6-0.3-1-0.3c-6.8-1.2-13.6-2.5-20.4-3.7c-1.2-0.2-3-0.1-3,1.2c0,0.7,0.6,1.4,0.3,2c-0.3,0.7-1.2,0.6-1.9,0.9
	c-1.1,0.5-1.7,1.6-1.5,2.8c0.2,1.1,0.6,2.2,1.3,3.1c-1.3-0.6-3.3-0.6-4.7-1.2c-0.2-1.5-0.6-3.1-1.2-4.5c-0.1-0.9-0.9-1.5-1.8-1.3
	c-0.1,0-0.2,0-0.3,0.1c-1.8,0.3-3.5,0.5-5.3,0.8c-0.4,0-0.9,0.2-1.2,0.5c-0.7,0.7,0,1.9,0,2.9c-0.1,1.1-1,2.1-2.1,2.3
	s-2.2,0.2-3.3,0c-2.5-0.4-4.9-0.8-7.4-1.1c2.2-0.7,4.1-2,5.6-3.7c1-1.1,1.5-3.3,0.1-3.8c-0.4-0.1-0.8-0.1-1.3-0.1
	c-3.3,0-6-2.8-9.1-3.9c-1-0.4-2-0.6-3.1-0.6L1686.2,151.1z"/>
<linearGradient id="SVGID_9_" gradientUnits="userSpaceOnUse" x1="1649.6226" y1="333.3821" x2="2046.6226" y2="118.3821">
	<stop  offset="4.326290e-003" style="stop-color:#FCC911"/>
	<stop  offset="1" style="stop-color:#FCC911;stop-opacity:0.6"/>
</linearGradient>
<path class="st10" d="M1970.3,257.5c-0.8,1-2,1.6-3.3,1.6c-3.4-0.3-4.8-5.2-8.2-5.7c-0.3-0.1-0.6,0-0.9,0.1
	c-0.5,0.3-0.6,0.9-0.6,1.5c-0.1,2.8-0.3,5.7,0.8,8.3c1.6,3.8,5.7,6.9,4.9,10.9c-4.7-2.2-7.1-7.4-8.2-12.4s-1.3-10.3-3.2-15
	c-1.5,1.9-4.6,0.3-6-1.7c-1.3-1.9-2.1-4.1-3.4-6.1c-1.3-1.9-3.2-3.7-5.5-3.8c-2.4-0.1-4.5,1.5-6.4,3.1c-1.6,1.2-2.9,2.7-4,4.4
	c-1.3,2.6-1,5.7-1,8.5c-0.1,3.1-0.7,6.4-2.9,8.7c-2.1,2.3-6.1,3.1-8.4,1c-1.1-1.2-1.9-2.6-2.3-4.2c-2.6-7.4-4.7-15-6.4-22.7
	c-0.4,1.8-1.9,4-3.4,3c-0.3-0.3-0.6-0.6-0.8-1c-2.8-4.6-7.8-7.4-13-9.1c-5.1-1.7-10.5-2.4-15.6-4.3c-2.8-1-5.6-2.4-8.1-4
	c-1.3,1.9-1.5,4.4-0.4,6.5c1.2,2.1,3.6,3.1,5.9,2.5c1.1-0.4,2.1-1.1,3.2-1.5s2.6-0.2,3.1,0.9c0.5,1-0.2,2.3,0.1,3.4
	c0.5,1.6,3,1.8,3.9,3.3c0.5,1.2,0.2,2.6-0.8,3.5c-1,0.8-2.1,1.5-3.3,2c-3.6,2-6.2,5.5-9.4,8.2c-3.2,2.7-7.7,4.7-11.5,2.9
	c0.9-4.6-4.5-7.9-5.6-12.5c-0.3-1.5-0.2-3.1-0.6-4.6c-0.7-2.1-2.6-3.6-4.1-5.2c-3.8-4-5.8-9.3-5.6-14.8c0.1-1.9,0.4-3.8,0-5.6
	s-1.9-3.6-3.8-3.5c-4.3,0.2-9.7,0.5-12-3.2c-0.8-1.3-1.2-3.2,0-4.2c0.9-0.6,2-0.8,3.1-0.5c3.2,0.3,6.5,0.6,9.7,1
	c2.3,0.2,4.7,0.4,6.7-0.8c1.9-1.2,2.8-4.3,1-5.7c-1.3-1-3.7-1-4.1-2.6c-0.3-1.4,1.2-2.9,0.4-4c-0.6-0.8-1.9-0.6-2.7,0
	c-0.7,0.7-1.4,1.4-2.2,2c-1.5,0.8-3.4,0-5.1-0.5s-3.9-0.6-4.7,1c-0.9,1.7,0.8,4-0.1,5.7c-1.2,2.3-5.2,1-6.9,3
	c-1.9,2.3,1.3,5.6,0.7,8.5c-1.7,0.8-3.7,0.7-5.2-0.3c-1.5-1.1-2.4-2.9-2.2-4.7c0.2-1.3,0.8-2.6,0.4-3.9c-0.5-0.9-1.3-1.7-2.3-2.1
	c-3.1-1.7-6.3-3.5-9.4-5.2c-0.9,1.6,0.2,3.6,1.6,4.9c1.4,1.2,3.1,2.1,4,3.7c1.2,2.3,0.4,5.1-1.8,6.5c-0.3,0.2-0.6,0.2-0.9,0.2
	c-0.3-0.2-0.5-0.5-0.6-0.8c-1.7-4.3-4.2-8.4-8.1-10.7c-4-2.2-9.7-1.8-12.3,2c-0.6,0.9-1,1.9-1.6,2.8c-2.9,5-9,7.4-14.8,7.2
	c-0.6,0-1.1-0.1-1.6-0.4c-0.9-0.6-0.9-2-0.7-3.1c0.2-1.6,0.4-3.2,0.6-4.8c0-1,0.4-1.9,1.1-2.6c1.1-0.8,2.6-0.3,4-0.3
	c2.1-0.1,3.9-1.5,4.6-3.5c0.6-2,0-4.2-1.6-5.6c-0.6-0.6-1.5-1.3-1.1-2.1c0.3-0.4,0.7-0.7,1.2-0.8c2.4-0.7,5-0.9,7.4-1.7
	s4.7-2.5,5.3-5c0.2-0.8,0.2-1.7,0.9-2.1c0.3-0.1,0.7-0.2,1.1-0.2c2.7-0.4,4.7-2.8,4.5-5.5c1.1-0.8,2.8-0.2,3.9,0.6
	c1.1,0.9,2.1,2,3.4,2.3c2.5,0.7,5-1.5,7.6-1.6c1.1,0,2.2,0.4,3.3,0c1.1-0.4,1.7-1.4,2.5-2.2s2.2-1.2,3-0.4c-0.2-1.6-0.4-3.1-0.6-4.7
	c2.6,0.6,5.3,0.2,7.5-1.4c-2.7-0.9-5.4-1.8-8.2-2.8c-0.3-0.1-0.6-0.2-0.8-0.4c-0.6-0.6,0-1.6,0.5-2.4c1.2-1.7,1.4-4.6-0.6-5.5
	c-1.3-0.6-2.8,0.1-4,0.8c-2,1.1-4,2.2-6,3.3c-0.2,1.1,1.2,1.8,2.1,2.5c1.4,1.3,1.6,3.4,0.3,4.9c-0.6,0.7-1.6,1.1-2.5,1.2
	c0.8,1,1.1,2.4,0.8,3.6c-1.3,0.1-2.7,0.2-4,0.3c-0.5,0.1-0.9,0-1.3-0.3c-0.4-0.4-0.4-1.1-0.5-1.6c-0.4-1.4-1.5-2.4-2.9-2.6
	c-1.4-0.2-2.8,0-4.1,0.4c-0.6,0.2-1.2,0.2-1.8,0c-0.3-0.2-0.6-0.5-0.7-0.9c-0.5-1.5-0.1-3.2,0.9-4.4s2.2-2.2,3.4-3.2
	c2.8-2.5,4.9-5.6,5.9-9.2c2.2-0.9,4.5-2.2,6.7-3.1c1.8-0.8,3.7-1.5,5.6-1.9c1.8-0.3,3.6-0.4,5.5-0.3c2.5,0,5,0.1,7.5,0.1
	c2.2-0.1,4.4,0.2,6.6,0.9c2,0.8,3.9,2.7,4,4.9c0.1,0.5-0.1,1-0.5,1.4c-0.3,0.2-0.6,0.2-0.9,0.2c-2.1,0.1-2.9,0.6-5,0.7
	c1.3,1.4,2.8,2.9,4.7,3.1c3.4,0.4,5.8-3,7.3-6.1c0.1,1.6,1.5,2.8,3.1,2.7c0.8-0.1,1.6-0.5,2.3-0.9c6.7-3.6,14.1-5.6,21.7-5.6
	c-0.2-1.2,0.6-2.3,1.8-2.6c1.5-0.3,2.9,1,3.7,2.4c0.7,1.4,1.2,3,2.4,4c1.2,1,3.5,1,3.9-0.5c0.5-1.4-1.1-2.7-2.3-3.5
	c-1.3-0.8-2.6-2.4-1.7-3.7c6.4-1.4,12.8-2.8,19.3-3.1c1.1,0,2.2-0.2,3.2-0.6c1.1-0.4,1.7-1.5,1.5-2.7c-2.9,0.7-6-0.5-7.7-2.9
	c6.7-0.6,13.7-1,20.2,0.5l5.6,4.8c-1.1,1.1-2.5,2.2-1.7,3.3c0.5,0.5,1.3,0.8,2,0.7c1.4,0,2.7,0.1,4.1,0.1
	c28,26.8,45.2,62.9,48.5,101.5c-2.3-0.1-4.4,2.8-4.1,5.3c0.3,2.9,2.4,5.3,4,7.8c0.2,0.4,0.5,0.8,0.7,1.3L1970.3,257.5z"/>
<path class="st11" d="M2145,100.9c-6.8-6.7-17.8-6.6-24.5,0.3s-16.3,41.6-16.3,41.6s34.5-10.4,41.2-17.2
	C2151.9,118.6,2151.8,107.6,2145,100.9z M2126.9,119.4c-3.2-3.1-3.2-8.2-0.1-11.3c3.1-3.2,8.2-3.2,11.3-0.1
	c3.2,3.1,3.2,8.2,0.1,11.3l0,0C2135.1,122.4,2130.1,122.5,2126.9,119.4z"/>
<circle class="st12" cx="2769.3" cy="53.9" r="7.4"/>
<circle class="st12" cx="1546.9" cy="322.1" r="5.1"/>
<circle class="st12" cx="2761.9" cy="338.3" r="10.9"/>
<circle class="st12" cx="1747.8" cy="44.9" r="7.9"/>
<circle class="st12" cx="1772.8" cy="472.8" r="4.5"/>
<circle class="st12" cx="2563.4" cy="294.3" r="10.3"/>
<circle class="st12" cx="938.9" cy="298.3" r="5.4"/>
<circle class="st12" cx="1077" cy="113.7" r="12.5"/>
<circle class="st13" cx="859.9" cy="57.5" r="27"/>
<circle class="st13" cx="1125.7" cy="392.7" r="23.3"/>
<circle class="st13" cx="1455.4" cy="186.6" r="15.7"/>
<circle class="st13" cx="1529" cy="454.1" r="8.3"/>
<circle class="st13" cx="1955.8" cy="425" r="20.2"/>
<circle class="st13" cx="2751" cy="420.1" r="25.7"/>
<circle class="st13" cx="2659.5" cy="161" r="11.5"/>
<circle class="st13" cx="811.7" cy="285" r="10.9"/>
<circle class="st13" cx="2506.3" cy="458.4" r="13.7"/>
</svg>
