<?xml version="1.0" encoding="utf-8"?>
<!-- Generator: Adobe Illustrator 19.0.0, SVG Export Plug-In . SVG Version: 6.00 Build 0)  -->
<svg version="1.1" id="Layer_1" xmlns="http://www.w3.org/2000/svg" xmlns:xlink="http://www.w3.org/1999/xlink" x="0px" y="0px"
	 viewBox="68 147 748 500" style="enable-background:new 68 147 748 500;" xml:space="preserve">
<style type="text/css">
	.st0{fill:#FFFFFF;}
	.st1{fill:url(#SVGID_1_);}
	.st2{fill:url(#SVGID_2_);}
	.st3{fill:#57B894;}
	.st4{fill:none;stroke:#3F3D56;stroke-miterlimit:10;}
	.st5{fill:#3F3D56;}
	.st6{fill:#FCC911;}
</style>
<path class="st0" d="M676.8,397v1.4c0,3.3-0.1,6.6-0.3,9.7c-6.2,120.4-108.8,213-229.2,207c-110.8-5.6-199.7-93.4-206.8-204.1
	c-0.3-4.7-0.4-9.3-0.4-14c-0.1-45.3,14-89.3,40.2-126.2c2.1-3,4.3-5.9,6.6-8.8c1.5-2.1,3.2-4,4.8-5.9
	c76.7-90.8,211.9-103.7,304.2-28.9c2.6,2.1,5.2,4.4,7.7,6.6c2.1,1.8,4,3.6,5.9,5.5c38.4,36.8,62,86.3,66.5,139.2
	C676.5,384.8,676.8,390.8,676.8,397z"/>
<linearGradient id="SVGID_1_" gradientUnits="userSpaceOnUse" x1="216.2966" y1="321.4796" x2="760.7742" y2="616.3478" gradientTransform="matrix(1 0 0 -1 0 796)">
	<stop  offset="0" style="stop-color:#FCC911"/>
	<stop  offset="1" style="stop-color:#FCC911;stop-opacity:0.6"/>
</linearGradient>
<path class="st1" d="M286.9,262.2c0.1,0,0.3,0.1,0.3,0.1c1.2,1-0.3,2.9-0.1,4.4c0.3,1.9,2.9,2.3,4.8,2.6s4.5,1.8,3.6,3.6
	c-4.9,1.6-10,0-15.1-1.9c-26.2,36.9-40.2,80.9-40.2,126.2c0,4.7,0.1,9.3,0.4,14c0.4,0.3,0.8,0.5,1.4,0.7c1.5,0.5,3.2,0.4,4.5,1.2
	c1.1,0.7,1.8,1.8,2.9,2.3c3.2,1.6,7.4-1.5,10.3,0.4c0.7,0.7,1.5,1.4,2.1,2.2c2.6,2.3,7.1,0.8,10.1,2.5c2.1,1.1,3,3.3,4.1,5.3
	c2.6,5.1,7,10,12.6,10.4c1.8-0.1,3.6,0,5.3,0.1c1.8,0.4,3.4,1.9,3.2,3.7c-0.5,3,1,6.3,0.5,9.5c-0.7,5.6-8.6,8-9.3,13.6
	c0,1.2-0.1,2.5-0.3,3.7c-0.4,1.5-1.5,2.6-1.8,4.1c-0.7,2.7,1.2,5.5,3.4,7.3c2.2,1.9,4.8,3.4,5.9,6c1.2,2.7,0.7,5.9,1.1,8.9
	c0.8,6.6,6.6,11.4,12.3,14.4c1.9,0.8,3.6,1.9,4.8,3.6c1.5,2.2,1.4,4.9,1.8,7.5c1.2,6.3,6.4,11.5,6.7,17.8c0.1,4.5-2.5,8.6-4,13
	c-1.5,4.5-2.1,9.3-1.4,14c8.5,7.1,17.4,13.7,26.9,19.5c0.5-0.8,0.8-1.6,1.1-2.5c0.4-2.1-0.5-4.1-2.3-5.1c1.6-0.5,3-1.5,4.3-2.7
	c1.2-1.2,1.5-3.2,0.8-4.7c2.6,0.3,5.8,0.5,7.4-1.5c1.4-1.6,1.2-4,0.7-6c-0.7-1.9-1.2-4-1.5-6.2c6,0.3,12.1,0.1,18.1-0.5
	c-0.8-2.9-2.9-5.5-5.5-6.9c2.7-0.4,5.2-3.7,6-6.3c0.7-2.7,0.8-5.5,0.1-8.2c-0.3-0.7-0.3-1.4-0.1-2.2c0.4-1,1.2-1.6,2.2-2.1
	c4.5-2.6,9.1-5.2,13.6-7.8c0.8-0.4,1.5-1,2.2-1.6c1.4-1.6,1.2-4.3,0.4-6.3c-0.8-2.1-1.9-4-2.2-6.2c-0.8-6.4,6.2-11.1,8.5-17.3
	c0.8-2.5,1.2-4.9,1.2-7.5c0.1-2.7,0.3-5.9-1.9-7.7c-2.1-1.6-5.2-1.4-7.3-2.9c-1.9-1.5-2.6-4.3-4.8-5.5c-1.9-1.1-4.4-0.4-6.4-0.8
	c-3.8-0.8-6.2-5.2-10-5.6c-2.2-0.3-4.7,0.8-6.4-0.4c-1.5-1.1-1.6-3.4-1.9-5.2c-1.1-6-5.8-10.8-11.9-11.9c-2.2-0.4-4.7-0.3-6.6-1.5
	c-1.9-1.2-2.7-3.6-4.4-5.3c-2.5-2.7-6.3-3.8-9.9-4.7c-4.9-1.1-9.7-2.3-14.7-3.4c-2.6-0.7-5.9-1-7.4,1.4c-0.4,0.8-0.7,1.8-0.8,2.7
	c-1.1,3.6-4.3,5.9-8,6c-1.2-2.1-3.2-3.7-5.5-4.3c-1.5-0.3-3-0.5-4.5-1.1c-3.2-1.5-4.4-5.3-2.9-8.5c0-0.1,0.1-0.3,0.1-0.3
	c1.8-3.2,1.2-7-1.4-9.5c-2.5-2.2-6.2-2.7-9.5-2.6c-0.8-1.9,0.5-4.1,2.2-5.5c1.6-1.4,3.6-2.7,3.8-4.8c0.5-3.3-3.6-5.8-6.7-4.8
	c-3.2,1-5.2,4.1-6.6,7.1c-0.7,1.8-1.5,3.4-2.6,5.1c-1.1,1.5-3,2.3-4.9,2.1c-2.6-0.7-3.6-3.8-4.3-6.4c-1-3.4-1.4-7.1-1.4-10.7
	c0-3.7,1.5-7.1,4-9.7c4.4-4,11-3.6,16.9-3c-1.2-1.8-1.1-4.1,0.4-5.6c1.6-1.4,3.7-1.9,5.8-1.4c1.8,0.4,3.3,1.4,4.5,2.7
	c1.6,2.1,2.2,4.8,3.4,7c1.2,2.3,4.1,4.3,6.4,3c2.1-1.1,2.3-3.8,1.8-6c-0.5-2.2-1.5-4.4-1.4-6.6c0.3-4.3,4.8-6.9,8.8-8.6
	s8.5-4.1,9.1-8.5c0-0.8,0.1-1.6,0.4-2.5c0.4-0.7,1.1-1.2,1.8-1.6c11.5-7.5,23.2-15.2,36.3-19.5c0.7-0.3,0.8,0,1.5-0.1
	c1-0.5,0.3-2.1-0.5-2.7c-1-0.7-2.2-1.1-2.5-2.2c-0.1-0.8,0.3-1.6,0.4-2.5c0.1-1.6-1.1-3.2-2.9-3.2c-0.4,0-0.8,0-1.1,0.1
	c-1.1-1.4,1-3,2.7-3.4c5.1-1.4,10.3-2.2,15.5-2.5c0.5-0.1,1.2,0,1.8,0.3c0.8,0.8,0.8,2.1,0.1,2.9c-0.7,0.8-1.5,1.5-2.3,2.2
	c-1.8,1.6-2.3,4.3-1.6,6.6c2.7,1.4,5.8,2.9,8.8,2.3c3-0.5,5.8-3.8,4.3-6.6c-1.4-2.6-5.3-3.2-6-5.9c-0.8-3.3,3.8-6.2,2.7-9.3
	c-0.4-1.4-1.8-2.2-2.9-3.2c-2.6-2.5-3.3-6.4-1.9-9.7c-3.6,0.5-7.1-0.5-9.7-3c-2.3-2.3-4.1-6-7.4-5.9c-3,0.1-5.6,3.6-8.5,2.6
	c-0.7-0.3-1.4-0.8-2.1-0.5c-0.4,0.3-0.7,0.8-0.8,1.2c-0.7,3.4,0.5,7.3-1.4,10.3c-2.1,3.2-6.7,3.7-9.2,6.6c-1.4,1.5-1.9,3.7-3.2,5.3
	c-1.2,1.6-3.8,2.7-5.3,1.2c1.5-3,0.7-6.7-2.1-8.9c-1.4-1-2.9-1.6-4.4-2.2c-1.8-0.7-3.4-1.6-4.9-2.7c-0.8-0.4-1.4-1.1-1.8-1.9
	c-0.3-1-0.3-2.1,0.1-3c1.5-4.4,5.3-7.5,9.9-8.2c1.9-0.3,4.3-0.1,5.5-1.6c0.7-0.8,1.1-2.1,2.1-2.3c0.7-0.1,1.2,0,1.9,0.3
	c2.5,0.8,4.9,1.8,7.3,2.6c0.8,0.4,1.8,0.5,2.6,0.4c1-0.1,1.6-1,1.5-1.9c-0.3-1.2-2.1-1.8-1.9-3c0.1-0.4,0.3-0.8,0.5-1.1
	c5.3-5.8,13-8.8,20.8-8.2c1,1.5-0.5,3.3-1.8,4.7c-1.2,1.4-2.2,3.6-0.7,4.7c0.5,0.3,1.2,0.4,1.9,0.4c1.8,0.3,3.6,0.8,5.2,1.5
	c2.6,1.1,5.1,2.3,7.4,3.6c-0.4-1.6-0.3-3.3,0.1-4.8c0.5-1.6,2.2-2.5,3.8-2.1c1.5,0.5,2.2,2.5,3.7,2.6c2.1,0.3,2.9-2.9,2.1-4.7
	c-0.8-1.9-2.6-3.4-2.7-5.6c-0.1-1.4,0.4-3.2-0.7-4c-0.4-0.3-0.8-0.4-1.4-0.4c-9.3-1.6-18.7-3.4-28-5.1c-1.6-0.3-4.1-0.1-4.1,1.6
	c0,1,0.8,1.9,0.4,2.7c-0.4,1-1.6,0.8-2.6,1.2c-1.5,0.7-2.3,2.2-2.1,3.8c0.3,1.5,0.8,3,1.8,4.3c-1.8-0.8-4.5-0.8-6.4-1.6
	c-0.3-2.1-0.8-4.3-1.6-6.2c-0.1-1.2-1.2-2.1-2.5-1.8c-0.1,0-0.3,0-0.4,0.1c-2.5,0.4-4.8,0.7-7.3,1.1c-0.5,0-1.2,0.3-1.6,0.7
	c-1,1,0,2.6,0,4c-0.1,1.5-1.4,2.9-2.9,3.2s-3,0.3-4.5,0c-3.4-0.5-6.7-1.1-10.1-1.5c3-1,5.6-2.7,7.7-5.1c1.4-1.5,2.1-4.5,0.1-5.2
	c-0.5-0.1-1.1-0.1-1.8-0.1c-4.5,0-8.2-3.8-12.5-5.3c-1.4-0.5-2.7-0.8-4.3-0.8L286.9,262.2z"/>
<linearGradient id="SVGID_2_" gradientUnits="userSpaceOnUse" x1="236.7002" y1="283.804" x2="781.1777" y2="578.6721" gradientTransform="matrix(1 0 0 -1 0 796)">
	<stop  offset="4.326290e-003" style="stop-color:#FCC911"/>
	<stop  offset="1" style="stop-color:#FCC911;stop-opacity:0.6"/>
</linearGradient>
<path class="st2" d="M649.3,290c15.1,27,24.5,57.1,27.2,88.4c-3.2-0.1-6,3.8-5.6,7.3c0.4,4,3.3,7.3,5.5,10.7c0.3,0.5,0.7,1.1,1,1.8
	l-0.8,10c-1.1,1.4-2.7,2.2-4.5,2.2c-4.7-0.4-6.6-7.1-11.2-7.8c-0.4-0.1-0.8,0-1.2,0.1c-0.7,0.4-0.8,1.2-0.8,2.1
	c-0.1,3.8-0.4,7.8,1.1,11.4c2.2,5.2,7.8,9.5,6.7,14.9c-6.4-3-9.7-10.1-11.2-17c-1.5-6.9-1.8-14.1-4.4-20.6c-2.1,2.6-6.3,0.4-8.2-2.3
	c-1.8-2.6-2.9-5.6-4.7-8.4c-1.8-2.6-4.4-5.1-7.5-5.2c-3.3-0.1-6.2,2.1-8.8,4.3c-2.2,1.6-4,3.7-5.5,6c-1.8,3.6-1.4,7.8-1.4,11.7
	c-0.1,4.3-1,8.8-4,11.9c-2.9,3.2-8.4,4.3-11.5,1.4c-1.5-1.6-2.6-3.6-3.2-5.8c-3.6-10.1-6.4-20.6-8.8-31.1c-0.5,2.5-2.6,5.5-4.7,4.1
	c-0.4-0.4-0.8-0.8-1.1-1.4c-3.8-6.3-10.7-10.1-17.8-12.5c-7-2.3-14.4-3.3-21.4-5.9c-3.8-1.4-7.7-3.3-11.1-5.5
	c-1.8,2.6-2.1,6-0.5,8.9c1.6,2.9,4.9,4.3,8.1,3.4c1.5-0.5,2.9-1.5,4.4-2.1s3.6-0.3,4.3,1.2c0.7,1.4-0.3,3.2,0.1,4.7
	c0.7,2.2,4.1,2.5,5.3,4.5c0.7,1.6,0.3,3.6-1.1,4.8c-1.4,1.1-2.9,2.1-4.5,2.7c-4.9,2.7-8.5,7.5-12.9,11.2c-4.4,3.7-10.6,6.4-15.8,4
	c1.2-6.3-6.2-10.8-7.7-17.1c-0.4-2.1-0.3-4.3-0.8-6.3c-1-2.9-3.6-4.9-5.6-7.1c-5.2-5.5-8-12.8-7.7-20.3c0.1-2.6,0.5-5.2,0-7.7
	c-0.5-2.5-2.6-4.9-5.2-4.8c-5.9,0.3-13.3,0.7-16.5-4.4c-1.1-1.8-1.6-4.4,0-5.8c1.2-0.8,2.7-1.1,4.3-0.7c4.4,0.4,8.9,0.8,13.3,1.4
	c3.2,0.3,6.4,0.5,9.2-1.1c2.6-1.6,3.8-5.9,1.4-7.8c-1.8-1.4-5.1-1.4-5.6-3.6c-0.4-1.9,1.6-4,0.5-5.5c-0.8-1.1-2.6-0.8-3.7,0
	c-1,1-1.9,1.9-3,2.7c-2.1,1.1-4.7,0-7-0.7c-2.3-0.7-5.3-0.8-6.4,1.4c-1.2,2.3,1.1,5.5-0.1,7.8c-1.6,3.2-7.1,1.4-9.5,4.1
	c-2.6,3.2,1.8,7.7,1,11.7c-2.3,1.1-5.1,1-7.1-0.4c-2.1-1.5-3.3-4-3-6.4c0.3-1.8,1.1-3.6,0.5-5.3c-0.7-1.2-1.8-2.3-3.2-2.9
	c-4.3-2.3-8.6-4.8-12.9-7.1c-1.2,2.2,0.3,4.9,2.2,6.7c1.9,1.6,4.3,2.9,5.5,5.1c1.6,3.2,0.5,7-2.5,8.9c-0.4,0.3-0.8,0.3-1.2,0.3
	c-0.4-0.3-0.7-0.7-0.8-1.1c-2.3-5.9-5.8-11.5-11.1-14.7c-5.5-3-13.3-2.5-16.9,2.7c-0.8,1.2-1.4,2.6-2.2,3.8
	c-4,6.9-12.3,10.1-20.3,9.9c-0.8,0-1.5-0.1-2.2-0.5c-1.2-0.8-1.2-2.7-1-4.3c0.3-2.2,0.5-4.4,0.8-6.6c0-1.4,0.5-2.6,1.5-3.6
	c1.5-1.1,3.6-0.4,5.5-0.4c2.9-0.1,5.3-2.1,6.3-4.8c0.8-2.7,0-5.8-2.2-7.7c-0.8-0.8-2.1-1.8-1.5-2.9c0.4-0.5,1-1,1.6-1.1
	c3.3-1,6.9-1.2,10.1-2.3c3.3-1.1,6.4-3.4,7.3-6.9c0.3-1.1,0.3-2.3,1.2-2.9c0.4-0.1,1-0.3,1.5-0.3c3.7-0.5,6.4-3.8,6.2-7.5
	c1.5-1.1,3.8-0.3,5.3,0.8c1.5,1.2,2.9,2.7,4.7,3.2c3.4,1,6.9-2.1,10.4-2.2c1.5,0,3,0.5,4.5,0c1.5-0.5,2.3-1.9,3.4-3
	c1.1-1.1,3-1.6,4.1-0.5c-0.3-2.2-0.5-4.3-0.8-6.4c3.6,0.8,7.3,0.3,10.3-1.9c-3.7-1.2-7.4-2.5-11.2-3.8c-0.4-0.1-0.8-0.3-1.1-0.5
	c-0.8-0.8,0-2.2,0.7-3.3c1.6-2.3,1.9-6.3-0.8-7.5c-1.8-0.8-3.8,0.1-5.5,1.1c-2.7,1.5-5.5,3-8.2,4.5c-0.3,1.5,1.6,2.5,2.9,3.4
	c1.9,1.8,2.2,4.7,0.4,6.7c-0.8,1-2.2,1.5-3.4,1.6c1.1,1.4,1.5,3.3,1.1,4.9c-1.8,0.1-3.7,0.3-5.5,0.4c-0.7,0.1-1.2,0-1.8-0.4
	c-0.5-0.5-0.5-1.5-0.7-2.2c-0.5-1.9-2.1-3.3-4-3.6c-1.9-0.3-3.8,0-5.6,0.5c-0.8,0.3-1.6,0.3-2.5,0c-0.4-0.3-0.8-0.7-1-1.2
	c-0.7-2.1-0.1-4.4,1.2-6c1.4-1.6,3-3,4.7-4.4c3.8-3.4,6.7-7.7,8.1-12.6c3-1.2,6.2-3,9.2-4.3c2.5-1.1,5.1-2.1,7.7-2.6
	c2.5-0.4,4.9-0.5,7.5-0.4c3.4,0,6.9,0.1,10.3,0.1c3-0.1,6,0.3,9.1,1.2c2.7,1.1,5.3,3.7,5.5,6.7c0.1,0.7-0.1,1.4-0.7,1.9
	c-0.4,0.3-0.8,0.3-1.2,0.3c-2.9,0.1-4,0.8-6.9,1c1.8,1.9,3.8,4,6.4,4.3c4.7,0.5,8-4.1,10-8.4c0.1,2.2,2.1,3.8,4.3,3.7
	c1.1-0.1,2.2-0.7,3.2-1.2c9.2-4.9,19.3-7.7,29.8-7.7c-0.3-1.6,0.8-3.2,2.5-3.6c2.1-0.4,4,1.4,5.1,3.3c1,1.9,1.6,4.1,3.3,5.5
	c1.6,1.4,4.8,1.4,5.3-0.7c0.7-1.9-1.5-3.7-3.2-4.8c-1.8-1.1-3.6-3.3-2.3-5.1c8.8-1.9,17.6-3.8,26.5-4.3c1.5,0,3-0.3,4.4-0.8
	c1.5-0.5,2.3-2.1,2.1-3.7c-4,1-8.2-0.7-10.6-4c9.2-0.8,18.8-1.4,27.7,0.7l7.7,6.6c-1.5,1.5-3.4,3-2.3,4.5c0.7,0.7,1.8,1.1,2.7,1
	c1.9,0,3.7,0.1,5.6,0.1C625.7,254.2,638.9,271.3,649.3,290L649.3,290z"/>
<g>
	<path class="st3" d="M242.1,424.8c-11.6,8.6-23.2,17.2-34.6,26c-5.7,4.4-11.3,8.9-16.9,13.5c-5.5,4.6-10.9,9.3-16.2,14.1
		c-5.2,4.8-10.3,9.9-14.8,15.2c-2.3,2.7-4.4,5.4-6.3,8.2c-1.9,2.8-3.6,5.8-4.7,8.7c-1.1,2.9-1.7,5.9-1.1,8.4
		c0.1,0.3,0.1,0.6,0.2,0.9l0.2,0.4l0,0.1c0.1,0.3-0.1-0.3-0.1-0.2l0.1,0.3l0.6,1.2c0,0.1,0.1,0.2,0.1,0.3l0.1,0.1l0.2,0.3l0.2,0.3
		l0.1,0.2l0.2,0.2l0.7,0.7c0.2,0.3,0.5,0.5,0.8,0.7l0.8,0.7c2.3,1.7,5.3,3.1,8.4,4.2c3.2,1.1,6.5,1.8,9.9,2.4
		c6.8,1.2,13.8,1.8,20.9,2c7.1,0.2,14.2,0.2,21.3,0c3.6-0.1,7.1-0.3,10.7-0.5c3.6-0.2,7.1-0.4,10.7-0.7c7.1-0.5,14.3-1.2,21.4-1.9
		c7.1-0.7,14.3-1.5,21.4-2.4l5.4-0.7l2.7-0.3c0.8-0.1,1.8-0.3,2.6-0.4l10.7-1.6c7.1-1.1,14.3-2.1,21.4-3.2
		c7.1-1.2,14.2-2.5,21.3-3.8c7.1-1.4,14.1-2.8,21.2-4.3c7.1-1.5,14.1-3.2,21.1-4.8c7-1.6,14-3.4,21-5.3c7-1.8,13.9-3.7,20.9-5.7
		c6.9-2,13.9-4,20.7-6.2c6.9-2.1,13.8-4.3,20.6-6.6c13.7-4.6,27.3-9.4,40.8-14.5c13.5-5.1,26.9-10.3,40.3-15.7l20-8.1l20-8.3
		c13.3-5.6,26.5-11.3,39.6-17.2c6.6-2.9,13.1-5.9,19.6-9l9.8-4.6l9.8-4.7l1-0.5l1.2,0l0,0l-2.3,0.5l4.2-2.1l2.1-1l1.1-0.5l1.4-0.6
		l-0.3,0.1c11-5.4,22-10.9,32.8-16.8c5.4-2.9,10.8-5.8,16.1-8.8c5.3-3,10.6-6.1,15.8-9.3c5.2-3.2,10.3-6.5,15.3-10
		c5-3.5,9.8-7,14.4-10.9c1.1-1,2.3-1.9,3.3-2.9l1.6-1.5l1.6-1.5c1.1-1,2-2.1,3-3.2c0.9-1.1,1.9-2.2,2.7-3.3c1.7-2.2,3.1-4.6,4-6.9
		c0.3-0.6,0.3-1.1,0.5-1.7c0.1-0.3,0.1-0.6,0.2-0.8l0.1-0.8c0.1-0.5,0-1.1,0.1-1.6c0-0.3-0.1-0.5-0.1-0.8l-0.1-0.4l0-0.2l0-0.1
		c0.2,0.6,0,0.1,0.1,0.2l0-0.1l-0.4-1.1l-0.2-0.6c-0.1-0.2-0.1-0.2-0.2-0.3c-0.2-0.4-0.3-0.7-0.7-1.2l-0.5-0.7
		c-0.2-0.2-0.4-0.5-0.6-0.7l-0.6-0.7c-0.2-0.2-0.5-0.4-0.7-0.7c-1.9-1.8-4.2-3.4-6.7-4.7c-5-2.7-10.7-4.8-16.4-6.5
		c-11.6-3.3-23.7-5.3-35.8-6.7c-6.1-0.7-12.2-1.2-18.3-1.7c-6.1-0.4-12.3-0.7-18.4-0.9c-6.2-0.2-12.3-0.3-18.5-0.3
		c-6.2,0-12.4,0-18.5,0.1l-0.1-1c6.2-0.6,12.3-1.2,18.5-1.6c6.2-0.4,12.4-0.7,18.6-0.9c6.2-0.2,12.4-0.3,18.6-0.2
		c6.2,0.1,12.4,0.3,18.7,0.7c6.2,0.4,12.4,1,18.7,1.8c6.2,0.9,12.4,1.9,18.6,3.5c1.5,0.4,3.1,0.8,4.6,1.2c1.5,0.5,3.1,0.9,4.6,1.5
		c3.1,1,6.1,2.3,9,3.8c3,1.5,5.9,3.3,8.6,5.7c0.3,0.3,0.7,0.6,1,0.9l0.9,1c0.3,0.4,0.6,0.7,0.9,1.1l0.9,1.2c0.6,0.7,1.1,1.8,1.6,2.8
		c0.1,0.2,0.3,0.5,0.3,0.7l0.2,0.5l0.4,1.1l0,0.1c0,0.2-0.1-0.3,0.1,0.4l0,0.2l0.1,0.4l0.1,0.8c0.1,0.5,0.2,1,0.3,1.5
		c0,1,0.1,2.1,0,3c-0.1,1-0.2,2-0.4,2.9c-0.3,0.9-0.4,1.9-0.8,2.7c-1.2,3.5-3,6.5-5,9.3c-1,1.4-2,2.7-3.1,4
		c-1.1,1.2-2.1,2.5-3.3,3.6l-1.7,1.8l-1.7,1.7c-1.2,1.1-2.3,2.2-3.5,3.3c-4.8,4.2-9.8,8.2-14.9,11.8c-5.1,3.7-10.3,7.1-15.6,10.5
		c-5.3,3.4-10.6,6.6-16,9.7c-5.4,3.1-10.8,6.2-16.3,9.1c-11,5.9-22.1,11.5-33.2,16.9l-0.3,0.1l-0.1,0.1l0,0c0.1-0.1-0.3,0.1,0.3-0.1
		l0,0l0,0l0,0l0,0l-0.1,0l-0.3,0.1l-0.5,0.3l-1.1,0.5l-2.2,1l-4.3,2l-1.1,0.5l-1.2,0l0,0l2.2-0.5l-9.8,4.6l-9.9,4.5l-9.9,4.4
		c-3.3,1.5-6.6,2.9-10,4.3c-13.3,5.7-26.7,11.2-40.2,16.6c-6.7,2.7-13.5,5.3-20.2,7.9c-6.8,2.6-13.5,5.1-20.3,7.6
		c-13.6,5-27.3,9.6-41.1,14.1c-13.8,4.5-27.6,8.8-41.5,12.8c-6.9,2-13.9,4-20.9,5.9c-7,1.9-13.9,3.9-20.9,5.7c-7,1.8-14,3.7-21,5.5
		l-21,5.3c-7,1.8-14.1,3.4-21.1,5.1c-7,1.7-14.1,3.3-21.1,4.9c-7,1.6-14.1,3.2-21.2,4.7l-21.3,4.3l-10.6,2.1
		c-0.9,0.2-1.7,0.4-2.7,0.5l-2.7,0.5l-5.4,0.9c-7.1,1.3-14.3,2.3-21.5,3.3c-7.2,1-14.4,1.8-21.7,2.5c-3.6,0.3-7.3,0.7-10.9,0.9
		c-3.6,0.2-7.3,0.4-10.9,0.6c-7.3,0.3-14.6,0.4-22,0.1c-7.4-0.3-14.7-1-22.2-2.4c-3.7-0.7-7.4-1.6-11.1-2.9c-3.7-1.3-7.4-3-10.8-5.6
		l-1.2-1.1c-0.4-0.4-0.8-0.7-1.2-1.2l-1.1-1.3l-0.3-0.3l-0.3-0.4l-0.5-0.8l-0.5-0.8l-0.3-0.4c-0.1-0.1-0.1-0.2-0.2-0.3l-0.6-1.2
		l-0.1-0.3c0,0-0.3-0.7-0.2-0.5l-0.1-0.2l-0.3-0.9c-0.2-0.6-0.3-1.2-0.4-1.7c-0.4-2.3-0.3-4.6,0.1-6.8c0.4-2.1,1-4.1,1.8-6
		c1.6-3.7,3.6-7.1,5.8-10.2c2.2-3.1,4.6-6,7.1-8.7c5-5.5,10.4-10.5,16-15.2c5.5-4.8,11.3-9.3,17.1-13.6c5.8-4.3,11.7-8.6,17.7-12.6
		c6-4.1,12-8.1,18.1-12c3.1-1.9,6.1-3.9,9.2-5.8l9.3-5.7L242.1,424.8z"/>
</g>
<path class="st4" d="M903,56"/>
<path class="st5" d="M382.8,509.3l132.6-47.6c5.4-2,10.3-0.8,13.3,0.5c1,0.4,2,0.9,2.9,1.5l0.1,0.1c1.3,0.4,2.6,0.9,3.8,1.5
	c8,4,1.2,9.4,1.2,9.4c-48.1,31.2-118.6,38.4-118.6,38.4s-13.6,2.1-23.7,2.8c-3.7,0.2-6.9,0.3-8.8,0
	C378.6,514.4,382.8,509.3,382.8,509.3z"/>
<path class="st5" d="M382.8,509.3l-16.4-19.2l12.2-4.5l32.4,15C411.4,504.1,382.8,509.3,382.8,509.3z"/>
<polygon class="st5" points="449.7,487.3 439.9,479.8 412,473 420.9,469.4 480.9,474.7 "/>
<path class="st6" d="M473.4,491.3c52.5-16.4,62.3-26,62.3-26l0-0.1c8,4,1.2,9.4,1.2,9.4c-48.1,31.2-118.6,38.4-118.6,38.4
	s-13.6,2.1-23.7,2.8L473.4,491.3z"/>
<path class="st5" d="M386.7,514.9l-13.1,14.3l6.5-0.5l23.6-15.2C404.4,507.5,386.7,514.9,386.7,514.9z"/>
<path class="st6" d="M524,465.8c1.4-0.2,3.6-2.4,4.8-3.7c1,0.4,2,0.9,2.9,1.5c-1.5,1.7-3.9,4.3-5.1,4.5
	C524.8,468.4,522,466.1,524,465.8z"/>
<path class="st5" d="M452.3,511.6c0,0-0.1-0.1-0.2-0.3c-0.5-0.7-1.7-2.6-2.1-4.4c-0.2-0.9-0.2-1.8,0.3-2.5c0,0,30.1-15,39.1-9.9
	l-3.6,3.6l-7.5,7.4l-40.2,39.6l-16.5,2.2L452.3,511.6z"/>
</svg>
