<?xml version="1.0" encoding="utf-8"?>
<!-- Generator: Adobe Illustrator 19.0.0, SVG Export Plug-In . SVG Version: 6.00 Build 0)  -->
<svg version="1.1" id="e37c00f5-ff96-45aa-87ea-1a24b78ba7bd"
	 xmlns="http://www.w3.org/2000/svg" xmlns:xlink="http://www.w3.org/1999/xlink" x="0px" y="0px" viewBox="282 138 1490 517"
	 style="enable-background:new 282 138 1490 517;" xml:space="preserve">
<style type="text/css">
	.st0{fill:#4C4A5E;}
	.st1{fill:#FCC911;}
</style>
<title>connected world</title>
<path class="st0" d="M638.1,484.4c-1.7-2.5-5.4-3-7.3-5.2c-1.7-2.2-1.7-5.3-3.7-7.3c-1.8-1.8-4.7-1.7-7-2.8c-4-2-5.3-7.4-9.5-9
	c-2.3-0.9-5.4-0.4-7-2.3c-1.4-1.7-0.9-4.1-0.7-6.2c0.5-6.9-3.3-13.3-9.8-16.3c-2.4-1.1-5.1-1.6-6.9-3.5c-1.8-1.9-2.1-4.7-3.3-7
	c-1.9-3.7-5.9-5.9-9.6-7.8l-15.3-8c-2.7-1.4-6.3-2.8-8.6-0.7c-0.7,0.8-1.3,1.7-1.7,2.7c-2.1,3.3-7.6,6.3-11.6,5.5
	c0,0.1-0.1,0.2-0.1,0.3c0.5,0.9,0.7,1.9,0.3,2.8c-1.4,3.1-0.7,7.1-2,10.4c-2.4,5.8-11.8,6.1-14.2,11.9c-0.5,1.3-0.6,2.7-1.3,3.8
	c-0.8,1.5-2.3,2.4-3.2,3.9c-1.6,2.7-0.2,6.2,1.6,8.9c1.8,2.6,4.2,5.1,4.9,8.2c0.6,3.3-1,6.6-1.4,10c-0.9,7.2,4,14.1,9.5,19.1
	c1.7,1.6,3.5,3.1,4.3,5.2c1.1,2.7,0.1,5.8-0.1,8.7c-0.4,7.1,4,14.2,2.3,21.1c-1.2,5-5.2,8.7-8,12.8c-5.5,8.1-7.1,18.2-4.3,27.7
	c0.7,2.3,1.7,4.8,2,7.1c0.5,4.4-1.2,8.7-0.8,13.1c0.5,5.9,4.7,11.5,2.7,17c1.1,5.4,5.8,9.3,10.8,12.2l8.9,5.1c1.7,1,3.5,1.9,5.5,2.2
	c2,0.2,4.1-0.9,4.6-2.8c-4.4-2.3-8.9-4.7-12.1-8.5c-3.1-3.8-4.4-9.5-1.9-13.5c1.2-1.8,3.3-3.9,2.3-6c-0.5-1.1-1.9-1.8-2.5-3
	c-1-1.7,0.1-4,1.5-5.3c1.4-1.4,3.3-2.6,4.2-4.3c1-2,0.5-4.6-1.1-6.2c1.9-0.2,3.8-0.7,5.5-1.7c1.6-1,2.7-3,2.2-4.9
	c2.8,1.2,6.2,2.2,8.7,0.6c2-1.3,2.6-3.9,2.5-6.4c-0.1-2.3-0.5-4.7,0.1-7c6.7,2,13.4,3.7,20.3,4.6c-0.1-3.5-1.7-6.6-4.2-9
	c3.2,0.3,6.8-2.5,8.5-5.1c1.7-2.6,2.3-5.7,2.5-8.8c0-0.9,0.2-1.7,0.5-2.3c0.6-1,1.9-1.4,3-1.6l17.2-4.4c1-0.2,2-0.6,2.8-1.1
	c2-1.3,2.5-4.2,2.3-6.6c-0.2-2.5-0.9-4.8-0.6-7.3c0.9-7.2,9.9-10.1,14.3-16.1c1.7-2.3,2.6-5,3.6-7.8
	C639.1,490.4,640,486.9,638.1,484.4z"/>
<path class="st1" d="M623.5,247c-0.4-2.3-1.9-4.5-1.4-6.8c0.3-1.5,1.4-3.2,0.3-4.5c-0.4-0.4-0.8-0.7-1.3-0.9l-29.5-13.7
	c-1.8-0.7-4.5-1.3-5.1,0.5c-0.4,1.1,0.3,2.2-0.3,3.1c-0.7,0.8-2.1,0.4-3.3,0.4c-1.8,0.1-3.1,1.8-3.4,3.5c-0.1,1.7,0.1,3.5,0.7,5.2
	c-2.2-0.9-5.2-1.8-7.1-3.2c0.3-2.4,0.3-4.8,0-7c0-0.9-0.4-1.7-1.1-2.3c-0.4-0.3-1-0.4-1.6-0.4l-8.3-0.9c-0.6-0.2-1.4-0.1-2,0.2
	c-1.3,0.8-0.7,2.8-1.2,4.3c-0.4,1.6-2.3,2.5-4.1,2.6c-1.7-0.2-3.5-0.6-5.1-1.3l-10.7-4.7c3.6-0.2,7-1.3,9.9-3.3
	c2-1.3,3.5-4.2,1.6-5.6c-0.6-0.3-1.2-0.6-1.9-0.6c-5.1-1.3-8-6.4-12.3-9.4c-5.7-3.8-13.1-3.6-18.5,0.4l5.9,1.8
	c0.6,0.1,1.1,0.4,1.5,0.8c1,1.4-1.1,3-1.4,4.6c-0.3,2.2,2.5,3.4,4.6,4.2c2.1,0.9,4.4,3.2,2.9,4.8c-11.9,0.7-20.2-13.1-32.1-14.8
	c-3-0.4-6.1,0-9-0.1c-18.6-0.3-33.5-16.4-51.9-18.7c-4.1-0.4-8.3-0.5-12.4-0.1c-2.7,0.2-5.3,0.3-7.6,1.6c-2.3,1.3-3.7,4.2-2.6,6.5
	c-4.7-0.8-9.2-2.4-13.3-4.8c2.1,2,2.9,4.9,2.2,7.6c-7.4-0.8-15-0.5-22.4,0.7c0.7,2.3,1.7,4.6,2.8,6.6l-10.5,3.2
	c2.9,1.6,3.4,6.1,0.9,8.1c3.5-0.5,6.5-3.6,10-3.4c2.4,0.1,4.4,1.6,6.3,2.9c1.9,1.4,4,2.8,6.4,2.8c2.4-0.1,4.7-2.3,3.7-4.5
	c10.1-0.2,20.1,0.9,29.9,3.2c0.7,0.1,1.5,0.4,2,1c1.1,1.1,0.2,2.9-0.2,4.4c-0.5,1.5,0.2,3.8,1.8,3.5c-1.9,0.9-1.3,3.8-0.1,5.7
	c1.2,1.9,2.5,4.2,1.1,5.9c-0.4,0.5-0.9,0.8-1.2,1.1c-1.1,1.3-0.4,3.2,0.6,4.6c1.1,1.3,2.5,2.4,3.1,4c0.6,1.6-0.5,3.7-2.1,3.6l-3.2-7
	c-2,1.2-3.6,2.9-4.7,4.9c3.9,5.2,2.6,13.4-2.8,17c-2.8,1.8-6.2,2.5-9.3,3.7c-3.1,1.2-6.3,3.2-7.1,6.4c-1.4,5.5-3.3,10.5-2.5,16.1
	c1.4,10.4,3.5,20.7,6.3,30.9c0.7,2.6,1.8,5.6,4.4,6.8c-1.3-8.9-2.2-17.9-2.7-26.9c1.7,0.5,3.8,1.1,4.5,2.9c0.6,1.4,0,2.9-0.1,4.4
	c0,1.4,0.2,2.9,0.6,4.3l8.8,32.4c0.7,2.6,1.7,5.6,3.9,7.2c1.5,1.1,3.4,1.5,4.7,2.7c1,1,1.5,2.4,2.5,3.4c2.9,2.8,8.6,0.5,11.3,3.5
	c0.8,0.9,1.1,2,1.8,2.9c2.3,3.3,7.6,2.9,10.5,5.6c1.9,1.8,2.4,4.5,3,7c1.5,6.3,4.9,12.7,11.1,15c1.9,0.7,4.1,0.8,5.9,1.7
	c0.8,0.4,1.6,1.1,2.1,1.9c0,0,0,0,0,0c0,0,0,0,0,0c-0.7-2.6-1.1-6.2-3.5-7.7c-1.6-0.8-3.3-1.4-4.7-2.5c-3.1-2.5-3.4-7.1-0.8-10
	c0.1-0.1,0.1-0.2,0.3-0.4c2.8-2.8,3.3-7.1,1.2-10.6c-2.1-3.1-6-4.7-9.7-5.6c-0.4-2.3,1.8-4.3,3.9-5.3c2.1-1,4.7-1.9,5.7-4.1
	c1.6-3.3-2.4-7.2-6.2-7.1c-3.8,0.2-6.8,2.8-9.2,5.7c-1.4,1.6-2.6,3.5-4.3,4.6c-1.8,1.3-4.2,1.8-6.1,0.7c-2.7-1.4-2.9-5.1-2.8-8
	c0.1-4,0.3-8.1,1.5-11.9c1.2-3.8,3.6-7.5,7.2-9.3c5.9-3,13.2-0.7,19.5,1.7c-1.1-2,0-4.9,2.1-5.9c2.1-1,4.8-1,6.8,0.2
	c1.9,0.9,3.3,2.5,4.2,4.3c1.3,2.6,1,5.7,1.7,8.6c0.7,2.9,3.3,5.7,6.2,5.1c2.5-0.6,3.6-3.5,3.7-5.9c0-2.4-0.5-5.1,0.4-7.5
	c1.6-4.6,7.3-6,12.1-6.8c4.9-0.7,10.5-2,12.5-6.5c0.2-0.9,0.7-1.7,1.3-2.5c0.7-0.7,1.5-1,2.4-1.2c14.8-4.8,30-9.7,45.7-10.3
	c0.9-0.1,0.9,0.2,1.6,0.3c1.3-0.4,1-2.2,0.1-3.1c-0.9-0.9-2.1-1.8-2.1-3.1c0.1-0.8,0.8-1.7,1.1-2.4c0.9-2.1-1.2-4.8-3.5-4.5
	c-0.8-1.8,2-2.9,4-3c6,0,12,0.6,17.9,1.9c0.7,0,1.3,0.4,1.9,0.8c0.8,0.9,0.3,2.4-0.7,3.1c-1,0.7-2.1,1-3.2,1.6
	c-2.4,1.4-3.8,3.9-3.7,6.5c2.6,2.3,5.5,4.8,9,5.1c3.5,0.3,7.4-2.5,6.6-5.8c-0.8-3.1-5-4.9-5-8.1c0-3.7,5.9-5.5,5.7-9.2
	c-0.1-1.6-1.4-3-2.3-4.3c-2.1-3.4-1.9-7.8,0.6-11c-4.1-0.4-7.8-2.6-9.9-6c-1.9-3.2-2.9-7.6-6.5-8.6c-3.4-0.7-7.2,2.3-10.1,0.2
	c-0.7-0.5-1.4-1.2-2.2-1.1c-0.5,0.1-1,0.6-1.2,1.1c-1.8,3.5-1.5,8-4.4,10.7c-3.1,2.9-8.5,1.9-12.1,4.4c-2,1.3-3.1,3.5-4.9,4.9
	c-1.8,1.4-5.1,1.8-6.2-0.2c2.5-2.9,2.6-7,0.3-10.2c-1.3-1.3-2.7-2.6-4.2-3.6c-1.7-1.3-3.3-2.7-4.7-4.4c-0.7-0.8-1.2-1.6-1.5-2.5
	c-0.1-1.2,0.3-2.4,1-3.2c2.9-4.2,8.1-6.6,13.4-5.9c2.2,0.3,4.7,1.1,6.6-0.1c1-0.6,1.8-1.8,3-1.9c0.7,0.1,1.4,0.4,2,0.8l7.3,4.9
	c0.8,0.6,1.8,1,2.7,1.2c1.1,0.1,2-0.6,2.2-1.6c0.1-1.4-1.8-2.5-1.3-3.8c0.2-0.4,0.5-0.7,1-0.9c7.6-4.6,16.8-5.6,25.4-2.8
	c0.6,1.9-1.6,3.4-3.3,4.4c-1.7,1-3.5,3.2-2.1,4.7c0.6,0.4,1.3,0.9,2,1.1c1.9,0.8,3.8,1.8,5.3,3.3c2.5,1.9,4.9,4,7.2,6.1
	c0.2-1.8,0.4-3.6,1.6-5.2c1.2-1.6,3.4-2.3,4.9-1.1c1.4,1.1,1.8,3.3,3.4,3.9C622.2,252.4,624,249.3,623.5,247z"/>
<path class="st0" d="M655.2,194.7l4.4,0.9c-3.1-0.2-5.8,2.4-5.9,5.9c0,0.3,0,0.6,0,0.8c4,1.5,8.6,0,12.9,0.3
	c4.3,0.2,9.3,3.6,8.6,8.1c-0.2,1.4-1,2.9-0.6,4.2c0.2,0.9,1,1.7,1.5,2.6c0.9,1.8,0.2,4.1-1,5.7c-1.1,1.7-2.7,3-3.7,4.8
	c-2.5,4.4-1.1,10.1,0.4,14.9c0.4,1.8,1.2,3.6,2.3,5.1c2.2,2.6,5.8,2.7,9,2.9c2.3,0,5-0.2,6.5-2.1c1.9-2.6,0.6-6.6,1.8-9.6
	c1.2-2.7,4.1-3.9,6.7-4.8c4.8-1.5,9.8-2.9,14.4-5.1c5.7-2.9,11.1-7.4,17.4-7.7c1.7-0.2,3.6,0.2,5.3-0.5c1.7-0.6,3.3-2.1,3.2-4.1
	c-0.1-1.7-1.3-2.9-2.4-4.1c-1-1.2-1.7-3.2-0.9-4.5l16.5-3.3c-1.2-3.5-2.1-8,0.6-10.4c1-0.8,2.3-1.2,3.1-2.1c1.4-1.7,0.7-4.5-1-6
	c-1.6-1.5-3.8-1.8-5.9-2c-7.2-0.6-14.5-0.2-21.7,0.2c-14.2,0.9-28.3,1.7-42.5,2.6c-2.9,0.2-6.1-0.2-8.7,0.9
	c-2.2,0.9-3.8,2.6-6.3,3.2C664.6,192.6,659.5,191.9,655.2,194.7z"/>
<path class="st1" d="M1688,455.3c0.4-2,2.4-3.7,1.8-5.7c-0.4-1.3-2-2-3.4-2.1c-1.4,0-2.8,0.4-4.2,0.4c-0.9,0-1.8,0-2.8,0
	c-2.8,0.4-4.5,3.4-7.2,4.4c-1.6,0.7-3.4,0.5-5.1,1c-3.8,1-6.2,4.6-8.8,7.4c-4.3,4.6-9.8,7.9-15.9,9.3c-2.1,0.5-4.5,0.8-6.2,2.2
	c-2.3,1.9-2.8,5-3.3,7.9c-1.4,8-3.5,15.8-6.3,23.3l9,1.1c1.7,0.2,3.5,0.4,5.1-0.1c1.2-0.4,2.3-1.1,3.4-1.8c4-2.5,8.5-4,13.1-4.7
	c2.3-0.3,4.8-0.3,7,0.4c2.2,0.9,4.1,2.8,4.3,5.3c1.9-0.7,4.1-0.1,5.5,1.3c1.4,1.4,2.3,3.3,2.6,5.3c0.3,1.2,0.5,2.7,1.6,3.2
	c0.9,0.4,2,0,3-0.1c3.5-0.3,6.3,3.7,9.7,3.1c3.6-0.8,4.5-6.2,8-7.3c2-0.7,4.9,0.1,5.8-1.8c0.9-1.6-0.9-3.6-0.7-5.5
	c0.2-2.3,3-3.3,5-4.3c7.2-3.4,10.6-13.1,7.2-20.2c-2.1-4.3-6.2-7.5-6.9-12.3c-0.6-3.6,0.8-7.8-1.4-10.6c-1.2-1.4-3.1-2.2-3.8-3.9
	c-0.4-1.1-0.3-2.3-0.5-3.4c-0.3-1.1-1.3-2.3-2.3-2.1c-3.3,0.9-4.3,10.9-6,13.5C1692.7,462.4,1687.2,459.9,1688,455.3z"/>
<path class="st0" d="M1456.5,376c0.3,1.3,0.5,2.8,0.1,4.1c-0.4,1.3-1.8,2.4-3.2,1.9c-1.1-0.4-1.6-1.3-2.4-2.2
	c-4.1-4.3-13.4-1.7-16-7.1c-1.1-2.2-0.4-4.8-1.1-7.1c-0.9-2.8-3.6-4.5-6.6-4.3c-1.3,0.2-2.6,0.6-3.8,1.1c-8,3.2-16.5,5.2-25.1,6.2
	c-1.6,0.1-3.3,0.4-4.8,0.9c-3.5,1.2-6,4.5-7.7,7.7s-3,6.7-5.3,9.8c-2.4,3-5.8,5.2-9,7.5c-1.2,0.7-2.3,1.8-3,3
	c-0.7,1.3-0.6,3-0.6,4.4l0.6,18.5c0.1,2.4,0.2,4.8,1.3,7c1.3,2.6,4,4.4,6,6.7c1.9,2.4,2.9,5.4,2.8,8.4c-0.1,1.2-0.1,2.6,0.8,3.5
	c0.6,0.4,1.3,0.6,2,0.6l25.7,1.9c4.5,0.3,9.6,0.9,12.5,4.3c1.4,1.6,2.5,3.8,4.7,4.1c0.9,0.1,1.8-0.2,2.7-0.4
	c2.3-0.1,4.3,1.5,5.6,3.3c1.9,2.9,2.8,6.2,2.5,9.7c-0.2,2.2-0.9,4.2-1.1,6.4c-0.6,8.2,6.6,15.2,6.7,23.5c0.1,4.8-2.3,9.4-4.5,13.6
	c3.7,5.4,0.6,12.7,2.1,19.1c1.4,6,6.6,10.8,7.9,16.9c0.6,2.8,0.6,6.2,3.1,7.7c1.1,0.5,2.3,0.7,3.5,0.7c7.4,0.1,14.8-1.6,21.4-4.8
	c3.1-1.6,6.4-3.8,6.9-7.1c0.4-2.6-1-5.8,0.5-8.1c1.7-2.8,6-2.6,8.5-4.7c4-3.5,0.9-10.1,2.6-15c1.5-4.5,6.5-6.9,9-10.9
	c1-1.7,1.7-3.6,2.1-5.5c1.1-4.7,1.8-9.4,2.1-14.1c0.1-2.9,0.3-5.8,0.6-8.7c2.7-16.4,19.3-27.4,24.7-43c0.5-1.4,0.8-3.5-0.6-4.3
	c-0.8-0.4-1.7-0.5-2.6-0.2l-11.8,1.5c-1.5,0.2-3,0.4-4.4-0.2c-1.3-0.6-2.3-2.3-1.6-3.5c2-3.6-2.1-8-4-11.6
	c-5-9.8-10.8-19.1-17.6-27.8c-0.4-0.5-0.7-1.1-0.8-1.7l3.4,0.1c-1.1-4-3-8.3-6.9-9.7c-2.3-0.8-4.7-0.5-7.1-0.3
	C1470.7,377.9,1463.3,376.9,1456.5,376z"/>
<path class="st1" d="M1451.8,279c6.5-23.9,28.6-39.6,31.6-63.8c0,0,0,0,0,0c-1.7-1.2-2.6-3.3-3.8-5c-1.2-1.8-3.2-3.3-5.2-2.7
	c-1.5,0.6-2.3,2.2-1.9,3.7c-10,1.4-19.4,5.2-27.6,11.2c-0.9,0.7-1.9,1.2-2.9,1.6c-2,0.4-4.1-1-4.5-3.2c-1.5,4.3-4.1,9.5-8.6,9.5
	c-2.6,0.1-4.7-1.8-6.7-3.4c2.7-0.5,3.8-1.4,6.9-1.7c0.4,0.1,0.8-0.1,1.2-0.4c0.4-0.6,0.6-1.2,0.4-1.9c-0.6-3.1-3.3-5.2-6.1-6
	c-2.8-0.8-5.8-0.5-8.7-0.1l-9.8,1c-5,0.3-10,1.9-14.2,4.8c-2.8,1.6-5.6,3.7-8.3,5.3c-0.9,5-3,9.6-6.3,13.4c-1.4,1.7-3,3-4,4.9
	c-1,1.9-1.4,4.2-0.5,6.1c0.2,0.5,0.6,0.9,1,1.1c0.8,0.2,1.6,0,2.3-0.3c1.7-0.6,3.5-1.2,5.4-1.2c1.8,0,3.7,1.2,4.2,3
	c0.2,0.7,0.3,1.7,0.9,2.1c0.5,0.3,1.2,0.4,1.8,0.2l5.2-1c0.2-1.8-0.4-3.6-1.6-4.8c1.3-0.2,2.5-0.9,3.2-2c1.5-2.2,0.9-5.1-1.1-6.6
	c-1.2-0.8-3.2-1.6-3.1-3.1l7.3-5.5c1.5-1.2,3.3-2.4,5.1-1.8c2.7,0.8,2.9,4.8,1.6,7.3c-0.5,1.1-1.1,2.5-0.2,3.3
	c0.4,0.3,0.7,0.4,1.1,0.5l11.2,2.3c-2.6,2.5-6.2,3.5-9.6,3.1l1.6,6.3c-1.2-1-2.9,0-3.8,1.1c-1,1.1-1.6,2.7-2.9,3.4
	c-1.3,0.7-2.9,0.4-4.3,0.5c-3.4,0.4-6.3,3.9-9.7,3.4c-1.8-0.3-3.3-1.7-4.9-2.6c-1.6-0.9-3.8-1.5-5.2-0.2c0.6,3.7-1.5,7.2-5,8.1
	c-0.5,0.1-1,0.1-1.4,0.4c-0.8,0.7-0.8,2-0.9,3c-0.3,3.4-3.1,6.1-6.1,7.6c-3,1.5-6.3,2.2-9.4,3.6c-0.6,0.2-1.2,0.6-1.4,1.3
	c-0.3,1,0.9,2,1.8,2.6c2.2,1.7,3.4,4.6,3,7.4c-0.5,2.8-2.7,5.1-5.4,5.6c-1.8,0.3-3.9-0.1-5.1,1.2c-0.9,1-1,2.4-0.9,3.7l-0.1,6.5
	c0,1.5,0.1,3.4,1.5,4.1c0.7,0.3,1.4,0.3,2.2,0.2c7.6-0.7,15.3-4.9,18.3-12.2c0.5-1.3,0.9-2.7,1.6-4.1c2.8-5.5,10.3-7.1,15.8-4.8
	c5.6,2.3,9.5,7.5,12.4,13.1c0.2,0.5,0.5,0.8,1,1c0.4,0.1,0.9-0.1,1.2-0.4c2.7-2.1,3.3-6.2,1.4-9c-1.4-1.9-3.9-3-5.9-4.4
	c-2-1.4-3.8-3.9-2.9-6.3l13.2,5.5c1.3,0.6,2.7,1.2,3.3,2.5c0.8,1.5,0.1,3.5,0.1,5.2c0,2.5,1.4,4.8,3.6,6c2.2,1.1,4.8,0.9,6.9-0.5
	c0.4-4-4.4-8.1-2.3-11.5c1.8-3,7.3-1.9,8.5-5.2c0.9-2.5-1.7-5.3-0.8-7.8c0.8-2.2,3.7-2.6,6-2.1c2.3,0.3,4.8,1.1,6.7-0.2
	c1.1-0.8,1.7-2,2.6-3c0.9-0.9,2.6-1.5,3.5-0.4c1.3,1.3-0.5,3.7,0.2,5.5c0.8,2,3.9,1.6,5.8,2.8c1.2,0.7,1.7,2.1,1.7,3.6
	C1454.2,286,1450.8,282,1451.8,279z"/>
<path class="st0" d="M1765.4,207.6c-1.3-1-2.8-1.7-4.3-2c-12.2-3.3-24.8-4.4-37.3-2.9c-4.9,0.6-9.8,1.5-14.7,0.7
	c-2.6-0.4-5.1-1.2-7.7-1.4c-4.1-0.2-8.2,1.5-12.3,1.7c-5.7,0.2-11.3-2.3-16.9-3.6c-5.6-1.3-12.6-1.5-16.2,3.2c1.4,1.3,1.1,3.7-0.3,5
	c-1.4,1.2-3.4,1.4-5.2,1.3c-4.4-0.4-8.6-2.9-13.1-3c-2.6,0-5.2,0.9-7.9,1.6c-7.1,2-14.5,2.8-21.8,3.6c-1,0.1-2.1,0.3-2.7-0.5
	c-2.1-2.2,4.1-5.4,2.5-8.1c-11.2-4.5-23.8-2-35.6,0.5c2.7,3,6.8,4.1,10.5,2.7c0.5,1.3-0.3,3-1.6,3.8c-1.3,0.7-2.7,1.1-4.2,1.3
	c-8.5,1.5-16.7,4.4-24.9,7.4c-0.9,1.7,1.1,3.6,2.8,4.6c1.8,1,4,2.4,3.6,4.4c-0.3,2.1-3.3,2.5-5,1.4c-3,24.2-25.1,39.8-31.6,63.8
	c-1,3,2.4,7,0.9,10.2c-0.1,1.6-0.8,3.3-2.1,4.3c-2.4,1.9-5.7,2.1-8.6,2.2l-12.9,0.4c-1.5,0.1-3,0.1-4,1.3c-1.3,1.5-0.5,4.2,0.7,5.8
	c3.5,4.7,10.6,3.3,16.2,2.3c2.5-0.4,4.7,1.8,5.6,4.2c0.8,2.4,0.7,5,0.9,7.6c0.6,7.6,4.1,14.4,9.7,19.2c2.3,2,5,3.6,6.2,6.3
	c0.9,1.9,0.9,4,1.6,6.1c2,6.1,9.7,9.8,9.3,16.1c5.3,1.7,10.9-1.6,14.6-5.9c3.7-4.2,6.5-9.3,11-12.7c1.4-1.1,2.9-1.9,4-3.3
	c1-1.4,1.5-3.4,0.5-4.8c-1.3-2-4.6-1.7-5.6-3.8c-0.7-1.4,0.1-3.3-0.7-4.5c-0.9-1.4-2.9-1.4-4.3-0.7c-1.4,0.7-2.5,1.9-3.9,2.6
	c-2.8,1.4-6.2,0.2-8.1-2.4c-1.8-2.7-2-6.1-0.6-8.9c3.6,1.8,7.3,3.2,11.3,4.1c6.9,1.6,14.2,1.8,21.2,3.2c7,1.4,14.1,4.3,18.5,10.2
	c0.3,0.5,0.7,0.9,1.2,1.2c2.1,1.1,3.7-2.2,4-4.6c3.4,10.2,7.5,20.1,12,29.7c0.9,2,2,4.1,3.8,5.4c3.4,2.4,8.4,0.7,10.9-2.8
	c2.4-3.4,2.8-8.1,2.4-12.3c-0.4-4-1.4-8-0.1-11.7c0.9-2.5,2.7-4.6,4.5-6.6c2.2-2.4,4.7-5,7.9-5.2c3-0.3,5.8,1.8,7.8,4.1
	c2,2.5,3.3,5.3,5.4,7.7c2.1,2.5,6.5,4.1,8.1,1.2c3.3,6.1,4.4,13.2,6.7,19.8s6.3,13.2,12.8,15.4c0.5-5.6-5.4-9.2-8.1-14
	c-1.8-3.3-2.2-7.2-2.4-11.1c0-0.9-0.1-1.7,0.6-2.2c0.3-0.2,0.7-0.3,1.2-0.3c4.5,0.2,7.2,6.6,11.7,6.4c2.8-0.1,5-3.1,5.1-6
	c0.1-2.9-1.3-5.7-3-8c-2.4-3.1-5.6-5.9-6.5-9.8c-0.9-3.9,2.3-8.9,6-7.6c0.3,3.7,0.7,7.3,1.5,10.9c0.9-0.1,2.4-0.8,3.3-0.9
	c-1.4-1-1.6-3-1-4.6c0.6-1.6,1.8-2.7,3-4c4.1-4.3,7.4-9.3,10.7-14.2c1.9-2.9,3.8-5.9,4.6-9.1c0.9-3.2,0.5-7.1-1.7-9.7
	c-1-1.1-2.3-2-2.7-3.4c-0.2-0.9-0.4-1.8-0.4-2.7c-0.5-2.4-2.5-3.9-3.9-5.9c-1.1-1.4-1.8-3-3-4.2c-1.3-1.2-3.3-1.8-4.7-0.7
	c-1-2.4-0.7-5,0.6-7.1c3.6,4.2,11.1,1.3,15.2,5.2c1.3,1.2,2,3,2.9,4.6c1,1.6,2.5,3.1,4.3,3c2.3-0.2,3.8-3.1,3.3-5.5
	c-0.5-2.4-2.3-4.2-4.1-5.9c-1.8-1.5-3.7-3.2-4.7-5.4c-0.1-0.2-0.2-0.4-0.2-0.5c-0.7-2,0.4-4.4,2.5-5.1c1.9-0.7,4-1.6,4.6-3.6
	c0.2-0.9,0.2-1.8,0-2.8c-0.6-4.8-1.5-9.6-2.5-14.3l12.9,9.9c0.7-6.2-3.1-12.2-8.1-15.5c-5-3.2-11.2-4.3-17.2-4.7
	c-1.3-0.1-2.7-0.3-3.9-0.9c-1.1-0.7-2-2.1-1.5-3.4c0.4-0.8,0.9-1.4,1.7-1.8c1.9-1.6,4-2.9,6.2-3.8c4.7-1.7,10.5-1.1,13.8-4.9
	c0.4-0.9,0.5-2.1,0.2-3c1.1-1.1,2.6,1.4,4.2,1.2c0.9-0.1,1.3-1,1.9-1.7c1.3-1.4,3.7-1.3,5.2-0.2c1.5,1.2,2.2,3.1,2.6,5
	c0.4,2.3,0.3,4.8-0.3,7.2c-0.4,1.4-0.9,2.7-0.7,4.2c0.4,2.2,2.8,3.4,5,4c2.2,0.6,4.5,0.8,6.3,2.2c1.4,1.2,2.8,3.3,4.4,2.6
	c0.6-0.2,1-0.8,1.3-1.3c1.8-3.3,0.2-7.4-1.8-10.5c-1.9-3-4.1-5.9-6.6-8.4c1.4-2,4.6-0.3,6.9-0.8c2.7-0.5,3.9-3.6,4.9-6.2
	c1-2.5,3-5.5,5.7-5c1.1-2.4-1.6-4.8-4.1-5.2c-2.5-0.4-5.5-0.4-6.9-2.6l12.2,0.3C1767.4,210.5,1766.6,208.7,1765.4,207.6z"/>
</svg>
