<?xml version="1.0" encoding="utf-8"?>
<!-- Generator: Adobe Illustrator 19.0.0, SVG Export Plug-In . SVG Version: 6.00 Build 0)  -->
<svg version="1.1" id="e37c00f5-ff96-45aa-87ea-1a24b78ba7bd"
	 xmlns="http://www.w3.org/2000/svg" xmlns:xlink="http://www.w3.org/1999/xlink" x="0px" y="0px" viewBox="241 -8 2062 517"
	 style="enable-background:new 241 -8 2062 517;" xml:space="preserve">
<style type="text/css">
	.st0{fill:#4C4A5E;}
	.st1{fill:#FCC911;}
	.st2{fill:#3F3D56;}
	.st3{fill:#FFFFFF;}
	.st4{fill:#57B894;}
	.st5{fill:none;stroke:#3F3D56;stroke-width:2;stroke-miterlimit:10;}
	.st6{fill:none;stroke:#FCC911;stroke-miterlimit:10;}
</style>
<title>connected world</title>
<path class="st0" d="M915.1,334.2c-1.8-2.7-5.8-3.2-7.8-5.6c-1.8-2.4-1.8-5.7-4-7.8c-1.9-1.9-5-1.8-7.5-3c-4.3-2.1-5.7-7.9-10.2-9.6
	c-2.5-1-5.8-0.4-7.5-2.5c-1.5-1.8-1-4.4-0.7-6.6c0.5-7.4-3.5-14.2-10.5-17.4c-2.6-1.2-5.5-1.7-7.4-3.7c-1.9-2-2.2-5-3.5-7.5
	c-2-4-6.3-6.3-10.3-8.3l-16.4-8.6c-2.9-1.5-6.7-3-9.2-0.7c-0.7,0.9-1.4,1.8-1.8,2.9c-2.2,3.5-8.1,6.7-12.4,5.9
	c0,0.1-0.1,0.2-0.1,0.3c0.5,1,0.7,2,0.3,3c-1.5,3.3-0.7,7.6-2.1,11.1c-2.6,6.2-12.6,6.5-15.2,12.7c-0.5,1.4-0.6,2.9-1.4,4.1
	c-0.9,1.6-2.5,2.6-3.4,4.2c-1.7,2.9-0.2,6.6,1.7,9.5c1.9,2.8,4.5,5.5,5.2,8.8c0.6,3.5-1.1,7.1-1.5,10.7c-1,7.7,4.3,15.1,10.2,20.4
	c1.8,1.7,3.7,3.3,4.6,5.6c1.2,2.9,0.1,6.2-0.1,9.3c-0.4,7.6,4.3,15.2,2.5,22.6c-1.3,5.4-5.6,9.3-8.6,13.7
	c-5.9,8.7-7.6,19.5-4.6,29.6c0.7,2.5,1.8,5.1,2.1,7.6c0.5,4.7-1.3,9.3-0.9,14c0.5,6.3,5,12.3,2.9,18.2c1.2,5.8,6.2,10,11.6,13.1
	l9.5,5.5c1.8,1.1,3.7,2,5.9,2.4c2.1,0.2,4.4-1,4.9-3c-4.7-2.5-9.5-5-12.9-9.1c-3.3-4.1-4.7-10.2-2-14.4c1.3-1.9,3.5-4.2,2.5-6.4
	c-0.5-1.2-2-1.9-2.7-3.2c-1.1-1.8,0.1-4.3,1.6-5.7c1.5-1.5,3.5-2.8,4.5-4.6c1.1-2.1,0.5-4.9-1.2-6.6c2-0.2,4.1-0.7,5.9-1.8
	c1.7-1.1,2.9-3.2,2.4-5.2c3,1.3,6.6,2.4,9.3,0.6c2.1-1.4,2.8-4.2,2.7-6.8c-0.1-2.5-0.5-5,0.1-7.5c7.2,2.1,14.3,4,21.7,4.9
	c-0.1-3.7-1.8-7.1-4.5-9.6c3.4,0.3,7.3-2.7,9.1-5.5s2.5-6.1,2.7-9.4c0-1,0.2-1.8,0.5-2.5c0.6-1.1,2-1.5,3.2-1.7l18.4-4.7
	c1.1-0.2,2.1-0.6,3-1.2c2.1-1.4,2.7-4.5,2.5-7.1c-0.2-2.7-1-5.1-0.6-7.8c1-7.7,10.6-10.8,15.3-17.2c1.8-2.5,2.8-5.4,3.9-8.3
	C916.1,340.6,917.1,336.9,915.1,334.2z"/>
<path class="st1" d="M899.4,80.2c-0.4-2.5-2-4.8-1.5-7.3c0.3-1.6,1.5-3.4,0.3-4.8c-0.4-0.4-0.9-0.7-1.4-1l-31.6-14.7
	c-1.9-0.7-4.8-1.4-5.5,0.5c-0.4,1.2,0.3,2.4-0.3,3.3c-0.7,0.9-2.2,0.4-3.5,0.4c-1.9,0.1-3.3,1.9-3.6,3.7c-0.1,1.8,0.1,3.7,0.7,5.6
	c-2.4-1-5.6-1.9-7.6-3.4c0.3-2.6,0.3-5.1,0-7.5c0-1-0.4-1.8-1.2-2.5c-0.4-0.3-1.1-0.4-1.7-0.4l-8.9-1c-0.6-0.2-1.5-0.1-2.1,0.2
	c-1.4,0.9-0.7,3-1.3,4.6c-0.4,1.7-2.5,2.7-4.4,2.8c-1.8-0.2-3.7-0.6-5.5-1.4l-11.4-5c3.9-0.2,7.5-1.4,10.6-3.5
	c2.1-1.4,3.7-4.5,1.7-6c-0.6-0.3-1.3-0.6-2-0.6c-5.5-1.4-8.6-6.8-13.2-10.1c-6.1-4.1-14-3.9-19.8,0.4l6.3,1.9
	c0.6,0.1,1.2,0.4,1.6,0.9c1.1,1.5-1.2,3.2-1.5,4.9c-0.3,2.4,2.7,3.6,4.9,4.5c2.2,1,4.7,3.4,3.1,5.1c-12.7,0.7-21.6-14-34.3-15.8
	c-3.2-0.4-6.5,0-9.6-0.1c-19.9-0.3-35.8-17.5-55.5-20c-4.4-0.4-8.9-0.5-13.3-0.1c-2.9,0.2-5.7,0.3-8.1,1.7c-2.5,1.4-4,4.5-2.8,7
	c-5-0.9-9.8-2.6-14.2-5.1c2.2,2.1,3.1,5.2,2.4,8.1c-7.9-0.9-16.1-0.5-24,0.7c0.7,2.5,1.8,4.9,3,7.1L633,36.9c3.1,1.7,3.6,6.5,1,8.7
	c3.7-0.5,7-3.9,10.7-3.6c2.6,0.1,4.7,1.7,6.7,3.1c2,1.5,4.3,3,6.8,3c2.6-0.1,5-2.5,4-4.8c10.8-0.2,21.5,1,32,3.4
	c0.7,0.1,1.6,0.4,2.1,1.1c1.2,1.2,0.2,3.1-0.2,4.7c-0.5,1.6,0.2,4.1,1.9,3.7c-2,1-1.4,4.1-0.1,6.1c1.3,2,2.7,4.5,1.2,6.3
	c-0.4,0.5-1,0.9-1.3,1.2c-1.2,1.4-0.4,3.4,0.6,4.9c1.2,1.4,2.7,2.6,3.3,4.3c0.6,1.7-0.5,4-2.2,3.9l-3.4-7.5c-2.1,1.3-3.9,3.1-5,5.2
	c4.2,5.6,2.8,14.3-3,18.2c-3,1.9-6.6,2.7-10,4c-3.3,1.3-6.7,3.4-7.6,6.8c-1.5,5.9-3.5,11.2-2.7,17.2c1.5,11.1,3.7,22.1,6.7,33.1
	c0.7,2.8,1.9,6,4.7,7.3c-1.4-9.5-2.4-19.2-2.9-28.8c1.8,0.5,4.1,1.2,4.8,3.1c0.6,1.5,0,3.1-0.1,4.7c0,1.5,0.2,3.1,0.6,4.6l9.4,34.7
	c0.7,2.8,1.8,6,4.2,7.7c1.6,1.2,3.6,1.6,5,2.9c1.1,1.1,1.6,2.6,2.7,3.6c3.1,3,9.2,0.5,12.1,3.7c0.9,1,1.2,2.1,1.9,3.1
	c2.5,3.5,8.1,3.1,11.2,6c2,1.9,2.6,4.8,3.2,7.5c1.6,6.7,5.2,13.6,11.9,16.1c2,0.7,4.4,0.9,6.3,1.8c0.9,0.4,1.7,1.2,2.2,2l0,0l0,0
	c-0.7-2.8-1.2-6.6-3.7-8.2c-1.7-0.9-3.5-1.5-5-2.7c-3.3-2.7-3.6-7.6-0.9-10.7c0.1-0.1,0.1-0.2,0.3-0.4c3-3,3.5-7.6,1.3-11.3
	c-2.2-3.3-6.4-5-10.4-6c-0.4-2.5,1.9-4.6,4.2-5.7c2.2-1.1,5-2,6.1-4.4c1.7-3.5-2.6-7.7-6.6-7.6c-4.1,0.2-7.3,3-9.8,6.1
	c-1.5,1.7-2.8,3.7-4.6,4.9c-1.9,1.4-4.5,1.9-6.5,0.7c-2.9-1.5-3.1-5.5-3-8.6c0.1-4.3,0.3-8.7,1.6-12.7c1.3-4.1,3.9-8,7.7-10
	c6.3-3.2,14.1-0.7,20.9,1.8c-1.2-2.1,0-5.2,2.2-6.3c2.2-1.1,5.1-1.1,7.3,0.2c2,1,3.5,2.7,4.5,4.6c1.4,2.8,1.1,6.1,1.8,9.2
	s3.5,6.1,6.6,5.5c2.7-0.6,3.9-3.7,4-6.3c0-2.6-0.5-5.5,0.4-8c1.7-4.9,7.8-6.4,12.9-7.3c5.2-0.7,11.2-2.1,13.4-7
	c0.2-1,0.7-1.8,1.4-2.7c0.7-0.7,1.6-1.1,2.6-1.3c15.8-5.1,32.1-10.4,48.9-11c1-0.1,1,0.2,1.7,0.3c1.4-0.4,1.1-2.4,0.1-3.3
	c-1-1-2.2-1.9-2.2-3.3c0.1-0.9,0.9-1.8,1.2-2.6c1-2.2-1.3-5.1-3.7-4.8c-0.9-1.9,2.1-3.1,4.3-3.2c6.4,0,12.8,0.6,19.2,2
	c0.7,0,1.4,0.4,2,0.9c0.9,1,0.3,2.6-0.7,3.3s-2.2,1.1-3.4,1.7c-2.6,1.5-4.1,4.2-4,7c2.8,2.5,5.9,5.1,9.6,5.5
	c3.7,0.3,7.9-2.7,7.1-6.2c-0.9-3.3-5.4-5.2-5.4-8.7c0-4,6.3-5.9,6.1-9.8c-0.1-1.7-1.5-3.2-2.5-4.6c-2.2-3.6-2-8.3,0.6-11.8
	c-4.4-0.4-8.3-2.8-10.6-6.4c-2-3.4-3.1-8.1-7-9.2c-3.6-0.7-7.7,2.5-10.8,0.2c-0.7-0.5-1.5-1.3-2.4-1.2c-0.5,0.1-1.1,0.6-1.3,1.2
	c-1.9,3.7-1.6,8.6-4.7,11.4c-3.3,3.1-9.1,2-12.9,4.7c-2.1,1.4-3.3,3.7-5.2,5.2c-1.9,1.5-5.5,1.9-6.6-0.2c2.7-3.1,2.8-7.5,0.3-10.9
	c-1.4-1.4-2.9-2.8-4.5-3.9c-1.8-1.4-3.5-2.9-5-4.7c-0.7-0.9-1.3-1.7-1.6-2.7c-0.1-1.3,0.3-2.6,1.1-3.4c3.1-4.5,8.7-7.1,14.3-6.3
	c2.4,0.3,5,1.2,7.1-0.1c1.1-0.6,1.9-1.9,3.2-2c0.7,0.1,1.5,0.4,2.1,0.9l7.8,5.2c0.9,0.6,1.9,1.1,2.9,1.3c1.2,0.1,2.1-0.6,2.4-1.7
	c0.1-1.5-1.9-2.7-1.4-4.1c0.2-0.4,0.5-0.7,1.1-1c8.1-4.9,18-6,27.2-3c0.6,2-1.7,3.6-3.5,4.7s-3.7,3.4-2.2,5c0.6,0.4,1.4,1,2.1,1.2
	c2,0.9,4.1,1.9,5.7,3.5c2.7,2,5.2,4.3,7.7,6.5c0.2-1.9,0.4-3.9,1.7-5.6c1.3-1.7,3.6-2.5,5.2-1.2c1.5,1.2,1.9,3.5,3.6,4.2
	C898,86,900,82.7,899.4,80.2z"/>
<path class="st0" d="M933.4,24.2l4.7,1c-3.3-0.2-6.2,2.6-6.3,6.3c0,0.3,0,0.6,0,0.9c4.3,1.6,9.2,0,13.8,0.3c4.6,0.2,10,3.9,9.2,8.7
	c-0.2,1.5-1.1,3.1-0.6,4.5c0.2,1,1.1,1.8,1.6,2.8c1,1.9,0.2,4.4-1.1,6.1c-1.2,1.8-2.9,3.2-4,5.1c-2.7,4.7-1.2,10.8,0.4,15.9
	c0.4,1.9,1.3,3.9,2.5,5.5c2.4,2.8,6.2,2.9,9.6,3.1c2.5,0,5.4-0.2,7-2.2c2-2.8,0.6-7.1,1.9-10.3c1.3-2.9,4.4-4.2,7.2-5.1
	c5.1-1.6,10.5-3.1,15.4-5.5c6.1-3.1,11.9-7.9,18.6-8.2c1.8-0.2,3.9,0.2,5.7-0.5c1.8-0.6,3.5-2.2,3.4-4.4c-0.1-1.8-1.4-3.1-2.6-4.4
	c-1.1-1.3-1.8-3.4-1-4.8l17.7-3.5c-1.3-3.7-2.2-8.6,0.6-11.1c1.1-0.9,2.5-1.3,3.3-2.2c1.5-1.8,0.7-4.8-1.1-6.4
	c-1.7-1.6-4.1-1.9-6.3-2.1c-7.7-0.6-15.5-0.2-23.2,0.2c-15.2,1-30.3,1.8-45.5,2.8c-3.1,0.2-6.5-0.2-9.3,1c-2.4,1-4.1,2.8-6.7,3.4
	C943.4,22,938,21.2,933.4,24.2z"/>
<path class="st1" d="M1885.5,351.3c0.4-2.1,2.6-4,1.9-6.1c-0.4-1.4-2.1-2.1-3.6-2.2c-1.5,0-3,0.4-4.5,0.4c-1,0-1.9,0-3,0
	c-3,0.4-4.8,3.6-7.7,4.7c-1.7,0.7-3.6,0.5-5.5,1.1c-4.1,1.1-6.6,4.9-9.4,7.9c-4.6,4.9-10.5,8.5-17,10c-2.2,0.5-4.8,0.9-6.6,2.4
	c-2.5,2-3,5.4-3.5,8.5c-1.5,8.6-3.7,16.9-6.7,24.9l9.6,1.2c1.8,0.2,3.7,0.4,5.5-0.1c1.3-0.4,2.5-1.2,3.6-1.9c4.3-2.7,9.1-4.3,14-5
	c2.5-0.3,5.1-0.3,7.5,0.4c2.4,1,4.4,3,4.6,5.7c2-0.7,4.4-0.1,5.9,1.4s2.5,3.5,2.8,5.7c0.3,1.3,0.5,2.9,1.7,3.4c1,0.4,2.1,0,3.2-0.1
	c3.7-0.3,6.7,4,10.4,3.3c3.9-0.9,4.8-6.6,8.6-7.8c2.1-0.7,5.2,0.1,6.2-1.9c1-1.7-1-3.9-0.7-5.9c0.2-2.5,3.2-3.5,5.4-4.6
	c7.7-3.6,11.3-14,7.7-21.6c-2.2-4.6-6.6-8-7.4-13.2c-0.6-3.9,0.9-8.3-1.5-11.3c-1.3-1.5-3.3-2.4-4.1-4.2c-0.4-1.2-0.3-2.5-0.5-3.6
	c-0.3-1.2-1.4-2.5-2.5-2.2c-3.5,1-4.6,11.7-6.4,14.4C1890.5,358.8,1884.6,356.2,1885.5,351.3z"/>
<path class="st0" d="M1633.1,267.8c0.2,1.4,0.2,3-0.4,4.4c-0.6,1.3-2.2,2.3-3.6,1.6c-1.1-0.6-1.5-1.6-2.3-2.6
	c-3.9-5.1-14-3.4-16.2-9.4c-0.9-2.5,0.1-5.2-0.3-7.7c-0.6-3.1-3.3-5.2-6.5-5.4c-1.4,0.1-2.8,0.3-4.2,0.7c-8.9,2.5-18.2,3.6-27.4,3.6
	c-1.7-0.1-3.6,0-5.2,0.4c-3.9,0.9-6.9,4.1-9.1,7.3c-2.2,3.2-4,6.8-6.8,9.8c-2.9,2.9-6.8,4.8-10.5,6.9c-1.4,0.6-2.7,1.6-3.5,2.8
	c-0.9,1.3-1,3.1-1.2,4.6l-1.5,19.7c-0.2,2.6-0.4,5.1,0.6,7.6c1.1,2.9,3.7,5.2,5.6,7.8c1.7,2.8,2.4,6.1,2,9.3
	c-0.2,1.3-0.4,2.8,0.4,3.8c0.6,0.5,1.3,0.8,2.1,0.9l27.1,5.1c4.8,0.9,10.1,2.1,12.8,6c1.3,1.9,2.2,4.3,4.5,4.9
	c0.9,0.2,1.9,0,2.9-0.1c2.5,0.2,4.4,2.1,5.6,4.2c1.7,3.3,2.2,6.9,1.5,10.6c-0.5,2.3-1.5,4.4-1.9,6.7c-1.6,8.6,5.2,16.9,4.3,25.8
	c-0.5,5.1-3.6,9.7-6.4,13.9c3.3,6.2-0.9,13.6,0,20.6c0.8,6.5,5.7,12.3,6.4,18.9c0.3,3-0.1,6.7,2.4,8.6c1.1,0.7,2.4,1,3.6,1.2
	c7.9,1,15.9,0,23.3-2.6c3.5-1.3,7.3-3.3,8.2-6.7c0.7-2.7-0.4-6.3,1.5-8.6c2.1-2.8,6.7-2.1,9.6-4c4.7-3.2,2.2-10.6,4.5-15.6
	c2.1-4.6,7.7-6.6,10.9-10.5c1.3-1.7,2.2-3.6,2.9-5.6c1.7-4.9,3-9.8,3.9-14.7c0.4-3.1,1-6.1,1.7-9.2c4.8-17.1,23.8-26.9,31.3-42.8
	c0.7-1.4,1.3-3.6-0.1-4.6c-0.8-0.5-1.7-0.7-2.7-0.5l-12.7,0.2c-1.6,0-3.2,0.1-4.7-0.7c-1.3-0.8-2.2-2.7-1.3-3.9
	c2.6-3.6-1.3-8.8-2.9-12.8c-4.2-11-9.2-21.6-15.4-31.6c-0.4-0.6-0.6-1.3-0.7-1.9l3.6,0.5c-0.7-4.4-2.2-9.2-6.2-11.1
	c-2.4-1.1-4.9-1.1-7.5-1.2C1647.9,271.5,1640.2,269.5,1633.1,267.8z"/>
<path class="st1" d="M1603.8,134.3c7-25.6,30.6-42.4,33.8-68.3l0,0c-1.8-1.3-2.8-3.5-4.1-5.4c-1.3-1.9-3.4-3.5-5.6-2.9
	c-1.6,0.6-2.5,2.4-2,4c-10.7,1.5-20.8,5.6-29.5,12c-1,0.7-2,1.3-3.1,1.7c-2.1,0.4-4.4-1.1-4.8-3.4c-1.6,4.6-4.4,10.2-9.2,10.2
	c-2.8,0.1-5-1.9-7.2-3.6c2.9-0.5,4.1-1.5,7.4-1.8c0.4,0.1,0.9-0.1,1.3-0.4c0.4-0.6,0.6-1.3,0.4-2c-0.6-3.3-3.5-5.6-6.5-6.4
	c-3-0.9-6.2-0.5-9.3-0.1l-10.5,1.1c-5.4,0.3-10.7,2-15.2,5.1c-3,1.7-6,4-8.9,5.7c-1,5.4-3.2,10.3-6.7,14.3c-1.5,1.8-3.2,3.2-4.3,5.2
	s-1.5,4.5-0.5,6.5c0.2,0.5,0.6,1,1.1,1.2c0.9,0.2,1.7,0,2.5-0.3c1.8-0.6,3.7-1.3,5.8-1.3c1.9,0,4,1.3,4.5,3.2c0.2,0.7,0.3,1.8,1,2.2
	c0.5,0.3,1.3,0.4,1.9,0.2l5.6-1.1c0.2-1.9-0.4-3.9-1.7-5.1c1.4-0.2,2.7-1,3.4-2.1c1.6-2.4,1-5.5-1.2-7.1c-1.3-0.9-3.4-1.7-3.3-3.3
	l7.8-5.9c1.6-1.3,3.5-2.6,5.5-1.9c2.9,0.9,3.1,5.1,1.7,7.8c-0.5,1.2-1.2,2.7-0.2,3.5c0.4,0.3,0.7,0.4,1.2,0.5l12,2.5
	c-2.8,2.7-6.6,3.7-10.3,3.3l1.7,6.7c-1.3-1.1-3.1,0-4.1,1.2c-1.1,1.2-1.7,2.9-3.1,3.6c-1.4,0.7-3.1,0.4-4.6,0.5
	c-3.6,0.4-6.7,4.2-10.4,3.6c-1.9-0.3-3.5-1.8-5.2-2.8c-1.7-1-4.1-1.6-5.6-0.2c0.6,4-1.6,7.7-5.4,8.7c-0.5,0.1-1.1,0.1-1.5,0.4
	c-0.9,0.7-0.9,2.1-1,3.2c-0.3,3.6-3.3,6.5-6.5,8.1c-3.2,1.6-6.7,2.4-10.1,3.9c-0.6,0.2-1.3,0.6-1.5,1.4c-0.3,1.1,1,2.1,1.9,2.8
	c2.4,1.8,3.6,4.9,3.2,7.9c-0.5,3-2.9,5.5-5.8,6c-1.9,0.3-4.2-0.1-5.5,1.3c-1,1.1-1.1,2.6-1,4l-0.1,7c0,1.6,0.1,3.6,1.6,4.4
	c0.7,0.3,1.5,0.3,2.4,0.2c8.1-0.7,16.4-5.2,19.6-13.1c0.5-1.4,1-2.9,1.7-4.4c3-5.9,11-7.6,16.9-5.1c6,2.5,10.2,8,13.3,14
	c0.2,0.5,0.5,0.9,1.1,1.1c0.4,0.1,1-0.1,1.3-0.4c2.9-2.2,3.5-6.6,1.5-9.6c-1.5-2-4.2-3.2-6.3-4.7c-2.1-1.5-4.1-4.2-3.1-6.7l14.1,5.9
	c1.4,0.6,2.9,1.3,3.5,2.7c0.9,1.6,0.1,3.7,0.1,5.6c0,2.7,1.5,5.1,3.9,6.4c2.4,1.2,5.1,1,7.4-0.5c0.4-4.3-4.7-8.7-2.5-12.3
	c1.9-3.2,7.8-2,9.1-5.6c1-2.7-1.8-5.7-0.9-8.3c0.9-2.4,4-2.8,6.4-2.2c2.5,0.3,5.1,1.2,7.2-0.2c1.2-0.9,1.8-2.1,2.8-3.2
	c1-1,2.8-1.6,3.7-0.4c1.4,1.4-0.5,4,0.2,5.9c0.9,2.1,4.2,1.7,6.2,3c1.3,0.7,1.8,2.2,1.8,3.9C1606.3,141.8,1602.7,137.5,1603.8,134.3
	z"/>
<path class="st0" d="M1945,43.9c-1.5-1-3.1-1.6-4.8-1.8c-13.3-2.4-26.8-2.5-40,0.2c-5.2,1.1-10.3,2.5-15.6,2
	c-2.8-0.2-5.5-0.8-8.3-0.8c-4.4,0.1-8.6,2.3-13,2.9c-6.1,0.7-12.3-1.5-18.3-2.4c-6.1-0.9-13.6-0.5-17,4.8c1.6,1.3,1.5,3.8,0.1,5.4
	c-1.4,1.4-3.5,1.8-5.4,1.8c-4.7,0-9.4-2.3-14.2-2.1c-2.8,0.2-5.5,1.4-8.3,2.4c-7.4,2.8-15.2,4.3-22.9,5.8c-1.1,0.2-2.2,0.5-2.9-0.3
	c-2.4-2.2,3.9-6.1,2-8.9c-12.3-3.8-25.6,0-37.9,3.7c3.1,3,7.6,3.8,11.4,2c0.6,1.3-0.1,3.2-1.4,4.2c-1.3,0.9-2.8,1.4-4.4,1.8
	c-8.9,2.3-17.4,6.2-25.9,10.1c-0.8,1.9,1.5,3.7,3.4,4.7c2,0.9,4.5,2.2,4.2,4.4c-0.1,2.3-3.3,3-5.2,1.9
	c-1.1,26.1-23.3,44.6-28.1,70.8c-0.8,3.3,3.2,7.3,1.9,10.8c0,1.7-0.6,3.6-1.9,4.8c-2.4,2.2-5.9,2.7-9,3.1l-13.7,1.6
	c-1.6,0.2-3.2,0.4-4.2,1.7c-1.3,1.7-0.2,4.5,1.3,6.1c4.1,4.7,11.6,2.6,17.5,1c2.6-0.6,5.2,1.5,6.3,4c1.1,2.5,1.2,5.3,1.6,8
	c1.3,8.1,5.6,15,12,19.6c2.6,1.9,5.6,3.4,7.2,6.2c1.1,1.9,1.3,4.2,2.2,6.4c2.7,6.3,11.2,9.6,11.3,16.4c5.8,1.3,11.5-2.7,15.1-7.6
	c3.6-4.8,6.1-10.5,10.6-14.5c1.4-1.3,2.9-2.3,4-3.9c0.9-1.6,1.3-3.8,0.1-5.2c-1.6-2-5.1-1.4-6.3-3.6c-0.9-1.4-0.2-3.5-1.1-4.7
	c-1.1-1.4-3.2-1.2-4.6-0.4c-1.4,0.9-2.5,2.2-3.9,3.1c-2.9,1.7-6.6,0.8-8.8-1.8c-2.2-2.7-2.7-6.3-1.4-9.4c4,1.6,8.1,2.8,12.4,3.4
	c7.5,1.1,15.3,0.7,22.9,1.6c7.6,0.9,15.4,3.3,20.6,9.3c0.4,0.5,0.8,0.9,1.4,1.2c2.3,1,3.8-2.7,3.9-5.3c4.5,10.6,9.8,20.8,15.4,30.6
	c1.1,2.1,2.5,4.2,4.5,5.4c3.8,2.3,9,0,11.4-3.9c2.3-3.8,2.3-8.9,1.5-13.3c-0.8-4.2-2.2-8.4-1.1-12.5c0.7-2.7,2.5-5.1,4.2-7.4
	c2.1-2.8,4.6-5.7,8-6.2c3.2-0.6,6.3,1.4,8.7,3.7c2.4,2.5,4,5.4,6.4,7.7c2.5,2.5,7.3,3.8,8.7,0.6c4.1,6.2,5.8,13.7,8.9,20.5
	c3,6.8,7.9,13.5,15,15.3c0-6-6.6-9.3-9.9-14.2c-2.2-3.4-3-7.5-3.5-11.6c-0.1-1-0.3-1.8,0.4-2.4c0.3-0.2,0.7-0.4,1.3-0.4
	c4.8-0.2,8.3,6.4,13,5.8c3-0.4,5.1-3.7,4.9-6.8c-0.1-3.1-1.9-6-3.9-8.3c-2.8-3.1-6.5-5.8-7.8-9.9c-1.3-4.1,1.7-9.7,5.7-8.6
	c0.6,3.9,1.4,7.7,2.6,11.5c1-0.2,2.5-1.1,3.4-1.2c-1.6-0.9-2-3.1-1.5-4.8c0.5-1.8,1.7-3,2.8-4.5c4-4.9,7.1-10.6,10.2-16.1
	c1.8-3.3,3.5-6.6,4.1-10.1c0.7-3.5-0.1-7.6-2.7-10.2c-1.2-1.1-2.6-1.9-3.2-3.4c-0.3-0.9-0.6-1.9-0.7-2.8c-0.7-2.5-3-3.9-4.7-5.9
	c-1.3-1.4-2.2-3-3.6-4.2c-1.5-1.2-3.7-1.6-5.1-0.3c-1.3-2.5-1.2-5.3,0-7.6c4.2,4.2,12,0.4,16.7,4.2c1.5,1.2,2.4,3,3.5,4.7
	c1.2,1.6,2.9,3.1,4.8,2.8c2.4-0.4,3.8-3.6,3-6.2c-0.7-2.5-2.8-4.3-4.9-5.9c-2.1-1.4-4.2-3.1-5.5-5.3c-0.1-0.2-0.2-0.4-0.3-0.5
	c-0.9-2.1,0-4.7,2.2-5.7c2-0.9,4.1-2.1,4.6-4.2c0.1-1,0.1-1.9-0.2-3c-1.1-5.1-2.4-10.1-3.9-15l14.6,9.4c0.2-6.7-4.4-12.7-10-15.8
	c-5.6-3-12.3-3.6-18.8-3.5c-1.4,0-2.9-0.1-4.2-0.6c-1.2-0.7-2.3-2.1-1.9-3.5c0.4-0.9,0.8-1.6,1.7-2.1c1.9-1.9,4-3.4,6.3-4.6
	c4.9-2.2,11.1-2.1,14.3-6.4c0.3-1,0.3-2.3,0-3.2c1.1-1.3,2.9,1.3,4.6,0.9c1-0.2,1.3-1.2,1.9-2c1.3-1.6,3.8-1.7,5.5-0.7
	c1.7,1.1,2.6,3.1,3.2,5.1c0.6,2.4,0.7,5.1,0.3,7.7c-0.3,1.5-0.7,3-0.4,4.5c0.6,2.3,3.3,3.4,5.7,3.8s4.9,0.5,6.9,1.8
	c1.6,1.2,3.3,3.3,4.9,2.4c0.6-0.3,1-0.9,1.3-1.5c1.6-3.7-0.4-7.9-2.8-11c-2.3-3-4.9-5.9-7.8-8.4c1.3-2.3,4.9-0.7,7.3-1.5
	c2.8-0.8,3.8-4.2,4.7-7c0.8-2.8,2.7-6.1,5.6-5.8c1-2.7-2.1-5-4.8-5.2c-2.7-0.2-5.9,0.1-7.6-2.2l13-0.8
	C1947.4,46.8,1946.4,44.9,1945,43.9z"/>
<path class="st2" d="M617.1,174.6c-20.5,3.4-34.3,22.8-30.9,43.3s22.8,34.3,43.3,30.9s34.3-22.8,30.9-43.3
	C657,185,637.7,171.1,617.1,174.6z M641.1,212.5c-0.4,0.1-1.6,0.3-2,0.3l-7.3,1c-0.1,0-0.1,0.1-0.2,0.2l-8.3,18.2
	c-0.2,0.6-0.8,1-1.4,1.1l-2.7,0.4c-0.7,0.1-1-0.5-0.9-1.1l3-17c0-0.1,0-0.3-0.2-0.2l-0.1,0l-13.8,2c-0.3,0-0.6,0.2-0.7,0.4l-3.4,5.9
	c-0.2,0.5-0.7,0.9-1.3,1l-1.9,0.3c-0.3,0-0.5-0.1-0.5-0.4c0-0.1,0-0.1,0-0.1l0.9-8.1c0.1-0.5,0-0.9-0.2-1.4l-3.5-7.4
	c-0.1-0.2,0-0.5,0.2-0.6c0.1,0,0.1,0,0.1,0l1.9-0.3c0.6-0.1,1.2,0.1,1.6,0.5l5,4.4c0.2,0.2,0.5,0.3,0.8,0.2l13.8-2.5
	c0.1,0,0.2-0.2,0.2-0.2l0-0.1l-8.4-15.1c-0.3-0.6-0.2-1.2,0.4-1.3l2.7-0.4c0.6-0.1,1.2,0.1,1.6,0.6l13.7,14.6
	c0.1,0.1,0.2,0.1,0.2,0.1l7.3-1.4c0.4-0.1,1.6-0.3,2-0.4c5-0.8,8.4,0.3,8.7,2.3C648.8,209.6,646,211.6,641.1,212.5z"/>
<path class="st3" d="M1431.2,251.6v1c0,2.4-0.1,4.8-0.2,7.1c-4.5,87.8-79.3,155.3-167.1,150.9c-80.8-4.1-145.6-68.1-150.8-148.8
	c-0.2-3.4-0.3-6.8-0.3-10.2c-0.1-33,10.2-65.1,29.3-92c1.5-2.2,3.1-4.3,4.8-6.4c1.1-1.5,2.3-2.9,3.5-4.3
	c55.9-66.2,154.5-75.6,221.8-21.1c1.9,1.5,3.8,3.2,5.6,4.8c1.5,1.3,2.9,2.6,4.3,4c28,26.8,45.2,62.9,48.5,101.5
	C1431,242.7,1431.2,247.1,1431.2,251.6z"/>
<path class="st1" d="M1146.9,153.3c0.1,0,0.2,0.1,0.2,0.1c0.9,0.7-0.2,2.1-0.1,3.2c0.2,1.4,2.1,1.7,3.5,1.9c1.4,0.2,3.3,1.3,2.6,2.6
	c-3.6,1.2-7.3,0-11-1.4c-19.1,26.9-29.3,59-29.3,92c0,3.4,0.1,6.8,0.3,10.2c0.3,0.2,0.6,0.4,1,0.5c1.1,0.4,2.3,0.3,3.3,0.9
	c0.8,0.5,1.3,1.3,2.1,1.7c2.3,1.2,5.4-1.1,7.5,0.3c0.5,0.5,1.1,1,1.5,1.6c1.9,1.7,5.2,0.6,7.4,1.8c1.5,0.8,2.2,2.4,3,3.9
	c1.9,3.7,5.1,7.3,9.2,7.6c1.3-0.1,2.6,0,3.9,0.1c1.3,0.3,2.5,1.4,2.3,2.7c-0.4,2.2,0.7,4.6,0.4,6.9c-0.5,4.1-6.3,5.8-6.8,9.9
	c0,0.9-0.1,1.8-0.2,2.7c-0.3,1.1-1.1,1.9-1.3,3c-0.5,2,0.9,4,2.5,5.3c1.6,1.4,3.5,2.5,4.3,4.4c0.9,2,0.5,4.3,0.8,6.5
	c0.6,4.8,4.8,8.3,9,10.5c1.4,0.6,2.6,1.4,3.5,2.6c1.1,1.6,1,3.6,1.3,5.5c0.9,4.6,4.7,8.4,4.9,13c0.1,3.3-1.8,6.3-2.9,9.5
	c-1.1,3.3-1.5,6.8-1,10.2c6.2,5.2,12.7,10,19.6,14.2c0.4-0.6,0.6-1.2,0.8-1.8c0.3-1.5-0.4-3-1.7-3.7c1.2-0.4,2.2-1.1,3.1-2
	c0.9-0.9,1.1-2.3,0.6-3.4c1.9,0.2,4.2,0.4,5.4-1.1c1-1.2,0.9-2.9,0.5-4.4c-0.5-1.4-0.9-2.9-1.1-4.5c4.4,0.2,8.8,0.1,13.2-0.4
	c-0.6-2.1-2.1-4-4-5c2-0.3,3.8-2.7,4.4-4.6c0.5-2,0.6-4,0.1-6c-0.2-0.5-0.2-1-0.1-1.6c0.3-0.7,0.9-1.2,1.6-1.5
	c3.3-1.9,6.6-3.8,9.9-5.7c0.6-0.3,1.1-0.7,1.6-1.2c1-1.2,0.9-3.1,0.3-4.6s-1.4-2.9-1.6-4.5c-0.6-4.7,4.5-8.1,6.2-12.6
	c0.6-1.8,0.9-3.6,0.9-5.5c0.1-2,0.2-4.3-1.4-5.6c-1.5-1.2-3.8-1-5.3-2.1c-1.4-1.1-1.9-3.1-3.5-4c-1.4-0.8-3.2-0.3-4.7-0.6
	c-2.8-0.6-4.5-3.8-7.3-4.1c-1.6-0.2-3.4,0.6-4.7-0.3c-1.1-0.8-1.2-2.5-1.4-3.8c-0.8-4.4-4.2-7.9-8.7-8.7c-1.6-0.3-3.4-0.2-4.8-1.1
	c-1.4-0.9-2-2.6-3.2-3.9c-1.8-2-4.6-2.8-7.2-3.4c-3.6-0.8-7.1-1.7-10.7-2.5c-1.9-0.5-4.3-0.7-5.4,1c-0.3,0.6-0.5,1.3-0.6,2
	c-0.8,2.6-3.1,4.3-5.8,4.4c-0.9-1.5-2.3-2.7-4-3.1c-1.1-0.2-2.2-0.4-3.3-0.8c-2.3-1.1-3.2-3.9-2.1-6.2c0-0.1,0.1-0.2,0.1-0.2
	c1.3-2.3,0.9-5.1-1-6.9c-1.8-1.6-4.5-2-6.9-1.9c-0.6-1.4,0.4-3,1.6-4c1.2-1,2.6-2,2.8-3.5c0.4-2.4-2.6-4.2-4.9-3.5
	c-2.3,0.7-3.8,3-4.8,5.2c-0.5,1.3-1.1,2.5-1.9,3.7c-0.8,1.1-2.2,1.7-3.6,1.5c-1.9-0.5-2.6-2.8-3.1-4.7c-0.7-2.5-1-5.2-1-7.8
	c0-2.7,1.1-5.2,2.9-7.1c3.2-2.9,8-2.6,12.3-2.2c-0.9-1.3-0.8-3,0.3-4.1c1.2-1,2.7-1.4,4.2-1c1.3,0.3,2.4,1,3.3,2
	c1.2,1.5,1.6,3.5,2.5,5.1c0.9,1.7,3,3.1,4.7,2.2c1.5-0.8,1.7-2.8,1.3-4.4c-0.4-1.6-1.1-3.2-1-4.8c0.2-3.1,3.5-5,6.4-6.3
	c2.9-1.3,6.2-3,6.6-6.2c0-0.6,0.1-1.2,0.3-1.8c0.3-0.5,0.8-0.9,1.3-1.2c8.4-5.5,16.9-11.1,26.5-14.2c0.5-0.2,0.6,0,1.1-0.1
	c0.7-0.4,0.2-1.5-0.4-2c-0.7-0.5-1.6-0.8-1.8-1.6c-0.1-0.6,0.2-1.2,0.3-1.8c0.1-1.2-0.8-2.3-2.1-2.3c-0.3,0-0.6,0-0.8,0.1
	c-0.8-1,0.7-2.2,2-2.5c3.7-1,7.5-1.6,11.3-1.8c0.4-0.1,0.9,0,1.3,0.2c0.6,0.6,0.6,1.5,0.1,2.1c-0.5,0.6-1.1,1.1-1.7,1.6
	c-1.3,1.2-1.7,3.1-1.2,4.8c2,1,4.2,2.1,6.4,1.7c2.2-0.4,4.2-2.8,3.1-4.8c-1-1.9-3.9-2.3-4.4-4.3c-0.6-2.4,2.8-4.5,2-6.8
	c-0.3-1-1.3-1.6-2.1-2.3c-1.9-1.8-2.4-4.7-1.4-7.1c-2.6,0.4-5.2-0.4-7.1-2.2c-1.7-1.7-3-4.4-5.4-4.3c-2.2,0.1-4.1,2.6-6.2,1.9
	c-0.5-0.2-1-0.6-1.5-0.4c-0.3,0.2-0.5,0.6-0.6,0.9c-0.5,2.5,0.4,5.3-1,7.5c-1.5,2.3-4.9,2.7-6.7,4.8c-1,1.1-1.4,2.7-2.3,3.9
	c-0.9,1.2-2.8,2-3.9,0.9c1.1-2.2,0.5-4.9-1.5-6.5c-1-0.7-2.1-1.2-3.2-1.6c-1.3-0.5-2.5-1.2-3.6-2c-0.6-0.3-1-0.8-1.3-1.4
	c-0.2-0.7-0.2-1.5,0.1-2.2c1.1-3.2,3.9-5.5,7.2-6c1.4-0.2,3.1-0.1,4-1.2c0.5-0.6,0.8-1.5,1.5-1.7c0.5-0.1,0.9,0,1.4,0.2
	c1.8,0.6,3.6,1.3,5.3,1.9c0.6,0.3,1.3,0.4,1.9,0.3c0.7-0.1,1.2-0.7,1.1-1.4c-0.2-0.9-1.5-1.3-1.4-2.2c0.1-0.3,0.2-0.6,0.4-0.8
	c3.9-4.2,9.5-6.4,15.2-6c0.7,1.1-0.4,2.4-1.3,3.4c-0.9,1-1.6,2.6-0.5,3.4c0.4,0.2,0.9,0.3,1.4,0.3c1.3,0.2,2.6,0.6,3.8,1.1
	c1.9,0.8,3.7,1.7,5.4,2.6c-0.3-1.2-0.2-2.4,0.1-3.5c0.4-1.2,1.6-1.8,2.8-1.5c1.1,0.4,1.6,1.8,2.7,1.9c1.5,0.2,2.1-2.1,1.5-3.4
	c-0.6-1.4-1.9-2.5-2-4.1c-0.1-1,0.3-2.3-0.5-2.9c-0.3-0.2-0.6-0.3-1-0.3c-6.8-1.2-13.6-2.5-20.4-3.7c-1.2-0.2-3-0.1-3,1.2
	c0,0.7,0.6,1.4,0.3,2c-0.3,0.7-1.2,0.6-1.9,0.9c-1.1,0.5-1.7,1.6-1.5,2.8c0.2,1.1,0.6,2.2,1.3,3.1c-1.3-0.6-3.3-0.6-4.7-1.2
	c-0.2-1.5-0.6-3.1-1.2-4.5c-0.1-0.9-0.9-1.5-1.8-1.3c-0.1,0-0.2,0-0.3,0.1c-1.8,0.3-3.5,0.5-5.3,0.8c-0.4,0-0.9,0.2-1.2,0.5
	c-0.7,0.7,0,1.9,0,2.9c-0.1,1.1-1,2.1-2.1,2.3c-1.1,0.2-2.2,0.2-3.3,0c-2.5-0.4-4.9-0.8-7.4-1.1c2.2-0.7,4.1-2,5.6-3.7
	c1-1.1,1.5-3.3,0.1-3.8c-0.4-0.1-0.8-0.1-1.3-0.1c-3.3,0-6-2.8-9.1-3.9c-1-0.4-2-0.6-3.1-0.6L1146.9,153.3z"/>
<path class="st1" d="M1431,259.7c-0.8,1-2,1.6-3.3,1.6c-3.4-0.3-4.8-5.2-8.2-5.7c-0.3-0.1-0.6,0-0.9,0.1c-0.5,0.3-0.6,0.9-0.6,1.5
	c-0.1,2.8-0.3,5.7,0.8,8.3c1.6,3.8,5.7,6.9,4.9,10.9c-4.7-2.2-7.1-7.4-8.2-12.4c-1.1-5-1.3-10.3-3.2-15c-1.5,1.9-4.6,0.3-6-1.7
	c-1.3-1.9-2.1-4.1-3.4-6.1c-1.3-1.9-3.2-3.7-5.5-3.8c-2.4-0.1-4.5,1.5-6.4,3.1c-1.6,1.2-2.9,2.7-4,4.4c-1.3,2.6-1,5.7-1,8.5
	c-0.1,3.1-0.7,6.4-2.9,8.7c-2.1,2.3-6.1,3.1-8.4,1c-1.1-1.2-1.9-2.6-2.3-4.2c-2.6-7.4-4.7-15-6.4-22.7c-0.4,1.8-1.9,4-3.4,3
	c-0.3-0.3-0.6-0.6-0.8-1c-2.8-4.6-7.8-7.4-13-9.1c-5.1-1.7-10.5-2.4-15.6-4.3c-2.8-1-5.6-2.4-8.1-4c-1.3,1.9-1.5,4.4-0.4,6.5
	c1.2,2.1,3.6,3.1,5.9,2.5c1.1-0.4,2.1-1.1,3.2-1.5c1.1-0.4,2.6-0.2,3.1,0.9c0.5,1-0.2,2.3,0.1,3.4c0.5,1.6,3,1.8,3.9,3.3
	c0.5,1.2,0.2,2.6-0.8,3.5c-1,0.8-2.1,1.5-3.3,2c-3.6,2-6.2,5.5-9.4,8.2c-3.2,2.7-7.7,4.7-11.5,2.9c0.9-4.6-4.5-7.9-5.6-12.5
	c-0.3-1.5-0.2-3.1-0.6-4.6c-0.7-2.1-2.6-3.6-4.1-5.2c-3.8-4-5.8-9.3-5.6-14.8c0.1-1.9,0.4-3.8,0-5.6c-0.4-1.8-1.9-3.6-3.8-3.5
	c-4.3,0.2-9.7,0.5-12-3.2c-0.8-1.3-1.2-3.2,0-4.2c0.9-0.6,2-0.8,3.1-0.5c3.2,0.3,6.5,0.6,9.7,1c2.3,0.2,4.7,0.4,6.7-0.8
	c1.9-1.2,2.8-4.3,1-5.7c-1.3-1-3.7-1-4.1-2.6c-0.3-1.4,1.2-2.9,0.4-4c-0.6-0.8-1.9-0.6-2.7,0c-0.7,0.7-1.4,1.4-2.2,2
	c-1.5,0.8-3.4,0-5.1-0.5c-1.7-0.5-3.9-0.6-4.7,1c-0.9,1.7,0.8,4-0.1,5.7c-1.2,2.3-5.2,1-6.9,3c-1.9,2.3,1.3,5.6,0.7,8.5
	c-1.7,0.8-3.7,0.7-5.2-0.3c-1.5-1.1-2.4-2.9-2.2-4.7c0.2-1.3,0.8-2.6,0.4-3.9c-0.5-0.9-1.3-1.7-2.3-2.1c-3.1-1.7-6.3-3.5-9.4-5.2
	c-0.9,1.6,0.2,3.6,1.6,4.9c1.4,1.2,3.1,2.1,4,3.7c1.2,2.3,0.4,5.1-1.8,6.5c-0.3,0.2-0.6,0.2-0.9,0.2c-0.3-0.2-0.5-0.5-0.6-0.8
	c-1.7-4.3-4.2-8.4-8.1-10.7c-4-2.2-9.7-1.8-12.3,2c-0.6,0.9-1,1.9-1.6,2.8c-2.9,5-9,7.4-14.8,7.2c-0.6,0-1.1-0.1-1.6-0.4
	c-0.9-0.6-0.9-2-0.7-3.1c0.2-1.6,0.4-3.2,0.6-4.8c0-1,0.4-1.9,1.1-2.6c1.1-0.8,2.6-0.3,4-0.3c2.1-0.1,3.9-1.5,4.6-3.5
	c0.6-2,0-4.2-1.6-5.6c-0.6-0.6-1.5-1.3-1.1-2.1c0.3-0.4,0.7-0.7,1.2-0.8c2.4-0.7,5-0.9,7.4-1.7c2.4-0.8,4.7-2.5,5.3-5
	c0.2-0.8,0.2-1.7,0.9-2.1c0.3-0.1,0.7-0.2,1.1-0.2c2.7-0.4,4.7-2.8,4.5-5.5c1.1-0.8,2.8-0.2,3.9,0.6c1.1,0.9,2.1,2,3.4,2.3
	c2.5,0.7,5-1.5,7.6-1.6c1.1,0,2.2,0.4,3.3,0c1.1-0.4,1.7-1.4,2.5-2.2c0.8-0.8,2.2-1.2,3-0.4c-0.2-1.6-0.4-3.1-0.6-4.7
	c2.6,0.6,5.3,0.2,7.5-1.4c-2.7-0.9-5.4-1.8-8.2-2.8c-0.3-0.1-0.6-0.2-0.8-0.4c-0.6-0.6,0-1.6,0.5-2.4c1.2-1.7,1.4-4.6-0.6-5.5
	c-1.3-0.6-2.8,0.1-4,0.8c-2,1.1-4,2.2-6,3.3c-0.2,1.1,1.2,1.8,2.1,2.5c1.4,1.3,1.6,3.4,0.3,4.9c-0.6,0.7-1.6,1.1-2.5,1.2
	c0.8,1,1.1,2.4,0.8,3.6c-1.3,0.1-2.7,0.2-4,0.3c-0.5,0.1-0.9,0-1.3-0.3c-0.4-0.4-0.4-1.1-0.5-1.6c-0.4-1.4-1.5-2.4-2.9-2.6
	c-1.4-0.2-2.8,0-4.1,0.4c-0.6,0.2-1.2,0.2-1.8,0c-0.3-0.2-0.6-0.5-0.7-0.9c-0.5-1.5-0.1-3.2,0.9-4.4c1-1.2,2.2-2.2,3.4-3.2
	c2.8-2.5,4.9-5.6,5.9-9.2c2.2-0.9,4.5-2.2,6.7-3.1c1.8-0.8,3.7-1.5,5.6-1.9c1.8-0.3,3.6-0.4,5.5-0.3c2.5,0,5,0.1,7.5,0.1
	c2.2-0.1,4.4,0.2,6.6,0.9c2,0.8,3.9,2.7,4,4.9c0.1,0.5-0.1,1-0.5,1.4c-0.3,0.2-0.6,0.2-0.9,0.2c-2.1,0.1-2.9,0.6-5,0.7
	c1.3,1.4,2.8,2.9,4.7,3.1c3.4,0.4,5.8-3,7.3-6.1c0.1,1.6,1.5,2.8,3.1,2.7c0.8-0.1,1.6-0.5,2.3-0.9c6.7-3.6,14.1-5.6,21.7-5.6
	c-0.2-1.2,0.6-2.3,1.8-2.6c1.5-0.3,2.9,1,3.7,2.4c0.7,1.4,1.2,3,2.4,4c1.2,1,3.5,1,3.9-0.5c0.5-1.4-1.1-2.7-2.3-3.5
	c-1.3-0.8-2.6-2.4-1.7-3.7c6.4-1.4,12.8-2.8,19.3-3.1c1.1,0,2.2-0.2,3.2-0.6c1.1-0.4,1.7-1.5,1.5-2.7c-2.9,0.7-6-0.5-7.7-2.9
	c6.7-0.6,13.7-1,20.2,0.5l5.6,4.8c-1.1,1.1-2.5,2.2-1.7,3.3c0.5,0.5,1.3,0.8,2,0.7c1.4,0,2.7,0.1,4.1,0.1
	c28,26.8,45.2,62.9,48.5,101.5c-2.3-0.1-4.4,2.8-4.1,5.3c0.3,2.9,2.4,5.3,4,7.8c0.2,0.4,0.5,0.8,0.7,1.3L1431,259.7z"/>
<path class="st4" d="M1590.2,112.8c-5.9-5.8-15.4-5.7-21.2,0.3s-14.1,35.9-14.1,35.9s29.8-9,35.6-14.9
	C1596.2,128.1,1596.1,118.6,1590.2,112.8z M1574.6,128.8c-2.8-2.7-2.8-7.1-0.1-9.8c2.7-2.8,7.1-2.8,9.8-0.1c2.8,2.7,2.8,7.1,0.1,9.8
	c0,0,0,0,0,0C1581.7,131.4,1577.3,131.5,1574.6,128.8z"/>
<circle class="st5" cx="2230" cy="56.1" r="7.4"/>
<circle class="st6" cx="1457.9" cy="451.9" r="4.4"/>
<circle class="st6" cx="938.5" cy="456.8" r="8"/>
<circle class="st6" cx="317.4" cy="79.8" r="7.4"/>
<circle class="st5" cx="981.4" cy="329.4" r="5.1"/>
<circle class="st5" cx="2054.4" cy="308.9" r="10.9"/>
<circle class="st5" cx="1208.5" cy="47.1" r="7.9"/>
<circle class="st5" cx="1233.5" cy="475" r="4.5"/>
<circle class="st6" cx="2092.6" cy="163.2" r="5.2"/>
<circle class="st6" cx="916.6" cy="178.6" r="10.2"/>
<circle class="st5" cx="2200.5" cy="418.2" r="7.4"/>
<circle class="st5" cx="2003.6" cy="435.9" r="10.3"/>
<circle class="st5" cx="399.6" cy="300.5" r="5.4"/>
<circle class="st5" cx="512.7" cy="96.6" r="12.5"/>
<circle class="st6" cx="553.4" cy="359.8" r="9.6"/>
</svg>
