<?xml version="1.0" encoding="utf-8"?>
<!-- Generator: Adobe Illustrator 19.0.0, SVG Export Plug-In . SVG Version: 6.00 Build 0)  -->
<svg version="1.1" id="Layer_1" xmlns="http://www.w3.org/2000/svg" xmlns:xlink="http://www.w3.org/1999/xlink" x="0px" y="0px"
	 viewBox="0 0 344 319.7" style="enable-background:new 0 0 344 319.7;" xml:space="preserve">
<style type="text/css">
	.st0{fill:#FCC911;}
</style>
<g>
	<path class="st0" d="M0.8,160.8c0-37.3,0-74.6,0-111.9c0-5.2,0-10.4,0.1-15.6C1.8,10,7.5,0.8,23.2,0.6c41.3-0.6,82.7-0.6,124-0.5
		c13,0.1,18.6,8.5,19.6,27.7c0.3,6.8,0.3,13.6,0.1,20.4c-0.8,20.3-6.5,28.4-20.3,28.5c-23.9,0.2-47.9,0.1-71.8,0.1
		c-5.4,0-10.9,0.3-16.3-0.1c-4.4-0.3-5.8,2.5-5.6,8.6c0.2,9.1,0.2,18.2,0,27.2c-0.2,6.7,1.6,9.2,6.1,9.1c13.9-0.3,27.8-0.1,41.8-0.1
		c3.3,0,6.5-0.1,9.8,0.2c8.2,0.7,17.7-0.3,21.5,13.4c5,18,5.3,36.9-1.8,54.2c-3.3,8.2-9.6,9.4-15.7,9.5c-17.8,0.2-35.7,0.3-53.5,0.4
		c-8.7,0.1-8.7,0-8.7,13.5c0,24.6,0.1,49.3-0.1,73.9c-0.1,21.8-4.4,28.8-18.8,32.2c-2.1,0.5-4.3,0.8-6.5,0.8
		c-19.4,0.2-26-9.4-26.1-38.3C0.8,241.2,0.8,201,0.8,160.8z"/>
	<path class="st0" d="M214.2,224.7c-10.3-6.4-19.2-12.2-30.1-7.3c-10.5,4.8-21.7,6.8-32.6,8.9c-2.5,0.5-5.4-3.3-8.1-5.1
		c2.2-3,4.2-7.2,6.8-8.7c6.9-4,13.9-7.5,21.1-10c6.1-2.2,10.7-6.2,13.3-15.7c-6.3-15.2-13-30.8-19.2-46.7c-1.6-4.2-1.8-9.6-2.6-14.5
		c4.7-0.4,9.5-1.4,14.2-0.7c1.9,0.3,3.7,4.2,5.5,6.6c9.3,13.2,18.6,26.3,27.6,39.9c3.4,5.1,6.9,7.1,11.6,6.7
		c19.3-1.7,38.6-2.8,57.9-4.9c2.7-0.3,6-3.9,7.6-7.5c6.3-14.2,12-29.1,18.1-43.6c2.7-6.3,13.5-10.1,17.5-5.8
		c1.4,1.5,2.1,6.1,1.9,9.2c-0.4,6-1.6,11.8-2.5,18.1c6.7,3,15.2,1.6,15.5,15.7c0.2,9.6-3.9,15.2-10.8,16.6c4.8,6,9.5,10.8,13.4,16.6
		c6.1,9.2,4.9,19.5-2.8,25.1c-7.4,5.4-14.8,11.2-22.7,14.8c-5.8,2.6-12.3,2.5-18.5,2.6c-9.1,0.1-18.2-0.9-27.2-0.7
		c-1.5,0-3.9,3.8-4.2,6.3c-0.9,8-2.7,14.8-8.5,16.4c-6.8,2-13.5,0.9-18.7-7.2c-3.4-5.3-11.2-7.9-15.1-3.7c-1.2,1.3-1.6,4.8-1.7,7.4
		c-0.3,12.4-4.5,18.6-12.8,17.4c-5.9-0.9-11.8-1.7-16.2-10.2c-1.6-3.2-6.7-3.9-10.1-3.5c-14.7,1.7-29.3,4.3-44,6.3
		c-2.5,0.3-5.3-0.6-7.6-2c-1.5-0.9-2.4-3.9-3.6-5.9c1.6-1.8,3-4.8,4.7-5.3c26.8-8.1,53.7-15.9,80.5-23.8
		C212.1,226.3,212.5,225.9,214.2,224.7z"/>
</g>
</svg>
