<?xml version="1.0" encoding="utf-8"?>
<!-- Generator: Adobe Illustrator 19.0.0, SVG Export Plug-In . SVG Version: 6.00 Build 0)  -->
<svg version="1.1" id="Layer_1" xmlns="http://www.w3.org/2000/svg" xmlns:xlink="http://www.w3.org/1999/xlink" x="0px" y="0px"
	 viewBox="-133 237.3 371 319.7" style="enable-background:new -133 237.3 371 319.7;" xml:space="preserve">
<style type="text/css">
	.st0{fill:#3F3D56;}
</style>
<g>
	<path class="st0" d="M-132.2,398.1c0-37.3,0-74.6,0-111.9c0-5.2,0-10.4,0.1-15.6c1-23.3,7.1-32.5,24-32.7
		c44.5-0.6,89.2-0.6,133.7-0.5c14,0.1,20.1,8.5,21.1,27.7c0.3,6.8,0.3,13.6,0.1,20.4c-0.9,20.3-7,28.4-21.9,28.5
		c-25.8,0.2-51.6,0.1-77.4,0.1c-5.8,0-11.8,0.3-17.6-0.1c-4.7-0.3-6.3,2.5-6,8.6c0.2,9.1,0.2,18.2,0,27.2c-0.2,6.7,1.7,9.2,6.6,9.1
		c15-0.3,30-0.1,45.1-0.1c3.6,0,7-0.1,10.6,0.2c8.8,0.7,19.1-0.3,23.2,13.4c5.4,18,5.7,36.9-1.9,54.2c-3.6,8.2-10.3,9.4-16.9,9.5
		c-19.2,0.2-38.5,0.3-57.7,0.4c-9.4,0.1-9.4,0-9.4,13.5c0,24.6,0.1,49.3-0.1,73.9c-0.1,21.8-4.7,28.8-20.3,32.2
		c-2.3,0.5-4.6,0.8-7,0.8c-20.9,0.2-28-9.4-28.1-38.3C-132.2,478.5-132.2,438.3-132.2,398.1z"/>
	<path class="st0" d="M97.9,462c-11.1-6.4-20.7-12.2-32.5-7.3c-11.3,4.8-23.4,6.8-35.1,8.9c-2.7,0.5-5.8-3.3-8.7-5.1
		c2.4-3,4.5-7.2,7.3-8.7c7.4-4,15-7.5,22.7-10c6.6-2.2,11.5-6.2,14.3-15.7c-6.8-15.2-14-30.8-20.7-46.7c-1.7-4.2-1.9-9.6-2.8-14.5
		c5.1-0.4,10.2-1.4,15.3-0.7c2,0.3,4,4.2,5.9,6.6c10,13.2,20.1,26.3,29.8,39.9c3.7,5.1,7.4,7.1,12.5,6.7c20.8-1.7,41.6-2.8,62.4-4.9
		c2.9-0.3,6.5-3.9,8.2-7.5c6.8-14.2,12.9-29.1,19.5-43.6c2.9-6.3,14.6-10.1,18.9-5.8c1.5,1.5,2.3,6.1,2,9.2
		c-0.4,6-1.7,11.8-2.7,18.1c7.2,3,16.4,1.6,16.7,15.7c0.2,9.6-4.2,15.2-11.6,16.6c5.2,6,10.2,10.8,14.4,16.6
		c6.6,9.2,5.3,19.5-3,25.1c-8,5.4-16,11.2-24.5,14.8c-6.3,2.6-13.3,2.5-19.9,2.6c-9.8,0.1-19.6-0.9-29.3-0.7c-1.6,0-4.2,3.8-4.5,6.3
		c-1,8-2.9,14.8-9.2,16.4c-7.3,2-14.6,0.9-20.2-7.2c-3.7-5.3-12.1-7.9-16.3-3.7c-1.3,1.3-1.7,4.8-1.8,7.4
		c-0.3,12.4-4.9,18.6-13.8,17.4c-6.4-0.9-12.7-1.7-17.5-10.2c-1.7-3.2-7.2-3.9-10.9-3.5c-15.8,1.7-31.6,4.3-47.4,6.3
		c-2.7,0.3-5.7-0.6-8.2-2c-1.6-0.9-2.6-3.9-3.9-5.9c1.7-1.8,3.2-4.8,5.1-5.3c28.9-8.1,57.9-15.9,86.8-23.8
		C95.6,463.6,96,463.2,97.9,462z"/>
</g>
</svg>
