<?xml version="1.0" encoding="utf-8"?>
<!-- Generator: Adobe Illustrator 19.0.0, SVG Export Plug-In . SVG Version: 6.00 Build 0)  -->
<svg version="1.1" id="Layer_1" xmlns="http://www.w3.org/2000/svg" xmlns:xlink="http://www.w3.org/1999/xlink" x="0px" y="0px"
	 viewBox="0 0 500 500" style="enable-background:new 0 0 500 500;" xml:space="preserve">
<style type="text/css">
	.st0{fill:#FBC913;}
</style>
<g id="XMLID_1_">
	<g>
		<path class="st0" d="M29.6,348.2c0,0,0.8,1.7,2,4.2c1.2,2.5,2.9,5.9,4.6,9.2c3.5,6.6,7.4,13,7.4,13l-0.4,0.2c0,0-1-1.6-2.4-4
			c-1.4-2.4-3.3-5.7-5-9c-1.7-3.3-3.4-6.7-4.6-9.2c-1.2-2.5-2-4.3-2-4.3L29.6,348.2z"/>
		<path class="st0" d="M67.2,406.8c0,0,4.9,5.7,10.2,10.9c2.6,2.6,5.4,5.2,7.4,7.1c2.1,1.9,3.5,3.1,3.5,3.1l-0.8,0.8
			c0,0-1.4-1.3-3.4-3.2c-2.1-1.9-4.7-4.6-7.4-7.3c-2.6-2.7-5.2-5.5-7-7.6c-1.9-2.1-3.1-3.5-3.1-3.5L67.2,406.8z"/>
		<path class="st0" d="M120.3,451.8c0,0,1.6,1,4,2.4c2.4,1.4,5.6,3.3,8.9,5.1c3.3,1.8,6.6,3.5,9.1,4.7c2.5,1.2,4.2,2,4.2,2l-0.9,2
			c0,0-1.7-0.8-4.2-2.1c-2.5-1.3-5.9-3-9.1-4.9c-3.3-1.8-6.5-3.8-8.9-5.2c-2.4-1.5-4-2.5-4-2.5L120.3,451.8z"/>
		<path class="st0" d="M183.9,479.6c0,0,1.8,0.5,4.5,1.2c2.7,0.7,6.3,1.5,10,2.3c3.6,0.8,7.3,1.4,10.1,1.9c2.8,0.5,4.6,0.7,4.6,0.7
			l-0.5,3.2c0,0-1.9-0.3-4.7-0.8c-2.8-0.5-6.5-1.2-10.2-2c-3.7-0.8-7.3-1.7-10.1-2.5c-2.7-0.7-4.5-1.3-4.5-1.3L183.9,479.6z"/>
		<path class="st0" d="M252.7,488.3c0,0,1.9,0,4.7-0.1c2.8-0.1,6.5-0.3,10.2-0.6c7.4-0.6,14.8-1.6,14.8-1.6l0.5,3.6
			c0,0-1.9,0.3-4.7,0.6c-2.8,0.4-6.6,0.7-10.3,1c-3.8,0.3-7.5,0.5-10.4,0.6c-2.8,0.1-4.7,0.1-4.7,0.1L252.7,488.3z"/>
		<path class="st0" d="M321,477.2c0,0,1.8-0.6,4.4-1.4c2.6-0.9,6.2-2.1,9.6-3.5c3.5-1.3,6.9-2.8,9.5-3.9c2.6-1.1,4.3-1.9,4.3-1.9
			l1.4,3c0,0-1.7,0.8-4.3,1.9c-2.6,1.1-6.1,2.6-9.6,4c-3.5,1.4-7.1,2.7-9.8,3.6c-2.7,0.9-4.5,1.5-4.5,1.5L321,477.2z"/>
		<path class="st0" d="M383.6,447.3c0,0,1.6-1,3.9-2.6c2.3-1.6,5.3-3.8,8.3-6c3-2.3,5.9-4.6,8-6.4c2.1-1.8,3.6-3,3.6-3l1.7,1.9
			c0,0-1.4,1.3-3.6,3.1c-2.1,1.8-5.1,4.2-8,6.6c-3,2.3-6,4.6-8.3,6.2c-2.3,1.7-3.9,2.7-3.9,2.7L383.6,447.3z"/>
		<path class="st0" d="M435,400.7c0,0,1.2-1.4,2.9-3.6c1.7-2.2,4-5.2,6.2-8.2c2.2-3,4.3-6.1,5.8-8.4c1.5-2.3,2.5-3.9,2.5-3.9
			l1.4,0.9c0,0-1,1.6-2.5,4c-1.5,2.4-3.6,5.5-5.8,8.6c-2.2,3.1-4.4,6.1-6.2,8.3c-1.7,2.2-2.9,3.7-2.9,3.7L435,400.7z"/>
		<path class="st0" d="M470.9,341.2c0,0,0.7-1.7,1.8-4.3c1-2.6,2.4-6.1,3.6-9.6c1.2-3.5,2.4-7.1,3.2-9.8c0.8-2.7,1.3-4.5,1.3-4.5
			l1.2,0.3c0,0-0.5,1.8-1.3,4.5c-0.8,2.7-1.9,6.3-3.1,9.9c-1.2,3.6-2.5,7.1-3.6,9.7c-1,2.6-1.7,4.4-1.7,4.4L470.9,341.2z"/>
		<path class="st0" d="M488.1,273.7c0,0,0.2-1.9,0.4-4.7c0.2-2.8,0.5-6.5,0.6-10.3c0.1-3.7,0.2-7.5,0.2-10.3c0-2.8-0.1-4.7-0.1-4.7
			l1.4,0c0,0,0,1.9,0,4.7c0,2.8-0.1,6.6-0.2,10.3c-0.2,3.8-0.4,7.5-0.7,10.3c-0.2,2.8-0.4,4.7-0.4,4.7L488.1,273.7z"/>
		<path class="st0" d="M485,204.3c0,0-0.4-1.8-0.9-4.6c-0.6-2.7-1.4-6.4-2.4-10c-0.9-3.6-2-7.2-2.8-9.9c-0.8-2.7-1.4-4.4-1.4-4.4
			l1.8-0.6c0,0,0.6,1.8,1.4,4.5c0.8,2.7,1.8,6.3,2.7,10c0.9,3.7,1.7,7.3,2.3,10.1c0.6,2.8,0.9,4.6,0.9,4.6L485,204.3z"/>
		<path class="st0" d="M462,138.7c0,0-0.9-1.7-2.2-4.1c-1.3-2.5-3.2-5.7-5.1-8.9c-1.9-3.2-3.9-6.3-5.5-8.7c-1.6-2.3-2.6-3.9-2.6-3.9
			l2.2-1.5c0,0,1.1,1.6,2.6,3.9c1.5,2.4,3.5,5.6,5.5,8.8c1.9,3.2,3.7,6.5,5.1,9c1.3,2.5,2.2,4.2,2.2,4.2L462,138.7z"/>
		<path class="st0" d="M421.3,82.6c0,0-1.3-1.4-3.3-3.3c-2-2-4.7-4.5-7.4-7c-2.8-2.5-5.6-4.9-7.7-6.7c-2.1-1.8-3.6-2.9-3.6-2.9
			l2.1-2.6c0,0,1.5,1.2,3.6,3c2.2,1.8,5,4.3,7.8,6.9c2.8,2.6,5.5,5.2,7.5,7.2c2,2,3.3,3.4,3.3,3.4L421.3,82.6z"/>
		<path class="st0" d="M366.2,40.5c0,0-1.6-0.9-4.1-2.2c-2.5-1.3-5.8-3-9.1-4.6c-3.4-1.6-6.8-3.1-9.3-4.2c-2.6-1.1-4.3-1.8-4.3-1.8
			l1.4-3.5c0,0,1.8,0.7,4.4,1.8c2.6,1.1,6,2.7,9.4,4.3c3.4,1.6,6.8,3.4,9.3,4.7c2.5,1.4,4.1,2.3,4.1,2.3L366.2,40.5z"/>
		<path class="st0" d="M301.6,15.8c0,0-1.8-0.4-4.6-1c-2.7-0.6-6.4-1.2-10.1-1.8c-3.7-0.6-7.4-1.1-10.1-1.4
			c-2.8-0.3-4.6-0.5-4.6-0.5l0.4-4c0,0,1.9,0.2,4.7,0.5c2.8,0.3,6.6,0.8,10.3,1.5c3.7,0.6,7.4,1.3,10.2,1.9c2.8,0.6,4.6,1,4.6,1
			L301.6,15.8z"/>
		<path class="st0" d="M232.6,10.6c0,0-1.9,0.1-4.6,0.4c-2.8,0.2-6.5,0.6-10.2,1.1c-3.7,0.5-7.4,1.1-10.1,1.6
			c-2.7,0.5-4.6,0.9-4.6,0.9l-0.8-4.2c0,0,1.9-0.4,4.7-0.9c2.8-0.5,6.5-1.1,10.3-1.6c3.8-0.5,7.5-0.9,10.3-1.1
			c2.8-0.2,4.7-0.4,4.7-0.4L232.6,10.6z"/>
		<path class="st0" d="M165,25.4c0,0-0.4,0.2-1.2,0.5c-0.8,0.3-1.8,0.7-3.1,1.2c-2.6,1-6,2.5-9.4,4l-0.6,0.3l-0.6,0.3
			c-0.4,0.2-0.8,0.4-1.3,0.6c-0.8,0.4-1.6,0.8-2.4,1.2c-1.6,0.8-3.1,1.5-4.3,2.1c-2.5,1.2-4.2,2-4.2,2l-1.8-3.8c0,0,1.7-0.8,4.2-2.1
			c1.3-0.6,2.7-1.3,4.3-2.1c0.8-0.4,1.6-0.8,2.4-1.2c0.4-0.2,0.8-0.4,1.3-0.6l0.7-0.3l0.6-0.3c3.4-1.6,6.9-3,9.6-4.1
			c1.3-0.5,2.4-0.9,3.2-1.2c0.8-0.3,1.2-0.5,1.2-0.5L165,25.4z"/>
		<path class="st0" d="M104.4,58.7c0,0-1.5,1.1-3.7,2.8c-2.2,1.7-5.1,4.1-7.9,6.5c-2.8,2.4-5.6,4.9-7.6,6.8c-2,1.9-3.4,3.2-3.4,3.2
			l-2.7-2.8c0,0,1.3-1.3,3.4-3.3c2.1-2,4.8-4.5,7.7-7c2.9-2.5,5.8-4.9,8-6.6c2.2-1.8,3.7-2.9,3.7-2.9L104.4,58.7z"/>
		<path class="st0" d="M55.8,107.9c0,0-1.1,1.5-2.7,3.8c-1.6,2.3-3.7,5.4-5.7,8.5c-2,3.1-4,6.3-5.4,8.7c-1.4,2.4-2.3,4-2.3,4
			l-2.8-1.6c0,0,0.9-1.7,2.3-4.1c1.4-2.5,3.3-5.7,5.3-8.9c2-3.2,4.1-6.3,5.7-8.7c1.6-2.3,2.7-3.9,2.7-3.9L55.8,107.9z"/>
		<path class="st0" d="M23,169c0,0-0.6,1.8-1.6,4.4c-0.9,2.6-2.1,6.2-3.1,9.8c-1.1,3.6-2,7.2-2.7,9.9c-0.7,2.7-1.1,4.5-1.1,4.5
			l-2-0.4c0,0,0.4-1.8,1-4.6c0.6-2.8,1.5-6.4,2.5-10c1-3.6,2.1-7.2,3-9.9c0.9-2.7,1.5-4.5,1.5-4.5L23,169z"/>
		<path class="st0" d="M9,237c0,0-0.1,1.9-0.2,4.7c-0.1,2.8-0.2,6.5-0.2,10.3c0,3.7,0.1,7.5,0.3,10.3c0.1,2.8,0.3,4.7,0.3,4.7
			L8.1,267c0,0-0.2-1.9-0.3-4.7c-0.2-2.8-0.4-6.6-0.4-10.3c-0.1-3.8,0-7.5,0-10.3c0.1-2.8,0.2-4.7,0.2-4.7L9,237z"/>
		<path class="st0" d="M15.2,306.4c0,0,0.4,1.8,1.2,4.5c0.7,2.7,1.7,6.3,2.9,9.9c1.1,3.6,2.3,7.1,3.3,9.8c1,2.6,1.6,4.4,1.6,4.4
			l-0.4,0.2c0,0-0.7-1.7-1.6-4.4c-1-2.6-2.2-6.2-3.3-9.8c-1.1-3.6-2.2-7.2-2.9-9.9c-0.7-2.7-1.2-4.5-1.2-4.5L15.2,306.4z"/>
	</g>
</g>
</svg>
