<?xml version="1.0" encoding="utf-8"?>
<!-- Generator: Adobe Illustrator 19.0.0, SVG Export Plug-In . SVG Version: 6.00 Build 0)  -->
<svg version="1.1" id="Layer_1" xmlns="http://www.w3.org/2000/svg" xmlns:xlink="http://www.w3.org/1999/xlink" x="0px" y="0px"
	 viewBox="0 0 500 500" style="enable-background:new 0 0 500 500;" xml:space="preserve">
<style type="text/css">
	.st0{fill:#FCCA14;}
</style>
<g id="XMLID_1_">
	<g id="XMLID_32_">
		<path id="XMLID_54_" class="st0" d="M164.7,475.2c0,0,1.8,0.7,4.4,1.6c2.6,0.9,6.2,2.1,9.8,3.2c7.2,2.2,14.4,4,14.4,4l-0.1,0.5
			c0,0-1.8-0.4-4.5-1.2c-2.7-0.7-6.3-1.7-9.9-2.9c-3.6-1.1-7.1-2.3-9.8-3.3c-2.7-1-4.4-1.6-4.4-1.6L164.7,475.2z"/>
		<path id="XMLID_53_" class="st0" d="M232.8,490.1c0,0,7.5,0.5,15,0.5c3.7,0,7.5-0.1,10.3-0.2c2.8-0.1,4.7-0.2,4.7-0.2l0.1,1.1
			c0,0-1.9,0.1-4.7,0.2c-2.8,0.1-6.6,0.1-10.3,0c-3.8-0.1-7.5-0.2-10.3-0.4c-2.8-0.2-4.7-0.3-4.7-0.3L232.8,490.1z"/>
		<path id="XMLID_52_" class="st0" d="M302.1,484.4c0,0,1.8-0.4,4.5-1.1c2.7-0.7,6.3-1.7,9.9-2.7c3.6-1.1,7.1-2.2,9.8-3.1
			c2.6-0.9,4.4-1.6,4.4-1.6l0.7,2.1c0,0-1.8,0.6-4.5,1.5c-2.7,0.9-6.3,2-9.9,3c-3.6,1-7.3,1.9-10,2.6c-2.8,0.6-4.6,1-4.6,1
			L302.1,484.4z"/>
		<path id="XMLID_51_" class="st0" d="M366.8,459.2c0,0,1.6-0.9,4-2.3c2.4-1.4,5.6-3.4,8.7-5.4c3.1-2,6.2-4.1,8.5-5.8
			c2.3-1.6,3.8-2.7,3.8-2.7l1.9,2.6c0,0-1.5,1.1-3.8,2.7c-2.3,1.6-5.5,3.7-8.6,5.8c-3.2,2-6.4,4-8.9,5.4c-2.5,1.4-4.1,2.3-4.1,2.3
			L366.8,459.2z"/>
		<path id="XMLID_50_" class="st0" d="M421.6,416.8c0,0,1.3-1.3,3.2-3.4c1.9-2,4.4-4.8,6.8-7.6c4.8-5.7,9.3-11.6,9.3-11.6l2.9,2.2
			c0,0-1.1,1.5-2.9,3.7c-1.7,2.2-4.1,5.2-6.6,8c-2.5,2.9-5,5.7-7,7.7c-1.9,2.1-3.3,3.4-3.3,3.4L421.6,416.8z"/>
		<path id="XMLID_49_" class="st0" d="M462.1,360.6c0,0,0.9-1.7,2.1-4.1c1.3-2.5,2.9-5.9,4.4-9.3c1.5-3.4,3-6.8,4-9.4
			c1-2.6,1.7-4.3,1.7-4.3l3.1,1.2c0,0-0.7,1.8-1.7,4.4c-1,2.6-2.5,6.1-4,9.6c-1.5,3.5-3.1,6.9-4.4,9.4c-1.3,2.6-2.1,4.2-2.1,4.2
			L462.1,360.6z"/>
		<path id="XMLID_48_" class="st0" d="M485.3,295.3c0,0,0.4-1.8,0.9-4.6c0.5-2.8,1.1-6.4,1.6-10.1c0.5-3.7,0.9-7.4,1.2-10.2
			c0.3-2.8,0.4-4.6,0.4-4.6l2.5,0.2c0,0-0.1,1.9-0.3,4.7c-0.2,2.8-0.6,6.6-1,10.3c-0.5,3.7-1,7.5-1.5,10.3c-0.5,2.8-0.8,4.6-0.8,4.6
			L485.3,295.3z"/>
		<path id="XMLID_47_" class="st0" d="M488.8,226c0,0-0.2-1.9-0.5-4.6c-0.3-2.8-0.8-6.5-1.4-10.2c-0.6-3.7-1.3-7.4-1.8-10.1
			c-0.6-2.7-1-4.6-1-4.6l1.6-0.4c0,0,0.4,1.8,1,4.6c0.6,2.8,1.3,6.5,2,10.2c0.6,3.7,1.2,7.4,1.5,10.2c0.4,2.8,0.6,4.7,0.6,4.7
			L488.8,226z"/>
		<path id="XMLID_46_" class="st0" d="M472.2,158.5c0,0-0.7-1.7-1.8-4.3c-1.1-2.6-2.6-6-4.3-9.4c-1.6-3.4-3.3-6.7-4.7-9.2
			c-1.3-2.5-2.3-4.1-2.3-4.1l1.1-0.6c0,0,0.9,1.6,2.3,4.1c1.4,2.5,3.1,5.8,4.7,9.2c1.7,3.4,3.2,6.8,4.3,9.4c1.1,2.6,1.8,4.3,1.8,4.3
			L472.2,158.5z"/>
		<path id="XMLID_45_" class="st0" d="M436.8,98.6c0,0-1.2-1.5-3-3.6c-1.8-2.1-4.3-5-6.8-7.7c-2.5-2.8-5.1-5.4-7.1-7.4
			c-2-2-3.3-3.3-3.3-3.3l1-1c0,0,1.4,1.3,3.4,3.3c2,2,4.6,4.7,7.1,7.5c2.5,2.8,5,5.6,6.8,7.8c1.8,2.2,3,3.6,3,3.6L436.8,98.6z"/>
		<path id="XMLID_44_" class="st0" d="M385.5,51.6c0,0-1.6-1.1-3.9-2.6c-2.4-1.5-5.5-3.5-8.7-5.4c-3.2-1.9-6.5-3.7-9-5
			c-2.5-1.3-4.1-2.2-4.1-2.2l0.9-1.7c0,0,1.7,0.9,4.2,2.2c2.5,1.3,5.8,3.2,9,5.1c3.2,1.9,6.4,4,8.8,5.5c2.4,1.6,3.9,2.6,3.9,2.6
			L385.5,51.6z"/>
		<path id="XMLID_43_" class="st0" d="M322.9,21.5c0,0-1.8-0.6-4.5-1.4c-2.7-0.8-6.3-1.8-9.9-2.7c-3.6-0.9-7.3-1.7-10-2.2
			c-2.7-0.6-4.6-0.9-4.6-0.9l0.5-2.6c0,0,1.9,0.4,4.6,0.9c2.8,0.6,6.4,1.4,10.1,2.4c3.6,0.9,7.3,2,10,2.8c2.7,0.8,4.5,1.4,4.5,1.4
			L322.9,21.5z"/>
		<path id="XMLID_42_" class="st0" d="M254.4,10.5c0,0-1.9,0-4.7,0c-2.8,0-6.5,0.1-10.2,0.3c-3.7,0.2-7.4,0.5-10.2,0.7
			c-2.8,0.3-4.6,0.5-4.6,0.5l-0.4-3.3c0,0,1.9-0.2,4.7-0.4c2.8-0.2,6.6-0.5,10.4-0.6c3.8-0.2,7.5-0.2,10.4-0.2
			c2.8,0,4.7,0.1,4.7,0.1L254.4,10.5z"/>
		<path id="XMLID_41_" class="st0" d="M185.7,19.6c0,0-1.8,0.5-4.5,1.3c-2.7,0.8-6.2,1.9-9.7,3.2c-3.5,1.2-7,2.6-9.6,3.6
			c-2.6,1-4.3,1.8-4.3,1.8l-1.4-3.4c0,0,1.7-0.7,4.4-1.8c2.6-1,6.2-2.4,9.7-3.6c3.6-1.2,7.2-2.4,9.9-3.2c2.7-0.8,4.5-1.3,4.5-1.3
			L185.7,19.6z"/>
		<path id="XMLID_40_" class="st0" d="M122.5,47.8c0,0-1.6,1-3.9,2.5c-2.3,1.5-5.4,3.6-8.4,5.8c-3,2.2-6,4.4-8.2,6.2
			c-2.2,1.7-3.6,2.9-3.6,2.9l-2.6-3.1c0,0,1.5-1.2,3.7-2.9c2.2-1.8,5.2-4,8.3-6.2c3.1-2.2,6.2-4.3,8.6-5.9c2.4-1.6,4-2.5,4-2.5
			L122.5,47.8z"/>
		<path id="XMLID_39_" class="st0" d="M70,92.8c0,0-1.2,1.4-3,3.5c-1.8,2.1-4.1,5-6.4,8c-2.3,2.9-4.5,6-6,8.2
			c-1.6,2.3-2.6,3.8-2.6,3.8l-3.5-2.4c0,0,1.1-1.6,2.7-3.9c1.6-2.3,3.9-5.4,6.2-8.4c2.3-3,4.7-5.9,6.5-8.1c1.8-2.2,3.1-3.6,3.1-3.6
			L70,92.8z"/>
		<path id="XMLID_38_" class="st0" d="M32.6,151c0,0-0.2,0.4-0.5,1.2c-0.3,0.7-0.8,1.8-1.4,3.1c-1.1,2.6-2.5,6-3.9,9.5l-0.2,0.7
			l-0.2,0.6c-0.2,0.4-0.3,0.9-0.5,1.3c-0.3,0.9-0.6,1.7-0.9,2.6c-0.6,1.7-1.1,3.2-1.6,4.5c-0.9,2.7-1.5,4.4-1.5,4.4l-4-1.4
			c0,0,0.6-1.8,1.5-4.4c0.5-1.3,1-2.9,1.6-4.5c0.3-0.8,0.6-1.7,0.9-2.6c0.2-0.4,0.3-0.9,0.5-1.3l0.3-0.7l0.3-0.7
			c1.3-3.5,2.8-7,3.9-9.6c0.6-1.3,1-2.4,1.4-3.1c0.3-0.8,0.5-1.2,0.5-1.2L32.6,151z"/>
		<path id="XMLID_37_" class="st0" d="M13.2,217.4c0,0-0.3,1.9-0.6,4.6c-0.3,2.8-0.7,6.5-1,10.2c-0.3,3.7-0.5,7.4-0.6,10.2
			c-0.1,2.8-0.1,4.6-0.1,4.6L7,247c0,0,0-1.9,0.1-4.7c0.1-2.8,0.2-6.6,0.5-10.4c0.3-3.8,0.7-7.5,1-10.4c0.3-2.8,0.6-4.7,0.6-4.7
			L13.2,217.4z"/>
		<path id="XMLID_36_" class="st0" d="M13.5,286.6c0,0,0.3,1.9,0.7,4.6c0.5,2.8,1.2,6.4,1.9,10.1c0.8,3.6,1.7,7.3,2.4,10
			c0.7,2.7,1.2,4.5,1.2,4.5l-3.1,0.9c0,0-0.5-1.8-1.3-4.5c-0.7-2.7-1.7-6.4-2.5-10.1c-0.8-3.7-1.6-7.4-2.1-10.2
			c-0.5-2.8-0.8-4.6-0.8-4.6L13.5,286.6z"/>
		<path id="XMLID_35_" class="st0" d="M33.5,353c0,0,0.8,1.7,2,4.2c1.2,2.5,2.9,5.8,4.7,9.1c1.8,3.3,3.6,6.5,5.1,8.9
			c1.4,2.4,2.4,4,2.4,4l-1.7,1.1c0,0-1-1.6-2.5-4c-1.5-2.4-3.4-5.6-5.3-8.9c-1.9-3.3-3.6-6.6-4.9-9.1c-1.3-2.5-2.1-4.2-2.1-4.2
			L33.5,353z"/>
		<path id="XMLID_34_" class="st0" d="M71.6,411.1c0,0,1.2,1.4,3.1,3.5c1.9,2.1,4.5,4.8,7.1,7.4c2.7,2.6,5.4,5.2,7.5,7.1
			c2.1,1.9,3.5,3.1,3.5,3.1l-0.6,0.7c0,0-1.4-1.2-3.5-3.1c-2.1-1.9-4.9-4.4-7.6-7c-2.7-2.6-5.3-5.3-7.3-7.3c-1.9-2-3.2-3.4-3.2-3.4
			L71.6,411.1z"/>
		<path id="XMLID_33_" class="st0" d="M125,455.8c0,0,1.6,1,4,2.4c2.4,1.4,5.7,3.2,9,5c3.3,1.7,6.7,3.4,9.2,4.6c2.5,1.2,4.3,2,4.3,2
			l-0.2,0.4c0,0-1.7-0.8-4.3-2c-2.6-1.2-5.9-2.8-9.3-4.6c-3.3-1.7-6.6-3.6-9-5c-2.4-1.4-4-2.4-4-2.4L125,455.8z"/>
	</g>
</g>
</svg>
