<?xml version="1.0" encoding="utf-8"?>
<!-- Generator: Adobe Illustrator 19.0.0, SVG Export Plug-In . SVG Version: 6.00 Build 0)  -->
<svg version="1.1" id="f3dab87e-8e17-45b3-a71d-8ebfb46e2440"
	 xmlns="http://www.w3.org/2000/svg" xmlns:xlink="http://www.w3.org/1999/xlink" x="0px" y="0px" viewBox="174 -13.6 959.2 818.6"
	 style="enable-background:new 174 -13.6 959.2 818.6;" xml:space="preserve">
<style type="text/css">
	.st0{opacity:0.1;fill:#FCC911;enable-background:new    ;}
	.st1{fill:url(#SVGID_1_);}
	.st2{fill:#67647E;}
	.st3{opacity:0.1;enable-background:new    ;}
	.st4{fill:#444053;}
	.st5{fill:#EFB7B9;}
	.st6{fill:#A36468;}
	.st7{fill:#E1E7EF;}
	.st8{fill:#B07473;}
	.st9{opacity:0.2;enable-background:new    ;}
	.st10{opacity:0.1;fill:#FFFFFF;enable-background:new    ;}
	.st11{fill:#585268;}
	.st12{opacity:0.1;}
	.st13{fill:#9D9CB5;}
	.st14{fill:#535461;}
	.st15{fill:#FCC911;}
</style>
<title>airport</title>
<path class="st0" d="M1095.2,720.9c-5.5,9.7-12.7,19-22.9,26.2c-12.3,8.7-27.7,13.5-44.1,15.7c-4.8,0.7-9.7,1.1-14.6,1.4
	c-13,0.7-26.2,0.2-39-0.8c-31.2-2.5-61.9-7.3-91.8-14.4c-4.9-1.2-9.8-2.4-14.6-3.7c-7.3-1.9-14.6-4-21.7-6.2
	c-29.2-8.9-59.5-20.3-90.6-16.8c-15.1,1.7-29.2,6.9-44.4,8.5c-10.6,1-21.4,0.5-31.7-1.6c-5-1-9.9-2.2-14.6-3.7
	c-10.7-3.4-20.9-7.6-30.4-12.6c-22.8-11.6-43.2-26.1-67.2-36.2c-26.5-11.1-55.7-16.4-85.6-20.4c-4.9-0.6-9.7-1.3-14.6-1.8
	c-13.8-1.7-27.6-3.2-41.3-5c-13.1-1.8-26.5-3.9-38-9.3c-8.2-3.8-15-9.1-21.3-14.6c-11.6-10.3-21.6-21.5-29.7-33.4
	c-0.4-0.6-0.9-1.3-1.3-1.9c-12.6-19-21.1-39.6-26.3-61c-0.2-0.6-0.3-1.3-0.4-1.9c-4.9-21-6.7-42.6-6.1-64.1l0.1-1.9
	c0.3-10.6,1.2-21.2,2.6-31.6c1-7.3,2.3-14.9,7.4-21.1c5.2-6.2,13.7-10.2,22.1-13.4c37.2-14.5,72.9-18.5,113-11.5
	c6.4,1.1,12.8,2.3,19.2,3.6c4.9,1,9.8,1.9,14.6,2.9c33.7,6.9,67.2,14.2,102,16.3c3.4,0.2,6.7,0.4,10.1,0.5c6.7,0.2,13.3,0.3,20,0.2
	c17.1-0.4,34.2-1.6,51.1-3.8c4.9-0.6,9.8-1.3,14.6-2.1c21-3.2,41.8-7.5,62.2-12.2c4.2-1,8.4-1.9,12.5-2.9c9.4-2.2,18.8-4.5,28.2-6.8
	c28.1-6.7,56.4-12.7,85.4-15.2c2.5-0.2,5-0.4,7.5-0.5c2.4-0.2,4.8-0.3,7.2-0.4c45.1-1.8,90.7,6.2,130.7,22.5c5,2,9.8,4.2,14.6,6.4
	c6.6,3.2,13.1,6.6,19.3,10.2c12.8,7.5,24.7,15.9,33.8,26.1c8.9,9.9,14.6,21.1,17.9,32.8c0.2,0.6,0.4,1.3,0.5,1.9
	c4.9,18.9,3.3,39.2-2.1,58.2c-0.6,2-1.2,4-1.8,6c-0.2,0.6-0.4,1.3-0.6,1.9c-5.9,17.9-13.4,35.8-11.4,54.1c0.2,2.3,0.6,4.6,1.2,6.9
	c0.1,0.6,0.3,1.3,0.5,1.9c3.8,15,12.6,29.1,17.8,43.9C1113.1,664.3,1110.3,694,1095.2,720.9z"/>
<path class="st0" d="M1028.3,463.3h71.5c-0.2-0.6-0.3-1.3-0.5-1.9h-71v-69.1c-4.8-2.3-9.7-4.4-14.6-6.4v75.6H883v-98
	c-2.4,0.1-4.8,0.2-7.2,0.4s-5,0.3-7.5,0.5v97.1H681.7l-0.4-0.4l101.7-81.6c-9.4,2.2-18.8,4.5-28.2,6.8l-74.8,60v-44.8
	c-4.9,0.8-9.7,1.4-14.6,2.1v44.9l-51.1-41c-6.7,0.1-13.3,0.1-20-0.2l67.2,53.9l-0.4,0.4H482.1v-71.1c-4.9-1-9.7-2-14.6-2.9v74.1
	H303.1l-0.1,1.9h164.5v64.1H309.2c0.1,0.6,0.3,1.3,0.4,1.9h157.9v61H336c0.4,0.6,0.8,1.3,1.3,1.9h130.3v62.4
	c4.9,0.6,9.8,1.2,14.6,1.8v-64.3h183.2v133.3c4.7,1.5,9.6,2.7,14.6,3.7v-137h188.4v153.1c4.9,1.3,9.7,2.5,14.6,3.7V592.3h130.7
	v171.9c4.9-0.3,9.8-0.7,14.6-1.4V592.3h57.2c-0.2-0.6-0.3-1.3-0.5-1.9h-56.8v-61h67c0.2-0.6,0.4-1.3,0.6-1.9h-67.6V463.3z
	 M1013.7,463.3v64.1H883v-64.1H1013.7z M868.3,527.5H680v-64.1h188.4V527.5z M482.1,463.3h180.6l2.6,1.7v62.4H482.1V463.3z
	 M482.1,590.4v-61h183.2v61H482.1z M680,590.4v-61h188.4v61H680z M1013.7,590.4H883v-61h130.7V590.4z"/>
<ellipse transform="matrix(-0.3127 -0.9499 0.9499 -0.3127 743.1618 1499.3817)" class="st0" cx="914.1" cy="480.8" rx="0.9" ry="0.5"/>
<ellipse transform="matrix(-0.3127 -0.9499 0.9499 -0.3127 749.8011 1501.4987)" class="st0" cx="918.2" cy="479.5" rx="0.9" ry="0.5"/>
<ellipse transform="matrix(-0.3127 -0.9499 0.9499 -0.3127 753.1312 1502.5598)" class="st0" cx="920.2" cy="478.8" rx="0.9" ry="0.5"/>
<ellipse transform="matrix(-0.3127 -0.9499 0.9499 -0.3127 756.3692 1503.5907)" class="st0" cx="922.2" cy="478.1" rx="0.9" ry="0.5"/>
<ellipse transform="matrix(-0.3127 -0.9499 0.9499 -0.3127 759.5521 1504.5985)" class="st0" cx="924.1" cy="477.5" rx="0.9" ry="0.5"/>
<ellipse transform="matrix(-0.3127 -0.9499 0.9499 -0.3127 763.1545 1505.7572)" class="st0" cx="926.4" cy="476.8" rx="0.9" ry="0.5"/>
<ellipse transform="matrix(-0.3127 -0.9499 0.9499 -0.3127 746.5904 1500.4698)" class="st0" cx="916.2" cy="480.1" rx="0.9" ry="0.5"/>
<rect x="905.9" y="481.8" transform="matrix(-0.9708 0.2397 -0.2397 -0.9708 1903.1945 735.4864)" class="st0" width="2" height="3.4"/>
<rect x="928.5" y="475.3" transform="matrix(-0.9708 0.2397 -0.2397 -0.9708 1946.2207 717.2943)" class="st0" width="2" height="3.4"/>
<polygon class="st0" points="939.8,470.9 937.3,471.6 938.6,473.5 942.3,472.6 "/>
<path class="st0" d="M948.3,470.8l-5.5,1.4l-2.1-1.3l1.4-0.8C944.2,469.9,946.3,470.1,948.3,470.8z"/>
<path class="st0" d="M953.1,372.7h-1c0.7-0.4,1.1-1.1,1.2-1.9l0,0c0-1.5-1.9-2.8-4.1-2.8h-29c-2.3,0-4.1,1.2-4.1,2.8l0,0
	c0,1.5,1.9,2.8,4.1,2.8h1c-0.7,0.4-1.1,1.1-1.2,1.9c0,1.3,1.4,2.4,3.2,2.7h-8.3c-2.3,0-4.1,1.2-4.1,2.8s1.9,2.8,4.1,2.8h29
	c2.3,0,4.1-1.2,4.1-2.8c0-1.3-1.4-2.4-3.2-2.7h8.3c2.3,0,4.1-1.2,4.1-2.8C957.2,373.9,955.3,372.7,953.1,372.7z"/>
<path class="st0" d="M997.5,511.4h-1c0.7-0.4,1.1-1.1,1.2-1.9l0,0c0-1.5-1.9-2.8-4.1-2.8h-29c-2.3,0-4.1,1.2-4.1,2.8l0,0
	c0,1.5,1.9,2.8,4.1,2.8h1c-0.7,0.4-1.1,1.1-1.2,1.9c0,1.3,1.4,2.4,3.2,2.7h-8.3c-2.3,0-4.1,1.2-4.1,2.8s1.9,2.8,4.1,2.8h29
	c2.3,0,4.1-1.2,4.1-2.8c0-1.3-1.4-2.4-3.2-2.7h8.3c2.3,0,4.1-1.2,4.1-2.8C1001.6,512.7,999.8,511.4,997.5,511.4z"/>
<ellipse class="st0" cx="939.8" cy="771.3" rx="182.1" ry="27.9"/>
<linearGradient id="SVGID_1_" gradientUnits="userSpaceOnUse" x1="1148.0504" y1="-42.1453" x2="1148.0504" y2="360.7455" gradientTransform="matrix(1 0 0 -1 -120.42 750.1)">
	<stop  offset="0" style="stop-color:#808080;stop-opacity:0.25"/>
	<stop  offset="0.54" style="stop-color:#808080;stop-opacity:0.12"/>
	<stop  offset="1" style="stop-color:#808080;stop-opacity:0.1"/>
</linearGradient>
<path class="st1" d="M1106,593.9l-1.3-3.7l0.5-0.5l-2.6-12.7c0.1-0.4,0.1-0.9,0.1-1.4c0.1-1.3-0.3-2.6-1.1-3.7l-0.5-2.5
	c0-0.2,0-0.4,0-0.6c1.1-14.8-5.3-32.7-5.3-32.7v-16.5l-4.9-32.3l0,0c0.1-16.1-6.2-21.8-6.2-21.8s-0.5-0.1-1.4-0.4
	c-1.7-3.5-4.5-8.9-9.2-17.7c-1.7-3.3-4-6.4-6.7-9c-3.6-3.7-8.2-6.2-13.2-7.3c0.4-0.5,0.9-0.9,1.4-1.3c1.1-0.9,2.4-1.6,3.4-2.6
	c1.4-1.3,2.4-3,3.1-4.8c1.1-2.6,1.4-5.5,0.8-8.3c-0.6-2.8-2.2-5.3-4.7-6.8c-0.7-0.4-1.4-0.8-2-1.3c-0.8-0.8-1.2-1.8-1.6-2.9
	c-1.4-3.5-3.5-6.6-6.2-9.2c-1.1-1.1-2.5-2.2-4.1-2.3c-1.6-0.1-3.2,0.7-4.7,1.4c-5.3,2.2-11.2,2-16.3-0.6c-2.5-1.3-4.8-3.1-7.6-3
	c-1.9,0.1-3.7,1-4.8,2.5c0.1-0.1,0.1-0.2,0.2-0.3c-1,1.1-1.7,2.5-1.9,4v0.2c0,4,1,8.5,4.3,11.3c-0.2,0.3-0.5,0.6-0.7,0.9
	c-4,5.4-5.3,12.4-3.7,18.9c-0.1,0.1-0.3,0.1-0.4,0.2l-3.2,2.1l-7.2,6.2l-3.2,2.2c3.4-2.5,8.2-6.5,7-7.4c-1.6-1.3-17.6,3.4-21.3,7.6
	c-1.6,1.8-3.6,5.3-5.4,8.6l-0.1-0.2c-0.2,0.2-0.3,0.4-0.5,0.7l-0.1-0.1c-0.7,1-1.9,2.7-3.2,4.7c-0.5,0.7-1,1.4-1.5,2.2
	c-5.1,5.7-14.8,17.2-16.3,22.7c0,0-9.6,15.6-7.3,23.3c2.3,7.7,11.6,9.2,18.3,6.8c4.8-1.7,16.7-7.4,23.1-10.6l-0.6,9.1
	c0,0-5.2,37.2-9.3,52.3c-0.7,2.6-1.4,4.6-2,5.5c-0.1,0.1-0.2,0.3-0.2,0.4c-4.1,7.9-10.4,52.2-10.4,52.2s-5.6,5.9,5.2,6.7
	c7.4,0.5,11.9,6.8,13.9,10.7v0.1c-0.2,5.9-0.3,11-0.2,14.2c0.4,9.7-0.7,22.1-1.4,28.7c-0.4,3.3-0.3,6.7,0.3,10
	c1.6,9.1,5,27.7,7.8,35.6c3.7,10.7,2,22.5,2,22.5s3.7,11.5,7.2,15.8c0.3,0.3,0.6,0.5,0.9,0.7c0,0.3-0.1,0.7-0.2,1
	c-0.6,3.3-1.8,7.1-4.6,10c-4.1,4.3-9.8,10.1-10.4,14.3c-0.3,2,0.5,3.7,3.2,4.7c8.4,3,19.2,0,19.2,0s7.3-2.6,7.3-5.3s3-2.6,3-2.6
	l4.8-3.4c0.1-1.7,0.1-3.5,0-5.2c-0.2-3.4-0.9-7.5-3.1-10.2c-0.6-0.8-1.1-1.7-1.5-2.6c-0.1-0.3-0.3-0.7-0.4-1.1
	c2-0.3,3.4-0.6,3.6-0.4c0.9,0.6,3.5-14.9-3.2-23.1s-3.5-15.5-3.5-15.5s-0.9-29.8-5.2-32.4c0,0,3.5-9,3.2-13.5s-1.7-13.5,0-15.5
	c0.8-0.9,4.2-7.3,7.5-13.6c0.2-0.4,0.4-0.7,0.6-1.1c2,0.1,4.3,0.2,6.6,0.2c0,0.4,0.1,0.7,0.1,1.1c0.5,5.6,1.8,11.8,4.6,16.3V691
	c0,0,2,8.2,3.7,11.5c1.7,3.4-5.4,26.7-5.4,26.7s-3.9,28.6,0,32.2c0.8,0.7,1.8,1.1,2.9,1.3c0.1,0.4,0.1,0.8,0.2,1.2
	c0.6,3.8,0.9,8,0.5,10.4c-0.5,3.1-0.5,6.2,0,9.3c0.1,0.5,0.1,0.7,0.1,0.7s-1.8,9.1,10.8,7.8c12.6-1.3,13.9-5.3,13.9-5.3s0-0.1,0-0.4
	c-0.1-0.9-0.2-1.8-0.4-2.7c-0.8-4-2.4-7.7-4.7-11c-1-1.4-1.6-3-1.7-4.7c0-1.1-0.1-2.3-0.1-3.6c0-0.4,0-0.7-0.1-1.1
	c0.9-0.1,1.4-0.1,1.4-0.1s4-7,3.7-20.5c-0.3-13.5,3.2-25.9,3.2-25.9s0.9-20.3,0-23.1c-0.9-2.8-1.8-18.7,0.4-20.9
	c1.5-1.5,3.5-20,4.6-31.1c0-0.4,0.1-0.7,0.1-1.1c2.8-0.1,4.6-0.1,4.6-0.1s0.3-8.3,0.6-19.6l1.2-0.5c-0.5,0.8,0,3.1,4.1,2
	c5.3-1.5,12.2-2.7,12.2-2.7s3.7-2.7,3.9-4.6c0.1-1,0.4-1.9,0.6-2.9c8.2-3.3,14.9-6,14.9-6S1111,601.9,1106,593.9z M1077.3,546.8
	l1,7.9l-2.8,0.9l-5.9,0.4c-1.6-14.9,1.1-39.9,1.1-39.9l0.5-0.3C1073.7,525.8,1077.3,546.8,1077.3,546.8z M1047.9,443.2
	c-0.1-0.3-0.2-0.6-0.4-0.9l0.6,0.9C1048,443.2,1048,443.2,1047.9,443.2z M1069.8,557.3l-0.1-0.8l1.9-0.4l3-0.3L1069.8,557.3z
	 M1009.2,447.7c-0.8,0.2-1.7,0.4-2.5,0.6l0.1-0.1l2.4-1.4C1009.2,447.1,1009.2,447.4,1009.2,447.7L1009.2,447.7z M982.1,468.4
	c-1.9,0.9-2.9,0.8-2.9,0.8l4.4-8.5c0.5-0.8,1-1.6,1.4-2.4c1.3-0.5,2.6-0.6,4-0.4c0,0,1.1-0.2,2.7-0.6c-0.4,0.5-0.7,1-1.1,1.5
	C990.7,458.8,984,467.5,982.1,468.4z M1073.1,620.2L1073.1,620.2l1.4-0.5C1073.9,620.1,1073.4,620.3,1073.1,620.2z"/>
<path class="st2" d="M1026.7,436c-1.8,1-1.8,5.5-1.6,9.1c0.2,2.6,0.6,4.8,0.6,4.8l-11.6,28.1c0,0-4.3-20-4.4-29
	c0-0.7,0.1-1.4,0.3-2.1C1012.1,440.5,1023.5,436.9,1026.7,436z"/>
<path class="st2" d="M1027.5,435.8c0,0-0.3,0.1-0.9,0.2C1026.9,435.8,1027.2,435.8,1027.5,435.8z"/>
<path class="st2" d="M1023.5,777.9l-4.7,3.4c0,0-2.9,0-2.9,2.6s-7.1,5.2-7.1,5.2s-10.5,3-18.6,0c-2.6-1-3.4-2.6-3.1-4.6
	c0.6-4.2,6.1-10,10.1-14.2c2.7-2.8,3.9-6.6,4.4-9.9c0.4-2.3,0.5-4.7,0.3-7.1l17-1.2c-1,2.6-1,5.4,0,8c0.4,0.9,0.9,1.8,1.5,2.6
	c2.1,2.6,2.8,6.8,3,10.1C1023.7,774.4,1023.7,776.1,1023.5,777.9z"/>
<path class="st2" d="M1058.6,785.6c0,0-1.3,3.9-13.5,5.2c-12.2,1.3-10.5-7.7-10.5-7.7s-0.1-0.3-0.1-0.7c-0.5-3.1-0.5-6.2,0-9.2
	c0.4-2.4,0.1-6.5-0.5-10.3c-0.6-4.5-1.5-8.5-1.5-8.5l18.9,1.4c0,0,0.3,3.8,0.5,7.7c0.1,1.2,0.1,2.4,0.1,3.5c0.1,1.7,0.7,3.3,1.6,4.7
	c2.2,3.3,3.8,7,4.5,10.9c0.2,0.9,0.3,1.8,0.3,2.7C1058.5,785.5,1058.6,785.6,1058.6,785.6z"/>
<path class="st2" d="M1023.5,777.9l-4.7,3.4c0,0-2.9,0-2.9,2.6s-7.1,5.2-7.1,5.2s-10.5,3-18.6,0c-2.6-1-3.4-2.6-3.1-4.6
	c0.3,0,0.5,0,0.7,0c3.3,0.1,6.5,1,9.8,1.3c1.9,0.1,3.8,0.2,5.7,0.1c0.9,0,1.9-0.1,2.8-0.2c2.2-0.4,4.3-1.6,6.3-2.7
	c0.5-0.2,0.9-0.6,1.3-1c0.3-0.5,0.5-1,0.6-1.5c0.7-2.5,2.7-4.5,4.9-5.9c1.4-0.8,2.8-1.4,4.3-1.9
	C1023.7,774.4,1023.7,776.1,1023.5,777.9z"/>
<path class="st2" d="M1058.6,785.6c0,0-1.3,3.9-13.5,5.2c-12.2,1.3-10.5-7.7-10.5-7.7s-0.1-0.3-0.1-0.7c0.6,0.3,1,0.6,1.3,0.7
	c1.1,0.7,2.1,1.6,3.3,2.2c2.8,1.5,6.2,1,9.3,0.6c1.5-0.2,3-0.4,4.4-0.7c1.1-0.2,2.2-0.5,3.2-1c0.8-0.4,1.5-0.9,2.2-1.5
	c0.2,0.9,0.3,1.8,0.3,2.7C1058.5,785.5,1058.6,785.6,1058.6,785.6z"/>
<path class="st3" d="M1023.5,777.9l-4.7,3.4c0,0-2.9,0-2.9,2.6s-7.1,5.2-7.1,5.2s-10.5,3-18.6,0c-2.6-1-3.4-2.6-3.1-4.6
	c0.3,0,0.5,0,0.7,0c3.3,0.1,6.5,1,9.8,1.3c1.9,0.1,3.8,0.2,5.7,0.1c0.9,0,1.9-0.1,2.8-0.2c2.2-0.4,4.3-1.6,6.3-2.7
	c0.5-0.2,0.9-0.6,1.3-1c0.3-0.5,0.5-1,0.6-1.5c0.7-2.5,2.7-4.5,4.9-5.9c1.4-0.8,2.8-1.4,4.3-1.9
	C1023.7,774.4,1023.7,776.1,1023.5,777.9z"/>
<path class="st3" d="M1058.6,785.6c0,0-1.3,3.9-13.5,5.2c-12.2,1.3-10.5-7.7-10.5-7.7s-0.1-0.3-0.1-0.7c0.6,0.3,1,0.6,1.3,0.7
	c1.1,0.7,2.1,1.6,3.3,2.2c2.8,1.5,6.2,1,9.3,0.6c1.5-0.2,3-0.4,4.4-0.7c1.1-0.2,2.2-0.5,3.2-1c0.8-0.4,1.5-0.9,2.2-1.5
	c0.2,0.9,0.3,1.8,0.3,2.7C1058.5,785.5,1058.6,785.6,1058.6,785.6z"/>
<path class="st3" d="M1019.1,752.1c-1,2.6-1,5.4,0,8c-4.9,0.8-14,2.5-17.4,0.3c0.4-2.3,0.5-4.7,0.3-7.1L1019.1,752.1z"/>
<path class="st3" d="M1051.9,763.4c-3.5,0.2-12.7,0.7-17.9-0.6c-0.6-4.5-1.5-8.5-1.5-8.5l18.9,1.4
	C1051.4,755.7,1051.7,759.6,1051.9,763.4z"/>
<path class="st4" d="M1065.5,633.2c0,0-0.3,3.5-0.8,8.4c-1,11.1-3,29.4-4.5,30.9c-2.1,2.2-1.2,18-0.4,20.8c0.8,2.8,0,22.9,0,22.9
	c-2.1,8.4-3.1,17-3.1,25.7c0.3,13.4-3.6,20.4-3.6,20.4s-18.4,1.7-22.3-1.9s0-31.9,0-31.9s6.9-23.2,5.2-26.5
	c-1.7-3.4-3.6-11.5-3.6-11.5v-28.2c-2.7-4.5-3.9-10.6-4.4-16.2c-0.4-4.8-0.4-9.5,0-14.3c0,0-3.5,7.1-7,14.1
	c-3.2,6.3-6.4,12.6-7.3,13.5c-1.7,2-0.3,10.9,0,15.4c0.3,4.5-3.1,13.4-3.1,13.4c4.2,2.5,5,32.1,5,32.1s-3.1,7.3,3.4,15.4
	c6.4,8.1,3.9,23.5,3.1,22.9c-0.8-0.6-17.9,4.2-21.2,0c-3.4-4.2-7-15.6-7-15.6s1.7-11.7-2-22.3c-2.7-7.9-6-26.3-7.5-35.3
	c-0.6-3.3-0.7-6.6-0.3-9.9c0.7-6.6,1.8-18.8,1.4-28.5c-0.1-3.2,0-8.2,0.2-14.1c0.7-20.2,2.9-50.5,2.9-50.5l15.2-10.2l10-6.8l2.4,0.4
	l45.6,7l1.8,22.5L1065.5,633.2z"/>
<path class="st3" d="M1003.9,572.1l-0.8,4.4c0,0-6.7,32.1-8.1,48.6s-7.3,11.7-7.3,11.7c-0.5-1.4-1.1-2.7-1.9-4
	c0.7-20.2,2.9-50.5,2.9-50.5L1003.9,572.1z"/>
<path class="st5" d="M1051.8,450.2c0,0-31.3,25-25.5,20c3.2-2.8,1-14.5-1.6-24.6c-2.1-8.3-4.6-15.4-4.6-15.4s27.3-25.5,25.3-4.7
	c-0.7,7.4-0.1,12.6,0.9,16.3C1048.3,448.6,1051.8,450.2,1051.8,450.2z"/>
<path class="st3" d="M1049.1,443.6l-19.8,15.5l-5.8-6.4c0,0-4.9-2.1-5.3,0.3c-0.4,2.4-1.8,17.3,1.1,18.7c2.9,1.4,6.6,2.3,9.9,1.9
	c3.3-0.5,6.9-4.1,9.3-5.5s11.4-8.7,11.4-8.7l4.5-6.2L1049.1,443.6z"/>
<path class="st6" d="M1049.1,444.1l-19.8,15.5l-5.8-6.4c0,0-4.9-2.1-5.3,0.3c-0.4,2.4-1.8,17.3,1.1,18.7c2.9,1.4,6.6,2.3,9.9,1.9
	c3.3-0.5,6.9-4.1,9.3-5.5c2.4-1.4,11.4-8.7,11.4-8.7l4.5-6.2L1049.1,444.1z"/>
<path class="st3" d="M1065.5,633.2c0,0-0.3,3.5-0.8,8.4c-6.1,0.2-18.1,1-26.4,3.2c-3.3,0.8-6.8,1.3-10.2,1.3
	c-0.4-4.8-0.4-9.5,0-14.3c0,0-3.5,7.1-7,14.1c-3-0.2-6-0.6-9-1.2l3.7-48.4c0,0-0.1-16.3,0.5-30.6l45.6,7l1.8,22.5L1065.5,633.2z"/>
<path class="st3" d="M1031.3,457.8c0,0,13.5-14.8,16.8-12.5c3.2,2.4,5.3,8.1,5.3,8.1l-11,12.1L1031.3,457.8z"/>
<path class="st6" d="M1031.8,457.2c0,0,13.5-14.8,16.8-12.5c3.2,2.4,5.3,8.1,5.3,8.1l-11,12.1L1031.8,457.2z"/>
<path class="st3" d="M1020.6,466.7l7.8-9.8c0,0-1.2-9.3-4.1-8.1c-2.9,1.2-3.7,5.9-3.7,5.9V466.7z"/>
<path class="st6" d="M1020,466l7.8-9.8c0,0-1.2-9.3-4.1-8.1c-2.9,1.2-3.7,5.9-3.7,5.9V466z"/>
<path class="st3" d="M1055.9,448.4c0,0-16,17.3-25.6,18.5c-0.9,0.1-1.7,0.3-2.6,0.4c-2.5,0.5-7.9,0-7.1-14.3l-1.2-2.5l-7.4,4.6
	l-2.5,20.5l-4.5,52.5l-6.6,58.5c0,0,20.3-2,26,3.2c5.7,5.1,7.3-27.9,7.3-27.9l15.5-67l16.6-43.1L1055.9,448.4z"/>
<path class="st3" d="M1063.7,453.8l-16.6,43.1l-15.5,67c0,0-1.6,33.1-7.3,27.9c-1.9-1.7-5.3-2.6-9-3.1c-4.6-0.5-9.3-0.6-13.9-0.3
	c-1.9,0.1-3,0.2-3,0.2l6.6-58.5l4.5-52.5l2.5-20.5l7.4-4.6l1.2,2.5c0,0.4,0,0.7-0.1,1.1c-0.5,13.2,4.7,13.7,7.1,13.2
	c0.9-0.2,1.7-0.3,2.6-0.4c6.8-0.8,16.8-9.8,22.1-14.9c2.2-2.1,3.5-3.6,3.5-3.6L1063.7,453.8z"/>
<path class="st7" d="M1063.7,452.2l-16.6,43.1l-15.5,67c0,0-1.6,33.1-7.3,27.9c-1.9-1.7-5.3-2.6-9-3.1c-4.6-0.5-9.3-0.6-13.9-0.3
	c-1.9,0.1-3,0.2-3,0.2l6.6-58.5l4.5-52.5l2.5-20.5l7.4-4.6l1.2,2.5c0,0.4,0,0.7-0.1,1.1c-0.5,13.2,4.7,13.7,7.1,13.2
	c0.9-0.2,1.7-0.3,2.6-0.4c6.8-0.8,16.8-9.8,22.1-14.9c2.2-2.1,3.5-3.6,3.5-3.6L1063.7,452.2z"/>
<path class="st3" d="M1020.6,453.6c0,0.4,0,0.7-0.1,1.1l-0.1,0.1c-2,1.3-5.1,23.2-5.1,23.2l-4.1,55.8l-7.5,41.6c0,0-1,4.7-2.3,11.5
	c-1.9,0.1-3,0.2-3,0.2l6.6-58.5l4.5-52.5l2.5-20.5l7.4-4.6L1020.6,453.6z"/>
<path class="st2" d="M1025.7,449.9c0,0-4.5,3.6-6.4,4.9c-2,1.3-5.1,23.2-5.1,23.2l-4.1,55.8l-7.5,41.6c0,0-6.7,32.1-8.1,48.6
	s-7.3,11.7-7.3,11.7s-4.4-12.8-14.8-13.6s-5-6.6-5-6.6s6.1-44,10.1-51.8c0.1-0.1,0.1-0.3,0.2-0.4c0.6-1,1.2-2.9,1.9-5.5
	c4-15,9.1-52,9.1-52l3.2-45.8c8.1-13.2,33.3-12.8,33.3-12.8L1025.7,449.9z"/>
<path class="st3" d="M1063.7,452.2l-16.6,43.1l-15.5,67c0,0-1.6,33.1-7.3,27.9c-1.9-1.7-5.3-2.6-9-3.1c0.1-11.4,0.4-31.8,2.1-40.3
	c1.4-7.8,2-15.8,1.8-23.7l20.3-44.2c0,0,15.3-18.8,15.4-21.5c0-1-1.1-2.8-2.4-4.8c2.2-2.1,3.5-3.6,3.5-3.6L1063.7,452.2z"/>
<path class="st2" d="M1012.6,643.6l3.7-48.4c0,0-0.3-36.1,2.1-48.3c1.4-7.8,2-15.8,1.8-23.7l20.3-44.2c0,0,15.3-18.8,15.4-21.5
	s-8-11.6-8-11.6s17.7,2.1,20,10s15.1,11,15.1,11s6.1,5.6,6.1,21.6c-0.1,16-19.6,28.6-19.6,28.6s-3.3,30.2-0.5,43.8
	c2.8,13.6,0.4,79.7,0.4,79.7s-18.7,0.2-30.4,3.3C1027.2,646.7,1012.6,643.6,1012.6,643.6z"/>
<path class="st8" d="M1040.2,566.8l14.3,54.3c0,0,2,4.8,12,1.1c10.1-3.7,39.3-15.8,39.3-15.8s2.6-4.3-2.2-12.2l-14.6-42.8
	L1040.2,566.8z"/>
<polygon class="st7" points="1058.8,590.8 1081.9,565.3 1096.8,559.3 1102.8,589.9 1074.7,620.5 "/>
<path class="st5" d="M1083.5,599.3c0,0-6.9,4.1-8.7,4.2c-1.8,0.1-8.2,12.2-5.5,12.2s9-3.4,8.4-1.7c-0.6,1.7-4.7,6.7-5.9,6.2
	c-1.2-0.5-1.7,3.7,3.4,2.2c5.1-1.5,11.9-2.7,11.9-2.7s3.6-2.7,3.8-4.5c0.1-1.9,3.3-11.8,3.3-11.8L1083.5,599.3z"/>
<path class="st5" d="M972.9,456.3c0,0,6-12.9,9.5-17.1s19.1-8.8,20.7-7.6s-7.8,8.3-9.5,9.2c-1.7,0.9,10.8,9.3,11.1,9.5
	c0.3,0.2,9.8-0.8,4.9,2.4s-19.3,6.5-19.3,6.5c-2-0.3-4,0.1-5.6,1.3C981.8,462.5,972.9,456.3,972.9,456.3z"/>
<path class="st3" d="M1097,599.9c-0.8,2.6-1.8,5.1-3.2,7.5c-1.4-1.3-14.7-5.7-14.7-5.7l1.5-2.3l2.4-3.7c0,0,11.9-2.6,13.9,0
	C1097.6,596.6,1097.4,598.2,1097,599.9z"/>
<path class="st6" d="M1097.5,599.4c-0.8,2.6-1.8,5.1-3.2,7.5c-1.4-1.3-14.7-5.7-14.7-5.7l1.5-2.3l2.4-3.7c0,0,11.9-2.6,13.9,0
	C1098.1,596,1098,597.6,1097.5,599.4z"/>
<path class="st3" d="M986.5,459.2c-0.4,1-0.9,1.9-1.5,2.8c-2.2,3.4-5.4,7.4-5.4,7.4s-12.7-5.8-12.7-6.1s3.9-6.3,7-11.1
	c1.3-1.9,2.4-3.6,3.1-4.6c0,0,4.7,9.9,9.4,10C987.7,457.5,987,458,986.5,459.2z"/>
<path class="st6" d="M985.9,459.8c-0.4,1-0.9,1.9-1.5,2.8c-2.2,3.4-5.4,7.4-5.4,7.4s-12.7-5.8-12.7-6.1c0-0.3,3.9-6.3,7-11.1
	c1.3-1.9,2.4-3.6,3.1-4.6c0,0,4.7,9.9,9.4,10C987.1,458,986.4,458.5,985.9,459.8z"/>
<polygon class="st8" points="1057.6,562.2 1055.9,557.3 1078.8,555.7 1070.3,556.6 1059.4,559 1060.2,562.2 "/>
<path class="st3" d="M1097.5,599.4c-2.5-1.2-9.3-3.7-16.4-0.5l2.4-3.7c0,0,11.9-2.6,13.9,0C1098.1,596,1098,597.6,1097.5,599.4z"/>
<path class="st2" d="M1098.9,569.2c-0.1,0.8-0.1,1.6-0.2,2.4c-0.1,2.5-0.2,4.9-0.3,7.3c-0.3,10.9,0.2,19.9,0.2,19.9
	s-8.7-5.2-17.9-0.8l-0.9-17.7V580l-0.9-7.7l-3.1-25c0,0-5.8-34.6-7.5-35.9c-1.8-1.3,13.1-29.3,13.1-29.3l7.6,6.2l4.7,32v16.4
	C1093.7,536.7,1099.9,554.5,1098.9,569.2z"/>
<path class="st3" d="M986.2,459l-1.8,3.5c-2.2,3.4-5.4,7.4-5.4,7.4s-12.7-5.8-12.7-6.1c0-0.3,3.9-6.3,7-11.1c1-1.1,1.6-1.7,1.6-1.7
	C971.1,460.2,986.2,459,986.2,459z"/>
<path class="st2" d="M997,457.4l-5.2,2.6c0,0-6.4,8.7-8.3,9.6c-1.9,0.9-2.8,0.8-2.8,0.8l5.5-10.9c0,0-15.1,1.2-11.4-8
	c0,0-16.9,18.4-18.7,25.9c0,0-9.3,15.5-7.1,23.1c2.2,7.6,11.3,9.1,17.8,6.8c6.5-2.3,26.5-12.6,26.5-12.6L997,457.4z"/>
<path class="st3" d="M978.3,475.5c0,0-14.1,15.7-12.9,17.9C966.5,495.6,977.5,478.7,978.3,475.5z"/>
<path class="st9" d="M1041.7,433.2c0,0,19.8-6,31,15.5s11.5,23,11,24s-22.3-4.7-23.5-2.1s12.3,12.8,12.3,12.8l-52.3,39.7l22-46.7
	c1.5-3.3,3.4-6.3,5.8-9c3.6-4,8.6-10.2,6.8-12.2c-1.5-1.7-4-6.1-7.3-11.1C1045,440.5,1041.2,436.3,1041.7,433.2z"/>
<path class="st2" d="M1041.2,432.6c0,0,19.8-6,31,15.5c11.2,21.5,11.5,23,11,24c-0.6,1-22.3-4.7-23.5-2.1s12.3,12.8,12.3,12.8
	l-51.8,40.2l21.4-47.3c1.5-3.3,3.4-6.3,5.8-9c3.6-4,8.6-10.2,6.8-12.2c-1.5-1.7-4-6.1-7.3-11.1
	C1044.5,439.9,1040.6,435.8,1041.2,432.6z"/>
<path class="st3" d="M1041.2,432.6c0,0,19.8-6,31,15.5c11.2,21.5,11.5,23,11,24c-0.6,1-22.3-4.7-23.5-2.1s12.3,12.8,12.3,12.8
	l-51.8,40.2l22.5-49.6c0.9-1.9,2-3.7,3.5-5.2c3.5-3.8,10.1-11.4,8.1-13.6c-1.5-1.7-4-6.1-7.3-11.1
	C1044.5,439.9,1040.6,435.8,1041.2,432.6z"/>
<circle class="st4" cx="1045.2" cy="527.1" r="4.1"/>
<circle class="st4" cx="1045.2" cy="552.5" r="4.1"/>
<path class="st2" d="M1098.4,578.9c-2.4,0.6-13.5,0.3-18.6,1.4V580l-0.9-7.7c5.7-0.7,18.2-2.1,19.9-0.6
	C1100.9,573.5,1101.2,578.3,1098.4,578.9z"/>
<path class="st3" d="M1098.4,579.5c-2.4,0.6-13.5,0.3-18.6,1.4v-0.3l-0.9-7.7c5.7-0.7,18.2-2.1,19.9-0.6
	C1100.9,574,1101.2,578.8,1098.4,579.5z"/>
<path class="st3" d="M1098.4,578.9c-2.4,0.6-13.5,0.3-18.6,1.4V580l-0.9-7.7c5.7-0.7,18.2-2.1,19.9-0.6
	C1100.9,573.5,1101.2,578.3,1098.4,578.9z"/>
<circle class="st4" cx="1096" cy="575.2" r="2.5"/>
<path class="st10" d="M1049.3,585l10.4,35.6c0,0,2.8,1.3,2.8-1S1049.3,585,1049.3,585z"/>
<path class="st3" d="M1045.3,440.1c-0.7,0.5-1.3,1-2.1,1.5c-3.5,2.2-6.7,5.3-11.2,5.3c-2.5,0-5-0.4-7.4-1.2
	c-2.1-8.3-4.6-15.4-4.6-15.4s27.3-25.5,25.3-4.7C1044.7,432.9,1044.3,436.4,1045.3,440.1z"/>
<path class="st5" d="M1055,422.8c0,12.7-10.3,22.9-22.9,22.9c-12.7,0-22.9-10.3-22.9-22.9s10.3-22.9,22.9-22.9l0,0
	c12.6-0.1,22.9,10.1,22.9,22.7C1055,422.6,1055,422.7,1055,422.8z"/>
<path class="st7" d="M1019,442c-0.2,0.5-0.6,1-1.1,1.3l-3.6,2.2l-6.8,4.1l-10.8,6.5c-0.3,0.1-0.5,0.3-0.8,0.4
	c-2.6,1.3-5.6,1.3-8.2,0.1c-2-0.9-3.4-2.7-3.8-4.8c-0.6-2.9,0.5-6,2.9-7.8c0.1-0.1,0.1-0.1,0.2-0.1c2.3-0.6,4.5-1.7,6.4-3.1l6.8-4.7
	l6.1-5.5l3.1-2.1c0.9-0.6,2.1-0.7,3.1-0.1C1015.6,430.2,1021.8,434.9,1019,442z"/>
<path class="st6" d="M1014.3,445.4l-6.8,4.1c-1.4-5.7-5-9.8-8.2-12.8l6.9-6.1C1011.6,433.2,1013.7,442,1014.3,445.4z"/>
<path class="st3" d="M996,456.6c-2.6,1.3-5.6,1.3-8.2,0.1c-2-0.9-3.4-2.7-3.8-4.8c-0.6-2.9,0.5-6,2.9-7.8c1.7,0.7,3.3,1.7,4.6,2.9
	c1.9,1.7,3.3,3.9,4,6.3C995.8,454.4,996,455.5,996,456.6z"/>
<path class="st3" d="M1055,422.8c0,3.3-0.7,6.6-2.1,9.7c-1.4,1.4-2.4,3.1-3.1,4.9c-1.6,1.9-2.2,3-4.2,4.3c-0.8-0.9-2.7-1.4-3-2.5
	c-0.9-2.9-0.4-6-0.3-9.1c0-1.4-0.2-2.9-1.4-3.6c-1-0.6-2.2-0.2-3.2,0.4c-1,0.5-1.9,1.3-3.1,1.4c-1.7,0.2-3.2-1-4.1-2.4
	c-0.9-1.4-1.5-3-2.4-4.4c-1.2-1.9-2.9-3.3-4.6-4.7c-1.9-1.6-3.8-3.4-5.9-4.8c-1.2-0.9-2.7-1.3-3.9-2.1l-0.2-0.1
	c7.3-10.3,21.6-12.8,32-5.5C1051.4,408.4,1055,415.3,1055,422.8L1055,422.8z"/>
<path class="st11" d="M1009.8,397.4c0.5-3.2,3.1-6.2,6.4-6.3c2.7,0,5,1.8,7.4,3c4.9,2.5,10.7,2.7,15.8,0.6c1.5-0.6,2.9-1.5,4.5-1.4
	c1.6,0.1,2.9,1.2,4,2.2c2.6,2.6,4.7,5.7,6,9.1c0.4,1,0.8,2.1,1.5,2.8c0.6,0.5,1.2,0.9,1.9,1.3c2.4,1.6,4,4,4.5,6.8
	c0.5,2.8,0.2,5.6-0.8,8.2c-0.6,1.8-1.6,3.4-3,4.8c-1,1-2.2,1.7-3.3,2.6c-3.5,3-5.2,7.6-4.5,12.2c-3,0.7-5.8-2-6.7-4.9
	c-0.9-2.9-0.4-6-0.3-9.1c0-1.4-0.2-2.9-1.4-3.6c-1-0.6-2.2-0.2-3.2,0.4c-1,0.5-1.9,1.3-3.1,1.4c-1.7,0.2-3.2-1-4.1-2.4
	c-0.9-1.4-1.5-3-2.4-4.4c-1.2-1.9-2.9-3.3-4.6-4.7c-1.9-1.6-3.8-3.4-5.9-4.8c-1.2-0.9-2.7-1.3-4-2.1
	C1010.9,406.5,1009.8,401.7,1009.8,397.4z"/>
<path class="st3" d="M1027.5,435.8c0,0-0.3,0.1-0.9,0.2C1026.9,435.8,1027.2,435.8,1027.5,435.8z"/>
<g class="st12">
	<path d="M1044.7,436.7c-0.9-2.9-0.4-6-0.3-9.1c0-1.4-0.2-2.9-1.4-3.6c-1-0.6-2.2-0.2-3.2,0.4s-1.9,1.3-3.1,1.4
		c-1.7,0.2-3.2-1-4.1-2.4c-0.9-1.4-1.5-3-2.4-4.4c-1.2-1.9-2.9-3.3-4.6-4.7c-1.9-1.6-3.8-3.4-5.9-4.8c-1.2-0.9-2.7-1.3-4-2.1
		c-3.7-2.6-4.8-7.5-4.8-11.7c0.1-0.8,0.4-1.6,0.7-2.3c-1,1.1-1.6,2.5-1.9,4c0,4.2,1.1,9,4.8,11.7c1.2,0.9,2.7,1.3,4,2.1
		c2.1,1.4,4,3.2,5.9,4.8c1.7,1.4,3.4,2.8,4.6,4.7c0.9,1.4,1.4,3,2.4,4.4c0.9,1.4,2.5,2.6,4.1,2.4c1.1-0.1,2.1-0.8,3.1-1.4
		c1-0.5,2.2-0.9,3.2-0.4c1.2,0.6,1.4,2.2,1.4,3.6c0,3-0.6,6.1,0.3,9.1s3.7,5.6,6.7,4.9c-0.1-0.5-0.2-1.1-0.2-1.6
		C1047.6,441.5,1045.5,439.2,1044.7,436.7z"/>
	<path d="M1059.2,426.8c-1,1-2.2,1.7-3.3,2.6c-1.2,1-2.2,2.2-2.9,3.5c0.5-0.7,1.1-1.3,1.8-1.8c1.1-0.9,2.3-1.6,3.3-2.6
		c0.8-0.8,1.5-1.7,2-2.7C1059.8,426.1,1059.5,426.5,1059.2,426.8z"/>
</g>
<path class="st3" d="M1028.3,626.2c-0.4,1.2-1,2.4-1.1,3.7c-0.1,2.2,1.2,4.2,1.3,6.4c0.1,2.5-1.4,4.8-2.9,6.9c1.7,0,3.7-0.6,4.5-2.1
	c0.3-0.6,0.5-1.2,0.7-1.8c1.6-6.3,3.1-13.2,0.4-19.1c-0.4-1-1-1.9-1.8-2.7C1028.9,620.3,1029.3,623.3,1028.3,626.2z"/>
<path class="st3" d="M984.6,581.7l-4.6-6.3c-1.1-1.5-2.3-3.1-2.7-4.9c-0.4-2,0.1-4.1,0.1-6.1c0-0.2,0-0.5,0-0.7
	c0.1-0.1,0.1-0.3,0.2-0.4c0.6-1,1.2-2.9,1.9-5.5c0.7,0.7,1.2,1.5,1.5,2.4c2.2,5.3,0.2,11.5,1.9,16.9
	C983.6,578.6,984.4,580,984.6,581.7z"/>
<path class="st3" d="M996.4,771.3c4.6,3.3,10.5,4.5,16.1,3.2"/>
<path class="st3" d="M1034.9,772.2c4.7,4.4,12.2,4.2,16.6-0.5c0.2-0.2,0.3-0.4,0.5-0.6"/>
<path class="st3" d="M1010.4,688c-4.6,1.1-9.3-1-11.6-5.1"/>
<path class="st3" d="M1036.9,702.1c3.5,0.3,7.1-0.7,10-2.7"/>
<path class="st3" d="M1018.8,735.8c-3,1.2-5.6,3.1-8.5,4.5c-2.9,1.4-6.3,2.3-9.3,1.3"/>
<rect x="961.1" y="570.6" class="st13" width="3.5" height="106.6"/>
<rect x="971.9" y="570.6" class="st13" width="3.5" height="106.6"/>
<circle class="st14" cx="953.3" cy="780.9" r="6"/>
<path class="st15" d="M932.2,672.2c0,0,6-4.8,11.2-3.2c5.2,1.7,18.8,3.4,21.2,11.9c2.4,8.6,0,102.6,0,102.6s-11.6,3-14.7,1.5
	s-2.8-15.6-2.8-15.6l-0.9-83.4L932.2,672.2z"/>
<path class="st3" d="M932.2,672.2c0,0,6-4.8,11.2-3.2c5.2,1.7,18.8,3.4,21.2,11.9c2.4,8.6,0,102.6,0,102.6s-11.6,3-14.7,1.5
	s-2.8-15.6-2.8-15.6l-0.9-83.4L932.2,672.2z"/>
<path class="st15" d="M986.4,778.8l-25.1,5.6l-0.3-4.5l-0.2-87.7c0-8.3-3.9-16.1-10.5-21.2l0,0c0,0,13-0.2,22.9,4.3
	c2.1,1,4.3,1.9,6.4,2.7c2.7,1,6.4,3.1,6.6,7.3c0.3,5.5,1.4,59.7,1.7,79.5C988.2,769.5,987.6,774.2,986.4,778.8z"/>
<rect x="959.4" y="562.6" class="st14" width="5.8" height="9.1"/>
<rect x="959.4" y="562.6" class="st3" width="5.8" height="9.1"/>
<rect x="970.4" y="564.1" class="st14" width="5.8" height="9.1"/>
<path class="st14" d="M976.2,564.1h-5.8c-2.2,0.1-4.2,1.4-5.1,3.4c-0.1,0.2-0.2,0.4-0.2,0.6l-1.3-1.2l-2.7-2.6l-1.6-1.6
	C959.4,562.6,970.2,557.2,976.2,564.1z"/>
<circle class="st14" cx="978.7" cy="785.1" r="6"/>
<circle class="st14" cx="917.1" cy="776.9" r="6"/>
<path class="st15" d="M928.3,671c0,0-16.9,4.5-17.9,47.1c-0.9,42.6-1.1,47.1-1.1,47.1s0.4,12.3,25.3,19.9h15.3l2.4-98
	C952.3,687.2,949.5,672.2,928.3,671z"/>
<path class="st3" d="M926.8,737c0,0-4.3-59.6,19.1-59.9l2.2,2.1C948,679.3,927.5,671.9,926.8,737z"/>
<circle class="st14" cx="937.3" cy="790.3" r="6"/>
<path class="st3" d="M970.4,564.1C970.4,564.1,970.4,564.1,970.4,564.1L970.4,564.1c-2.3,0.1-4.3,1.4-5.2,3.4
	c-0.1,0.2-0.2,0.4-0.2,0.6l-1.3-1.2c0-0.1,0-0.2,0-0.3c0.1-0.9,0.6-1.7,1.3-2.2c1.4-1.1,3.2-1.5,4.9-0.9
	C970.2,563.5,970.5,563.7,970.4,564.1z"/>
</svg>
